<?xml version="1.0" encoding="UTF-8" standalone="no"?>
<svg xmlns="http://www.w3.org/2000/svg" height="435px" width="307px" version="1.1" xmlns:xlink="http://www.w3.org/1999/xlink" viewBox="0 0 307 435"><!-- Generator: Sketch 56.3 (81716) - https://sketch.com -->
 <title>hero-woman-left</title>
 <desc>Created with Sketch.</desc>
 <g id="Page-1" fill-rule="evenodd" fill="none">
  <g id="Landing_v0.52_Final" transform="translate(-104 -668)">
   <g id="HERO" transform="translate(-526)">
    <g id="photo">
     <g id="hero-woman-left" transform="translate(631 670)">
      <g id="hero-woman-left_v0">
       <path id="Path" fill-rule="nonzero" fill="#1E0F05" d="m172.11 19.818c-8.8-4.377-20.41-4.49-27.63 2.171-7.09 6.534-8.08 17.348-7.14 26.941 0.37 3.735 0.94 7.556 0.03 11.195-1.64 6.552-7.73 11.009-13.87 13.819-6.14 2.811-12.85 4.612-18.27 8.635-7.803 5.935-11.806 15.609-10.482 25.321 2.482 16.63 21.362 26.59 37.142 24.65 7.44-0.82 14.76-2.46 21.84-4.89 4.65-1.62 8.38-2.26 10.02-6.77 1.38-3.79 2.57-4.25 5.83-6.57 2.52-1.79 5.23-2.66 8.14-4.25 2.13-1.17 8.1 0.08 8.31-3.03 3.98-2.2 7.99-4.51 11.1-7.827 3.11-3.318 5.24-7.844 4.66-12.355-0.5-3.938-2.98-7.369-5.87-10.093-2.88-2.724-6.24-4.913-9.2-7.56-0.99-0.784-1.78-1.794-2.31-2.945-0.39-1.247-0.44-2.576-0.14-3.848 1.49-8.345 8.13-14.738 11.61-22.471 1.22-2.715 2.05-5.713 1.62-8.656-0.7-4.642-4.5-8.34-8.8-10.217-6.17-2.73-13-3.63-19.67-2.595"/>
       <path id="Path" fill-rule="nonzero" fill="#000" d="m153.96 46.523c-2.59-0.26-4.97 2.18-5.84 4.475-1.61 4.242 1.32 8.156 2.49 12.097 0.99 3.365 1.67 8.163 0.2 11.492-1.42 3.207-4.81 6.012-7.12 8.598-2.04 2.292-4.89 5.783-4.2 9.189 0.92 4.603 7.98 7.866 11.99 8.566 8.16 1.42 13.99-0.976 21.14-4.111 5.06-2.216 12.16-1.468 11.66-8.512-0.41-5.745-5.02-9.437-5.1-15.084-0.06-3.985 1.83-7.526 2.21-11.504 0.8-8.618-4.37-9.424-11.55-11.181 0.48-0.047 0.95-0.161 1.4-0.341"/>
       <path id="Path" opacity=".2" fill-rule="nonzero" fill="#282F4D" d="m189.22 411.52c-5.99 0.5-80.96-5.79-77.38 10.51-2.85-0.71-5.16-4.19-8.12-5.38-2.51-0.96-5.204-1.41-7.9-1.3-0.703 3.27 4.07 4.3 5.87 6.51 2.87 3.45 6.16 6.52 9.79 9.15 3.05 2 13.71 1.03 17.43 0.21 3.51-0.77 2.83-4.25 5.31-6.37 6.55-5.63 19.34-3.21 27.72-3.19 6.91 0.02 48.14-0.42 43.44-6.81-22.27-2.41-27.49-2.38-16.16-3.33z"/>
       <path id="Path" fill-rule="nonzero" fill="#F9AA90" d="m105.05 400.8c0.72 4.06 3.4 7.12 6.09 10.12 2.79 3.1 5.61 6.27 8.63 9.15 0.41 0.39 1.47-0.23 0.95-0.73-2.95-2.81-5.73-5.94-8.45-8.97-2.62-2.91-5.29-5.95-5.99-9.9-0.1-0.59-1.34-0.28-1.23 0.33z"/>
       <path id="Path" fill-rule="nonzero" fill="#F9AA90" d="m107.09 397.72c0 2.57-0.6 5.08 0.25 7.52 3.76 3.96 7.59 8.57 6.64 11.05-0.71 1.83-5.68 2.12-6.59 2.08-0.96-0.05-9.385-8.47-10.147-11.58-0.259-2.3 2.072-7.6 1.487-13.07"/>
       <path id="Path" fill-rule="nonzero" fill="#F9AA90" d="m180.83 397.72c0 2.57-0.61 5.08 0.24 7.52-2.13 0.17-4.63 1.06-6.77 0.95-0.96-0.04-2.08 1.8-2.84-1.32-0.26-2.29 0.8-4.62 0.69-8.34"/>
       <path id="Path" fill-rule="nonzero" fill="#12172A" d="m169.07 410.77c0.19-1.24 0.74-2.66 0.99-3.89 0.24-1.19 0.01-2.64 0.45-3.75 1.38-0.21 2.35 0.51 3.51 1.04 1.63 0.71 3.45 0.88 5.18 0.48 1.92-0.5 2.79-2.34 4.91-2.08 1.85 0.22 2.14 1.87 3.45 2.82 2.65 1.93 9.32 2.6 10.73 2.99 9.35 2.66 8.18 7.86 6.05 8.07-7.22 1.92-14.98-1.7-31.94-1.38-1.48-0.31-3 0.14-3.33-1.33-0.14-0.98-0.14-1.98 0-2.97z"/>
       <path id="Path" fill-rule="nonzero" fill="#F9AA90" d="m72.457 175.49c-0.373 1.9-1.021 3.73-1.924 5.44-1.479 2.33-5.022 1.46-6.137 4.29-0.546 1.39-0.954 4.73 0.052 6 1.159 1.48 4.019-0.31 5.863-0.33 0.006 0.45 1.593 6.13 2.276 5.89 0.684-0.24 0.847-5.05 2.848-9.42 2-4.38 5.206-11.07 5.206-11.07"/>
       <path id="Path" d="m95.802 213.56l-31.915 51.04c-1.118 1.79-3.475 2.34-5.265 1.22h-0.002l-56.157-35.11c-1.7897-1.12-2.334-3.48-1.2157-5.27h0.0007l31.915-51.05c1.119-1.79 3.478-2.33 5.27-1.22l56.158 35.11c1.789 1.13 2.332 3.49 1.211 5.28z" fill-rule="nonzero" stroke="#E1E2E8" stroke-width="1.7" fill="#fff"/>
       <path id="Path" opacity=".2" stroke-linejoin="round" d="m95.802 213.56l-31.915 51.04c-1.118 1.79-3.475 2.34-5.265 1.22h-0.002l-56.157-35.11c-1.7897-1.12-2.334-3.48-1.2157-5.27h0.0007l31.915-51.05c1.119-1.79 3.478-2.33 5.27-1.22l56.158 35.11c1.789 1.13 2.332 3.49 1.211 5.28v0z" stroke="#446FC2" stroke-linecap="round" stroke-width="1.4379"/>
       <path id="Path" opacity=".15" fill-rule="nonzero" fill="#226EDC" d="m48.258 220.78l-1.961-25.23c13.145-1.02 24.871 8.22 26.946 21.24 2.076 13.02-6.196 25.45-19.008 28.57-12.811 3.11-25.867-4.13-30.002-16.65-4.134-12.52 2.039-26.12 14.186-31.24l9.839 23.31z"/>
       <path id="Path" fill-rule="nonzero" fill="#1165E7" d="m48.258 220.78l24.929 4.31c-1.653 9.55-8.609 17.31-17.915 19.99-9.306 2.69-19.327-0.17-25.811-7.37l18.797-16.93z"/>
       <path id="Path" fill-rule="nonzero" fill="#F97E7B" d="m48.258 220.78l24.291-7.08c1.156 3.97 1.322 8.16 0.485 12.2l-24.776-5.12z"/>
       <path id="Path" fill-rule="nonzero" fill="#FBB72B" d="m48.258 220.78l-1.961-25.23c11.933-0.93 22.883 6.63 26.244 18.12l-24.283 7.11z"/>
       <path id="Path" fill-rule="nonzero" fill="#F9AA90" d="m269.03 44.476l8.53-9.125c0.52-0.741 1.39-1.152 2.29-1.079 2.75-0.1 4.5-4.307 7.15-4.147 1.76 0.107-0.55 9.7 1.28 9.634-5.67 4.979-8.06 2.07-12.7 8.167-0.88 0.006-1.76-0.119-2.6-0.372"/>
       <path id="Path" stroke-linejoin="round" d="m301.89 25.802l-29.32 2.522-3.19-8.595 23.06-18.977c0.56-0.46019 1.31-0.62162 2.01-0.43301 0.7 0.1886 1.26 0.70391 1.52 1.3833l7.83 21.087c0.24 0.656 0.17 1.388-0.21 1.979-0.37 0.591-1 0.974-1.7 1.034v0z" stroke="#01183B" stroke-linecap="round" stroke-width="3.4"/>
       <path id="Path" stroke-linejoin="round" d="m262.3 22.358l3.29 8.848" stroke="#01183B" stroke-linecap="round" stroke-width="3.4"/>
       <path id="Path" stroke-linejoin="round" d="m281.95 28.006l0.46 11.021" stroke="#01183B" stroke-linecap="round" stroke-width="3.4"/>
       <path id="Path" fill-rule="nonzero" fill="#F9AA90" d="m275.89 39.102c2.55-2.966 5.18-4.76 7.73-7.726 0.23-0.266 0.28-1.987-0.07-2.019-3.29 2.043-5.63 2.78-8.91 4.823 0 0-4.58 9.921-6.97 11.568"/>
       <path id="Path" fill-rule="nonzero" fill="#F9AA90" d="m70.053 190.89c-0.369 1.43-3.033 6.35-2.747 8.92-2.275-0.6-6.895-4.53-8.184-6.35-1.698-2.39 0.401-6.18 1.431-8.64 2.632-1.55 9.157-4.18 10.359-6.3l2.504 0.84"/>
       <path id="Path" fill-rule="nonzero" fill="#292F4D" d="m118.9 302.59c-5.77 8.97-10.54 18.54-14.22 28.55-4.983 14.16-7.366 68.21-7.366 68.21s8.076 3.47 10.446 0.05c5.74-30.6 33.61-87.11 33.61-87.11s15.26-50.22 23.27-73.57l-8.24-15.8"/>
       <path id="Path" opacity=".4" fill-rule="nonzero" fill="#01183B" d="m120.39 359.35c-0.04-1.04-0.85-1.89-1.89-1.97-2.06-0.23-4.53 3.26-5.48 4.76-3.69 5.84-5.66 12.6-5.67 19.51-0.09 6.32-1.32 12.56-0.59 18.88 2.96-10.73 11.86-34.43 13.63-41.18z"/>
       <path id="Path" fill-rule="nonzero" fill="#292F4D" d="m193.64 180.58c1.28 36.12 3.9 92.87 4.25 132.35-21.96 2.66-24.44 0-24.44 0s-9.95-57.9-13.62-81.25c-0.3-12.66 2.08-48.39 3.15-48.39 1.06 0 26.57-5.69 26.57-5.69"/>
       <path id="Path" fill-rule="nonzero" fill="#292F4D" d="m197.89 312.93s-13.76 70.9-16.28 87.76c-1.93 1.89-9.04 1.45-10.77-0.56 0.74-6.27-0.5-5.39-0.85-33.86-0.36-28.48-1.7-29.18 3.46-53.34 8.15-3.04 24.44 0 24.44 0z"/>
       <path id="Path" fill-rule="nonzero" fill="#292F4D" d="m167.05 228.42c-4.73 11.24-18.7 38.09-27.91 78.33-10.27-0.38-17.28 1.94-20.81-3.36 8.07-23.86 3.85-58.03 8.65-79.32 4.81-22.21 17.75-47.39 17.75-47.39l32.77 6.61-8.5 32.27"/>
       <path id="Path" opacity=".3" fill-rule="nonzero" fill="#01183B" d="m136.98 192.16c-1.77 4.68-1.24 6.01-2.55 8.57-2.67 5.22-4.75 12.82-5.67 16.36 1.68-2.64 4.82-3.68 6.85-5.91 2.15-2.37 2.05-5.79 4.77-8.03 2.36-1.94 6.93-3.19 9.82-4.27 4-1.5 8.6-1.41 12.78-0.96 7.93 0.85 15.26 2.69 23.28 2.1 5.74-0.43 8.07-1.06 10.2-2.34 0.21-2.97-0.82-7.06-0.55-9.21 0.71-5.66 1.61-11.31 2.1-17 1.09-12.77 1.79-25.59 2.58-38.38"/>
       <path id="Path" fill-rule="nonzero" fill="#F9AA90" d="m176.57 67.774c-0.94 5.532-0.49 11.212 1.32 16.525 0 0 0.83 13.292-5.69 12.949-8.59 0.572-17.02-14.371-17.02-14.371 3.53-3.036 4.63-7.973 5-12.613 0.53-5.364 0.24-10.777-0.86-16.053"/>
       <path id="Path" fill-rule="nonzero" fill="#E96C52" d="m160.9 57.477s1.11 15.855 15.26 15.654c0.1-3.211 0.05-6.924 0.05-6.924l-15.31-8.73z"/>
       <path id="Path" fill-rule="nonzero" fill="#F9AA90" d="m162.61 61.039c1.99 2.958 5.98 8.052 13.53 8.738 21.47-0.686 13.05-39.059 13.05-39.059s-9.49-9.885-16.18-1.456c-3.11 3.922-6.11 8.308-8.8 11.93-3.09 4.163-5.12 4.509-7.12 4.795-1.34 2.007 2.61 10.737 5.52 15.052z"/>
       <path id="Path" fill-rule="nonzero" fill="#F9AA90" d="m154.32 46.581c1.18-1.186 3.34-0.388 4.82 1.783 1.49 2.171 1.73 4.894 0.54 6.08-1.18 1.187-3.34 0.389-4.82-1.783-1.48-2.171-1.73-4.893-0.54-6.08z"/>
       <path id="Path" fill-rule="nonzero" fill="#fff" d="m176.92 80.594s3.4 13.678-5.53 14.136c-8.92 0.458-15.08-12.763-15.08-12.763s-19.71 3.148-24.98 9.1c4.12 2.747 4.81 14.193 6.64 26.323 2.52 9.16 4.81 16.49 5.95 27.93 1.15 11.45-1.32 29.08-5.66 39.62 16.02 7.09 31.24 12.01 56.65 4.46 2.75-11.9 3.85-31.77 5.68-61.41 0 0-0.69-38.182-9.85-47.568-4.69-0.454-14.84 0.204-13.82 0.172z"/>
       <path id="Path" fill-rule="nonzero" fill="#FD7D78" d="m190.48 80.422c2.66 0 39.29-3.548 39.29-3.548l8.01 13.277s-31.82 12.759-43.26 12.759"/>
       <path id="Path" fill-rule="nonzero" fill="#FD7D78" d="m133.17 89.465c-6.12 3.427-11.74 7.662-16.72 12.595-7.96 7.7-25.602 28.03-31.325 35.81 3.663 3.21 13.137 6.38 13.137 6.38s13.838-11 27.118-18.33 12.82-6.64 13.51-6.87-0.23-24.32-0.92-25.694c-0.68-1.373-4.8-3.891-4.8-3.891z"/>
       <path id="Path" fill-rule="nonzero" fill="#FD7D78" d="m85.245 137.72c-10.164 17.64-12.336 31.68-16.477 41.05 1.545 1.69 6.667 4.43 9.984 3.07 8.07-15.05 21.558-40.28 21.558-40.28s-12.133-4.88-15.065-3.84z"/>
       <path id="Path" fill-rule="nonzero" fill="#1E0F05" d="m153.21 45.606c0.11-0.077-0.15-0.198-0.18-0.068-0.04 0.131 0.1 0.239 0.23 0.282 4.35 1.44 8.48 2.037 12.94 0.717 5.67-1.705 10.37-5.722 12.93-11.066 1.04-2.513 1.77-5.138 2.2-7.822 0 0-16.15-13.892-24.57-3.034l-3.55 20.991z"/>
       <path id="Path" fill-rule="nonzero" fill="#1E0F05" d="m175.34 23.767c2.42 6.083 8.82 12.132 15.05 14.154 0.07-3.248-0.48-6.48-1.63-9.521-1.2-3.176-2.4-3.614-3.34-4.55-1.33-1.404-2.08-0.518-3.7-1.574l-6.38 1.491z"/>
       <path id="Path" fill-rule="nonzero" fill="#1E0F05" d="m178.97 31.748c0.84 3.766-0.12 7.706-2.6 10.665-3.96 4.694-10.27 5.552-15.91 3.879-0.36-0.106-1.57 0.447-1.09 0.588 10.12 2.999 23.55-3.178 20.95-15.493-0.08-0.377-1.43-0.048-1.35 0.361z"/>
       <path id="Path" fill-rule="nonzero" fill="#FD7D78" d="m202.33 200.52c0.52 2.07 1.18 4.11 1.97 6.09-4.17-0.55-11.37 1.86-11.39-2.69 0-0.51-0.65-5.84-1.05-12.8-2.06-21.78 0.64-38.35-0.26-60.67-0.72-18.03-3.27-29.6-12.88-50.715 2.53-0.288 14.77 0.63 14.77 0.63l6.86 21.345c9.47 36.67-5.57 61.7 1.98 98.81z"/>
       <path id="Path" fill-rule="nonzero" fill="#FD7D78" d="m126.88 93.343c6.13-4.708 16.82-9.563 25.06-10.975 18.19 37.522 16.46 82.962-1.19 120.75-10.96 0.73-20.35 1.21-31.21-0.45 5.73-11.68 11.43-23.34 14.33-31.07 7.42-19.79 8.75-35.19-0.31-51.22l-8.32-25.707c0.51-0.443 1.06-0.886 1.64-1.33z"/>
       <path id="Path" fill-rule="nonzero" fill="#FD7D78" d="m176.72 79.793c1.9-0.217 3.83-0.236 5.73-0.058 2.19 1.803 7.95 9.844 13.32 30.445 5.27 25.76-4.26 48.88-4.26 48.88 0.17-10.31 0.48-20.57-0.41-30.88-0.34-4.03-1.15-9.1-1.91-13.08-2.4-12.53-6.09-24.72-12.47-35.307z"/>
       <path id="Path" fill-rule="nonzero" fill="#FD7D78" d="m159.38 179.32c2.84-7.76 5.26-15.28 6.46-23.7 1.1-8.02 1.62-16.11 1.55-24.21 0.04-8.66-2.03-20.32-4.43-28.7-1.4-4.867-3.31-9.353-4.9-14.161-0.86-2.528-1.38-5.16-1.53-7.826 0 0-3.35 1.244-6.44 2.017-0.44 0.553-0.17 1.752 0.3 2.833 1.03 3.205 2.81 8.47 7.38 24.377 4.58 15.91 5.61 23.81 5.38 37.2s-3.77 32.17-3.77 32.17z"/>
       <path id="Path" fill-rule="nonzero" fill="#F9AA90" d="m182.36 55.409c1.2-0.172 2.24-0.321 3.32-0.401-0.63-2.317-1.27-3.856-2.09-7.211l-1.23 7.612z"/>
       <g id="Group" opacity=".4" fill-rule="nonzero" fill="#E96C52" transform="translate(181.9 46.75)">
        <path id="Path" d="m0.38804 8.8511c1.0692-0.1523 2.1354-0.2991 3.2119-0.3899 0.1175-0.0099 0.6702-0.1004 0.6099-0.3183-0.6679-2.414-1.4811-4.779-2.0889-7.211-0.0587-0.2347-0.9229-0.01234-0.8621 0.231 0.6079 2.432 1.421 4.797 2.089 7.211l0.6098-0.3182c-1.148 0.0969-2.2863 0.2489-3.4268 0.4113-0.37553 0.0535-0.74687 0.47-0.14276 0.384v0.0001z"/>
       </g>
       <path id="Path" fill-rule="nonzero" fill="#11172B" d="m162.27 246.14c3.17 1.41 5.69 3.98 7.03 7.19 1.13 3.17 1.7 6.5 1.7 9.87 0.38 10.94 0.9 22 0.19 36.13l-8.92-53.19z"/>
       <path id="Path" fill-rule="nonzero" fill="#11172B" d="m122.72 283.26c-0.05 4.36 0.23 9.38 0.19 13.75 0.03 1-0.06 2.01-0.27 2.99-0.53 2.06-4.57 6.37-6.59 7.02 2.23-3.31 3.77-7.03 4.51-10.95 0.7-3.29 2.16-12.81 2.16-12.81z"/>
       <path id="Path" fill-rule="nonzero" fill="#000" d="m183.92 41.847c0-0.615 0.05-2.046 1.28-1.957 1.22 0.089 5.74 1.237 5.81 2.037-2.35-0.331-4.73-0.358-7.09-0.08z"/>
       <path id="Path" fill-rule="nonzero" fill="#000" d="m170.76 42.885c0.08-0.8 7.03-2.119 8.25-2.208 0.5-0.066 0.99 0.158 1.26 0.576s0.28 0.955 0.02 1.381c-2.3-0.396-9.53 0.251-9.53 0.251z"/>
       <ellipse id="Oval" fill-rule="nonzero" rx="1" ry="1.1212" cy="46.271" cx="188.33" fill="#000"/>
       <path id="Path" fill-rule="nonzero" fill="#000" d="m185.96 46.01c0.84-1.22 2.48-1.596 3.77-0.868"/>
       <path id="Path" fill-rule="nonzero" fill="#000" d="m188.95 45.107s0.57 1.204-0.02 1.859c-0.5 0.564-0.95-1.859-0.95-1.859"/>
       <path id="Path" fill-rule="nonzero" fill="#000" d="m178.28 46.625c0.03 0.261-0.05 0.52-0.23 0.716-0.17 0.196-0.42 0.311-0.68 0.316-0.27-0.001-0.53-0.112-0.71-0.307-0.19-0.194-0.29-0.456-0.28-0.725-0.06-0.376 0.11-0.755 0.43-0.964s0.73-0.209 1.05 0 0.49 0.588 0.42 0.964z"/>
       <path id="Path" fill-rule="nonzero" fill="#000" d="m179.18 45.603c-0.22-0.071-1.99-1.913-5.88 0"/>
       <path id="Path" fill-rule="nonzero" fill="#000" d="m178.31 45.479s0.61 1.567-0.48 2.018c-0.46-0.716-0.74-1.539-0.8-2.39"/>
       <path id="Path" fill-rule="nonzero" fill="#000" d="m176.7 45.408c-0.39 0.556-0.4 1.289-0.04 1.859 0.47 0.682 1.14-1.948 1.14-1.948"/>
       <path id="Path" fill-rule="nonzero" fill="#E96C52" d="m176.57 58.062c0.65 1.705 2.02 3.04 3.74 3.659 1.3 0.42 2.68 0.481 4 0.177 2.09-0.673 2.68-3.259 2.68-3.259-3.47 0.635-7.04 0.437-10.42-0.577z"/>
       <path id="Path" opacity=".4" stroke-linejoin="round" d="m155.54 48.227c-0.19 0.922 0.01 1.879 0.55 2.653 0.53 0.775 1.35 1.299 2.28 1.455" stroke="#E96C52" stroke-linecap="round" stroke-width=".63750"/>
       <path id="Path" fill-rule="nonzero" fill="#E96C52" d="m194.25 161.88c1.23-11.56-1.93-22.45 0.32-33.86 1.02-5.2 2.63-10.5 1.7-15.72-0.78-4.27-3.18-8.06-6.7-10.59-0.35-0.2-0.65-0.5-0.84-0.86-0.27-0.67 0.2-1.391 0.68-1.932 1.2-1.375 2.56-2.601 4.06-3.65-3.87-6.225-9.25-11.373-15.64-14.967 0 0 6.75 13.047 10.36 32.809 3.62 19.76 3.76 21.68 3.33 33.29-0.42 11.62-0.56 26.07-0.56 26.07s2.55-3.58 3.29-10.59z"/>
       <path id="Path" fill-rule="nonzero" fill="#E96C52" d="m162.27 159.86c2.55-9.49 4.75-14.31 0.49-26.49-1.41-4.05-11.63-25.31-8.14-27.79 0.36-0.2 0.65-0.5 0.85-0.86 0.27-0.67-0.21-1.39-0.68-1.93-1.82-1.93-3.8-3.699-5.91-5.299 3.84-6.198-0.42-12.856 7.37-16.681 4.81 16.858 9.21 27.34 10.91 42.64 2.21 19.97-1.07 30.99-2.34 38.22-0.55 2.62-1.8 6.88-2.43 9.22-1.47-1.54-1.22-6.94-0.12-11.03z"/>
       <path id="Path" fill-rule="nonzero" fill="#E96C52" d="m269 44.473c0.15-0.321 0.34-0.62 0.57-0.89 1.01 0.597 3.12 0.655 4.19 1.141 0.43 0.204 0.9 0.311 1.38 0.315 1.03 0.008 1.79-0.621 2.79-0.706 0.31-0.023 0.63 0.007 0.93 0.087-0.24 0.165-0.56 0.558-0.8 0.743-0.21 0.168-1.62 1.642-1.57 2.178-0.27 0.007-0.74-0.317-1-0.359-0.77-0.124-1.55-0.147-2.32-0.271-0.04-0.043 0.02-0.026 0.02-0.078"/>
       <polygon id="Path" fill-rule="nonzero" points="229.71 76.903 268.43 43.595 278.04 46.6 237.67 90.266" fill="#FD7D78"/>
       <path id="Path" fill-rule="nonzero" fill="#BE5E5A" d="m71.983 181l1.514-7.01s-2.781 5.45-3.161 6.03c0.548 0.38 1.647 0.98 1.647 0.98z"/>
       <path id="Path" fill-rule="nonzero" fill="#E96C52" d="m229.84 76.985c0.61-0.593 1.28-1.111 2.01-1.543 0.57-0.512 1.17-0.983 1.81-1.41-0.03 1.175-1.68 2.092-1.33 3.501 0.33 0.751 0.73 1.468 1.2 2.143 0.39 0.75 0.68 1.552 0.85 2.383-1.09-0.604-1.76-1.901-2.82-2.601-0.99-0.751-2.14-1.282-3.36-1.556-0.92-0.124-1.4 0.081-2.12-0.421 0.52-0.459 1.9-0.353 2.63-0.531 0.37-0.125 0.77-0.113 1.13 0.035z"/>
       <path id="Path" fill-rule="nonzero" fill="#E96C52" d="m103.23 140.31c-1.62 0.45-3.267 0.77-4.934 0.96-1.151 0.03-1.388-0.3-1.691 0.63-0.094 0.8-0.094 1.6 0.001 2.4-0.079 0.67-0.242 1.34-0.484 1.97-0.158 0.6 0.467 1.56 0.412 2.15 0.638-0.99 1.878-3.54 2.763-5.03 1.063-0.78 1.803-1.42 3.933-3.08z"/>
       <path id="Path" fill-rule="nonzero" fill="#11172B" d="m172.61 307.72c1.37-0.09 2.45 3.96 2.83 4.93 0.67 1.7 1.49 1.56 0.15 2.89-1.08 1.06-2.17 3.01-3.41 3.84 0.25-1.24 0.98-5.22 1.31-6.41-0.24-1.53-0.74-4.32-0.88-5.25z"/>
       <path id="Path" fill-rule="nonzero" fill="#000" d="m169.17 412.42c3.2 0.95 6.46 1.66 9.76 2.12 2.85 0.44 5.66 0.28 8.52 0.53 4.01 0.35 8.02 1.25 12.03 1.38 1.1 0.08 2.21 0.01 3.3-0.21 0.63-0.29 1.29-0.51 1.96-0.66 0.52 0.01 1.1 0.29 0.77 1.09-0.2 0.5-0.84 0.58-1.36 0.72-2.64 0.66-5.37 0.86-8.07 0.58-2.97-0.34-5.88-1.08-8.84-1.33-2.76-0.23-5.65-0.19-8.43-0.19-1.59-0.03-3.17 0.01-4.75 0.14-1.29 0.21-2.61 0.12-3.86-0.27-1.39-0.58-1.32-2.39-1.35-3.77 0.17-0.06 0.35-0.11 0.32-0.13z"/>
       <path id="Path" fill-rule="nonzero" fill="#000" d="m189.99 407.53c0.87 0 1.53 0.56 2.44 0.1 0.1-0.73-2.19-0.98-2.68-1.14-1.59-0.52-2.71-1.97-4.45-0.79-0.95 0.64-0.67 1.14 0.35 1.42 1.42 0.33 2.88 0.46 4.34 0.41z"/>
       <ellipse id="Oval" fill-rule="nonzero" rx="1" transform="translate(69.795 177.6) rotate(-33.377) translate(-69.795 -177.6)" ry="1" cy="177.6" cx="69.795" fill="#01183B"/>
       <ellipse id="Oval" fill-rule="nonzero" rx="1" transform="translate(70.617 175.59) rotate(-33.377) translate(-70.617 -175.59)" ry="1" cy="175.59" cx="70.617" fill="#01183B"/>
       <path id="Path" fill-rule="nonzero" fill="#E96C52" d="m200.38 102.27c-0.01-1.27 2.34-2.922 3.32-3.248 1.83-0.612 4.03-0.278 5.92-0.218 1.3 0.042 2.16-0.002 3.86 0.069 0.32 0.013-13.1 3.397-13.1 3.397z"/>
       <path id="Path" stroke="#E96C52" stroke-width="1.7" d="m139.42 118c-6.26 3.08-14.15 7.13-14.55 7.44"/>
       <path id="Path" fill-rule="nonzero" fill="#F9AA90" d="m119.2 419.68c0.82 1.11 2.71 2.8 2.86 4.21 0.45 4.11-6.66 2.35-8.07 1.9-3.67-1.3-6.96-3.5-9.56-6.4-0.32-0.32-1.49 0.14-1.14 0.5 4.15 4.33 9.83 7.86 16.07 7.35 1.25-0.1 3.17-0.28 3.87-1.55 1.23-2.25-1.77-4.98-2.89-6.51-0.27-0.36-1.45 0.07-1.14 0.5z"/>
       <path id="Path" fill-rule="nonzero" fill="#12172A" d="m96.439 406.77c0.173-0.56 0.414-0.96 0.77-0.98 0.893-0.05 1.195 1.12 1.433 1.77 0.264 0.88 0.786 1.66 1.498 2.24 1.31 1.1 2.74 2.04 4.27 2.8 1.67 0.7 3.52 0.86 5.29 0.44 0.81-0.14 1.56-0.55 2.12-1.16 0.14-0.18 0.23-0.43 0.37-0.65 0.16-0.24 0.48-0.91 0.72-1.03 0.73-0.37 1.36 0.96 1.67 1.39 0.43 0.6 2.99 5.32 6.32 7.66 1.68 1.18 5.21 0.89 6.62 2.73 1.66 2.02 1.52 3.72 0.25 4.43-2.96 1.84-10.02 3.54-14.59 1.73-1.9-0.86-3.66-2-5.21-3.4-1.97-1.8-3.83-3.76-5.95-5.4-1.65-1.12-3.353-2.16-5.114-3.09-0.966-0.45-1.639-1.35-1.788-2.41-0.152-1.02-0.055-2.07 0.283-3.05 0.253-0.66 0.63-2.68 1.038-4.02z"/>
       <path id="Path" fill-rule="nonzero" fill="#000" d="m95.036 413.46l6.304 3.86c1.03 0.58 1.99 1.29 2.84 2.11 0.68 0.73 1.2 1.59 1.81 2.38 0.88 1.09 1.88 2.07 2.98 2.94 0.86 0.72 1.78 1.37 2.76 1.95 4 2.22 8.87 2.22 12.88 0.01 1.35-0.77 2.63-1.8 4.16-2.04 0.09 0.83 0.09 1.67 0 2.5-0.01 0.21-0.07 0.42-0.17 0.61-0.22 0.28-0.52 0.48-0.87 0.56-3.26 1.25-6.72 1.84-10.21 1.76-3.5-0.1-6.87-1.37-9.56-3.61-1.84-1.61-3.24-4.01-5.4-5.15-1.59-0.86-3.243-1.58-4.945-2.18-0.492-0.13-0.972-0.31-1.435-0.53-1.906-1.3-1.451-2.31-1.328-4.35 0.002-0.04 0.209-0.8 0.184-0.82z"/>
       <path id="Path" fill-rule="nonzero" fill="#F9AA90" d="m284.97 32.211c-0.46 0.785-1.32 1.258-1.88 1.978-1.07 1.383-0.87 3.335-0.61 5.068 0.05 0.62 0.24 1.22 0.57 1.746 0.36 0.531 1.05 0.721 1.63 0.445l0.08-0.337"/>
       <path id="Path" fill-rule="nonzero" fill="#000" d="m188.37 405.76c0.93-0.43 1.74-1.08 2.36-1.89 0.36-0.5 1-1.64-0.03-1.76-1.56-0.18-3.12 1.98-3.74 3.13-0.05 0.09 0.52 0.05 0.61-0.11 0.57-1.01 0.88-2.15 0.91-3.31 0-0.06-0.16-0.05-0.18-0.05-0.77 0.08-1.06 0.5-1.35 1.21-0.5 1.23-0.72 2.56-0.64 3.89 0.01 0.11 0.63 0.01 0.62-0.17-0.08-1.3 0.14-2.61 0.63-3.83 0.04-0.1 0.15-0.52 0.29-0.54-0.01 0-0.15 1.06-0.18 1.16-0.16 0.61-0.4 1.2-0.71 1.75l0.61-0.11c0.28-0.54 0.64-1.04 1.05-1.5 0.3-0.33 2.06-1.85 2-0.69-0.06 1.17-1.68 2.29-2.61 2.73-0.36 0.18 0.21 0.17 0.36 0.09z"/>
       <path id="Path" fill-rule="nonzero" fill="#000" d="m113.1 413.93c-2.13-0.01-4.26 0.17-6.36 0.56-0.17 0.03-0.41 0.34-0.13 0.4 2.73 0.61 5.57 0.59 8.29-0.07 0.7-0.25 1.35-0.61 1.93-1.08 1.46-0.9 1.48-0.59 0.04 0.06l-3.01 1.34c-0.39 0.18-0.04 0.49 0.27 0.35 1.47-0.56 2.9-1.2 4.29-1.93 0.28-0.16 0.79-0.34 0.92-0.67 0.26-0.63 0.1-0.84-0.49-0.94-0.48 0.03-0.94 0.21-1.32 0.51-1.35 0.87-2.46 1.83-4.15 2.17-0.73 0.12-1.47 0.19-2.2 0.2 1.04-0.05-2.78 0.03-2.6-0.13 0.66-0.57 3.53-0.35 4.46-0.34 0.35 0 0.48-0.43 0.06-0.43z"/>
       <path id="Path" fill-rule="nonzero" fill="#000" d="m114.91 414.61c-0.86 0.08-1.69 0.32-2.45 0.72-0.02 0.01-0.16 0.07-0.13 0.12 0.36 0.51 1.04 0.43 1.62 0.49 0.83 0.16 1.68 0.25 2.54 0.26 0.33-0.02 1.4-0.13 0.36-0.18-0.29-0.01-0.58 0.01-0.86 0.06-0.49 0.05-0.96 0.17-1.42 0.35-0.55 0.24-1.42 0.63-0.75 1.18 0.37 0.31 1.53 0.15 1.98 0.16 0.91 0.01 1.82-0.03 2.73-0.11 0.1 0 0.65-0.23 0.33-0.25-1.04-0.06-2.09-0.03-3.14 0.1-0.18 0.03-1.03 0.06-1.15 0.36-0.39 0.95 4.46 1.07 5.01 1.1 0.13 0.01 0.7-0.24 0.39-0.25-1.09-0.06-2.19-0.16-3.28-0.31-0.42-0.06-1.33 0.12-0.88-0.44 0.4-0.5 1.04-0.28 1.66-0.34 0.28-0.03 0.58 0.08 0.8-0.17-0.17 0.19-1.52 0.05-1.81 0.05-0.44 0.03-0.89 0.02-1.33-0.03l1.01-1.19c0.39-0.03 0.78-0.03 1.18-0.02 0.12 0 0.71-0.23 0.39-0.26-0.73-0.05-1.47-0.11-2.21-0.19-0.53-0.05-1.06-0.11-1.6-0.18-1.01-0.03-0.77-0.29 0.74-0.79 0.16-0.01 0.67-0.29 0.27-0.24z"/>
       <path id="Path" fill-rule="nonzero" fill="#000" d="m166.71 19.465c4.03 0.011 10.13 2.701 11.74 6.636-1.39 0.148-3.22-1.479-4.38-2.111-1.95-1.059-2.69-1.975-7.36-4.525z"/>
      </g>
     </g>
    </g>
   </g>
  </g>
 </g>
</svg>
