<?xml version="1.0" encoding="UTF-8" standalone="no"?>
<svg xmlns="http://www.w3.org/2000/svg" height="457px" width="224px" version="1.1" xmlns:xlink="http://www.w3.org/1999/xlink" viewBox="0 0 224 457"><!-- Generator: Sketch 56.3 (81716) - https://sketch.com -->
 <title>hero-man-right</title>
 <desc>Created with Sketch.</desc>
 <g id="Page-1" fill-rule="evenodd" fill="none">
  <g id="Landing_v0.52_Final" transform="translate(-1009 -660)">
   <g id="HERO" transform="translate(-526)">
    <g id="photo">
     <g id="hero-man-right" transform="translate(1535 660)">
      <path id="Path" fill-rule="nonzero" fill="#D89E9E" d="m134.34 69.066s-1.54 4.142-4.52 6.563c1.26 0.43 2.57 0.729 3.9 0.891"/>
      <path id="Path" opacity=".2" fill-rule="nonzero" fill="#282F4D" d="m189.68 440.31c-4.82 0.21-9.99 1.87-14.91 2.46-8 0.87-16.05 1.24-24.1 1.1-8.11-0.03-14.86 3.95-22.95 3.96-8.79 0.01-17.66-0.7-26.37 0.39-3.115 0.39-6.248 2.41-8.496 4.26 8.516 4.16 23.656 3.87 35.636 3.87 12.97 0 27.94-1.31 40.89-2.08 5.48-0.33 54.8-1.6 53.99-12.05-0.15-0.16-1.05-1.07-1.19-1.19-1.04-0.17-2.1-0.26-3.16-0.27-0.08 0.4-13.31-0.81-13.37-0.42"/>
      <path id="Path" fill-rule="nonzero" fill="#F6C4C2" d="m209.19 405.63c1.16 8.65 1.25 17.83 1.31 26.56l9.57 6.78-0.65-28.61-10.23-4.73z"/>
      <path id="Path" fill-rule="nonzero" fill="#11172B" d="m219.9 433.08l-0.09-8.02-9.46-1.49s0.25 9.36-0.54 10.79"/>
      <path id="Path" stroke="#000" stroke-width="0.594" d="m208.52 432.9c-0.49-1.67-1.39-3.19-2.61-4.43-2.23-2.29-5-1.79-2.73 1.68 0.59 0.83 1.3 1.57 2.09 2.2-1.17-0.85-2.46-1.53-3.83-2-1.76-0.61-4.6 0.54-1.64 1.84 1.46 0.64 4.66 0.75 6.2 1.18"/>
      <rect id="Rectangle" fill-rule="nonzero" rx=".98769" height="21.777" width="51.194" y=".88520" x="123.1" fill="#282F4D"/>
      <path id="Path" fill-rule="nonzero" fill="#FFB903" d="m132.75 7.1302l1.21 2.4471c0.07 0.1458 0.21 0.2468 0.37 0.2702l2.7 0.3925c0.19 0.027 0.34 0.157 0.4 0.336s0.01 0.375-0.13 0.506l-1.95 1.905c-0.12 0.113-0.17 0.277-0.14 0.437l0.46 2.69c0.03 0.185-0.05 0.372-0.2 0.483-0.15 0.11-0.35 0.125-0.52 0.037l-2.41-1.27c-0.15-0.075-0.32-0.075-0.46 0l-2.42 1.27c-0.16 0.088-0.37 0.073-0.52-0.037-0.15-0.111-0.23-0.298-0.19-0.483l0.46-2.69c0.02-0.16-0.03-0.324-0.15-0.437l-1.95-1.905c-0.13-0.131-0.18-0.327-0.12-0.506 0.05-0.179 0.21-0.309 0.39-0.336l2.7-0.3925c0.17-0.0234 0.3-0.1244 0.38-0.2702l1.2-2.4471c0.09-0.1685 0.26-0.2752 0.45-0.2752s0.36 0.1067 0.44 0.2752z"/>
      <g id="Group" opacity=".4" fill-rule="nonzero" fill="#FDFDFE" transform="translate(140.98 6.336)">
       <rect id="Rectangle" y=".69522" x=".33327" height="3.6943" width="27.907"/>
       <rect id="Rectangle" y="6.4855" x=".33327" height="3.6943" width="11.782"/>
      </g>
      <path id="Path" fill-rule="nonzero" fill="#F6C4C2" d="m132.24 415.39c0.06 11.27 0.97 22.52 2.71 33.66-4.83-2.35-9.79-4.45-14.84-6.28 3.22-4.48 2.68-18.87 2.68-18.87l9.45-8.51z"/>
      <path id="Path" fill-rule="nonzero" fill="#11172B" d="m133.77 440.5l-0.74-10.49-11.02-0.13s0.26 11.94-1.85 13.46"/>
      <path id="Path" fill-rule="nonzero" fill="#282F4D" d="m172.12 216.7c6.23 8.3 10.75 26.57 13.46 52.01 2.91 16.2 9.07 40.73 11.62 53.33 2.73 1.37-23.96 18.08-23.96 18.08s-37.87-79.92-35.44-79.92 0-43.41 0-43.41"/>
      <path id="Path" fill-rule="nonzero" fill="#282F4D" d="m196.67 320.45s23.7 15.91 27.06 92.53c0.6 5.35-0.2 12.68-0.2 12.68-7.52 0.99-14.01 2.14-18.01-0.4 3.74-19.98-33.2-86.92-33.2-86.92l24.35-17.89z"/>
      <path id="Path" fill-rule="nonzero" fill="#282F4D" d="m104.12 229.19c-3.4 18.95 4.18 56.5 0.83 106.43 6.09 5.71 31.27 0.01 31.27 0.01s14.23-69.92 14.91-80.94c0.68-11.03 0-33.77 0-33.77l-47.01 8.27z"/>
      <path id="Path" fill-rule="nonzero" fill="#282F4D" d="m135.29 333.52c12.53 26.79 10.23 69.56 6.67 96.49-5.91 0.92-24.55 0.79-24.55 0.79s-1-41.28-5.09-64.25-7.37-30.93-7.37-30.93 27.18-8.88 30.34-2.1z"/>
      <path id="Path" fill-rule="nonzero" fill="#2D2823" d="m222.12 436.12c-0.36-1.56-0.8-3.11-1.34-4.62l-11.54-1.22-4.3 2.72c-9.26 5.02-17.45 1.22-19.46 8.34 14.57-0.56 36.47 2.63 36.91 0 0.12-1.74 0.03-3.5-0.27-5.22z"/>
      <path id="Path" stroke="#000" stroke-width="0.594" d="m117.64 443.59c-0.5-1.67-1.39-3.19-2.61-4.43-2.24-2.29-5-1.79-2.74 1.68 0.6 0.83 1.31 1.57 2.1 2.2-1.17-0.85-2.46-1.52-3.83-1.99-1.76-0.62-4.61 0.54-1.64 1.83 1.46 0.64 4.66 0.75 6.19 1.19"/>
      <path id="Path" fill-rule="nonzero" fill="#2D2823" d="m136.48 444.4c-0.55-2.62-1.21-5.43-1.21-5.43h-14.89l-6.05 4.07c-11.34 6.15-19.526 0.06-21.674 10.04 20.494-1.09 37.814 1.98 43.824-0.6 0 0 0.6-5.26 0-8.08z"/>
      <path id="Path" fill-rule="nonzero" fill="#11172B" d="m147.04 283.1c7.16 0.49 11.18-4.51 16.37-4.76-4.69 9.88-4.26 15.5-2.72 20.62 3.09 10.24 7.01 20.96 7.27 29.28-5.54-11.09-20.92-45.14-20.92-45.14z"/>
      <path id="Path" fill-rule="nonzero" fill="#11172B" d="m103.09 241.94l0.17 6.09s24.69 8.23 61.89 1.31c12.6-3 16.74-5.05 16.74-5.05s-1.75-10.51-3.57-14.13c-3.48-6.96-29.96-12.92-29.96-12.92"/>
      <path id="Path" fill-rule="nonzero" fill="#F6C4C2" d="m177.25 4.4797c2.02 2.3308 5.21 4.1893 5.43 7.2643 0.11 1.546-0.8 6.77-1.19 8.271-1.11 4.298-1.3 5.579-2.41 9.877l-3.65 1.838 1.51-19.358-1.58-9.1681 1.4 0.6585 0.49 0.6173z"/>
      <path id="Path" fill-rule="nonzero" fill="#F6C4C2" d="m171 24.289c-2.92-2.255-6.75-2.957-10.28-1.884l0.54 0.669c3.81 1.877 8.43 4.521 11.22 7.716 1.06 1.131 1.91 2.435 2.52 3.855l3.57-1.946-1.52-9.085"/>
      <path id="Path" fill-rule="nonzero" fill="#D89E9E" d="m173.06 31.353s4.11-0.535 6.5-3.704c0.06 0.741 0.35 4.301 0.35 4.301s-4.2 3.518-4.32 3.765c-0.13 0.247-0.86-1.71-1.26-2.428-0.21-0.385-1.27-1.934-1.27-1.934z"/>
      <path id="Path" fill-rule="nonzero" fill="#F6C4C2" d="m179.02 25.566c0.08-5.407 0.44-8.327 0.52-13.735l-0.11-3.6766c-2.06-2.9304-3.5-4.6128-5.55-7.5431l-0.78 2.7161c0.55 2.4778 1.24 4.7778 1.14 7.3146l-0.23 0.86c-1.29 3.705-2.47 7.447-3.54 11.226l-1.64 2.622 5.08 2.919 5.11-2.703z"/>
      <rect id="Rectangle" fill-rule="nonzero" rx="2.2673" height="33.735" width="75.097" y="76.773" x=".54348" fill="#63A9FC"/>
      <g id="Group" opacity=".5" fill-rule="nonzero" fill="#01183B" transform="translate(36.432 88.704)">
       <rect id="Rectangle" opacity=".3" rx=".87166" height="4.0543" width="20.333" y=".61202" x=".76849"/>
       <rect id="Rectangle" opacity=".3" rx=".87166" height="4.0543" width="31.308" y="7.9097" x=".76849"/>
      </g>
      <path id="Shape" opacity=".3" fill-rule="nonzero" fill="#01183B" d="m29.845 84.333h-21.553c-0.6373 0.001-1.1536 0.517-1.1543 1.154v2.713c0.0007 0.637 0.517 1.154 1.154 1.154h0.9302v10.202c0.0011 0.994 0.8101 1.804 1.8071 1.804h16.08c0.997 0 1.806-0.81 1.807-1.804v-10.202h0.929c0.637 0 1.153-0.517 1.154-1.154v-2.713c-0.001-0.637-0.517-1.153-1.154-1.154zm-21.59 3.867v-2.713c0-0.02 0.0166-0.036 0.0369-0.037l9.1643 0.016v2.75l-9.2012-0.016zm19.544 11.356c-0.001 0.381-0.309 0.694-0.69 0.694h-16.08c-0.381 0-0.69-0.313-0.69-0.694v-10.202h7.117v3.467c0 0.143 0.057 0.279 0.158 0.38 0.1 0.101 0.237 0.157 0.379 0.157h2.15c0.143 0 0.279-0.056 0.38-0.157s0.157-0.237 0.157-0.38v-3.467h7.119v10.202zm2.046-11.319l-9.165-0.016v-2.749l9.202 0.015-0.037 2.75z"/>
      <path id="Path" fill-rule="nonzero" fill="#F6C4C2" d="m46.755 109.67c-1.111-1.69-3.976-3.08-6.255-3.66-5.642-1.41-8.052-2.24-14.52-3.36-0.123 0.74-0.33 2.77 1.584 3.36 0.78 0.25 5.478 1.79 4.752 3.77-0.396 0.39-1.188 0.66-3.3 0.66-2.112 0.13-2.873 0-7.524 0.13-0.444 0.01-2.904 0-6.204 0-0.076 0.42 3.935 6.51 6.281 7.37 5.015 1.85 13.304-0.12 18.643 0.12 2.339 0.11 2.787 8.45 4.48 8.82 0.592 0.08 1.195 0 1.749-0.23 4.087-1.29 8.954 0.06 6.364-4.76-1.916-3.57-3.951-8.02-6.05-12.22z"/>
      <path id="Path" fill-rule="nonzero" fill="#D89E9E" d="m40.764 117.83c2.265 0.59 3.171 2.77 5.258 3.6 2.129 0.84 5.326 1.33 6.143 3.94-1.527 0.67-3.207 1.26-4.778 1.91-0.798 0.33-1.608 0.71-2.369 0.23-1.28-0.8-1.194-3.13-1.742-4.34-0.546-1-1.034-2.04-1.459-3.1-0.148-0.83-0.512-1.6-1.053-2.24z"/>
      <path id="Path" fill-rule="nonzero" fill="#002E79" d="m161.11 117.07c6.58-6.37 13.89-9.73 26.27-33.329 3.99-1.637 19.1-5.746 19.01-0.987-0.25 12.593-18.68 53.496-18.68 53.496l-13.12 7.03"/>
      <path id="Path" fill-rule="nonzero" fill="#002E79" d="m206.39 82.754c-4.36-22.552-18.52-39.014-25.27-55.475-1.01-2.462-8.23 6.749-8.23 6.749l14.49 49.713s19.91 3.686 19.01-0.987z"/>
      <path id="Path" fill-rule="nonzero" fill="#F6C4C2" d="m137.07 55.7c-1.93 8.25-3.86 16.53-4.6 24.949-0.24 2.711-0.34 5.51 0.61 8.08 0.94 2.569 3.16 4.887 6 5.318l7.71 0.524 10.13-13.805 5.91-24.69-25.76-0.376z"/>
      <path id="Path" fill-rule="nonzero" fill="#D89E9E" d="m136.74 57.771l-0.59 2.112c2.84 0.334 5.71 0.222 8.51-0.33-0.13 0.726-0.99 6.468 1.85 11.352s5.41-15.246 5.41-15.246l-12.14-0.792"/>
      <path id="Path" fill-rule="nonzero" fill="#F6C4C2" d="m164.1 106.17c-1.68-4.58-2.24-9.485-1.63-14.317 0 0 2.32-3.675 1.29-3.036-1.02 0.639-19.94-2.174-19.94-2.174l0.66 4.602c0.25 6.523-0.07 10.795-3.48 16.365l23.1-1.44z"/>
      <path id="Path" fill-rule="nonzero" fill="#D89E9E" d="m146.84 82.323s2.23 11.484 15.36 12.078c0.07-0.924 0.45-4.009 0.61-4.686"/>
      <path id="Path" fill-rule="nonzero" fill="#56352C" d="m145.82 74.57c0.14 2.071-0.18 4.169 0.13 6.221 0.66 4.279 4.1 7.772 8.1 9.418 3.66 1.627 7.71 2.193 11.67 1.634 1.15-0.192 2.29-0.45 3.41-0.772 3.54-1.888 5.49-5.949 6.1-9.933 0.62-4.064 0.11-8.205 0.13-12.317 0.06-4.173 1.14-8.268 3.15-11.928 0 0-24.21 1.705-28.3 4.604-4.09 2.898-4.43 4.773-4.43 4.773l0.04 8.3z"/>
      <path id="Path" fill-rule="nonzero" fill="#56352C" d="m145.84 58.099c-7.22 0.624-12.73 0.873-19.08-2.624-0.74-0.356-1.41-0.859-1.95-1.48-1.24-1.601-0.75-3.919 0.02-5.795 0.95-2.333 2.46-5.655 4.03-7.622 1.24-1.539 2.9-3.045 4.87-2.954 0.79 0.076 1.55 0.292 2.26 0.638 4.98 2.126 8.61 4.346 14 5.664 8.4 2.056 14.22 2.921 20.39 2.322 2.84-0.275 5.96-0.026 8.08 1.881 3.46 3.138 1.76 7.912-1.82 11.322 0 0-27.96 0.341-30.86 6.819 0.17-2.728 0.06-8.171 0.06-8.171z"/>
      <path id="Path" fill-rule="nonzero" fill="#002E79" d="m135.63 108.89c1.7-2.2 3.44-7 5.37-6.39 8.16-1.1 17.61 0.65 25.83 0.51 0.5 2.21 1.79 5.11 1.54 7.93 0 0-19.01-0.68-23.02-1.37-3.22-0.41-6.47-0.63-9.72-0.68z"/>
      <path id="Path" fill-rule="nonzero" fill="#002E79" d="m181.15 152.88c-4.85 13.29-5.8 28.08-5.79 41.15 0.01 10.58 3.79 34.19 6.91 43.46-3.73 2.75-12.12 8.8-26.62 7.19-0.25-4.61-3.99-19.7-3.99-19.7-0.69 7.67-1.83 14.49-2.35 21.55-17.16 1.85-36.02-0.42-51.003-3.19 0.186-10.09 3.733-39.35 4.953-49.38 1.51-12.32 3.99-26.59 2.79-41.25l-1.1-16.46 37.08-27.36 32.73 3.84 7.16 31.45-0.77 8.7z"/>
      <path id="Path" fill-rule="nonzero" fill="#002E79" d="m124 140.73c-15.11 9.89-29.713 29.01-44.034 30.67l-4.812-21.08 2.345-2.56c7.757-9.72 31.481-43.47 38.081-42.07 10.35-0.25 21.33 2.18 41.54 3.46l-33.12 31.58z"/>
      <path id="Path" fill-rule="nonzero" fill="#002E79" d="m79.966 171.4c-11.605 2.22-19.401-5.74-22.47-11.11-1.171-2.05-14.688-26.99-17.778-35.81 2.505-2.99 10.671-6.99 14.568-7.16 3.644 11.1 18.514 22.56 23.458 31.86l2.222 22.22z"/>
      <path id="Path" fill-rule="nonzero" fill="#002E79" d="m180.96 152.88c4.69-14.57 11.97-21.73 10.86-35.06-1.48-4.7-2.55-5.99-5.81-7.91-14.57-0.51-22.7-0.65-34.01-1.02l28.96 43.99z"/>
      <path id="Path" fill-rule="nonzero" fill="#00235B" d="m115.44 165.03c-0.38 1.75-0.5 3.54-0.37 5.33 0.16 6.44 0.28 13.01-1.54 19.19-1.14 3.85-3.01 7.45-4.19 11.29-2.92 9.57-1.33 19.86 0.29 29.73l0.44 14.82-11.763-2.05c0.186-10.09 3.733-39.35 4.953-49.38 1.51-12.32 3.62-24.54 3.13-38.61 0 0 12.45-9.46 15.35-12.19s-5.48 18.77-6.3 21.87z"/>
      <path id="Path" fill-rule="nonzero" fill="#00235B" d="m82.587 148.74c0.276 2.1 0.309 4.1-0.57 5.28-1.21-2.25-2.809-4.27-4.722-5.96 1.461-1.99 3.234-4 4.505-5.84 0.14 2.18 0.402 4.36 0.787 6.52z"/>
      <path id="Path" fill-rule="nonzero" fill="#D89E9E" d="m177.25 4.4797c0.62 2.0758 1.09 4.194 1.4 6.3373 0.33 2.799-0.33 8.396-0.33 8.396s2.31-7.079 1.65-8.396c-0.66-1.3166-2.72-6.3373-2.72-6.3373z"/>
      <path id="Path" fill-rule="nonzero" fill="#00235B" d="m118.9 107.28c3.12 2.47 13.66 7.57 11.85 22.22 1.95-5.73 0.84-12.07-2.96-16.79-2.33-2.68-5.44-4.58-8.89-5.43z"/>
      <path id="Path" fill-rule="nonzero" fill="#00235B" d="m180.56 109.84c-1.06-0.58-1.83-1.58-2.13-2.75-0.38-1.43-0.03-3 0.13-4.44 0.24-2.17 1.8-4.087 1.68-6.273-1.65 2.185-3.31 4.363-4.99 6.533-1.72 2.27-3.56 4.45-5.53 6.51 2.84 0.16 8.22-1 10.84 0.42z"/>
      <path id="Path" fill-rule="nonzero" fill="#00235B" d="m188.54 79.539c0.09 0.357 0.24 0.694 0.45 0.996 0.23 0.258 0.5 0.474 0.81 0.636 0.49 0.301 2.05 0.893 2.17 1.505 0.07 0.354-0.3 0.631-0.63 0.784-0.78 0.291-1.55 0.645-2.28 1.058-0.4 0.274-0.75 0.623-1.16 0.883-0.46 0.258-0.99 0.32-1.49 0.172 0.76-1.05 1.1-1.673 1.05-1.852-0.25-0.925-0.57-1.83-0.86-2.744-0.18-0.591-0.29-1.192-0.45-1.778-0.26-0.745-0.43-1.516-0.52-2.3-0.01-0.085 0-0.171 0.03-0.252 0.11-0.254 0.48-0.232 0.73-0.124 1.16 0.489 1.76 1.753 2.13 2.947l0.02 0.069z"/>
      <path id="Path" fill-rule="nonzero" fill="#56352C" d="m143.15 64.351c0.15-2.39-6.94-3.747-8.22-3.84-1.27-0.092-0.6 2.023-0.74 2.772l8.96 1.068z"/>
      <ellipse id="Oval" fill-rule="nonzero" rx="1" ry="1.1879" cy="67.013" cx="135.88" fill="#1C110E"/>
      <path id="Path" opacity=".6" fill-rule="nonzero" fill="#11172B" d="m138.97 320.58c-1.58 4.12-4.84 6.51-6.55 10.54-0.56 1.3-1.36 3.18-0.71 4.65 0.9 2.06 3.57 3.74 4.72 5.96 0.9 1.53 1.58 3.17 2.02 4.89-0.03 0 1.22-0.18 1.28-0.2 0.62-4.64-4.13-8.54-2.74-13.28 1.21-4.08 1.88-8.3 1.98-12.56z"/>
      <path id="Path" opacity=".6" fill-rule="nonzero" fill="#11172B" d="m190.93 321.6c1.41 0.57 2.77 1.24 4.09 2l8.21 4.5c-0.81-2.64-5.11-6.4-6.68-7.55-0.65-2.47-1.07-5.85-1.95-9.88-2.81-1.87-3.66 9.24-3.67 10.93z"/>
      <path id="Path" fill-rule="nonzero" fill="#38211B" d="m145.82 74.57c0.14 2.071-0.18 4.169 0.13 6.221 0.66 4.279 4.1 7.772 8.1 9.418 3.66 1.627 7.71 2.193 11.67 1.634 1.15-0.192 2.29-0.45 3.41-0.772 0.77-2.224-1.49-4.035-3.18-4.991-2.05-1.216-4.49-1.604-6.82-1.087-1.92 0.408-3.9 0.442-5.84 0.102-1.73-0.538-3.17-1.753-4-3.371-0.65-1.13-1.08-2.368-1.29-3.653-0.2-1.234-0.79-3.19-2.09-3.733-0.09 0.048-0.1 0.125-0.09 0.232z"/>
      <path id="Path" fill-rule="nonzero" fill="#110F0D" d="m172.61 115.18c-0.13-2.34-2.9-5.72-4.07-5.85 0.27-0.62 1.07-0.82 2.89-0.6 1.25 0.59 2.37 1.43 3.29 2.46 1.56 2.51 1.8 2.89 2.42 5.35-1.43-1.34-3.18 0.04-4.53-1.36z"/>
      <path id="Path" fill-rule="nonzero" fill="#2D2823" d="m176.3 117.22s6.08-0.12 6.37-0.99c-1.4-4.51-4.08-6.02-6.08-6.88-2.34-1.08-4.98-1.28-7.46-0.56 1.72 0.4 4.63 2.12 6.67 6.86 0.58 1.34 0.5 1.57 0.5 1.57z"/>
      <path id="Path" fill-rule="nonzero" fill="#110F0D" d="m123.48 106.06l-1.24-0.02s6.8 3.01 7.39 8.17l3.11 0.39c-1.09-2.52-2.79-4.73-4.96-6.42-3.31-2.33-4.3-2.12-4.3-2.12z"/>
      <path id="Path" fill-rule="nonzero" fill="#2D2823" d="m129.82 105.41s14.44 0.36 16.77 9.33c-13.78-0.36-13.27-0.36-13.78-0.36s-3.86-7.29-9.33-8.32c1.6-0.72 6.34-0.65 6.34-0.65z"/>
      <path id="Path" fill-rule="nonzero" fill="#110F0D" d="m129.53 187.23s-3.21 13.42-5.54 20.13c-6.49 5.68-16.24 7.84-23.6 8.63-1.017-2.59-0.423-8.53 0.97-11.87 16.91-2.83 25.55-20.97 25.55-20.97l2.62 4.08z"/>
      <path id="Path" fill-rule="nonzero" fill="#4C4031" d="m142.85 130.09c2.56 2.81 3.03 6.92 2.86 10.71-0.32 7.37-2.57 14.51-3.76 21.79-3.29 20.09-0.37 37.2-6.48 56.62-0.57 1.83 0.58 7.76 0.64 9.68 0.04 1.53 0.01 3.14 1.33 4.02 8.15-0.57 33.85-2.45 40.02-4.96 1.11-0.45 2.19-0.96 3.25-1.51 3.37-1.8 6.51-4.26 8.39-7.59 2.04-3.6 2.48-8.56 2.77-12.69 0.78-10.84 1.14-21.75 3.18-32.41 0.43-1.9 0.71-3.83 0.84-5.76 0-1.63-0.13-3.26-0.39-4.87l-0.78-5.88c0.01-1.29-0.86-2.43-2.11-2.76l-49.76-24.39z"/>
      <path id="Path" fill-rule="nonzero" fill="#2D2823" d="m126.9 113.86c2.1 13.32 3.63 26.84 3.04 40.35-0.5 11.39-3.01 22.84-5.06 34.13-1.65 9.08-3.79 18.58-2.31 27.83 0.98 6.3 4.72 11.84 10.2 15.1 1.43 0.83 3.31 2.02 5.02 1.45 1.63-0.54 2.52-2.33 3.06-3.8 0.42-1.15 0.8-2.31 1.16-3.49 0.7-2.33 1.28-4.71 1.78-7.1 1.01-4.78 6.25-43.5 6.91-55.57 0.63-11.59 1.28-23.76-3.53-34.64-3.12-7.07-6.75-10.51-6.75-10.51l-13.52-3.75z"/>
      <path id="Path" opacity=".5" fill-rule="nonzero" fill="#161310" d="m127.49 114.13c0.35 4.85 3.86 10.92 5.81 15.4 1.82 4.18 4.27 8.96 5.21 13.37 1.83 8.54-0.57 16.84-0.73 25.37-0.12 6.24 3.39 10.67 9.77 11.07 2.99 0.24 6 0.25 8.99 0.01 7.45-0.85 14.94-1.29 22.44-1.33 4.49 0 11.11 1.16 15.25-0.57 0.29-4.56 2.71-8.52 2.65-13.12-5.93-0.4-11.89 1.2-17.84 1.29-5.41 0.08-10.64-1.2-15.98-1.89-1.3-0.17-2.19 0.09-2.9-0.88-2.01-2.74-1.06-10.81-1.51-14.08-1.1-8-2.21-15.04-7.14-21.71-4.14-5.59-10.63-10.47-17.28-12.41-1.16-0.34-6.3-2.17-6.74-0.52z"/>
      <path id="Path" fill-rule="nonzero" fill="#6D5B47" d="m145.3 160.9c-0.07-7.57-0.1-10.38-0.76-14.97-0.84-6.58-3.13-12.89-6.69-18.49-3.61-5.54-6.39-8.67-10.57-13.58 7.51 0.37 48.6 0.98 58.27 1.16 7.81 2.75 13.6 9.4 15.24 17.51 0.53 2.74 2.06 22.87-1.69 39.01-9.01 1.12-45.27 3.39-54.99 3.19 0.83-4.56 1.23-9.19 1.19-13.83z"/>
      <path id="Path" fill-rule="nonzero" fill="#1C1815" d="m181.93 168.35c-0.57 0-4.79 0.28-4.79 0.28l-1.88 11.17 4.51-0.63 2.16-10.82z"/>
      <path id="Path" fill-rule="nonzero" fill="#D89E9E" d="m144.66 94.401s2.25-0.066 6.34-1.716c-1.65 1.848-6.61 5.411-6.59 5.017 0.12-1.725 0.25-3.301 0.25-3.301z"/>
      <path id="Path" fill-rule="nonzero" fill="#38211B" d="m145.67 58.019c-1.43 0-3.06 0.35-4.47 0.346-2.53 0.14-5.07-0.026-7.56-0.495 5.18-0.132 11.39-1.712 13.26-1.779 0.79-0.029 2.09-0.422 2.25 0.756 0.16 1.172-1.42 2.636-1.94 3.603-0.33 0.527-0.6 1.087-0.81 1.672-0.02 0.016-0.05 0.016-0.08-0.001-0.39-1.284-0.13-2.741-0.65-4.102z"/>
      <ellipse id="Oval" fill-rule="nonzero" rx="4.9867" transform="translate(147.86 72.172) rotate(-65.303) translate(-147.86 -72.172)" ry="3.2702" cy="72.172" cx="147.86" fill="#F6C4C2"/>
      <path id="Path" fill-rule="nonzero" fill="#D89E9E" d="m149.48 70.047s0.4 3.96-3.23 4.29"/>
      <path id="Path" fill-rule="nonzero" fill="#38211B" d="m178.47 56.993c0.15-0.785 0.05-1.423-0.55-1.67-0.7-0.295-1.74 0.619-2.23 1.025-1.57 1.137-2.94 2.527-4.06 4.112-0.9 1.472-1.97 4.312-0.89 5.928 0.96 1.442 3.05 0.393 3.59 2.525 0.17 0.669 0.04 2.678 1.07 2.604 0.32-0.898 0.04-2.135-0.08-3.053-0.18-2.062 0.12-4.137 0.88-6.064 0.67-1.822 1.92-3.477 2.27-5.407z"/>
      <path id="Path" fill-rule="nonzero" fill="#000" d="m222.39 441.34c-0.44 2.63-22.34-0.56-36.91 0 0.23-0.23 2.78-1.23 6.77-1.3 4.6 0.15 7.73 0.02 11.6 1 1.23 0.29 2.48 0.44 3.74 0.46 2.18 0.03 4.35-0.19 6.47-0.66 3.67-0.86 6.26-0.43 8.36-0.41 0.02 0.3 0.01 0.61-0.03 0.91z"/>
      <path id="Path" fill-rule="nonzero" fill="#000" d="m136.48 452.48c-6.01 2.58-23.33-0.49-43.824 0.6 3.052-0.96 6.237-1.41 9.434-1.35 3.49 0 6.95 0.06 10.42 0.39 1.44 0.14 3.09 0.26 4.53 0.33 2.59 0.13 9.02-0.71 11.62-0.72 3.14-0.02 3.1-0.33 5.97-0.63 0.89 0.03 2.05 0.33 1.85 1.38z"/>
     </g>
    </g>
   </g>
  </g>
 </g>
</svg>
