<?xml version="1.0" encoding="utf-8"?>
<!-- Generator: Adobe Illustrator 24.0.2, SVG Export Plug-In . SVG Version: 6.00 Build 0)  -->
<svg version="1.1" xmlns="http://www.w3.org/2000/svg" xmlns:xlink="http://www.w3.org/1999/xlink" x="0px" y="0px"
	 viewBox="0 0 1569.6 1571.8" style="enable-background:new 0 0 1569.6 1571.8;" xml:space="preserve">
<style type="text/css">
	.st0{fill-rule:evenodd;clip-rule:evenodd;fill:#FDCF3C;}
	.st1{fill-rule:evenodd;clip-rule:evenodd;fill:url(#SVGID_1_);}
	.st2{fill-rule:evenodd;clip-rule:evenodd;fill:url(#SVGID_2_);}
	.st3{fill-rule:evenodd;clip-rule:evenodd;fill:#E19003;}
	.st4{fill-rule:evenodd;clip-rule:evenodd;fill:#CA7400;}
	.st5{fill-rule:evenodd;clip-rule:evenodd;}
	.st6{fill-rule:evenodd;clip-rule:evenodd;fill:#F8B504;}
	.st7{fill-rule:evenodd;clip-rule:evenodd;fill:#333333;}
	.st8{fill-rule:evenodd;clip-rule:evenodd;fill:#F8F5FC;}
	.st9{fill-rule:evenodd;clip-rule:evenodd;fill:#CED2F7;}
	
		.st10{fill-rule:evenodd;clip-rule:evenodd;fill:none;stroke:#000000;stroke-linecap:round;stroke-linejoin:round;stroke-miterlimit:3;}
	.st11{fill-rule:evenodd;clip-rule:evenodd;fill:#009CFF;fill-opacity:0.2392;}
	.st12{fill-rule:evenodd;clip-rule:evenodd;fill:#FFFFFF;}
	.st13{fill-rule:evenodd;clip-rule:evenodd;fill:#0A283C;}
	.st14{fill-rule:evenodd;clip-rule:evenodd;fill:#4F7286;}
	.st15{fill-rule:evenodd;clip-rule:evenodd;fill:#0C314A;}
	.st16{fill-rule:evenodd;clip-rule:evenodd;fill:url(#SVGID_3_);}
	.st17{fill-rule:evenodd;clip-rule:evenodd;fill:url(#SVGID_4_);}
	.st18{fill-rule:evenodd;clip-rule:evenodd;fill:url(#SVGID_5_);}
	
		.st19{fill-rule:evenodd;clip-rule:evenodd;fill:none;stroke:#FFFFFF;stroke-width:3;stroke-linecap:round;stroke-linejoin:round;stroke-miterlimit:3;}
	.st20{fill-rule:evenodd;clip-rule:evenodd;fill:#7699C3;}
	.st21{fill-rule:evenodd;clip-rule:evenodd;fill:#5E5E5E;}
	.st22{fill-rule:evenodd;clip-rule:evenodd;fill:#3C3C3C;}
	.st23{fill-rule:evenodd;clip-rule:evenodd;fill:#020202;}
	.st24{fill-rule:evenodd;clip-rule:evenodd;fill:#FFAA83;}
	.st25{fill-rule:evenodd;clip-rule:evenodd;fill:#ED9870;}
	.st26{fill-rule:evenodd;clip-rule:evenodd;fill:#E1825F;}
	.st27{fill-rule:evenodd;clip-rule:evenodd;fill:#F0F0FF;}
	.st28{fill-rule:evenodd;clip-rule:evenodd;fill:#A6ACE0;}
	.st29{fill-rule:evenodd;clip-rule:evenodd;fill:#FF0000;}
	.st30{fill-rule:evenodd;clip-rule:evenodd;fill:#990000;}
	.st31{fill-rule:evenodd;clip-rule:evenodd;fill:#7A3A1E;}
	.st32{fill-rule:evenodd;clip-rule:evenodd;fill:#452312;}
	
		.st33{fill-rule:evenodd;clip-rule:evenodd;fill:none;stroke:#F8F5FC;stroke-width:10.25;stroke-linecap:round;stroke-linejoin:round;stroke-miterlimit:3;}
	.st34{fill-rule:evenodd;clip-rule:evenodd;fill:url(#SVGID_6_);}
	.st35{fill-rule:evenodd;clip-rule:evenodd;fill:#CC0000;}
	.st36{fill-rule:evenodd;clip-rule:evenodd;fill:#FFFBF0;}
	.st37{fill-rule:evenodd;clip-rule:evenodd;fill:#FFE548;}
	.st38{fill-rule:evenodd;clip-rule:evenodd;fill:#373799;}
	.st39{fill-rule:evenodd;clip-rule:evenodd;fill:#6A6ADC;}
	.st40{fill-rule:evenodd;clip-rule:evenodd;fill:#6C0000;}
	.st41{fill-rule:evenodd;clip-rule:evenodd;fill:#E1D7BA;}
	.st42{fill-rule:evenodd;clip-rule:evenodd;fill:#22226E;}
	.st43{fill-rule:evenodd;clip-rule:evenodd;fill:#4D75E7;}
	.st44{fill-rule:evenodd;clip-rule:evenodd;fill:#183792;}
	.st45{fill-rule:evenodd;clip-rule:evenodd;fill:#D22D29;}
	.st46{fill-rule:evenodd;clip-rule:evenodd;fill:#FF7C69;}
	.st47{fill-rule:evenodd;clip-rule:evenodd;fill:#C0CFEA;}
	.st48{fill-rule:evenodd;clip-rule:evenodd;fill:#FFB087;}
	.st49{fill-rule:evenodd;clip-rule:evenodd;fill:#F18D69;}
	.st50{fill-rule:evenodd;clip-rule:evenodd;fill:#D8E0F5;}
	.st51{fill-rule:evenodd;clip-rule:evenodd;fill:#8A8A8A;}
	.st52{fill-rule:evenodd;clip-rule:evenodd;fill:#F1F2FE;}
	.st53{fill-rule:evenodd;clip-rule:evenodd;fill:url(#SVGID_7_);}
	.st54{fill-rule:evenodd;clip-rule:evenodd;fill:#3E73B1;}
	.st55{fill-rule:evenodd;clip-rule:evenodd;fill:#ABB1EB;}
	.st56{fill-rule:evenodd;clip-rule:evenodd;fill:#DBDFFF;}
	.st57{fill-rule:evenodd;clip-rule:evenodd;fill:#9999EF;}
</style>
<g id="Layer_1">
</g>
<g id="_x37_7">
	<g>
		<polygon class="st0" points="594.4,847.4 594.8,847.2 594.8,847.4 		"/>
		<g>
			
				<linearGradient id="SVGID_1_" gradientUnits="userSpaceOnUse" x1="673.0797" y1="1370.375" x2="857.764" y2="102.0233" gradientTransform="matrix(-1.1638 0 0 1.1638 2095.7251 -21.5752)">
				<stop  offset="6.666670e-02" style="stop-color:#CED2F7"/>
				<stop  offset="0.1569" style="stop-color:#FFFFFF"/>
				<stop  offset="0.8157" style="stop-color:#FFFFFF"/>
				<stop  offset="0.9255" style="stop-color:#AEB5F5"/>
			</linearGradient>
			<path class="st1" d="M869.3,146.1c-4.6,5.4-6.9,11.4-7,18l-0.1,1296c0,6.6,2.4,12.4,7,17.5c4.6,5.1,10.2,8,16.9,8.7l609,63.6
				c8.4,0.9,15.5-1,21.5-5.6c5.9-4.7,8.9-10.7,8.8-18.2V57.5c0.1-7.5-2.9-13.4-8.8-17.6c-4.5-3.3-9.8-4.8-15.8-4.8
				c-1.8,0-3.7,0.2-5.7,0.5l-609,100.9C879.5,137.6,873.9,140.8,869.3,146.1z M1342.9,1047.3c-2.1,0.8-3.2,1.9-3.2,3.4
				c0-2,0.3-3.2,1-3.6C1341.1,1046.9,1341.8,1046.9,1342.9,1047.3z"/>
			
				<linearGradient id="SVGID_2_" gradientUnits="userSpaceOnUse" x1="646.8914" y1="919.7811" x2="649.6162" y2="919.7811" gradientTransform="matrix(-1.1638 0 0 1.1638 2095.7251 -21.5752)">
				<stop  offset="6.666670e-02" style="stop-color:#CED2F7"/>
				<stop  offset="0.1569" style="stop-color:#FFFFFF"/>
				<stop  offset="0.8157" style="stop-color:#FFFFFF"/>
				<stop  offset="0.9255" style="stop-color:#AEB5F5"/>
			</linearGradient>
			<path class="st2" d="M1342.9,1047.3c-1.1-0.4-1.8-0.5-2.2-0.2c-0.7,0.4-1,1.6-1,3.6C1339.8,1049.3,1340.8,1048.1,1342.9,1047.3z"
				/>
		</g>
		<g>
			<path class="st3" d="M594.4,338.4v509l11.8-6.8V360.4v-15.5L594.4,338.4z M1122.6,867.2L727.5,858l-0.1,4.8l-0.7,31.4l395.9,10
				V867.2z M1433.9,262.4v619.7l18-9.3V271.7L1433.9,262.4z"/>
			<path class="st4" d="M606.3,344.9l814-63.4v-8.2l-825.8,65.1L606.3,344.9z M1122.6,867.2v37l37.3-17.3l-6.9-12.5l-6.8-12.1
				l-4.1-7.4l-0.8-1.4l-148.5-4.2v11.9l129.8,3V867.2z M795.3,856.7l83.6,1.9v-12.5l-83.6-2.3v1.9v7.1V856.7z"/>
			<polygon class="st5" points="1420.3,281.5 606.3,344.9 606.3,360.4 1405.5,298.1 1405.5,862 1420.3,862.4 			"/>
			<path class="st0" d="M795.3,845.7l-189-5l-11.8,6.8l200.8,5.4V845.7z M1405.5,862l-263.4-7l4.1,7.4l274.1,7.4v-7.3L1405.5,862z
				 M795.3,856.7l-57.7-1.3l-10,2.6l395.1,9.2v-2.9l-129.8-3l-29.6-0.7l-84.3-1.9L795.3,856.7z"/>
			<polygon class="st6" points="1433.9,882.1 1433.9,262.4 582.6,330 582.6,858.9 727.4,862.9 727.5,858 737.6,855.4 795.3,856.7 
				795.3,852.8 594.4,847.4 594.4,338.4 1420.3,273.3 1420.3,281.5 1420.3,862.4 1420.3,869.8 1146.2,862.3 1153,874.5 			"/>
			<path class="st7" d="M1405.5,862V298.1l-799.2,62.3v480.3l189,5v-1.9l83.6,2.3v-12.8h83.4h30.5v16l148.5,4.2l0.8,1.4L1405.5,862z
				 M641.2,418.7c0.9-1.1,2.1-1.6,3.5-1.7L919,400.3c1.4-0.1,2.6,0.4,3.7,1.3c1.1,0.9,1.6,2.1,1.7,3.5c0.1,1.4-0.3,2.6-1.3,3.7
				c-0.9,1.1-2.1,1.6-3.5,1.7l-274.3,16.6c-1.4,0.1-2.6-0.4-3.7-1.3c-1.1-0.9-1.6-2.1-1.7-3.5C639.8,421,640.3,419.8,641.2,418.7z
				 M641.2,461.4c0.9-1.1,2.1-1.6,3.5-1.7l276.1-16.8c1.4-0.1,2.6,0.4,3.7,1.3c1.1,0.9,1.6,2.1,1.7,3.5c0.1,1.4-0.3,2.6-1.3,3.7
				c-0.9,1.1-2.1,1.6-3.5,1.7l-276.2,16.8c-1.4,0.1-2.6-0.4-3.7-1.3c-1.1-0.9-1.6-2.1-1.7-3.5C639.8,463.7,640.3,462.5,641.2,461.4z
				 M641.8,507.5c0-1.4,0.4-2.6,1.4-3.7c1-1,2.1-1.6,3.5-1.6L921,493c1.4,0,2.6,0.4,3.7,1.4c1,1,1.6,2.1,1.6,3.5
				c0,1.4-0.4,2.6-1.4,3.7c-1,1-2.1,1.6-3.5,1.6l-274.3,9.3c-1.4,0-2.6-0.4-3.7-1.4C642.3,510.1,641.8,508.9,641.8,507.5z
				 M659.9,565.4c0.7-0.7,1.5-1.1,2.4-1.1l51.3-1.3c0.7,0,1.3,0.1,1.9,0.4c0.6,0.3,1,0.8,1.3,1.4c0.3,0.6,0.5,1.2,0.5,1.8v51.2
				c0,1-0.3,1.9-1,2.6c-0.7,0.7-1.5,1-2.5,1h-51.2c-1,0-1.9-0.4-2.6-1c-0.7-0.7-1.1-1.6-1.1-2.6v-49.9
				C658.9,566.9,659.2,566,659.9,565.4z M666.1,571.4v42.9h44v-44L666.1,571.4z M670.6,765.3c25-3.7,42.4-19.6,52.3-47.8
				c14.7-41.9,36-62.8,64-62.7c28.1-0.8,48.7,18,61.8,56.3c3,8.5,7.5,16.1,13.6,23c18.1,20.5,49.7,33.9,95,40.5
				c1.4,0.2,2.5,0.9,3.4,2c0.9,1.1,1.2,2.4,1,3.8c-0.2,1.4-0.9,2.5-2,3.4c-1.1,0.9-2.4,1.2-3.8,1c-42.2-6.1-73.4-17.9-93.5-35.6
				c-11.2-9.8-18.9-21.4-23.3-34.7c-11.2-32.8-28.5-49.3-51.9-49.4c-23.5,0.8-41.7,19.4-54.5,55.9c-11.5,32.9-32.2,51.2-61.9,54.8
				v10.5l282.2,3.3c1.4,0,2.6,0.5,3.6,1.6c1,1,1.5,2.2,1.5,3.6c0,1.4-0.5,2.6-1.6,3.6c-1,1-2.2,1.5-3.6,1.5l-282.1-3.3v9.2
				c0,1.4-0.5,2.6-1.5,3.6c-1,1-2.2,1.5-3.6,1.5c-1.4,0-2.6-0.5-3.6-1.5c-1-1-1.5-2.2-1.5-3.6v-9.4l-28.3-0.3
				c-1.4,0-2.6-0.5-3.6-1.6c-1-1-1.5-2.2-1.5-3.6c0-1.4,0.5-2.6,1.5-3.6c1-1,2.2-1.5,3.6-1.5l28.2,0.3v-9.7
				c-5,0.1-10.2-0.3-15.7-0.9c-1.4-0.2-2.5-0.8-3.4-1.9c-0.9-1.1-1.2-2.4-1-3.8c0.2-1.4,0.8-2.5,1.9-3.4c1.1-0.9,2.4-1.2,3.8-1
				c5,0.6,9.9,0.9,14.5,0.8v-12.3c0-1.4,0.5-2.6,1.5-3.6c1-1,2.2-1.5,3.6-1.5c1.4,0,2.6,0.5,3.6,1.5c1,1,1.5,2.2,1.5,3.6V765.3z
				 M1053.3,458.2l-60.2,55.4c15.8,15.2,34.7,22.8,56.8,22.8c22.7,0,42-8,58-24c16-16,24-35.3,24-58c0-22.7-8-42-24-57.9
				c-16-16-35.3-24-58-24c-22.7,0-42,8-58,24c-16,16-24,35.3-24,57.9c0,19.8,6.1,37,18.3,51.7l60.3-55.5c1.1-1,2.3-1.4,3.7-1.4
				c1.4,0.1,2.6,0.6,3.5,1.6c1,1.1,1.4,2.3,1.3,3.7C1054.9,456,1054.3,457.2,1053.3,458.2z M1049.8,546.7c-25,0-46.5-8.7-64.3-26.1
				l-44.1,40.6c-1.1,1-2.3,1.4-3.7,1.4c-1.4-0.1-2.6-0.6-3.5-1.6c-1-1.1-1.4-2.3-1.4-3.7c0.1-1.4,0.6-2.6,1.7-3.5l44.1-40.6
				c-13.9-16.7-20.9-36.2-21-58.6c0-25.5,9-47.2,27-65.2c18-18,39.8-27,65.2-27c25.5,0,47.2,9,65.2,27s27,39.7,27,65.2
				s-9,47.2-27,65.3C1097,537.6,1075.3,546.6,1049.8,546.7z M823,566.8c1-1,2.3-1.5,3.6-1.5h92.7c1.4,0,2.6,0.5,3.6,1.5
				c1,1,1.5,2.2,1.5,3.6c0,1.4-0.5,2.6-1.5,3.6c-1,1-2.2,1.5-3.6,1.5h-92.7c-1.4,0-2.6-0.5-3.6-1.5c-1-1-1.5-2.3-1.5-3.6
				S822,567.8,823,566.8z M924.4,618.5c0,1.4-0.5,2.6-1.5,3.6c-1,1-2.2,1.5-3.6,1.5h-92.7c-1.4,0-2.6-0.5-3.6-1.5
				c-1-1-1.5-2.3-1.5-3.6c0-1.4,0.5-2.6,1.5-3.6c1-1,2.3-1.5,3.6-1.5h92.7c1.4,0,2.6,0.5,3.6,1.5C924,615.9,924.5,617.1,924.4,618.5
				z M922.9,590.8c1,1,1.5,2.2,1.5,3.6c0,1.4-0.5,2.6-1.5,3.6c-1,1-2.2,1.5-3.6,1.5h-92.7c-1.4,0-2.6-0.5-3.6-1.5
				c-1-1-1.5-2.3-1.5-3.6s0.5-2.6,1.5-3.6c1-1,2.3-1.5,3.6-1.5h92.7C920.7,589.3,921.9,589.8,922.9,590.8z"/>
			<path class="st8" d="M670.6,765.3v-11.5c0-1.4-0.5-2.6-1.5-3.6c-1-1-2.2-1.5-3.6-1.5c-1.4,0-2.6,0.5-3.6,1.5
				c-1,1-1.5,2.2-1.5,3.6v12.3c-4.6,0.1-9.4-0.2-14.5-0.8c-1.4-0.2-2.7,0.2-3.8,1c-1.1,0.9-1.8,2-1.9,3.4c-0.2,1.4,0.2,2.7,1,3.8
				c0.9,1.1,2,1.8,3.4,1.9c5.5,0.7,10.7,1,15.7,0.9v9.7l-28.2-0.3c-1.4,0-2.6,0.5-3.6,1.5c-1,1-1.5,2.2-1.5,3.6
				c0,1.4,0.5,2.6,1.5,3.6c1,1,2.2,1.5,3.6,1.6l28.3,0.3v9.4c0,1.4,0.5,2.6,1.5,3.6c1,1,2.2,1.5,3.6,1.5c1.4,0,2.6-0.5,3.6-1.5
				c1-1,1.5-2.2,1.5-3.6v-9.2l282.1,3.3c1.4,0,2.6-0.5,3.6-1.5c1-1,1.5-2.2,1.6-3.6c0-1.4-0.5-2.6-1.5-3.6c-1-1-2.2-1.5-3.6-1.6
				l-282.2-3.3v-10.5c29.8-3.6,50.4-21.9,61.9-54.8c12.8-36.5,31-55.1,54.5-55.9c23.4,0.1,40.7,16.5,51.9,49.4
				c4.4,13.3,12.2,24.9,23.3,34.7c20.1,17.7,51.3,29.6,93.5,35.6c1.4,0.2,2.7-0.1,3.8-1c1.1-0.9,1.8-2,2-3.4c0.2-1.4-0.1-2.7-1-3.8
				c-0.9-1.1-2-1.8-3.4-2c-45.2-6.5-76.9-20-95-40.5c-6.1-6.9-10.6-14.6-13.6-23c-13.1-38.3-33.7-57.1-61.8-56.3
				c-28-0.1-49.3,20.8-64,62.7C713,745.7,695.6,761.6,670.6,765.3z M666.1,571.4l44-1.1v44h-44V571.4z M659.9,565.4
				c-0.7,0.7-1.1,1.5-1.1,2.5v49.9c0,1,0.4,1.9,1.1,2.6c0.7,0.7,1.6,1,2.6,1h51.2c1,0,1.8-0.4,2.5-1c0.7-0.7,1-1.6,1-2.6v-51.2
				c0-0.6-0.2-1.2-0.5-1.8c-0.3-0.6-0.8-1-1.3-1.4c-0.6-0.3-1.2-0.4-1.9-0.4l-51.3,1.3C661.4,564.3,660.6,564.7,659.9,565.4z
				 M641.8,507.5c0,1.4,0.6,2.6,1.6,3.6c1,1,2.3,1.4,3.7,1.4l274.3-9.3c1.4,0,2.6-0.6,3.5-1.6c1-1,1.4-2.3,1.4-3.7
				c0-1.4-0.6-2.6-1.6-3.5c-1-1-2.3-1.4-3.7-1.4l-274.3,9.3c-1.4,0-2.6,0.6-3.5,1.6C642.2,504.9,641.7,506.1,641.8,507.5z
				 M641.2,461.4c-0.9,1.1-1.4,2.3-1.3,3.7c0.1,1.4,0.7,2.6,1.7,3.5c1.1,0.9,2.3,1.4,3.7,1.3l276.2-16.8c1.4-0.1,2.6-0.7,3.5-1.7
				c0.9-1.1,1.4-2.3,1.3-3.7c-0.1-1.4-0.6-2.6-1.7-3.5c-1.1-0.9-2.3-1.4-3.7-1.3l-276.1,16.8C643.3,459.8,642.1,460.3,641.2,461.4z
				 M641.2,418.7c-0.9,1.1-1.4,2.3-1.3,3.7c0.1,1.4,0.7,2.6,1.7,3.5c1.1,0.9,2.3,1.4,3.7,1.3l274.3-16.6c1.4-0.1,2.6-0.7,3.5-1.7
				c0.9-1.1,1.4-2.3,1.3-3.7c-0.1-1.4-0.6-2.6-1.7-3.5c-1.1-0.9-2.3-1.4-3.7-1.3L644.7,417C643.3,417.1,642.1,417.6,641.2,418.7z
				 M922.9,590.8c-1-1-2.2-1.5-3.6-1.5h-92.7c-1.4,0-2.6,0.5-3.6,1.5c-1,1-1.5,2.2-1.5,3.6s0.5,2.6,1.5,3.6c1,1,2.3,1.5,3.6,1.5
				h92.7c1.4,0,2.6-0.5,3.6-1.5c1-1,1.5-2.3,1.5-3.6C924.5,593,924,591.8,922.9,590.8z M924.4,618.5c0-1.4-0.5-2.6-1.5-3.6
				c-1-1-2.2-1.5-3.6-1.5h-92.7c-1.4,0-2.6,0.5-3.6,1.5c-1,1-1.5,2.2-1.5,3.6c0,1.4,0.5,2.6,1.5,3.6c1,1,2.3,1.5,3.6,1.5h92.7
				c1.4,0,2.6-0.5,3.6-1.5C924,621.1,924.5,619.9,924.4,618.5z M823,566.8c-1,1-1.5,2.2-1.5,3.6s0.5,2.6,1.5,3.6
				c1,1,2.3,1.5,3.6,1.5h92.7c1.4,0,2.6-0.5,3.6-1.5c1-1,1.5-2.3,1.5-3.6c0-1.4-0.5-2.6-1.5-3.6c-1-1-2.2-1.5-3.6-1.5h-92.7
				C825.2,565.2,824,565.7,823,566.8z M1049.8,546.7c25.5,0,47.2-9,65.2-27c18-18,27-39.8,27-65.3s-9-47.2-27-65.2s-39.7-27-65.2-27
				c-25.5,0-47.2,9-65.2,27c-18,18-27,39.7-27,65.2c0,22.4,7,42,21,58.6l-44.1,40.6c-1,1-1.6,2.1-1.7,3.5c-0.1,1.4,0.4,2.6,1.4,3.7
				c1,1,2.1,1.6,3.5,1.6c1.4,0.1,2.6-0.4,3.7-1.4l44.1-40.6C1003.4,537.9,1024.8,546.6,1049.8,546.7z M1053.3,458.2
				c1-1,1.6-2.1,1.6-3.5c0.1-1.4-0.4-2.6-1.3-3.7c-1-1-2.1-1.6-3.5-1.6c-1.4-0.1-2.6,0.4-3.7,1.4l-60.3,55.5
				c-12.2-14.7-18.3-31.9-18.3-51.7c0-22.7,8-42,24-57.9c16-16,35.3-24,58-24c22.7,0,42,8,58,24c16,16,24,35.3,24,57.9
				c0,22.7-8,42-24,58c-16,16-35.3,24-58,24c-22.1,0-41-7.6-56.8-22.8L1053.3,458.2z M878.9,858.7l84.3,1.9l-0.9-27.3h-83.4v12.8
				V858.7z"/>
			<polygon class="st9" points="992.8,849.4 992.8,833.4 962.3,833.4 963.2,860.6 992.8,861.3 			"/>
			<path class="st10" d="M1340.7,1047.2c0.4-0.3,1.1-0.2,2.2,0.2c-2.1,0.8-3.2,1.9-3.2,3.4
				C1339.7,1048.8,1340.1,1047.6,1340.7,1047.2z"/>
		</g>
		<path class="st11" d="M869.3,146.1c-4.6,5.4-6.9,11.4-7,18l-0.1,1296c0,6.6,2.4,12.4,7,17.5c4.6,5.1,10.2,8,16.9,8.7l609,63.6
			c8.4,0.9,15.5-1,21.5-5.6c5.9-4.7,8.9-10.7,8.8-18.2V57.5c0.1-7.5-2.9-13.4-8.8-17.6c-4.5-3.3-9.8-4.8-15.8-4.8
			c-1.8,0-3.7,0.2-5.7,0.5l-609,100.9C879.5,137.6,873.9,140.8,869.3,146.1z"/>
		<path class="st12" d="M1253.5,135.9c0.5-0.3,1.2-0.4,1.9-0.3c3.4-0.5,6.4-0.2,9.2,1c2.6,0.8,4.8,2.4,6.7,4.7
			c1.5,2.2,2.8,5.1,3.9,8.7c0.9,3.5,1.3,8.4,1.4,14.8c-0.2,7.3-1.2,13.4-2.8,18.3c-1.9,4.6-4.4,8.3-7.5,11.3
			c-3.5,2.7-7.5,4.3-12.2,4.8c-6.5,0.5-11.4-1.2-14.9-5.1c-4.2-5-6.1-13.2-5.7-24.6c0.1-7.3,1.1-13.2,2.9-17.6
			c1.4-4.7,3.8-8.5,7.2-11.2c2.2-2.1,4.8-3.6,8-4.4c0.4-0.2,0.8-0.3,1.3-0.3c0-0.1,0.1-0.2,0.3-0.1
			C1253.2,135.9,1253.3,135.8,1253.5,135.9z M1264.4,145.7c-2.5-3.2-5.6-4.5-9.2-3.9c-3.8,0.3-6.8,2.2-8.9,5.5
			c-3,4-4.6,11.1-4.8,21.2c-0.4,10.2,0.7,16.9,3.4,20.2c2.4,3,5.5,4.4,9.3,4.2c3.6-0.5,6.7-2.6,9.4-6.1c2.6-3.9,4.1-10.9,4.5-21.2
			C1268.1,155.2,1266.9,148.6,1264.4,145.7z M1356.9,179.4l0,9.6l-10.6,0.9l0-9.4L1356.9,179.4z M1318.7,164.1
			c-3-2.3-6.6-3.1-10.6-2.4c-4.3,0.3-7.7,1.8-10.2,4.7c-2.9,2.6-4.3,5.8-4.1,9.6c-0.3,2.2,0.3,4.4,1.7,6.5c0.9,1.9,2.6,3.3,5.1,4.3
			c2.1,0.9,4.6,1.2,7.4,1.2c4.2-0.6,7.7-2.2,10.7-4.9c2.6-2.8,4-6,4.1-9.7C1322.7,169.3,1321.3,166.2,1318.7,164.1z M1316.7,136.7
			c-2.3-1.8-5-2.4-8.2-1.8c-3.4,0.2-6.2,1.5-8.3,3.8c-2.3,2.1-3.5,4.6-3.4,7.4c-0.2,2.9,0.9,5.2,3.2,7.1c2.1,1.5,4.8,2.1,8.3,1.8
			c3.3-0.5,6.2-1.8,8.5-3.9c2-2.3,3.1-4.8,3.3-7.5C1319.9,140.5,1318.8,138.2,1316.7,136.7z M1346.4,141.5l10.5-1.3l0,9.3l-10.5,1.3
			L1346.4,141.5z M1323.5,131.2c3.6,2.7,5.5,6.5,5.6,11.3c-0.1,2.9-0.9,5.6-2.5,8.1c-2,2.4-4.8,4.5-8.3,6.2
			c4.2,0.8,7.6,2.5,10.2,5.2c2.1,2.5,3.2,5.9,3.4,10.1c-0.1,5.6-2.3,10.5-6.7,14.9c-4.7,4.2-10.5,6.6-17.5,7.4
			c-7.1,0.5-12.7-0.8-16.9-4.1c-4.2-3.5-6.2-8-6.1-13.5c-0.1-4.2,1-7.8,3.5-10.6c2.3-3.2,5.6-5.6,10-7.1c-3.8-0.8-6.4-2.2-8-4.2
			c-1.8-2-2.6-4.5-2.4-7.5c-0.1-4.7,1.8-8.8,5.6-12.3c3.5-3.7,8.4-5.9,14.8-6.7C1314.4,127.4,1319.5,128.4,1323.5,131.2z
			 M1402.2,160.5l-0.4-31.2l-24.7,33.7L1402.2,160.5z M1403.5,115.7l8.2-1.2l0.7,44.7l11.3-1.1l0.1,7.9l-11.3,1.1l0.2,16.9
			l-10.1,0.8l-0.2-16.7l-34.5,3.5l0.1-7.6L1403.5,115.7z M1487.1,105.3l0.3,8.6l-35.3,4.6l-4.2,19.3c4.9-3.6,10.4-5.7,16.5-6.2
			c7.5-1.1,14.1,0.2,19.8,4.1c5.4,3.7,8.3,9,8.8,16.1c0.1,6.6-2.2,12.6-6.7,18c-5.9,6.3-13.7,10-23.4,11c-8.2,0.7-14.8-0.5-19.8-3.7
			c-5.2-3.2-8.1-7.7-8.7-13.5l11.2-2c0.7,4.2,2.7,7.4,6,9.5c2.8,1.9,6.5,2.8,11.1,2.5c5.1-0.7,9.5-2.8,13.3-6.3
			c3.2-3.6,5-8.1,5.2-13.4c-0.6-5.1-2.6-8.9-6-11.5c-3.7-2.6-8.3-3.5-13.8-2.7c-3.6,0.3-6.7,1.3-9.1,3c-3,1.4-5.2,3.3-6.5,5.7h-9.8
			l7.3-37L1487.1,105.3z"/>
		<path class="st12" d="M921.8,152.4v27.9l8.5-1.5v-27.9L921.8,152.4z M935.8,177.8l8.5-1.5v-22.2l-8.5,1.5V177.8z M949.8,160.3v15
			l8.5-1.5v-15L949.8,160.3z"/>
		<path class="st12" d="M1322.5,211.8l5.9-0.7l7.4,34.6l10.3-36.6l5.6-0.7l-1.3,42.2l-4,0.3l1.1-35.2l-10.2,35.9l-3.7,0.3l-7.5-34.5
			l-1.3,35.2l-3.9,0.3L1322.5,211.8z M1361.9,225.4c-1.4,2.1-2.1,5.1-2.2,9c-0.2,4,0.4,6.9,1.7,8.8c1.3,1.8,2.9,2.7,4.9,2.5
			c2-0.2,3.6-1.3,5.1-3.4c1.4-2.2,2.1-5.3,2.2-9.4c0.1-3.9-0.5-6.7-1.8-8.6c-1.3-1.9-2.9-2.7-4.9-2.4
			C1365,222.2,1363.3,223.3,1361.9,225.4z M1355.8,234.8c0.1-5.7,1.4-10,3.8-13c2-2.5,4.6-3.9,7.5-4.2c3.2-0.4,5.8,0.8,7.9,3.4
			c2,2.6,2.9,6.3,2.8,11.3c-0.2,4.1-0.7,7.3-1.6,9.7c-1,2.3-2.4,4.2-4.2,5.7c-1.9,1.4-3.8,2.2-5.8,2.4c-3.3,0.2-5.9-1-7.8-3.6
			C1356.4,243.9,1355.5,239.9,1355.8,234.8z M1398.6,215.4c1.1,0.5,2,1.2,2.7,2.3c0.6,1,1,2.3,1.3,3.9c0.1,1,0.1,2.7,0.1,5.3
			l-0.4,19.7l-4.2,0.3l0.5-19.4c0-2.2-0.2-3.9-0.4-4.9c-0.4-1.1-0.9-1.9-1.7-2.4c-0.9-0.6-1.8-0.8-2.9-0.6c-1.8,0.1-3.3,1-4.6,2.6
			c-1.4,1.5-2.1,4.3-2.1,8.4l-0.4,17.3l-4.2,0.3l0.8-31.5l3.7-0.4l-0.1,4.5c1.9-3.7,4.5-5.7,7.9-6
			C1395.9,214.6,1397.3,214.8,1398.6,215.4z M1440.8,232.1c-0.4,0.8-0.6,1.7-0.6,2.7c-0.1,1.5,0.4,2.7,1.3,3.6
			c0.9,0.9,2.2,1.4,4,1.2c1.8-0.2,3.3-0.8,4.8-1.8c1.4-1.2,2.4-2.6,3.1-4.2c0.5-1.4,0.7-3.3,0.8-5.7l0-2.1c-1.7,1-4.2,1.9-7.5,2.8
			c-1.9,0.4-3.2,0.9-4,1.5C1441.8,230.5,1441.2,231.2,1440.8,232.1z M1419,216.7c-1.9,0.2-3.6,1.3-4.9,3.4c-1.4,2.1-2.1,5.3-2.1,9.6
			c-0.1,4.1,0.5,7.1,1.9,9.1c1.3,1.9,2.9,2.8,4.8,2.7c1.9-0.2,3.6-1.3,5-3.4c1.3-2.1,2.1-5.2,2.1-9.2c0-4.5-0.6-7.7-1.9-9.6
			C1422.6,217.4,1420.9,216.5,1419,216.7z M1438.3,214.6c0.9-1.5,2.2-2.8,3.9-3.7c1.7-1,3.8-1.6,6.1-1.8c2.3-0.3,4.1-0.1,5.6,0.4
			c1.4,0.5,2.5,1.2,3.2,2.2c0.6,0.9,1.1,2.2,1.5,3.8c0.1,0.9,0.2,2.6,0.2,5.1l0,7.7c-0.1,5.2,0,8.5,0.2,10c0.2,1.3,0.6,2.7,1.2,3.9
			l-4.9,0.4c-0.5-1.2-0.8-2.6-0.9-4.1c-1.7,1.9-3.4,3.2-5,4.1c-1.6,0.8-3.3,1.3-5,1.5c-3,0.2-5.2-0.5-6.8-2.1
			c-1.6-1.7-2.4-3.9-2.3-6.6c0-1.6,0.3-3.1,1-4.5c0.6-1.4,1.4-2.6,2.4-3.4c0.9-0.9,2-1.6,3.3-2.1l4-1.2c3.7-0.9,6.4-1.8,8.2-2.7
			l0.1-1.5c0-2.3-0.4-3.9-1.2-4.7c-1.2-1.2-3-1.7-5.2-1.4c-2.2,0.2-3.8,0.9-4.7,1.9c-1.1,1-1.8,2.7-2.3,5.1l-4.4-0.3
			C1436.7,218,1437.4,216.1,1438.3,214.6z M1425.9,200l4.3-0.6l-0.6,45.1l-4.1,0.3l0.1-4.1c-1.7,3.4-4.1,5.2-7.3,5.5
			c-2.1,0.1-4-0.5-5.6-1.7c-1.7-1.3-3-3.2-3.8-5.6c-0.9-2.5-1.3-5.4-1.3-8.6c0-3.2,0.5-6.1,1.4-8.8c0.9-2.8,2.2-4.9,3.9-6.5
			c1.7-1.6,3.6-2.5,5.8-2.7c1.5-0.2,2.9,0,4.1,0.8c1.2,0.7,2.1,1.7,3,2.9L1425.9,200z M1463.5,208.3l5.1-0.6l5.6,18.9
			c0.8,2.4,1.4,4.9,2.1,7.7c0.5-2.7,1.2-5.3,2-7.8l6.1-20.4l4.9-0.5l-11,35.7c-1.2,3.9-2,6.5-2.7,8.1c-0.9,1.9-1.9,3.4-2.9,4.4
			c-1.2,0.9-2.5,1.4-4,1.6c-0.9,0.1-2-0.1-3-0.4l-0.5-5.4c1,0.2,1.9,0.4,2.7,0.3c1-0.1,1.9-0.3,2.5-0.8c0.6-0.5,1.1-1.2,1.6-2
			l1.9-5.8L1463.5,208.3z"/>
		<path class="st12" d="M884.5,171.3c0,4.2,1.3,7.8,3.9,10.6c2.6,2.8,5.7,4.1,9.3,3.8c3.7-0.3,6.8-2,9.3-5.1
			c2.6-3.2,3.9-6.9,3.9-11.1s-1.3-7.8-3.9-10.6c-2.6-2.8-5.7-4.1-9.3-3.8c-3.7,0.3-6.8,2-9.3,5.1
			C885.8,163.3,884.5,167.1,884.5,171.3z"/>
		<g>
			<path class="st13" d="M1526.9,9c1.7-0.2,3.4-0.4,5.1-0.4c6.2-0.1,11.7,1.6,16.5,4.9c6.2,4.4,9.3,10.5,9.2,18.2v1515.1
				c0.1,7.7-3,13.9-9.2,18.7c-4.2,3.2-8.9,5.1-14.2,5.8l3.1,0.3c9,0.8,16.6-1.1,22.9-5.9c6.3-4.8,9.5-11,9.3-18.7V23.3
				c0.1-7.8-3-13.9-9.3-18.3c-4.9-3.4-10.5-5-16.8-5c-2,0-4,0.2-6.1,0.5L887.8,105.3c-7.1,1.1-13.1,4.5-18,10
				c-4.5,5.1-7,10.8-7.4,17c0.1-0.1,0.1-0.1,0.1-0.2c1.1-1.3,2.3-2.4,3.5-3.4c0.2-0.5,0.5-0.9,0.8-1.4c0.8-1.4,1.8-2.7,3-4
				c4.8-5.6,10.6-8.9,17.4-10L1516,9.1c2-0.3,4-0.5,5.9-0.5C1523.6,8.6,1525.3,8.7,1526.9,9z"/>
			<path class="st14" d="M869.6,1496.6c0,0,0.1,0.1,0.2,0.1c4.8,5.3,10.6,8.3,17.4,9l628.8,65.6c3,0.3,5.8,0.3,8.5-0.1
				c5.1-0.8,9.6-2.7,13.7-5.8c6.1-4.8,9.2-11,9.1-18.7V31.7c0.1-7.7-3-13.7-9.1-18.2c-3.4-2.4-7.2-3.9-11.3-4.5
				c-1.6-0.3-3.3-0.4-4.9-0.4c-1.9,0-3.9,0.1-5.9,0.5L887.2,113.3c-6.8,1.1-12.6,4.5-17.4,10c-1.1,1.3-2.1,2.6-3,4
				c-0.3,0.5-0.6,0.9-0.8,1.4c4.1-3.5,8.8-5.7,14-6.5h0l548.2-89.9l77.2-13.1c2-0.3,4-0.5,5.9-0.5c0.9,0,1.7,0,2.5,0.1
				c0.8-0.1,1.5-0.1,2.2-0.1c6.2-0.1,11.6,1.6,16.3,4.9c6.2,4.4,9.2,10.4,9.1,17.9v1499c0.1,7.5-3,13.7-9.1,18.4
				c-5.8,4.4-12.8,6.4-20.9,5.9c-2,0.1-4,0.1-6.1-0.1l-625.5-64.9h0l-5.5-1.1l-2.5-0.9C871.2,1497.4,870.4,1497.1,869.6,1496.6z"/>
			<path class="st15" d="M872,1497.8l2.5,0.9l5.5,1.1h0l625.5,64.9c2.1,0.2,4.1,0.2,6.1,0.1c6.1-0.4,11.4-2.4,15.9-5.9
				c6.1-4.7,9.2-10.9,9.1-18.4V41.6c0.1-7.6-3-13.6-9.1-17.9c-4-2.8-8.5-4.4-13.5-4.8c-0.8-0.1-1.7-0.1-2.5-0.1
				c-1.9,0-3.9,0.2-5.9,0.5l-77.2,13.1l-548.2,89.9c-6.8,1.1-12.6,4.4-17.3,9.9c-4.7,5.5-7.1,11.6-7.2,18.4l0,1322.6
				c0,6.7,2.4,12.6,7.2,17.8C865.5,1494,868.6,1496.2,872,1497.8z M869.4,146.2c4.6-5.4,10.2-8.7,16.9-9.8l609-100.9
				c2-0.4,3.9-0.6,5.8-0.6c5.9-0.1,11.2,1.5,15.7,4.8c6,4.3,8.9,10.1,8.8,17.6v1468.8c0.1,7.4-2.8,13.5-8.8,18.1
				c-5.9,4.6-13,6.5-21.4,5.7l-609-63.7c-6.6-0.7-12.3-3.5-16.9-8.6c-4.6-5.1-6.9-11-7-17.5l0-1296
				C862.4,157.6,864.7,151.6,869.4,146.2z"/>
			
				<linearGradient id="SVGID_3_" gradientUnits="userSpaceOnUse" x1="353.5992" y1="180.1025" x2="354.4342" y2="1403.7034" gradientTransform="matrix(-1 0 0 1 1552.557 0)">
				<stop  offset="0" style="stop-color:#C7D4DA"/>
				<stop  offset="1" style="stop-color:#7B98A5"/>
			</linearGradient>
			<path class="st16" d="M880.1,122.2L880.1,122.2c-5.3,0.8-10,3-14.1,6.5c-1.2,1-2.3,2.1-3.5,3.4c0,0.1-0.1,0.1-0.1,0.2
				c-4.7,5.4-7,11.5-7.1,18.2l0,1322.6c0,6.7,2.4,12.6,7.2,17.8c2.1,2.4,4.5,4.3,7,5.7c0,0,0,0,0.1,0c0.8,0.4,1.6,0.8,2.4,1.2
				c-3.4-1.5-6.5-3.8-9.3-6.9c-4.7-5.2-7.1-11.1-7.2-17.8l0-1322.6c0-6.7,2.4-12.9,7.2-18.4C867.5,126.6,873.3,123.3,880.1,122.2z
				 M1511.6,1564.8c8.1,0.5,15.1-1.5,20.9-5.9c6.2-4.7,9.2-10.9,9.1-18.4V41.6c0.1-7.6-3-13.6-9.1-17.9c-4.7-3.3-10.1-5-16.3-4.9
				c-0.7,0-1.4,0-2.2,0.1c5.1,0.3,9.6,1.9,13.5,4.8c6.1,4.4,9.2,10.4,9.1,17.9v1499c0.1,7.5-3,13.7-9.1,18.4
				C1523,1562.4,1517.7,1564.4,1511.6,1564.8z"/>
			
				<linearGradient id="SVGID_4_" gradientUnits="userSpaceOnUse" x1="11.0336" y1="63.2991" x2="11.465" y2="1516.9985" gradientTransform="matrix(-1 0 0 1 1552.557 0)">
				<stop  offset="0" style="stop-color:#E3E9EC"/>
				<stop  offset="1" style="stop-color:#ADBFC8"/>
			</linearGradient>
			<path class="st17" d="M1524.5,1571.3l1.5,0.1c2.9,0.3,5.6,0.3,8.3,0c5.3-0.7,10-2.6,14.2-5.8c6.2-4.8,9.3-11,9.2-18.7V31.7
				c0.1-7.7-3-13.7-9.2-18.2c-4.8-3.3-10.3-5-16.5-4.9c-1.6,0-3.3,0.1-5.1,0.4c4.1,0.6,7.9,2.1,11.3,4.5c6.1,4.4,9.2,10.5,9.1,18.2
				v1515.1c0.1,7.7-3,13.9-9.1,18.7C1534.1,1568.6,1529.6,1570.5,1524.5,1571.3z"/>
		</g>
		
			<linearGradient id="SVGID_5_" gradientUnits="userSpaceOnUse" x1="1043.2286" y1="511.189" x2="1069.2278" y2="511.189" gradientTransform="matrix(-1.4611 0.1022 0 1.4645 2732.2419 -735.6108)">
			<stop  offset="0" style="stop-color:#081010"/>
			<stop  offset="1" style="stop-color:#4F7286"/>
		</linearGradient>
		<path class="st18" d="M1170,122.3c0,5.3,1.8,9.6,5.6,13.1c3.7,3.5,8.2,5,13.4,4.6c5.3-0.4,9.7-2.5,13.4-6.5
			c3.7-4,5.6-8.6,5.6-13.9s-1.9-9.6-5.6-13.1c-3.7-3.5-8.2-5-13.4-4.6c-5.3,0.4-9.7,2.5-13.4,6.5C1171.8,112.4,1170,117,1170,122.3z
			"/>
		<path class="st5" d="M1178.4,121.8c0,3,1.1,5.5,3.2,7.5c2.1,2,4.7,2.8,7.7,2.6c3-0.2,5.6-1.4,7.7-3.7c2.1-2.3,3.2-4.9,3.2-7.9
			c0-3-1.1-5.5-3.2-7.5c-2.1-2-4.7-2.8-7.7-2.6c-3,0.2-5.6,1.4-7.7,3.7C1179.4,116.1,1178.4,118.8,1178.4,121.8z"/>
		<path class="st19" d="M1193.1,115.4c-1.2-0.7-2.6-1.1-4.1-0.9"/>
		<path class="st20" d="M1168,1481.9c0-12.3,12.8-22.7,38.4-31.5c26.2-8.5,57.6-12.8,94.4-12.8c36.8,0,68,4.3,93.6,12.8
			c26.2,8.7,39.3,19.2,39.3,31.5c0,12.3-13.1,22.7-39.3,31.2c-25.6,8.7-56.8,13.1-93.6,13.1c-36.8,0-68.2-4.4-94.4-13.1
			C1180.8,1504.6,1168,1494.2,1168,1481.9z"/>
		<g>
			<g>
				<path class="st21" d="M1380.8,1439.2c-7.3,1.3-14.8,1-22.7-0.8c0.6-12.3,0.6-22.1,0.1-29.2c-0.5-7.1-0.9-12.1-1.3-15
					c-0.8-6.2-1.8-12.3-3-18.5c-3.7-19.6-8.6-38.8-14.5-57.8c-6.3-20.1-10.8-40.6-13.3-61.5c-1-8.4-3.3-16.3-6.7-23.8
					c-3.6-7.9-7-15.8-10.4-23.8c-8.2-19.2-14.3-39-18.5-59.5c-4.2-20.5-10-40.6-17.5-60.3l-42.8-117.2c13.7-1.3,27.8-3.8,42.3-7.4
					c0.1,0,0.3-0.1,0.4-0.1c0.2,1.3,0.5,2.8,0.7,4.3c1.1,6.7,1.9,11,2.3,12.7c0.1,0.1,0.1,0.3,0.1,0.3c1.8,5.5,4,13.9,6.6,25.1
					c2.6,11.2,4.3,19.5,5,24.8c0.8,5.3,9.9,35,27.3,89c17.4,54,27.5,88.1,30.4,102.3c1.5,7.4,4.4,21,8.6,40.8
					c4.1,19.5,7.4,36.4,10.1,50.6c6,32.9,9.8,60,11.2,81.4L1380.8,1439.2z M1239.5,1404.6c-10.3,0.4-20.8-1.6-31.4-6
					c3-7.3,5.2-15,6.5-23.2c0.9-5.8,1.4-11.8,1.4-18c0.6-43.7-3.8-91.1-13-142.1c-2.2-8.3-8.4-30.2-18.5-65.8
					c-6.6-23.4-11-46.6-13.2-69.7c-1.1-12-1.7-23.8-1.7-35.6c0.3-34.6,1.8-60.7,4.4-78.4c0.5-4.2,0.9-8.3,1.3-12.3c0,0,0-0.1,0-0.1
					c5.9,4.9,10.7,8.5,14.3,10.9c7.6,4.8,14.9,7.7,22,8.8c6.1-0.1,12.2-0.5,18.5-1.1c-15.6,30.7-22,64.9-19,102.5
					c0.2,1.8,0.3,3.7,0.3,5.5c0.6,16.2,3.3,34.9,7.9,56c7.7,34.6,14.1,63.6,19.2,86.9c5.1,23.3,8.5,45.4,10,66.2
					c1.6,20.8,1,42.3-1.9,64.3c-0.2,1.5-0.7,4.7-1.3,9.5L1239.5,1404.6z"/>
				<path class="st22" d="M1401.7,1430.8c-6.7,4.3-13.6,7.1-20.9,8.4l-5.6-43.7c-1.4-21.4-5.2-48.5-11.2-81.4
					c-2.7-14.2-6-31.1-10.1-50.6c-4.3-19.8-7.1-33.4-8.6-40.8c-2.9-14.1-13-48.2-30.4-102.3c-17.4-54-26.5-83.7-27.3-89
					c-0.7-5.3-2.4-13.6-5-24.8c-2.6-11.2-4.8-19.6-6.6-25.1c0-0.1,0-0.2-0.1-0.3c-0.4-1.7-1.2-6-2.3-12.7c-0.2-1.5-0.5-2.9-0.7-4.3
					c3.5-0.9,7.1-1.8,10.6-2.8c0.2-0.1,0.5-0.1,0.7-0.2c0.5-0.2,1-0.3,1.5-0.5c3.3-0.9,6.7-2,10-3.1l55.7-21.9
					c4.1,22.4,6.3,39.7,6.6,52.2c0.9,28.9,1.2,49.7,1,62.5c-0.2,12.8-0.2,22.8,0.2,29.8c1.1,21.3,2.5,42.5,4.2,63.6
					c1.6,20.4,4.9,40.5,9.9,60.3c1.9,7.3,4.6,14.3,8.2,21c8.8,16.1,13.8,33.3,15.1,51.4c1.4,20.4,1.4,40.8,0,61.1
					c-1.2,16.2-1.4,32.4-0.5,48.6c0.1,8.1,0.7,16.2,1.8,24.3C1398.7,1417.4,1400,1424.1,1401.7,1430.8z M1230.2,971.9l42.8,117.2
					c-11.2,36.5-13.1,73.3-5.5,110.6c10.6,51.8,11.3,103.8,2.1,156c-2.4,9.9-3.6,19.7-3.5,29.5c0,4.2,0.2,8.4,0.7,12.7
					c-9,4.1-18,6.4-27.2,6.7l5.7-41.9c0.7-4.8,1.1-8,1.3-9.5c2.9-22,3.5-43.5,1.9-64.3c-1.5-20.8-4.9-42.9-10-66.2
					c-5.1-23.3-11.5-52.3-19.2-86.9c-4.6-21.1-7.2-39.7-7.9-56c0-1.8-0.1-3.7-0.3-5.5C1208.1,1036.7,1214.5,1002.6,1230.2,971.9
					L1230.2,971.9z"/>
				<path class="st4" d="M1413.9,1489.1c-2.3,4.5-6,8.2-11.1,11.2c-4.9,2.9-10.3,4.7-16.2,5.4c-13.5,1.5-22.9-2.4-28.1-11.7
					c0-7.4,0.7-14.8,2-22.1c-1.3-16-2-25.9-2.2-29.7c-0.1-1.3-0.1-2.5-0.1-3.8c7.8,1.8,15.4,2,22.7,0.8c7.3-1.3,14.2-4.1,20.9-8.4
					c0.2,1.3,0.4,2.7,0.6,4c0,0.1,0,0.3,0,0.4c0.6,3.2,1.2,6.2,1.8,9.2c0.1,0.8,0.3,1.6,0.5,2.4c-2.5,0.6-5.3,1.2-8.3,1.8
					c-0.1,0.1-0.2,0.2-0.3,0.3c-8.8,1.9-15.1,3-18.8,3.3c-1.3,0.1-2.4,0.2-3.2,0.3v7.1c-0.1,0-0.1,3,0,9h0v23.5l0.5,3.4
					c0.5,0.2,1.3,0.4,2.3,0.5c2,0.4,4.2,0.6,6.6,0.6c4.1,0,10.8-2.2,20-6.5c4.3-2.1,7.8-3.6,10.8-4.7
					C1414.2,1486.7,1414.1,1487.9,1413.9,1489.1z M1208.1,1398.6c10.6,4.4,21.1,6.4,31.4,6c9.2-0.3,18.2-2.6,27.2-6.7
					c1.1,4.4,2.5,9.9,4.1,16.5c3.2,12.6,4.9,22.8,5.2,30.8c-6.7,4.7-16.1,7.7-28.2,9c-13.7,0.8-23.7,1.8-30.2,3
					c-16.4,5.6-31.5,9.3-45.3,11c-16.6,2.1-32.1,1.4-46.5-2c-0.1-0.2-0.1-0.5-0.2-0.6c-0.6-1.6-0.9-3.1-0.9-4.5c0,0,0-0.1,0-0.1
					c0-1.6,0.3-3.1,0.9-4.5c7.1,1.8,14.3,2.7,21.6,2.7c15.2,0,33.4-3.4,54.5-10.3c6.9-2.2,14.7-4.9,23.5-8.3
					c8.4-3.3,14-5.4,16.8-6.4c-2-2.7-6.7-6.4-13.9-11.1c-1.8-1.2-5.6-3.5-11.3-6.9c-6-2.9-10.1-5.4-12.1-7.3c-2-1.9-2.8-3.2-2.4-3.8
					C1204.3,1403.1,1206.2,1400.8,1208.1,1398.6z"/>
				<path class="st6" d="M1414.3,1485.4c-2.9,1.1-6.5,2.6-10.8,4.7c-9.2,4.4-15.9,6.5-20,6.5c-2.4,0-4.6-0.2-6.6-0.6
					c-1-0.1-1.8-0.3-2.3-0.5l-0.5-3.4v-23.5h0c-0.1-6,0-9,0-9v-7.1c0.8-0.1,1.8-0.2,3.2-0.3c3.7-0.3,10-1.5,18.8-3.3
					c0.2-0.1,0.3-0.2,0.3-0.3c3-0.6,5.8-1.1,8.3-1.8c1.7,8.1,3.7,15.3,5.8,21.6C1413,1474.6,1414.3,1480.3,1414.3,1485.4z
					 M1202.4,1405.3c-0.3,0.6,0.5,1.8,2.4,3.8c2,2,6,4.4,12.1,7.3c5.7,3.4,9.4,5.7,11.3,6.9c7.3,4.7,11.9,8.4,13.9,11.1
					c-2.8,1-8.4,3.1-16.8,6.4c-8.7,3.3-16.5,6.1-23.5,8.3c-21.2,6.8-39.4,10.3-54.5,10.3c-7.3,0-14.5-0.9-21.6-2.7
					c0.9-2,2.4-3.8,4.5-5.5c3.7-2.8,9-5,16-6.6c8.8-2.3,16.8-5.3,24-9.2c4.7-2.5,9.4-5.9,14-10.2c2-1.8,3.9-3.7,5.8-5.8
					c0.5-0.5,1-1,1.5-1.5c1.7-1.9,3.3-3.7,5-5.6C1198.5,1409.9,1200.5,1407.6,1202.4,1405.3z"/>
				<path class="st23" d="M1358.4,1494.1c5.2,9.3,14.6,13.2,28.1,11.7c5.8-0.7,11.2-2.5,16.2-5.4c5.1-3,8.8-6.7,11.1-11.2
					c0.9,6.6-1.6,12.2-7.4,16.8c-5.2,4-11.8,6.4-19.7,7.2c-8,0.7-14.7-0.4-20-3.5C1360.7,1506,1357.9,1500.8,1358.4,1494.1z
					 M1125.9,1466.3c14.4,3.4,29.9,4,46.5,2c13.8-1.7,28.9-5.4,45.3-11c6.5-1.2,16.5-2.2,30.2-3c12.1-1.3,21.5-4.3,28.2-9
					c2.5,6.2,2.2,10.9-1,14.1c-3.1,3.3-7.6,5.5-13.5,6.6c-5.8,1.1-12.2,1.5-19.2,1.3c-7-0.2-12-1.4-15.1-3.7
					c-11.1,2.7-19.4,4.8-25,6.2c-10,2.4-18.4,4.1-25.3,5.2c-19.4,3-36.5,2.3-51.1-2.2C1125.7,1470.9,1125.7,1468.7,1125.9,1466.3z"
					/>
				<path class="st3" d="M1197.4,601.6c-2.6,1.5-5,2.9-7.3,4.4c-10.3,6.4-18,19.4-23,39.3c-4.1,16.2-5.1,36.1-3,59.8
					c0.3,3.6,0.8,7.3,1.3,10.9c-24.9,15.6-50.5,28.2-76.7,37.8c-1.5-0.4-3-0.8-4.3-1.3c5.6-1.4,12-4.9,19-10.5
					c10-9,13.3-19.8,9.8-32.4c-2.5-9.2-5-18.5-7.6-27.7c23-23.9,46.4-47.3,70.4-70C1182.3,605.5,1189.5,602.1,1197.4,601.6z
					 M1342.2,853c-0.1,7.2,0.2,14.5,0.9,21.9c0.2,1.4,0.3,2.8,0.4,4.2c1.8,14.9,3.9,29.7,6.3,44.5c0.7,4,1.3,8,2,12l-0.4,0.2
					l-55.7,21.9c-3.4,1.1-6.7,2.2-10,3.1c-0.5,0.2-1,0.3-1.5,0.5c-0.2,0-0.5,0.1-0.7,0.2c-3.5,1-7,2-10.6,2.8
					c-0.1,0-0.2,0.1-0.4,0.1c-0.4-1.6-0.9-4.7-1.7-9.2c-0.4-2.5-0.8-5.4-1.3-8.8c-0.8-5.3-1.7-11.7-2.8-19.1
					c-1.9-13.4-2.6-30-2.1-49.9l21.7-12.5c16.1-2.2,32-5.3,47.6-9.3C1336.9,854.8,1339.6,853.9,1342.2,853z M1384.7,705.9
					c0.1-10-0.2-20-0.9-30c-2.3-34.5-20.8-44-55.5-28.3c-14.9,7.9-21.8,19.7-20.7,35.3c2.6,38.4,6.2,76.9,10.8,115.2
					c-1,0.2-2,0.4-3,0.7c-14.6,3.7-29.2,7.6-43.7,11.6c-0.8-0.6-1.5-1.2-2.3-1.7c2.3-22.8,5.2-42.4,8.5-58.9
					c4.8-23.8,9.5-43.5,14.3-59.3c13.6-45.8,42.1-65.7,85.5-59.6c1.9,2.1,3.8,4.3,5.6,6.7c8,10.8,10.8,23,8.3,36.5
					C1389.6,684.8,1387.3,695.4,1384.7,705.9z"/>
				<path class="st24" d="M1045,571.8c1.4,0,2.7-0.2,4-0.5c2.8-0.5,5.6-1.5,8.4-3c1.4-0.7,2.6-1.4,3.7-2.1c3.7-2.9,6.8-6.4,9.4-10.5
					c1.5-2.3,2.3-4.4,2.6-6.3c0.7-2.1,0.7-6.3,0.2-12.6c-0.7-1.6-1-3.3-1-5.1c0.1-3.6-1.1-5.5-3.5-5.6c0,0.2-0.2,3.8-0.8,10.8
					c-0.3,6.4-1,10.4-2,12c-1.6,2.4-5,2.8-10.3,1c-4.8-1.4-7.5-0.3-8.3,3.3c-0.4,0-4.3,0-11.7,0.1c-2.9,0.2-5.2,0.4-6.8,0.5
					c-1.5-3.5-4.5-10.2-9.2-20.2c3.4-7.2,9.8-12.5,19.2-15.7c5.8-2.3,14.3-3.8,25.6-4.7c0.5-2.9,0.4-6.7-0.3-11.5
					c-1.4-5.2-2.5-9.3-3.3-12c-1.7-9.5,0.3-16.3,6-20.2c7.9,18.1,13,35.6,15.1,52.5c2.3,19.5,0.5,37.4-5.5,53.7l-0.3,0.5
					c-0.2,0-0.4,0.1-0.5,0.4c-1.2,0.1-2.5,0.3-3.9,0.6c-7-3.5-13.9-4.2-20.6-2.1c-1.1-0.5-2.2-1.1-3.4-1.8
					C1046.7,572.9,1045.8,572.3,1045,571.8z M1288.3,533.9c-0.5,1-1,2-1.7,2.9c-0.7,0.9-1.5,1.8-2.4,2.6c-3.7,3.1-7.3,4.4-10.8,4.1
					c0.8,3-1,6.8-5.5,11.3c-4.5,4.4-8.5,7-12,7.6c-3.5,0.8-7.6,1.5-12.2,2.1c-0.4,0-0.8,0.1-1.2,0.1c-4,0.5-7.2,0.9-9.4,1.3
					c-4.4,0.7-7.9,0.7-10.5,0.1c-3.5-0.9-6.3-3.1-8.4-6.5c-0.5-3.1-2.9-7.8-7-13.9c-3.9-5.6-5.8-10.4-5.9-14.3
					c-8-0.2-10.9-3.7-8.9-10.4c0.6-2.1,2-5.1,4-9.1c2-4.1,3.2-6.8,3.7-8.3c-3.8-10.3-4.9-20.9-3.4-31.6c7.8,8.5,17.5,14,29.2,16.5
					c0.2,1.6,0.5,3.2,0.9,4.8c0.3,1.2,0.6,2.3,0.9,3.4c3.1,7.8,8.3,13.8,15.8,18.2c7.4,4.4,11.8,10.1,13.1,17.1
					c2.1,0.4,4.1-0.3,6-2.1c0.7-5.8,3.2-10.7,7.4-14.6c2.4-2.2,4.6-3.5,6.5-3.9c6.3,2.9,9.6,8.3,10.1,16.1
					C1286.7,530.3,1287.2,532.3,1288.3,533.9z"/>
				<path class="st25" d="M1226,488.8c-11.7-2.5-21.4-8.1-29.2-16.5c0.1-0.7,0.2-1.5,0.2-2.2c0.1-0.1,0.2-0.3,0.2-0.4v-0.1
					c0.1-0.5,0.2-1,0.3-1.5c0.1-0.2,0.1-0.5,0.1-0.9c0.1-0.6,0.3-1.1,0.5-1.6c0-0.2,0.1-0.5,0.1-0.7l3.1-4.9c1,1,2.2,2,3.5,2.9
					c3.4,2.8,7.1,5.3,11.1,7.4c1.3,0.8,2.7,1.6,4,2.3c1,0.6,3.1,1.7,6.3,3.2c-0.1,1.1-0.2,2.1-0.3,3.2c-0.1,1.5-0.2,2.9-0.3,4.4
					c0,1.8,0.2,3.7,0.4,5.5C1225.9,488.7,1225.9,488.7,1226,488.8z M1045,571.8c-0.6-0.1-1.1-0.2-1.5-0.3l-4.6-0.9
					c-0.5-0.3-0.9-0.6-1.3-0.8c-0.2-0.4-0.6-0.9-1.1-1.5c-2.4-3.8-4.7-8-6.7-12.8c-0.4-0.5-0.7-1.1-1-1.7c1.7-0.1,4-0.3,6.8-0.5
					c7.4-0.1,11.3-0.2,11.7-0.1c0.8-3.6,3.5-4.7,8.3-3.3c5.3,1.7,8.7,1.4,10.3-1c1-1.6,1.7-5.6,2-12c0.6-7,0.8-10.6,0.8-10.8
					c2.4,0.1,3.6,2,3.5,5.6c0,1.8,0.3,3.5,1,5.1c0.6,6.3,0.5,10.5-0.2,12.6c-0.3,1.9-1.2,4-2.6,6.3c-2.6,4.1-5.7,7.6-9.4,10.5
					c-1.1,0.7-2.3,1.4-3.7,2.1c-2.8,1.5-5.6,2.5-8.4,3C1047.7,571.6,1046.3,571.8,1045,571.8z"/>
				<path class="st26" d="M1076,576.4c-0.1,0.1-0.2,0.4-0.3,0.9c-0.1,0.2-0.1,0.5,0,1l-0.3,0.5l-0.5,0.6c-1.2-0.7-2.3-1.4-3.5-2
					c1.4-0.3,2.7-0.5,3.9-0.6C1075.6,576.5,1075.8,576.4,1076,576.4z M1045,571.8c0.8,0.5,1.7,1.1,2.6,1.7c1.1,0.6,2.3,1.2,3.4,1.8
					c-1.5,0.5-3.1,1.1-4.6,1.9c0,0.9,0,1.8,0,2.8c-0.7-0.4-1.4-0.8-2-1.3c-0.8-0.5-1.6-1.2-2.3-2.2c-1.8-1.8-3.3-4-4.5-6.5
					c0.3,0.2,0.8,0.4,1.3,0.8l4.6,0.9C1043.9,571.5,1044.4,571.6,1045,571.8z M1308.2,559.1c0,2.1,0.4,4.9,1.3,8.5l2.3,2.6
					c-7,7.7-14.8,14.6-23.5,20.8c-9.7,6.8-20.2,12.3-31.3,16.5c-6.2,2.4-11.9,2.5-17.1,0.3c-1.1-0.5-2.3-1.2-3.4-1.9
					c-0.7-0.5-1.3-1.3-1.6-2.3c-3.2-9.5-0.6-17.1,7.8-22.8v-6.3v-9.8c0.4,0,0.8-0.1,1.2-0.1c4.6-0.6,8.6-1.3,12.2-2.1
					c3.5-0.6,7.5-3.2,12-7.6c4.5-4.5,6.3-8.3,5.5-11.3c3.5,0.3,7.1-1.1,10.8-4.1c0.9-0.8,1.7-1.7,2.4-2.6l4.3-0.5
					c2.4,1.4,5.8,1.7,10.2,1c2.4-0.2,4.8-0.8,7.2-1.8V559.1z"/>
				<path class="st27" d="M1051,575.2c6.7-2.1,13.6-1.4,20.6,2.1c1.2,0.6,2.3,1.3,3.5,2c0,0,0.1,0,0.1,0.1c0.3,2,0.9,5.7,1.8,11.1
					l0-0.1c-9.3-4.4-19.4-5.1-30.4-2.4c-0.1-2.8-0.2-5.5-0.2-8.1c0-0.9,0-1.8,0-2.8C1047.9,576.4,1049.5,575.7,1051,575.2z"/>
				<path class="st0" d="M1105.4,681.8c2.6,9.2,5.2,18.4,7.6,27.7c3.5,12.6,0.2,23.4-9.8,32.4c-7.1,5.6-13.4,9-19,10.5
					c-13.3,3.4-22.7-4.8-28-24.5c-4.4-16.3-7.6-32.8-9.8-49.7c-3.8-31.1-4-61.1-0.5-90c0.2-0.1,0.4-0.1,0.6-0.2
					c10.9-2.8,21.1-2,30.4,2.4l0,0.1C1087.2,620.7,1096.7,651.1,1105.4,681.8z M1212.5,788.5c-12.5-13.9-25-24.5-37.5-32
					c-4.5-13.3-7.8-26.8-9.7-40.5c-0.5-3.6-0.9-7.3-1.3-10.9c-2.1-23.7-1.1-43.6,3-59.8c5-19.8,12.7-32.9,23-39.3
					c2.3-1.4,4.8-2.9,7.3-4.4c8.9-5,19.3-10.2,31.3-15.5c-2.5,7.9-3.8,13.8-3.9,17.6c0,0.4,0,0.8,0,1.1l-1,20.4l16.7-16.3l8.9,24.6
					l42.4-22.7c0.1,0,3-2,8.5-5.8s10.6-7.5,15.1-10.9c4.5-3.5,8.6-8.7,12.3-15.6c6.9,4.5,15.1,12.8,24.5,24.9
					c5.3,6.8,10.4,12.7,15.4,17.6c3.6,3,7,6.3,10.1,9.8c-43.5-6.1-72,13.8-85.5,59.6c-4.7,15.7-9.5,35.5-14.3,59.3
					c-3.4,16.5-6.2,36.1-8.5,58.9c-14.4-10.6-31.3-17.1-50.7-19.4l-2.3,1.4L1212.5,788.5z M1384.7,705.9c-0.1,10-0.5,20.1-1.4,30.1
					c-3.2,37.2-10.7,72.1-22.5,104.8c-1,0.7-2,1.4-3,2c-3.1,4.1-8.3,7.5-15.7,10.3c-2.5,0.9-5.3,1.8-8.3,2.5
					c-15.7,4-31.6,7.1-47.6,9.3l7.8-4.5c2.2-1.4,3.5-2.8,3.9-4.3l0-8.3v-0.1c0.1-3-2.9-6.5-8.8-10.5c-0.1-0.1-0.3-0.1-0.4-0.2
					c0-1-0.4-2.1-1.2-3.3l4.1-2.4c-6-8.1-12.7-15.1-20.1-20.9c14.5-4,29.1-7.9,43.7-11.6c1-0.3,2-0.5,3-0.7
					c-4.6-38.4-8.2-76.8-10.8-115.2c-1.2-15.6,5.7-27.3,20.7-35.3c34.7-15.7,53.3-6.2,55.5,28.3
					C1384.4,685.8,1384.7,695.9,1384.7,705.9z M1272.4,964.4c-14.5,3.6-28.6,6.1-42.3,7.4h0c-6.3,0.6-12.4,1-18.5,1.1
					c-7.1-1.1-14.4-4-22-8.8c-3.6-2.3-8.3-5.9-14.3-10.9c-1.5-1.2-3-2.5-4.6-3.8c-1-0.9-1.8-1.9-2.7-2.9c1-8.5,1.9-16.5,2.8-24.1
					c0.4,0.1,0.8,0.2,1.2,0.3c2.5,0.6,4.8,1,7,1c3.4,0,6.4-0.8,9-2.3l76.5-44.2c-0.5,19.9,0.2,36.5,2.1,49.9c1,7.5,2,13.8,2.8,19.1
					c0.5,3.4,1,6.3,1.3,8.8C1271.5,959.7,1272.1,962.8,1272.4,964.4z"/>
				<path class="st12" d="M1327.6,578.6c-3.7,6.9-7.8,12.1-12.3,15.6c-4.5,3.5-9.5,7.1-15.1,10.9s-8.5,5.8-8.5,5.8l-42.4,22.7
					l-8.9-24.6l-16.7,16.3l1-20.4c0-0.3,0-0.7,0-1.1c0.1-3.8,1.4-9.7,3.9-17.6l14-11.6v6.3c-8.4,5.7-11,13.3-7.8,22.8
					c0.3,1,0.9,1.8,1.6,2.3c1.1,0.8,2.3,1.4,3.4,1.9c5.2,2.2,10.9,2.1,17.1-0.3c11.2-4.2,21.6-9.7,31.3-16.5
					c8.6-6.1,16.4-13,23.5-20.8l-2.3-2.6c-0.9-3.6-1.3-6.4-1.3-8.5l19.3,19C1327.6,578.3,1327.6,578.4,1327.6,578.6z"/>
				<path class="st8" d="M1175,756.4c12.5,7.5,25,18.2,37.5,32c0.3,0.3,0.6,0.6,0.8,0.9l-10.5,6.1l-94.5,54.8
					c-17-21.8-35.9-35.9-56.7-42.2c-1.7-0.5-3.4-1-5.2-1.4c-4.9-1.2-9.9-1.9-15-2.3l105-60.9C1149.3,744.5,1162.1,748.8,1175,756.4z
					 M1102.6,766.5c-0.7,0.5-1.2,1.2-1.3,2.1c-0.2,0.9,0,1.7,0.5,2.4c0.5,0.7,1.3,1.2,2.1,1.4c20.1,4,38.5,15.1,55.1,33.3
					c0.6,0.7,1.4,1,2.3,1.1c0.9,0,1.7-0.3,2.3-0.9c0.7-0.6,1-1.4,1.1-2.3c0.1-0.9-0.2-1.7-0.9-2.3c-17.7-19.5-37.3-31.3-58.7-35.4
					C1104.3,765.8,1103.4,765.9,1102.6,766.5z M1122.3,754.9c-0.7,0.5-1.2,1.2-1.3,2.1c-0.2,0.9,0,1.7,0.5,2.5
					c0.5,0.7,1.3,1.2,2.1,1.4c20.1,4,38.5,15.1,55.1,33.4c0.6,0.7,1.4,1,2.3,1.1c0.2,0,0.4,0,0.6,0c0.6-0.1,1.2-0.4,1.7-0.8
					c0.7-0.6,1-1.4,1-2.3c0.1-0.9-0.2-1.7-0.8-2.4c-0.6-0.6-1.2-1.3-1.8-1.9c-17.2-18.3-36.2-29.5-56.9-33.5
					C1124,754.2,1123.1,754.3,1122.3,754.9z M1280,838.1l-92.1,54c-3.7-5-7.7-9.6-12.2-13.8c-15.8-14.8-36.5-24.2-62.1-28.2l91-52.7
					l11.6-6.7l2.3-1.4c19.4,2.3,36.3,8.8,50.7,19.4c0.8,0.6,1.5,1.1,2.3,1.7c7.4,5.8,14.1,12.8,20.1,20.9l-4.1,2.4L1280,838.1z
					 M1244.8,850.9c0.7-0.6,1-1.4,1-2.3c0.1-0.9-0.2-1.7-0.8-2.3c-17.7-19.5-37.3-31.3-58.7-35.4c-0.9-0.2-1.7-0.1-2.5,0.5
					c-0.7,0.5-1.2,1.2-1.3,2.1c-0.2,0.9,0,1.7,0.5,2.5c0.5,0.7,1.3,1.2,2.1,1.4c20.1,4,38.5,15.1,55.1,33.4c0.6,0.7,1.4,1,2.3,1.1
					C1243.4,851.8,1244.2,851.5,1244.8,850.9z M1259.6,840.1c0.6,0.7,1.4,1,2.3,1.1c0.9,0,1.7-0.3,2.3-0.9c0.7-0.6,1-1.4,1-2.3
					c0.1-0.9-0.2-1.7-0.8-2.3c-17.7-19.5-37.3-31.3-58.7-35.4c-0.9-0.2-1.7-0.1-2.5,0.5c-0.7,0.5-1.2,1.2-1.3,2.1
					c-0.2,0.9,0,1.7,0.4,2.5c0.5,0.7,1.3,1.2,2.2,1.4C1224.6,810.7,1243,821.8,1259.6,840.1z M1206.6,871.9c0.1-0.9-0.2-1.7-0.8-2.3
					c-8.5-9.3-17.4-16.9-26.7-22.7c-10.2-6.3-20.8-10.6-32-12.7c-0.9-0.2-1.7-0.1-2.5,0.5c-0.7,0.5-1.2,1.2-1.3,2.1
					c-0.2,0.9,0,1.7,0.4,2.5c0.5,0.7,1.3,1.2,2.2,1.4c11.4,2.3,22.3,6.8,32.5,13.7c7.8,5.2,15.4,11.8,22.5,19.7
					c0.6,0.7,1.4,1,2.3,1.1c0.9,0,1.7-0.3,2.3-0.8C1206.2,873.5,1206.5,872.8,1206.6,871.9z M1165.4,828.9c5,1,10,2.5,14.8,4.3
					c14.4,5.7,27.9,15.3,40.3,29c0.6,0.7,1.4,1,2.3,1.1c0.9,0,1.7-0.3,2.4-0.8c0.7-0.6,1-1.4,1-2.3c0.1-0.9-0.2-1.7-0.9-2.4
					c-13.8-15.2-28.7-25.7-44.8-31.5c-4.5-1.7-9.2-3-13.9-3.9c-0.9-0.2-1.7-0.1-2.5,0.5c-0.7,0.5-1.2,1.2-1.4,2.1
					c-0.2,0.9,0,1.7,0.5,2.5C1163.8,828.2,1164.5,828.7,1165.4,828.9z M1123.3,830.6c0.9,0,1.7-0.3,2.4-0.8c0.7-0.6,1-1.4,1-2.3
					c0.1-0.9-0.2-1.7-0.9-2.4c-17.7-19.5-37.3-31.3-58.7-35.4c-0.9-0.2-1.7-0.1-2.5,0.5c-0.7,0.5-1.2,1.2-1.4,2.1
					c-0.2,0.9,0,1.7,0.5,2.5c0.5,0.7,1.3,1.2,2.2,1.4c20.1,4,38.5,15.1,55.1,33.4C1121.7,830.1,1122.4,830.5,1123.3,830.6z
					 M1139.5,816.6c0.6,0.7,1.4,1,2.3,1.1c0.9,0,1.7-0.3,2.3-0.9c0.7-0.6,1-1.4,1.1-2.3c0.1-0.9-0.2-1.7-0.9-2.3
					c-17.7-19.5-37.3-31.3-58.7-35.4c-0.9-0.2-1.7-0.1-2.5,0.5c-0.7,0.5-1.2,1.2-1.3,2.1c-0.2,0.9,0,1.7,0.5,2.4
					c0.5,0.7,1.3,1.2,2.1,1.4C1104.5,787.2,1122.8,798.3,1139.5,816.6z"/>
				<path class="st9" d="M1033.7,816.8c0-0.3,0.1-0.6,0.1-0.8c0.1-0.5,0.3-0.9,0.6-1.4c0.6-0.9,1.6-1.8,2.9-2.7l9.1-5.3
					c1.7,0.4,3.5,0.9,5.2,1.4l-13.7,8c27.2,1.8,51.2,16.1,72.2,43l-0.4,0.2c27.4,4.3,48.9,14.8,64.7,31.7c2.6,2.8,5,5.7,7.3,8.8
					l100.5-58.7c-0.7-1-1.5-2-2.3-3l7.6-4.4c0.8,1.1,1.2,2.2,1.2,3.3c0,0.1,0,0.1,0,0.2v0.2c0,0.6-0.2,1.2-0.5,1.7
					c-0.6,1-1.6,1.9-3.1,2.8l-98,56.6h0c-2.4,1.4-5.2,2.1-8.3,2.1c-1.7,0-3.4-0.2-5.3-0.6c-0.4-0.1-0.8-0.2-1.2-0.3
					c-4.3-1.1-9.1-3.1-14.5-6.2L1046,828.7c-1.2-0.7-2.4-1.4-3.4-2.1c-4.2-2.7-6.9-5.2-8.1-7.4c-0.1-0.1-0.2-0.2-0.3-0.4
					C1033.9,818.1,1033.8,817.4,1033.7,816.8z M1122.3,754.9c0.8-0.6,1.6-0.7,2.5-0.5c20.7,4,39.7,15.2,56.9,33.5
					c0.6,0.6,1.2,1.3,1.8,1.9c0.6,0.7,0.9,1.5,0.8,2.4c0,0.9-0.4,1.7-1,2.3c-0.5,0.5-1.1,0.7-1.7,0.8c-0.2,0-0.4,0-0.6,0
					c-0.9-0.1-1.7-0.4-2.3-1.1c-16.6-18.2-35-29.4-55.1-33.4c-0.9-0.2-1.6-0.7-2.1-1.4c-0.5-0.8-0.6-1.6-0.5-2.5
					C1121.1,756.1,1121.6,755.4,1122.3,754.9z M1102.6,766.5c0.8-0.6,1.6-0.7,2.5-0.5c21.4,4.1,41,15.9,58.7,35.4
					c0.6,0.7,0.9,1.4,0.9,2.3c0,0.9-0.4,1.7-1.1,2.3c-0.7,0.6-1.4,0.9-2.3,0.9c-0.9-0.1-1.7-0.4-2.3-1.1
					c-16.6-18.2-35-29.3-55.1-33.3c-0.9-0.2-1.6-0.7-2.1-1.4c-0.5-0.8-0.6-1.6-0.5-2.4C1101.4,767.7,1101.9,767,1102.6,766.5z
					 M1259.6,840.1c-16.6-18.2-35-29.3-55.1-33.3c-0.9-0.2-1.6-0.7-2.2-1.4c-0.5-0.8-0.6-1.6-0.4-2.5c0.2-0.9,0.6-1.6,1.3-2.1
					c0.8-0.6,1.6-0.7,2.5-0.5c21.4,4.1,41,15.9,58.7,35.4c0.6,0.7,0.9,1.4,0.8,2.3c0,0.9-0.4,1.7-1,2.3c-0.7,0.6-1.5,0.9-2.3,0.9
					C1261,841.1,1260.3,840.7,1259.6,840.1z M1244.8,850.9c-0.7,0.6-1.5,0.9-2.3,0.8c-0.9-0.1-1.7-0.4-2.3-1.1
					c-16.6-18.2-35-29.4-55.1-33.4c-0.9-0.2-1.6-0.7-2.1-1.4c-0.5-0.8-0.6-1.6-0.5-2.5c0.2-0.9,0.6-1.6,1.3-2.1
					c0.8-0.6,1.6-0.7,2.5-0.5c21.4,4.1,41,15.9,58.7,35.4c0.6,0.7,0.9,1.5,0.8,2.3C1245.8,849.5,1245.5,850.3,1244.8,850.9z
					 M1216.3,790.6l-11.6,6.7c-0.6-0.6-1.2-1.3-1.8-1.9l10.5-6.1c-0.3-0.3-0.6-0.6-0.8-0.9L1216.3,790.6z M1165.4,828.9
					c-0.9-0.2-1.6-0.7-2.2-1.4c-0.5-0.8-0.6-1.6-0.5-2.5c0.2-0.9,0.6-1.6,1.4-2.1c0.8-0.6,1.6-0.7,2.5-0.5c4.7,0.9,9.4,2.2,13.9,3.9
					c16.1,5.9,31,16.4,44.8,31.5c0.6,0.7,0.9,1.5,0.9,2.4c0,0.9-0.4,1.7-1,2.3c-0.7,0.6-1.5,0.9-2.4,0.8c-0.9-0.1-1.7-0.4-2.3-1.1
					c-12.5-13.7-25.9-23.3-40.3-29C1175.4,831.4,1170.5,829.9,1165.4,828.9z M1206.6,871.9c0,0.9-0.4,1.7-1,2.3
					c-0.7,0.6-1.5,0.9-2.3,0.8c-0.9-0.1-1.7-0.4-2.3-1.1c-7.2-7.9-14.7-14.4-22.5-19.7c-10.3-6.8-21.1-11.4-32.5-13.7
					c-0.9-0.2-1.6-0.7-2.2-1.4c-0.5-0.8-0.6-1.6-0.4-2.5c0.2-0.9,0.6-1.6,1.3-2.1c0.8-0.6,1.6-0.7,2.5-0.5
					c11.2,2.2,21.9,6.4,32,12.7c9.3,5.8,18.2,13.4,26.7,22.7C1206.4,870.2,1206.6,871,1206.6,871.9z M1139.5,816.6
					c-16.6-18.2-35-29.3-55.1-33.3c-0.9-0.2-1.6-0.7-2.1-1.4c-0.5-0.8-0.6-1.6-0.5-2.4c0.2-0.9,0.6-1.6,1.3-2.1
					c0.8-0.6,1.6-0.7,2.5-0.5c21.4,4.1,41,15.9,58.7,35.4c0.6,0.7,0.9,1.4,0.9,2.3c0,0.9-0.4,1.7-1.1,2.3c-0.7,0.6-1.4,0.9-2.3,0.9
					C1140.9,817.6,1140.1,817.2,1139.5,816.6z M1123.3,830.6c-0.9-0.1-1.7-0.4-2.3-1.1c-16.6-18.2-35-29.4-55.1-33.4
					c-0.9-0.2-1.6-0.7-2.2-1.4c-0.5-0.8-0.6-1.6-0.5-2.5c0.2-0.9,0.6-1.6,1.4-2.1c0.8-0.6,1.6-0.7,2.5-0.5
					c21.4,4.1,41,15.9,58.7,35.4c0.6,0.7,0.9,1.5,0.9,2.4c0,0.9-0.4,1.7-1,2.3C1125,830.3,1124.2,830.6,1123.3,830.6z"/>
				<path class="st28" d="M1051.7,808.1c20.8,6.3,39.7,20.4,56.7,42.2l94.5-54.8c0.6,0.6,1.2,1.2,1.8,1.9l-91,52.7
					c25.6,4,46.3,13.4,62.1,28.2c4.4,4.2,8.5,8.8,12.2,13.8l92.1-54c0.8,1,1.5,1.9,2.3,3l-100.5,58.7c-2.3-3.1-4.7-6.1-7.3-8.8
					c-15.8-16.8-37.3-27.4-64.7-31.7l0.4-0.2c-21-26.9-45-41.2-72.2-43L1051.7,808.1z M1033.7,816.8c0,0.6,0.2,1.3,0.5,2
					c0.1,0.2,0.2,0.3,0.3,0.4c1.2,2.2,3.9,4.7,8.1,7.4c1,0.7,2.2,1.4,3.4,2.1l111.8,64.6c5.3,3.1,10.2,5.1,14.5,6.2
					c0.4,0.1,0.8,0.2,1.2,0.3c1.8,0.4,3.6,0.6,5.3,0.6c3.2,0,5.9-0.7,8.3-2.1h0l98-56.6c1.5-0.8,2.5-1.8,3.1-2.8
					c0.3-0.5,0.5-1.1,0.5-1.7v7.7c-0.3,1.3-1.5,2.6-3.6,3.9l-98.1,56.7c-2.4,1.4-5.2,2.1-8.3,2.1c-1.9,0-3.9-0.3-6-0.8
					c-0.1,0-0.3-0.1-0.4-0.1c-4.3-1.1-9.1-3.2-14.5-6.3L1046,835.9c-1.2-0.7-2.4-1.4-3.4-2.1c-4.3-2.7-7-5.2-8.1-7.5
					c-0.5-0.9-0.7-1.7-0.7-2.5v-2.9c0-0.1,0-0.3,0-0.4V816.8z"/>
				<path class="st29" d="M1033.9,816c-0.1,0.3-0.1,0.6-0.1,0.8v3.7c0,0.1,0,0.3,0,0.4v2.9c0,0.8,0.2,1.7,0.7,2.5
					c1.2,2.3,3.9,4.8,8.1,7.5c1,0.7,2.2,1.4,3.4,2.1l111.8,64.5c5.3,3.1,10.2,5.2,14.5,6.3c0.1,0,0.2,0.1,0.4,0.1
					c2.1,0.5,4.1,0.8,6,0.8c3.2,0,5.9-0.7,8.3-2.1l98.1-56.7c2.1-1.3,3.3-2.6,3.6-3.9v-7.7v-0.2c0-0.1,0-0.1,0-0.2
					c0.1,0.1,0.3,0.1,0.4,0.2c5.9,4,8.9,7.5,8.8,10.5v0.1c0,0.6-0.2,1.3-0.6,1.9c-0.6,1.1-1.7,2.1-3.3,3l-106,61.1h0
					c-2.6,1.5-5.6,2.3-9,2.3c-2.2,0-4.5-0.3-7-1c-0.1,0-0.2,0-0.3-0.1c-4.6-1.2-9.6-3.4-15.3-6.7l-121-69.8
					c-1.3-0.8-2.6-1.5-3.7-2.3c-4.5-3-7.5-5.7-8.7-8c-0.1-0.1-0.2-0.3-0.3-0.5c-0.3-0.7-0.4-1.3-0.5-2v-0.1c0-0.8,0.3-1.6,0.8-2.3
					c0.6-1,1.7-2,3.2-2.9L1033.9,816z"/>
				<path class="st30" d="M1264.6,877.4l-76.5,44.2c-2.6,1.5-5.6,2.3-9,2.3c-2.2,0-4.5-0.3-7-1c-0.4-0.1-0.8-0.2-1.2-0.3
					c-4.3-1.3-9.1-3.4-14.4-6.5l-121-69.8c-1.3-0.8-2.6-1.5-3.7-2.3c-4.6-2.9-7.5-5.6-8.7-8c-0.5-1-0.8-1.9-0.8-2.8v-3.1
					c0-0.2,0-0.3,0-0.4v-3.9c0,0.7,0.2,1.4,0.5,2c0.1,0.2,0.2,0.3,0.3,0.5c1.3,2.4,4.2,5.1,8.7,8c1.1,0.7,2.4,1.5,3.7,2.3l121,69.8
					c5.6,3.3,10.7,5.5,15.3,6.7c0.1,0,0.2,0.1,0.3,0.1c2.5,0.6,4.8,1,7,1c3.4,0,6.4-0.8,9-2.3h0l106-61.1c1.6-0.9,2.7-1.9,3.3-3
					c0.4-0.6,0.5-1.2,0.6-1.9l0,8.3c-0.4,1.4-1.7,2.8-3.9,4.3l-7.8,4.5L1264.6,877.4z"/>
				<path class="st31" d="M1338.6,480.4c-5-4.8-10.6-8.7-17-11.5c-6.6-2.9-13.5-4.4-20.8-4.5c-6.3,0-12.7-0.1-19.1-0.3
					c-4.7,0-9.3-0.2-13.9-0.6c-2.3-0.2-4.6-0.4-6.8-0.7c-6.9-1.1-13.7-2.8-20.6-5.1c-3.5-1.2-7-2.4-10.3-3.6c-3-1.1-6-2.3-8.9-3.5
					c-3.8-1.5-7.3-3.5-10.3-5.9c-2.2-1.7-4.3-3.6-6.1-5.7c-4.5-5.1-7.2-11.1-8.2-17.8c3.5-1.3,7.2-2.7,11-4.2
					c6.6-2.4,13.1-4.5,19.7-6.3c6.9-1.9,13.8-3.5,20.8-4.7c6.7-1.1,13.3-1.9,19.8-2.2c6.7-0.1,13.4,0.3,20.3,1.1
					c7,1,13.5,3.1,19.4,6.3c6.1,3.4,11.4,7.5,16,12.5c4.5,4.9,8,10.5,10.5,16.8c2.7,6.3,4.3,12.8,4.9,19.3
					C1339.4,466.7,1339.3,473.6,1338.6,480.4z"/>
				<path class="st32" d="M1308.2,535.5c-2.4,1-4.8,1.6-7.2,1.8c-4.4,0.7-7.8,0.3-10.2-1c-1-0.6-1.9-1.4-2.5-2.4
					c-1.1-1.6-1.6-3.6-1.8-6.1c-0.5-7.9-3.8-13.3-10.1-16.1c-1.9,0.3-4.1,1.6-6.5,3.9c-4.2,3.9-6.7,8.8-7.4,14.6
					c-1.9,1.8-3.9,2.5-6,2.1c-1.4-7-5.8-12.7-13.1-17.1c-7.4-4.4-12.7-10.4-15.8-18.2c-0.3-1-0.6-2.1-0.9-3.4
					c-0.4-1.6-0.7-3.2-0.9-4.8c0,0,0-0.1,0-0.1c-0.2-1.8-0.4-3.7-0.4-5.5c0.1-1.4,0.2-2.9,0.3-4.4c0.1-1.1,0.3-2.1,0.3-3.2
					c-3.2-1.5-5.3-2.6-6.3-3.2c-1.3-0.7-2.6-1.4-4-2.3c-4-2.1-7.8-4.5-11.1-7.4c-1.3-0.9-2.4-1.9-3.5-2.9c-1.1-1.1-2-2.2-2.8-3.4
					c-6.1-8-7.4-17.7-4.1-28.9c0.6-2.3,1.4-4.5,2.2-6.5c1,6.7,3.7,12.7,8.2,17.8c1.8,2.1,3.9,4,6.1,5.7c3.1,2.4,6.5,4.3,10.3,5.9
					c2.9,1.2,5.9,2.4,8.9,3.5c3.4,1.3,6.8,2.5,10.3,3.6c6.8,2.3,13.7,4,20.6,5.1c2.3,0.3,4.5,0.5,6.8,0.7c4.6,0.4,9.3,0.6,13.9,0.6
					c6.4,0.2,12.8,0.3,19.1,0.3c7.3,0.1,14.2,1.6,20.8,4.5c6.4,2.8,12.1,6.7,17,11.5c-0.4,0.5-0.8,0.9-1.3,1.3
					c-4.7,5.6-8.7,10.7-11.8,15.4c-0.8,1.2-1.7,2.5-2.5,3.9c-0.6,1.2-1.3,2.4-2,3.5c-0.9,2-1.9,4.1-2.9,6.1
					c-0.1,0.3-0.3,0.7-0.5,1.2c-2.8,7.7-4.5,14.8-4.9,21.4C1311.2,534.1,1309.7,534.9,1308.2,535.5z"/>
			</g>
		</g>
		<line class="st33" x1="926.7" y1="755.7" x2="926.7" y2="811.3"/>
		<path class="st27" d="M417.4,1147.8c1.2-0.7,2.3-1.8,3.2-3.3l2.8-4.7l74.1,6.8l2.5,11.7c16.1,7.2,32.2,7.2,48.3,0l1.5-6.9
			l39.6,3.6c24.1,2.2,37.1,4.8,39.1,7.8c0.3,0.4,0.3,0.7,0.2,1c-0.6,2.5-10.3,4.6-29.3,6.3l-156.9,14.3c-21.3,2-48,2.9-80.1,2.7
			c-29.4-0.2-55.5-1.2-78.1-3c-2.1-0.2-4.3-0.4-6.3-0.5l-177.3-16.2c-5.8-0.5-11-1.1-15.5-1.7c-11.7-1.5-19-3.1-22-4.9
			c-0.7-0.4-1.1-0.8-1.4-1.2c-0.7-1,0-1.9,2-2.8c3.9-1.7,12.9-3.2,27-4.5l18.7-1.7l4.7-0.4c3.5,0.3,7.1,0.6,10.9,0.7
			c27.9-1.1,47.6-2.2,59-3.3c7.2,0.3,15.5,2.3,24.8,5.9c10.5,4,18,5.8,22.6,5.2c1.2-0.4,3-0.7,5.2-0.7l-20.3,3.6l-0.2,0.5l50.5,9.3
			h3l0.1-0.1v0.1h0.4l-0.2,0.2h0.2c0,0.9-0.3,1.4-0.9,1.7l-0.2,0.3h-0.2c-0.5,0.1-1.2,0.2-2.2,0.2c-0.9,0-1.7-0.1-2.5-0.2l-94.4-17
			l-0.4-0.2H169l-0.4,3.3c0.6,2.4,2.3,3.8,5,4l87.4,15.8c4,1,7.5,1.1,10.3,0.4l140.6-24.2l1.5-0.9l1.6-0.8l2.4-2.2V1147.8z
			 M270.9,1163.4l11.8-22.4c-0.9-0.7-1.7-1.4-2.5-2c-1.4-1.1-2.8-2.1-4.2-3.1c1,0,2.1-0.1,3.1-0.1c1.5-0.1,3-0.1,4.5-0.2l2-0.3
			l1.5-2.8l21.8-41.2l17-32.1c1.5-2.9,3.8-4.5,6.8-4.9l138.2-13.4c0.2,0,0.3,0,0.5,0c1.1,0,1.6,0.4,1.6,1.2c0,0.6-0.3,1.4-0.9,2.5
			l-1,1.9l-131.6,13.3c-3,0.4-5.2,2-6.7,4.8l-55,103.1l-6.3,1.6l1.1-2.5c-0.2,0-0.3,0-0.5,0.1c-1.4,0.1-2.1-0.2-2.1-1
			c0-0.1,0-0.2,0-0.3c0,0,0-0.1,0-0.1c0-0.1,0-0.2,0-0.3c0-0.1,0-0.2,0.1-0.3c0-0.1,0.1-0.2,0.1-0.3c0,0,0-0.1,0-0.1
			c0.1-0.2,0.2-0.4,0.4-0.7l0,0L270.9,1163.4z M0.1,1247.7c-1-2.8,3.8-5.1,14.5-7.1l62.4-11c0.1,0.2,0.2,0.4,0.3,0.5
			c8.1,12.2,19.3,21,33.6,26.5c14.3,5.4,28.2,6.6,41.8,3.4c9.5,1.9,22.6,2.9,39.6,3.1c17.1,0.2,29.6,0.7,37.4,1.6l-39.1,6.9
			c-10.7,1.9-24,2.8-40.1,2.5c-16.1-0.1-30.2-1.3-42.2-3.4l-88.7-15.6C7.5,1253,1.1,1250.5,0.1,1247.7z M401.3,1098
			c2,3.6,2,7.7,0,12.3c-2,4.3-5.4,7.9-10.2,10.6c-4.6,2.5-9.2,3.5-13.9,3c-4.9-0.7-8.4-2.8-10.5-6.4c-2.1-3.7-2.1-7.8-0.2-12.3
			c1.9-4.8,5.4-8.5,10.3-11.2c4.8-2.7,9.7-3.7,14.7-2.8C396.2,1092,399.4,1094.2,401.3,1098z"/>
		<linearGradient id="SVGID_6_" gradientUnits="userSpaceOnUse" x1="283.5976" y1="1270.621" x2="3.328146e-03" y2="1270.621">
			<stop  offset="0.4392" style="stop-color:#CDD3FF"/>
			<stop  offset="0.5216" style="stop-color:#969CD6"/>
		</linearGradient>
		<path class="st34" d="M231.7,1265.1c-6.1,6.4-11.4,13.6-15.6,21.5l-25.5,4.5c-10.7,1.9-24,2.8-40.1,2.5
			c-16.1-0.1-30.2-1.3-42.2-3.4l-88.7-15.6c-12-2.2-18.5-4.7-19.4-7.5c-0.2-0.5-0.2-1,0-1.4v-17.9c0.9,2.9,7.4,5.4,19.4,7.5
			l88.7,15.6c12,2.1,26.1,3.3,42.2,3.4c16.1,0.2,29.4-0.6,40.1-2.5l39.1-6.9c0.2,0,0.4,0.1,0.6,0.1
			C230.7,1264.9,231.2,1265,231.7,1265.1z M283.6,1270.4v0.1c0.1,1-0.5,1.9-1.8,2.8C282.3,1272.4,283,1271.4,283.6,1270.4z"/>
		<path class="st29" d="M189.4,985.4c3,2.3,6.5,6,10.4,11c4.4,5.8,7.6,9.7,9.7,11.6c-0.1-0.9,0.3-9.9,1-26.9
			c0.4-10.9-0.9-19.7-3.9-26.5l0.7-0.7c1.5,0.2,3.4,0.7,5.9,1.5c5.7,11,8.2,26.9,7.5,47.7c-0.4,13.6-0.6,21.9-0.5,24.8
			c0.2,9.3,0.5,17.3,1.1,24c0.5,5.8-0.2,11.3-2.1,16.5c-1.8,5.2-5.7,10.1-11.5,14.8c-3.2,2.6-6.8,8.8-10.9,18.7
			c-0.4,0.9-2,5.1-4.8,12.6c-1.2,3.2-2.3,5.9-3.4,8.3c-1.3-0.2-2.5-0.5-3.7-0.7c-7-2-20.4-4.8-40.3-8.2c0-0.2,0.1-0.3,0.1-0.5
			c0.8-4.5,1.2-8.1,1.2-10.8c0-10.8-2.3-22.3-6.8-34.5c-2.5-6.8-4-11.2-4.6-13.3c-1.4-4.9-2.1-9.7-2.1-14.3c0-2,1.1-7.5,3.4-16.4
			c1.5-6,2.5-11.8,3-17.5c1.7-2.8,2.9-6,3.8-9.4c1.7-7.1,1.4-14.4-0.9-21.9c0,0,0-0.1,0-0.1c-2.4-7.5-6.4-13.6-11.8-18.3
			c-3.3-2.9-6.9-4.9-10.7-6.2c-3.1-1.1-6.3-1.6-9.7-1.6c0,0-0.1,0-0.1,0c0,0,0.1,0,0.1-0.1c4.1-2.2,10.1-4.3,18.1-6.5
			c6.6-2.8,12-1.8,16,3.2c3.9,4.9,6.7,10.7,8.3,17.3c0.4,1.8,0.8,3.7,1.3,5.6c1.2,5.5,2.3,11.6,3.5,18.4c1.8,7.7,4.5,13.5,8.1,17.3
			c7.5-4.8,15.2-10.9,23-18.4L189.4,985.4z M160.3,824.1c-0.4,0.2-0.8,0.4-1.2,0.7c-14.7,9.6-21.9,23.6-21.6,41.8
			c-0.8-0.3-1.5-0.6-2.3-1c-2.2-1.1-4.2-2.6-6.1-4.4c-4.8-4.8-7.1-10.5-7.1-17.2s2.4-12.4,7.1-17.1c0.1-0.1,0.1-0.1,0.2-0.2
			c0.1-0.1,0.1-0.1,0.2-0.2l0.3-0.2c2.1-2,4.3-3.5,6.7-4.5c1.4-0.6,2.9-1.1,4.4-1.4c1.7-0.4,3.5-0.6,5.4-0.6
			C151.6,819.8,156.2,821.2,160.3,824.1z M552.8,1108.1c-4.1-1.1-8.2-1.9-12.2-2.6c1-4.5,2.2-9.7,3.6-15.5
			c4.5-18.3,7.4-28.1,8.8-29.3c3.5,4.2,5.3,8.2,5.3,12c0,8.6-1.5,18.9-4.4,31C553.6,1105.1,553.2,1106.5,552.8,1108.1z
			 M201.8,1164.6l1.9,0.4h-0.2L201.8,1164.6z M567.9,1400.9l66.3-9l73.8-9.3c3.1,0.7,5.8,2.2,8.3,4.4c4.3,3.9,6.5,9.2,6.5,15.8
			c0,6.5-2.2,12.4-6.5,17.7c-4.4,5.3-9.7,8.4-15.9,9.4l-132.5,21v-0.1l0.1-10.5l130.8-20.2c3.6-0.6,6.6-2.3,9.1-5.2
			c2.5-2.9,3.8-6.2,3.8-9.8c0-3.6-1.2-6.4-3.8-8.5c-1.3-1.1-2.7-1.9-4.4-2.3c-1.4-0.4-3-0.5-4.8-0.3L568,1413.1L567.9,1400.9z"/>
		<path class="st35" d="M75.7,1118.7c0.9-3.3,1.6-6.2,2.1-8.7c0.1,1.5,0.1,3.5,0.1,5.8c-0.2,0.2-0.4,0.5-0.6,0.8
			C76.7,1117.3,76.2,1118,75.7,1118.7z M144.5,1114.1c-0.3-0.1-0.6-0.1-0.9-0.1c-12.3-2.1-22.6-4.4-30.9-6.9
			c4.3-11.6,7.8-26.2,10.5-43.8c4.6-30.2,7-46,7.3-47.4c0.6-0.4,1.1-0.9,1.6-1.3l6.4-7.5c0-0.1,0.1-0.2,0.1-0.3
			c-0.5,5.7-1.5,11.6-3,17.5c-2.3,8.9-3.4,14.4-3.4,16.4c0,4.6,0.7,9.3,2.1,14.3c0.6,2.1,2.2,6.5,4.6,13.3
			c4.5,12.2,6.8,23.7,6.8,34.5c0,2.8-0.4,6.4-1.2,10.8C144.5,1113.7,144.5,1113.9,144.5,1114.1z M109.5,1150.4l-18.7,1.7
			c-14,1.3-23,2.8-27,4.5c0.8-4.3,3.1-11.8,6.9-22.5c7.5,6.3,17.1,10.7,28.8,13.5C102.7,1148.7,106,1149.6,109.5,1150.4z
			 M188.3,1439l0.2-0.5c0,0,0,0.1,0,0.2c-0.3,1.2-0.4,2.3-0.4,3.5c0.8,12.4,5.7,23.1,14.8,32.1c2.4-0.4,4.8-0.9,7.1-1.5
			c4.9-1.5,10-1.7,15.2-0.8c0,0.1,0,0.3,0.1,0.4l1,4.5c0,0.1,0,0.1,0,0.3c0.4,1.3,0.9,2.9,1.5,4.8c0.6,2,1.3,4.3,2.2,7
			c-0.6-0.5-1.1-1-1.5-1.3c-2.1-1.8-4.4-2.7-6.9-2.8c-2.5-0.1-4.4,0.1-5.8,0.8c-1.4,0.6-2.7,1.9-4.1,3.9l2,3.1l17.6,0.2
			c0.2,0.5,0.4,0.9,0.5,1.4c0.3,0.6,0.5,1.3,0.8,1.9c0.1,0.3,0.2,0.5,0.3,0.8c0,0.1,0,0.2,0.1,0.3c1.9,4.4,4.1,9.2,6.8,14.5
			c2.4,4.8,6,12,11,21.8c0.5,1.2,0.7,2.2,0.6,3.2c-1.2,0.4-2.6,0.6-4.3,0.7c-13.9,1.2-25.6-1.8-35-9c-9.6-7.3-15.2-17.2-16.8-29.6
			c-0.2-1-0.6-2.2-1-3.5c-1.1-3.4-2.9-7.7-5.3-12.8c-3.7-7.9-6-13.5-7.1-16.7c-3-9.5-2-17.5,3-23.8c0.9-0.7,1.8-1.4,2.8-2
			L188.3,1439z M567.9,1400.9l-157-8.2l73.8-10l-0.1,3.4c0,0.2,0,0.3,0,0.5c-0.1,3.3,6.4,5.7,19.4,7.4c13,1.6,28.7,1.9,47.2,1
			c1.3-0.1,2.7-0.1,4-0.2c16.7-1,31.1-2.9,43.2-5.7c13.1-3,19.7-6.1,19.8-9.4c0,0,0-0.1,0-0.1l15.1,0.5l-0.6,2.4
			c7.1,5.2,15,5.2,23.9,0l-0.2-1.7l45,1.5c2-0.2,3.9-0.1,5.6,0.2l1.8,0l-1,0.1l-73.8,9.3L567.9,1400.9z M568,1433.8l124-18.8
			c3.6-0.6,6.6-2.3,9.1-5.2c2.5-2.9,3.8-6.1,3.8-9.7c0-2.1-0.4-4-1.4-5.6c1.7,0.4,3.1,1.1,4.4,2.3c2.5,2.1,3.8,5,3.8,8.5
			c0,3.6-1.2,6.8-3.8,9.8c-2.5,2.9-5.5,4.6-9.1,5.2L568,1440.4V1433.8z"/>
		<path class="st36" d="M703.5,1394.5c1,1.6,1.4,3.5,1.4,5.6c0,3.6-1.3,6.8-3.8,9.7c-2.5,2.9-5.6,4.6-9.1,5.2l-124,18.8v0v-20.6v0
			l130.8-18.8C700.5,1393.9,702.1,1394,703.5,1394.5z M703.5,1489.6c1,1.6,1.4,3.5,1.4,5.6c0,3.5-1.3,6.8-3.8,9.8
			c-1.4,1.7-3,3-4.8,4c-1.4,0.7-2.8,1.2-4.4,1.5L568,1534l0-5.2l0-15.5v0l130.8-23.7C700.5,1489.2,702.1,1489.2,703.5,1489.6z
			 M703.5,1442c1,1.6,1.4,3.4,1.4,5.6c0,3.6-1.3,6.8-3.8,9.8c-2.5,2.9-5.6,4.7-9.1,5.4l-123.9,21.1l-0.1-15.5l0-5.2l130.8-21.4
			C700.5,1441.6,702.1,1441.6,703.5,1442z"/>
		<path class="st6" d="M568.1,1483.9l123.9-21.1c3.6-0.6,6.6-2.4,9.1-5.4c2.5-2.9,3.8-6.2,3.8-9.8c0-2.2-0.4-4-1.4-5.6
			c1.7,0.3,3.1,1,4.4,2.2c2.5,2.1,3.8,4.9,3.8,8.5c0,3.5-1.2,6.8-3.8,9.8c-2.5,2.9-5.5,4.7-9.1,5.3l-130.7,22.7v0V1483.9
			L568.1,1483.9z"/>
		<path class="st37" d="M568,1501L568,1501L568,1501L568,1501z M568.1,1490.5l130.7-22.7c3.6-0.6,6.6-2.4,9.1-5.3
			c2.5-3,3.8-6.2,3.8-9.8c0-3.6-1.2-6.5-3.8-8.5c-1.3-1.1-2.7-1.8-4.4-2.2c-1.4-0.4-3-0.4-4.8-0.2L568,1463.2l0,5.2l-0.1-5.2
			l0.1-12.1H568l132.4-21c6.2-1,11.5,0.5,15.9,4.3c4.3,3.9,6.5,9.1,6.5,15.7c0,6.5-2.2,12.4-6.5,17.8c-4.4,5.4-9.7,8.7-15.9,9.8
			l-118.1,21l-14.3,2.5V1490.5z"/>
		<path class="st38" d="M516.6,1104.6c3.8-0.3,7.6-0.3,11.4-0.2c4.2,0.1,8.4,0.5,12.6,1.2c4.1,0.6,8.1,1.5,12.2,2.6
			c2,0.5,4,1.1,6.1,1.8l-9.1,41.4l-1.5,6.9c-16.1,7.2-32.2,7.2-48.3,0l-2.5-11.7l-8-36.6c3.1-1,6.3-1.9,9.4-2.6
			c4.3-1,8.5-1.8,12.8-2.3C513.3,1104.8,515,1104.7,516.6,1104.6z M568,1534l124-23.5c1.6-0.3,3-0.8,4.4-1.5c1.8-1,3.4-2.3,4.8-4
			c2.5-3,3.8-6.3,3.8-9.8c0-2.1-0.4-4-1.4-5.6c1.7,0.3,3.1,1,4.4,2.1c2.5,2.1,3.8,4.9,3.8,8.4c0,3.5-1.2,6.8-3.8,9.8
			c0,0,0,0.1-0.1,0.1c-2.5,2.9-5.5,4.8-9.1,5.5L568,1540.6l-0.1,0l-156.8-21.3l0.1-5.9l156.6,20.7l0.1,5.4V1534z"/>
		<path class="st39" d="M568,1528.8l0,5.2v5.4l-0.1-5.4L568,1528.8z M582.9,1498.5l117.5-20.8c6.2-1.1,11.5,0.3,15.9,4.1
			c4.3,3.7,6.5,8.9,6.5,15.5c0,4.9-1.2,9.5-3.7,13.8c-0.8,1.4-1.8,2.8-2.8,4.2c-4.4,5.4-9.7,8.8-15.9,10l-132.5,26l0.1-10.6
			l130.8-25.1c3.6-0.7,6.6-2.5,9.1-5.5c0,0,0-0.1,0.1-0.1c2.5-3,3.8-6.3,3.8-9.8c0-3.6-1.2-6.4-3.8-8.4c-1.3-1.1-2.7-1.8-4.4-2.1
			c-1.4-0.3-3-0.3-4.8,0L568,1513.3l-0.1-12v0L582.9,1498.5z"/>
		<path class="st30" d="M230.2,1489.6c1.4-9.4-0.2-18.9-5-28.7c0-4.4,0.1-7.3,0.2-8.6c0-0.4,0-0.8,0-1.2c0.1-7.3,0.1-11.9,0.3-13.8
			c0.2-3.2,0.9-6.9,2.1-10.9c3.9-2.4,7.2-5.7,9.9-9.8c0.2-0.4,0.4-0.8,0.6-1.1v0c0,0,0,0,0.1,0c0.3-0.2,0.5-0.2,0.7,0
			c0.2,0.2,0.3,0.5,0.4,0.8c0.1,0.8,0,2.1-0.5,3.7c-0.7,2.3-1.7,7.8-2.8,16.3c-0.5,3.7-0.8,6.9-0.8,9.8c-0.1,3.7,0.1,6.7,0.7,8.9
			c1,3.9,1.6,6.6,2,8.2c0.3,1.6,0.6,2.4,1,2.5c1.4-0.6,3-1.4,4.7-2.4c1.5-0.7,3.5-1.1,5.8-1.1c4.9,0,9.1,1.7,12.7,5.2
			c-0.2,2.2-0.4,4.5-0.5,6.6c-0.1,0.7-0.1,1.3-0.1,2c0,0.1,0,0.3,0,0.4l-0.1,4.8c0.3,1.6,0.6,3.1,0.9,4.7c0.8,4.3,1.3,8.4,1.7,12.2
			c0.7,7.9,0.6,14.8-0.3,20.6c-1.4,8.6-4.3,14.8-8.8,18.5c-3.1,2.6-7,4-11.5,4.2c3.8-0.3,6.3-1.2,7.5-2.6c0.1-0.1,0.1-0.2,0.2-0.3
			c0.4-0.6,0.6-1.2,0.6-1.9c0.1-0.9-0.1-2-0.6-3.2c-5-9.7-8.6-17-11-21.8c-2.7-5.3-4.9-10.1-6.8-14.5c0-0.1-0.1-0.2-0.1-0.3
			c-0.1-0.3-0.2-0.6-0.3-0.8c-0.3-0.7-0.5-1.3-0.8-1.9c-0.2-0.5-0.4-0.9-0.5-1.4C230.9,1491.7,230.5,1490.6,230.2,1489.6z
			 M260.3,1481.5c0-1.5-0.6-2.9-2-4.1c-1.3-1.3-3.4-1.8-6.2-1.6c-2.8,0.2-5.3,1.2-7.4,2.8l0,3.5L260.3,1481.5z M411.2,1422.5
			l156.9,11.2v0v6.6h-0.1l-156.8-11.9V1422.5z"/>
		<polygon class="st40" points="410.9,1392.7 567.9,1400.9 568,1413.1 568,1413.1 567.9,1413.1 411.1,1403.7 411.2,1422.5 
			411.2,1428.4 567.9,1440.4 568,1440.4 567.9,1450.9 411,1438 		"/>
		<path class="st41" d="M568,1413.1v20.6l-156.9-11.2l0-18.8l156.8,9.4H568z M568,1513.3l0,15.5l-0.1,5.2l-156.6-20.7v-18.8
			l156.6,18.8H568z M567.9,1463.2l0.1,5.2l0.1,15.5v0.1h-0.1l-156.7-16.1l-0.1-18.7L567.9,1463.2z"/>
		<polygon class="st3" points="411.2,1467.9 567.9,1483.9 568.1,1483.9 568.1,1490.4 567.9,1490.4 411.3,1473.8 		"/>
		<polygon class="st4" points="568,1451.1 568.1,1451.1 567.9,1463.2 411.2,1449.2 411.2,1467.9 411.3,1473.8 567.9,1490.4 
			568.1,1490.4 568.1,1490.5 568.1,1501 568.1,1501 568,1501 567.9,1501 536.4,1497.5 410.9,1483.4 410.9,1438 		"/>
		<polygon class="st42" points="535.9,1497.6 567.9,1501.2 568,1513.3 568,1513.3 567.9,1513.3 411.3,1494.6 411.3,1513.3 
			411.2,1519.2 567.9,1540.5 568,1540.6 567.9,1551.2 411,1528.8 411,1526.4 411,1483.5 		"/>
		<path class="st43" d="M652.4,1320l20.4-4.7c3.9-0.9,5.9-1.6,6.1-2.3l-0.1,8.2c0.1,0.7-2,1.6-6.2,2.5l-20.3,4.6l0.2-7.4
			C652.5,1320.6,652.4,1320.3,652.4,1320z M642.4,1330.7l-23.5,5.3l-51.7,11.8c-8.2,1.9-16.3,2.3-24.4,1.3l-57.3-7.1l-47.4-5.9
			c-4.1-0.5-6.1-1.1-6.1-1.8l0.1-8.3c0.1,0.6,2.1,1.2,6,1.7l104.8,13c8.1,1,16.3,0.6,24.5-1.3l54.4-12.5l20.6-0.6L642.4,1330.7z
			 M618.8,1342.5l-0.6,36.5c0.1,0.2,0.1,0.4,0.1,0.6c0,0,0,0,0,0.1c-0.1,3.3-6.7,6.4-19.8,9.4c-12.1,2.8-26.5,4.7-43.2,5.7
			c0.1-1,0.9-3.5,2.6-7.5c0.9-2.3,3-5.5,6.1-9.5c2.3-3,5.2-6.4,8.7-10.3c3.9-2.7,8.9-5.8,14.8-9.3c7.9-4.7,15.1-8.5,21.5-11.5
			C612.6,1344.9,615.8,1343.5,618.8,1342.5z"/>
		<path class="st44" d="M678.9,1313.1c-0.2,0.7-2.3,1.4-6.1,2.3l-20.4,4.7c-0.1-0.9-0.6-1.8-1.3-2.5c-0.9-0.9-2.1-1.4-3.4-1.3
			l-90.7,3c-1.4,0-2.5,0.5-3.5,1.5c-1,1-1.6,2.2-1.6,3.6c0,1.4,0.4,2.5,1.3,3.5c1,0.9,2.1,1.3,3.5,1.3l65.3-2.1l-54.4,12.5
			c-8.2,1.9-16.4,2.3-24.5,1.3l-104.8-13c-3.9-0.5-5.9-1.1-6-1.7c0-0.1,0-0.1,0-0.2c0.1-0.7,2.2-1.6,6.2-2.5l105.3-24
			c8.2-1.9,16.4-2.3,24.5-1.3l104.8,13c3.8,0.5,5.8,1.1,6.1,1.8C678.9,1312.9,678.9,1313,678.9,1313.1z M485.4,1342l57.3,7.1
			c8.1,1,16.3,0.6,24.4-1.3l51.7-11.8l-0.1,6.5c-2.9,1.1-6.2,2.5-9.9,4.1c-6.4,3-13.6,6.8-21.5,11.5c-5.9,3.5-10.8,6.6-14.8,9.3
			c-3.5,3.9-6.4,7.4-8.7,10.3c-3.1,4.1-5.2,7.2-6.1,9.5c-1.7,4-2.5,6.5-2.6,7.5c-1.4,0.1-2.7,0.1-4,0.2c-18.4,1-34.2,0.6-47.2-1
			c-13-1.6-19.5-4.1-19.4-7.4c0-0.2,0-0.3,0-0.5l0.1-3.4L485.4,1342z"/>
		<path class="st45" d="M652.4,1320c0.1,0.3,0.1,0.6,0.1,0.9l-0.2,7.4l-0.1,10.3l0,1.7c0,1.4-0.5,2.6-1.5,3.6c-1,1-2.2,1.6-3.6,1.7
			c-1.4,0-2.5-0.4-3.4-1.4c-1-0.9-1.5-2-1.5-3.4l0.1-2.1l0.1-8.1l0-4.3l-20.6,0.6l-65.3,2.1c-1.3,0-2.5-0.4-3.5-1.3
			c-0.9-1-1.3-2.1-1.3-3.5c0.1-1.4,0.6-2.6,1.6-3.6c1-1,2.2-1.5,3.5-1.5l90.7-3c1.4,0,2.5,0.4,3.4,1.3
			C651.8,1318.3,652.2,1319.1,652.4,1320z M633.3,1380l6.2-24.8c1.9,1.8,4.2,2.7,6.9,2.7c2.8,0,5.2-0.9,7.3-2.8l2.8,25.6l0.2,1.7
			c-8.9,5.2-16.9,5.2-23.9,0L633.3,1380z"/>
		<path class="st46" d="M653.7,1355.2c-2.1,1.9-4.5,2.8-7.3,2.8c-2.7,0-5-0.9-6.9-2.7c-0.1-0.1-0.2-0.2-0.4-0.3
			c-1.8-2-2.6-4.5-2.4-7.4c0.2-2.9,1.3-5.3,3.5-7.3c0.6-0.6,1.3-1,2-1.5l-0.1,2.1c0,1.4,0.5,2.5,1.5,3.4c0.9,0.9,2,1.4,3.4,1.4
			c1.4-0.1,2.6-0.7,3.6-1.7c1-1,1.5-2.2,1.5-3.6l0-1.7c1.2,0.4,2.2,1,2.9,1.8c1.8,1.9,2.6,4.3,2.4,7.2c-0.2,2.8-1.4,5.3-3.5,7.4
			C653.9,1355,653.8,1355.1,653.7,1355.2z"/>
		<path class="st31" d="M136.5,821.7c-2.4,1.1-4.7,2.6-6.7,4.5l-0.3,0.2c-0.1,0.1-0.1,0.1-0.2,0.2c-0.1,0.1-0.1,0.1-0.2,0.2
			c-4.8,4.7-7.1,10.4-7.1,17.1s2.4,12.4,7.1,17.2c1.9,1.8,3.9,3.3,6.1,4.4c0.7,0.4,1.5,0.7,2.3,1c0,1.2,0.1,2.5,0.2,3.8
			c0.7,8.8,3,17.4,7.1,25.7c2.3,4.7,4.9,8.9,8,12.8v20.5c-2.7,1.3-5.3,2.5-7.8,3.7c-5.2,2.4-11.1,5.6-17.7,9.5
			c-8,2.2-14.1,4.4-18.1,6.5V841.4c0-5.5,2.1-10.1,6.4-14c3.3-3,7.1-4.8,11.4-5.4c0.7-0.1,1.4-0.2,2.1-0.3l2.9,0
			c0.7,0,1.4,0,2.1,0.1c0.4,0.1,0.8,0.1,1.2,0.2C135.7,821.7,136.1,821.6,136.5,821.7z M248.1,859.5c-0.9,0.9-2.1,1.5-3.6,2h-44.9
			c-2.8-2.8-4.3-4.3-4.5-4.6c-0.3-0.4-0.5-0.7-0.6-1.1c-0.6,0.7-1.1,1.4-1.5,2.1c-1.6,1.8-2.9,4-4.1,6.7c-10-21-15.8-34.9-17.6-41.5
			c0-1.1-0.1-2.2-0.1-3.3c8.4-2.6,17.5-3.4,27.2-2.3c9.1,1,17.3,3.5,24.7,7.5c0.7,0.1,1.5,0.2,2.3,0.5c1.9,0.6,6.1,3.5,12.6,8.7
			c6.5,5.2,10.1,10.3,10.8,15.2c0.7,4.9,0.9,7.6,0.8,8.1C249.2,858.1,248.7,858.9,248.1,859.5z"/>
		<path class="st32" d="M188.8,864.5c-1.5,3-2.7,6.5-3.7,10.5c-2.5,9.9-4.3,15.9-5.3,18.2c-4.2-8.2-9.6-11.2-16.2-8.9
			c-5.9,5.7-6.8,12.2-2.7,19.3c3.2,5.7,8.5,10.6,15.8,14.9c-2.3,0.8-5,0.9-8.1,0.5c-1.7-0.2-4.3-0.8-7.8-1.8c-2.9-2.5-5.5-5.3-8-8.4
			c-3.1-3.9-5.7-8.1-8-12.8c-4.1-8.3-6.4-16.9-7.1-25.7c-0.1-1.3-0.1-2.5-0.2-3.8c-0.3-18.3,6.9-32.2,21.6-41.8
			c0.4-0.2,0.8-0.4,1.2-0.7c3.4-1.9,7-3.4,10.7-4.5c0.1,1.1,0.1,2.2,0.1,3.3C172.9,829.6,178.8,843.5,188.8,864.5z"/>
		<path class="st47" d="M118.9,950.8c0.1,1.6,0.2,3.3,0.2,5.2c0,0.7-1,6.7-3.1,18.1c-1.2,6.6-2.8,15-4.7,25.3
			c-5.8,31-9.5,52.2-11,63.4c-0.2,1.6-1.2,10.7-3,27.2c-0.6,5.3-1.1,10.3-1.7,14.8c-7.2,1.6-13.1,5.3-17.6,11.1
			c0-2.3-0.1-4.3-0.1-5.8c0.4-25.7,0.8-45,1.3-57.9c0.8-22.1,2.4-41.4,4.6-57.7c0.6-10,2.7-18.9,6.5-26.5
			c4.5-9.1,10.8-15.3,18.9-18.8c0,0,0.1,0,0.1,0C112.6,949.2,115.8,949.7,118.9,950.8z M263.7,1117c-3.8-8.9-10.2-19.9-19.3-32.9
			c-11.1-15.8-18.8-26.5-23.2-32c-0.5-6.7-0.9-14.7-1.1-24c-0.1-2.9,0.1-11.1,0.5-24.8c0.7-20.8-1.9-36.7-7.5-47.7
			c0.5,0,0.9,0.1,1.4,0.2c0.1,0,0.1,0,0.2,0c5.2,1,9.9,3.3,14.1,6.9c0.3,0.2,0.5,0.5,0.8,0.8v0c0.3,13.1,1.5,29,3.7,47.6
			c1.5,12.5,10.7,33.5,27.6,62.9c3.1,5.4,7.1,12.2,11.8,20.2c-0.6,0.8-1.1,1.7-1.6,2.6c-2.2,2-4,4.4-5.4,7.2
			C263.6,1108.3,262.9,1112.6,263.7,1117z"/>
		<path class="st48" d="M112.8,1107c8.3,2.5,18.6,4.8,30.9,6.9c0.3,0,0.6,0.1,0.9,0.1c19.9,3.4,33.3,6.1,40.3,8.2
			c1.2,0.2,2.5,0.5,3.7,0.7c10,1.8,21.4,3,34.1,3.8c5.5,0.2,18.2,0.5,38.2,0.9c4.8,1.8,9.8,4.6,15.3,8.4c1.4,1,2.7,2,4.2,3.1
			c0.8,0.6,1.6,1.2,2.5,2l-11.8,22.4c-0.9-0.1-1.9-0.2-3-0.4c-1-0.2-2-0.3-3.1-0.6c-0.8-0.2-1.6-0.3-2.5-0.5c-1.5-0.3-2.9-0.7-4.3-1
			c-4.8-1.1-9-1.8-12.6-2.4c-1.8-0.3-3.4-0.5-4.9-0.6c-1.4-0.1-2.6-0.2-3.7-0.2c-2.3,0-4,0.2-5.2,0.7c-4.6,0.6-12.1-1.2-22.6-5.2
			c-9.3-3.6-17.6-5.6-24.8-5.9c-11.4,1-31.1,2.1-59,3.3c-3.8-0.1-7.4-0.3-10.9-0.7l-4.7,0.4c-3.5-0.8-6.8-1.7-9.9-2.8
			c-11.7-2.7-21.3-7.2-28.8-13.5c-0.4-0.3-0.8-0.6-1.2-1c-1-2.6,1.1-7.4,6.1-14.5c0.5-0.7,1-1.4,1.6-2.2c0.2-0.3,0.4-0.5,0.6-0.8
			c4.6-5.8,10.5-9.5,17.6-11.1c2.5-0.5,5.1-0.9,7.9-0.9C106.2,1104.9,109.3,1106,112.8,1107z M188.8,864.5c1.2-2.6,2.6-4.8,4.1-6.7
			c0.5-0.7,1-1.4,1.5-2.1c0.1,0.4,0.4,0.8,0.6,1.1c0.2,0.3,1.7,1.8,4.5,4.6h44.9c1.5-0.4,2.7-1.1,3.6-2c0.3,2.3,0.5,4.8,0.7,7.3
			c0.5,10.9,0.9,17.2,1,18.7c0.9,6.8,2.8,13.8,5.8,20.8c-3.5,2.6-5.4,7.8-5.6,15.8c-0.2,7.9-1.5,13.4-3.9,16.6
			c-3.1,1.6-7.2,2.7-12.3,3.3c-2.9,0.4-7.2,0.8-12.9,1.3c-7.2-0.1-15.3-3.8-24.1-10.9c-10.3-8.3-17-12.9-20.1-13.8
			c-7.3-4.3-12.6-9.2-15.8-14.9c-4.1-7.2-3.2-13.6,2.7-19.3c6.6-2.3,12,0.7,16.2,8.9c1.1-2.3,2.8-8.3,5.3-18.2
			C186.1,870.9,187.3,867.4,188.8,864.5z M225.2,1460.9c-0.6,3.4-0.6,7.1,0,11.2c-5.2-1-10.3-0.7-15.2,0.8c-2.3,0.6-4.7,1.1-7.1,1.5
			c-9.1-9-14-19.7-14.8-32.1c-0.1-1.2,0.1-2.4,0.4-3.5c0-0.1,0-0.1,0-0.2l-0.2,0.5c0-0.1,0.1-0.2,0.1-0.3c3.9-11.6,6.7-26,8.3-43.2
			c1.3-20.6,2.4-36,3.4-46.2c1.6-18,4.4-32.9,8.3-44.7c2.1-6.4,4.7-12.4,7.8-18.1c4.3-7.9,9.5-15.1,15.6-21.5
			c0.3-0.3,0.7-0.5,1.1-0.8c7.8-5.9,16.6-10.5,26.6-13.9c3.2-1.1,6.4-2,9.6-2.8c2.3-0.5,4.7-1,7-1.4c4.7-0.8,9.5-1.3,14.3-1.5
			c0.2,4.9-0.4,11-1.8,18.2c-1.7,2.5-3.4,5-5,7.6c-0.6,1-1.2,2-1.8,2.9c-12.4,20-23,42.6-31.9,67.9c-8.5,24.4-15.9,52.8-22.1,85.1
			c-1.1,4-1.8,7.7-2.1,10.9c-0.1,1.9-0.2,6.5-0.3,13.8c0,0.4,0,0.8,0,1.2C225.3,1453.5,225.2,1456.4,225.2,1460.9z M230.2,1489.6
			c0.4,1.1,0.8,2.2,1.2,3.4l-17.6-0.2l-2-3.1c1.3-2,2.7-3.3,4.1-3.9c1.4-0.6,3.3-0.9,5.8-0.8c2.5,0,4.8,1,6.9,2.8
			c0.4,0.3,0.9,0.8,1.5,1.3C230,1489.2,230.1,1489.4,230.2,1489.6z M279.4,1134.6c2.8-0.8,5.4-1.4,7.8-2l-1.5,2.8l-2,0.3
			c-1.5,0.1-3,0.1-4.5,0.2C279.2,1135.4,279.3,1135,279.4,1134.6z"/>
		<path class="st49" d="M176.6,918.5c3.1,0.9,9.8,5.5,20.1,13.8c8.9,7.1,16.9,10.8,24.1,10.9c-1.9,1.1-4.1,2.9-6.9,5.3
			c-3.4,2.9-5.7,4.8-6.8,5.5l-0.7,0.7c-1.2,1.7-3.3,7.2-6.2,16.4c-2.1,6.9-5.7,11.6-11,14.3l-2,0.5c-2-2.6-6.2-7.2-12.5-13.8
			c-6.2-6.5-10.6-11.6-13.4-15.3c-9-12.4-9.1-22.9-0.3-31.6c0.3-1.1,0.3-2.5,0-4c-0.3-1.8-0.5-3.2-0.5-4.1c3.5,0.9,6.1,1.5,7.8,1.8
			C171.6,919.4,174.3,919.3,176.6,918.5z M308.9,1091.4l-21.8,41.2c-2.3,0.6-4.9,1.3-7.8,2c-2.9-1-5.9-3.4-8.9-7.4
			c-3.1-4.8-5.4-8.3-6.9-10.3c-0.8-4.3-0.1-8.7,2.1-13c1.4-2.8,3.2-5.1,5.4-7.2c0.5-0.9,1-1.8,1.6-2.6c2-3,4.6-5.5,7.8-7.5
			c2.9-1.9,5.9-3.2,8.9-3.8c1.5-0.3,2.9-0.5,4.4-0.5c5,0.1,9.3,1.9,12.9,5.6C307.4,1089,308.2,1090.2,308.9,1091.4z M353.8,1251.3
			c0.7,6.9-1.4,14.4-6.1,22.5c-2.7,4.6-6.9,11.3-12.6,20.2c-5,12.2-12.4,27.4-22.1,45.6c-14.2,26.6-22.3,41.6-24,45.2
			c-14.4,28.8-23.2,55-26.4,78.5c-0.2,1.4-0.3,2.8-0.5,4.1c-3.6-3.5-7.8-5.2-12.7-5.2c-2.3,0-4.3,0.4-5.8,1.1
			c-1.7,1-3.3,1.8-4.7,2.4c-0.4-0.1-0.7-1-1-2.5c-0.3-1.6-1-4.3-2-8.2c-0.6-2.2-0.8-5.2-0.7-8.9c0.1-2.8,0.4-6.1,0.8-9.8
			c1.1-8.6,2.1-14,2.8-16.3c0.5-1.6,0.7-2.9,0.5-3.7c0-0.4-0.1-0.6-0.4-0.8c-0.2-0.2-0.4-0.3-0.7,0c3.1-5,5.4-11.1,7-18.3
			c2.2-16.3,4.4-28,6.8-35.1c3.4-20.1,8.2-37.4,14.3-52c7.4-17.9,17.3-32.8,29.5-44.6c6.1-6.8,15-10.8,26.9-12.1
			C336.9,1252.8,347.2,1252.2,353.8,1251.3z M260.3,1481.5l-15.5,0.6l0-3.5c2.1-1.6,4.6-2.6,7.4-2.8c2.8-0.2,4.9,0.3,6.2,1.6
			C259.6,1478.6,260.3,1480,260.3,1481.5z"/>
		<path class="st50" d="M112.8,1107c-3.5-1-6.6-2.1-9.4-3.2c-2.8,0.1-5.4,0.4-7.9,0.9c0.6-4.6,1.1-9.5,1.7-14.8
			c1.8-16.5,2.8-25.6,3-27.2c1.6-11.2,5.3-32.4,11-63.4c1.9-10.2,3.5-18.6,4.7-25.3c2.1-11.4,3.1-17.4,3.1-18.1
			c0-1.9-0.1-3.6-0.2-5.2c3.9,1.3,7.4,3.3,10.7,6.2c5.4,4.7,9.4,10.8,11.8,18.3c0,0,0,0.1,0,0.1c2.3,7.5,2.6,14.8,0.9,21.9
			c-0.8,3.4-2.1,6.6-3.8,9.4c-0.1,0.1-0.1,0.2-0.1,0.3l-6.4,7.5c-0.5,0.5-1.1,0.9-1.6,1.3c-0.3,1.4-2.7,17.2-7.3,47.4
			C120.5,1080.9,117,1095.5,112.8,1107z M289.4,1082.8c-3,0.6-5.9,1.9-8.9,3.8c-3.1,2.1-5.7,4.6-7.8,7.5c-4.7-8-8.7-14.8-11.8-20.2
			c-16.9-29.4-26.1-50.4-27.6-62.9c-2.2-18.6-3.4-34.5-3.7-47.6c3,2.7,5.6,6.2,8.1,10.3c1.9,3.2,6,13.2,12.3,29.8
			C260.2,1033.6,273.3,1060,289.4,1082.8z"/>
		<path class="st12" d="M152.8,929.3c2.8-1.3,5.6-2.6,8.5-4c-8.8,8.6-8.7,19.2,0.3,31.6c2.7,3.7,7.2,8.8,13.4,15.3
			c6.3,6.6,10.5,11.2,12.5,13.8c-7.8,7.5-15.5,13.6-23,18.4c-3.6-3.8-6.3-9.5-8.1-17.3c-1.2-6.8-2.4-12.9-3.5-18.4
			c-0.4-2-0.8-3.8-1.3-5.6c-1.6-6.7-4.3-12.5-8.3-17.3c-4-5-9.3-6-16-3.2c6.6-3.9,12.5-7.1,17.7-9.5
			C147.5,931.8,150.1,930.6,152.8,929.3z"/>
		<path class="st51" d="M242.2,1200.2c7.6,3.9,15.4,8.2,23.3,12.9c8.8,6.1,14.4,10.4,16.9,12.8c5.7,5.8,8.4,12,8,18.7
			c-4.9,0.2-9.6,0.7-14.3,1.5c-2.4,0.4-4.7,0.9-7,1.4c-1.2-0.8-2.5-1.5-3.8-2.3c-1.4-0.8-3-1.7-4.6-2.6
			c-14.2-7.7-33.7-16.1-58.6-25.1c-31.6-10.7-53.9-18.3-66.8-22.6c-6.5-2.2-12.2-4.2-17.1-6.1L242.2,1200.2z"/>
		<path class="st21" d="M61.6,1179c0,0.2,0.1,0.3,0.2,0.5c1.8,3,14.8,5.6,38.9,7.8l17.5,1.6c4.9,1.9,10.7,3.9,17.1,6.1
			c12.9,4.4,35.1,12,66.8,22.6c24.9,9,44.5,17.3,58.6,25.1c1.6,0.9,3.1,1.7,4.6,2.6c1.3,0.8,2.6,1.5,3.8,2.3
			c-3.3,0.8-6.5,1.7-9.6,2.8c-10,3.4-18.9,8-26.6,13.9c-0.4,0.3-0.7,0.5-1.1,0.8c-0.5-0.1-0.9-0.1-1.4-0.2c-0.2,0-0.4,0-0.6-0.1
			c-7.9-0.9-20.3-1.4-37.4-1.6c-16.9-0.2-30.1-1.2-39.6-3.1c-13.6,3.2-27.5,2-41.8-3.4c-14.2-5.5-25.4-14.4-33.6-26.5
			c-0.1-0.2-0.2-0.3-0.3-0.5c-7.9-12-12.7-23.7-14.4-35.1c-0.5-3.7-0.8-7.5-0.9-11.5C61.6,1181.7,61.6,1180.4,61.6,1179z
			 M61.6,1178.5c0-1.8,0.1-3.7,0.2-5.6v5.1C61.7,1178.2,61.6,1178.3,61.6,1178.5z"/>
		<path class="st28" d="M251.6,1536.7c-0.1,0.7-0.3,1.3-0.6,1.9c-0.1,0.1-0.1,0.2-0.2,0.3c-1.2,1.4-3.7,2.3-7.5,2.6
			c-13.9,1.2-25.6-1.8-35-9c-9.6-7.3-15.2-17.2-16.8-29.6c-0.5-2-1.3-4.6-2.5-7.5c-1-2.6-2.3-5.5-3.8-8.7c-3.7-7.9-6-13.5-7-16.7
			c-3.7-11.5-1.5-20.7,6.5-27.5c0.1-0.1,0.3-0.3,0.5-0.4c-5,6.3-6,14.3-3,23.8c1,3.2,3.4,8.8,7.1,16.7c2.4,5.1,4.2,9.4,5.3,12.8
			c0.4,1.3,0.8,2.4,1,3.5c1.6,12.4,7.2,22.3,16.8,29.6c9.4,7.2,21,10.2,35,9C248.9,1537.3,250.4,1537.1,251.6,1536.7z"/>
		<path class="st22" d="M290.4,1244.6c0.4-6.7-2.3-12.9-8-18.7c-2.5-2.4-8.1-6.7-16.9-12.8c-7.9-4.7-15.6-9-23.3-12.9l35.8,3.3
			c11.8,1.1,24.7,1.9,38.5,2.5c9.4,7.2,19.2,15.3,29.3,24.3c5.3,4.3,8,11.3,8,21c-6.6,0.9-16.9,1.6-31,2
			c-11.9,1.3-20.9,5.3-26.9,12.1l-7.3-2.5C290,1255.6,290.6,1249.5,290.4,1244.6z"/>
		<path class="st52" d="M206.6,954.7c3,6.8,4.3,15.6,3.9,26.5c-0.7,17-1.1,26-1,26.9c-2.1-1.9-5.3-5.8-9.7-11.6
			c-3.9-5.1-7.3-8.8-10.4-11c5.3-2.7,8.9-7.4,11-14.3C203.3,961.8,205.3,956.4,206.6,954.7z"/>
		<linearGradient id="SVGID_7_" gradientUnits="userSpaceOnUse" x1="628.7639" y1="1183.2407" x2="61.5772" y2="1183.2407">
			<stop  offset="0.4392" style="stop-color:#CDD3FF"/>
			<stop  offset="0.5216" style="stop-color:#969CD6"/>
		</linearGradient>
		<path class="st53" d="M628.7,1163.7v19.5c0.7,2.7-9.1,5-29.3,6.9l-156.9,14.3c-21.3,2-48,2.9-80.1,2.7c-16.4-0.1-31.7-0.4-46-1
			c-13.8-0.6-26.6-1.5-38.5-2.5l-35.8-3.3l-124.1-11.3l-17.5-1.6c-24.1-2.2-37.1-4.8-38.9-7.8c-0.1-0.2-0.2-0.4-0.2-0.5
			c0-0.2,0-0.3,0-0.5c0-0.2,0.1-0.3,0.2-0.5v-5.1v-13.5c0.2,0.4,0.7,0.8,1.4,1.2c3,1.8,10.3,3.4,22,4.9c4.5,0.6,9.7,1.2,15.5,1.7
			l177.3,16.2c2.1,0.2,4.2,0.4,6.3,0.5c22.6,1.8,48.7,2.8,78.1,3c32.1,0.2,58.8-0.7,80.1-2.7l156.9-14.3
			C618.4,1168.2,628.2,1166.1,628.7,1163.7z"/>
		<path class="st54" d="M528,1104.4c-3.8-0.1-7.6-0.1-11.4,0.2c0.1-1.6,0.1-3.2,0.2-4.8c0.8-17.5,3.4-28.5,7.7-32.8
			c2.6,7.4,3.8,18.2,3.8,32.5C528.3,1099.7,528.2,1101.3,528,1104.4z"/>
		<path class="st0" d="M511.7,1105c-4.3,0.5-8.5,1.2-12.8,2.3c-0.9-7.2-1.4-15.5-1.4-25c0-6.7,1.6-11.4,5-14.1
			c1.8,2.5,4.1,10.6,6.9,24.5C510.3,1097.2,511.1,1101.3,511.7,1105z"/>
		<path class="st55" d="M264.7,1162.4c1.1,0.2,2.2,0.4,3.1,0.6l2.8,0.8l0,0c-0.2,0.2-0.3,0.5-0.4,0.7l-6.9-1.2l-6.3,1.3l7.4,0.7
			l5.8-0.7c-0.1,0.1-0.1,0.2-0.1,0.3l-0.3,0.2l0.3,0.1c0,0.1,0,0.2,0,0.3c0,0,0,0.1,0,0.1l-2.4-0.4H267l-10.5,2.4l7,1.1l8.4-1.5
			l0.1-0.4c0.2,0,0.3,0,0.5-0.1l-1.1,2.5l6.3-1.6l-0.5,0.9c-0.5,0.8-0.7,1.4-0.6,2c0,0.7,0.5,1.1,1.6,1.1c0.4,0,0.8,0,1.4-0.1
			l135.6-23c0.8-0.1,1.6-0.4,2.3-0.8v3.9l-2.4,2.2l-1.6,0.8l-1.5,0.9l-140.6,24.2c-2.8,0.7-6.3,0.6-10.3-0.4l-87.4-15.8
			c-2.7-0.2-4.4-1.6-5-4l0.4-3.3h0.4l0.4,0.2l94.4,17c0.8,0.1,1.7,0.2,2.5,0.2c1,0,1.7-0.1,2.2-0.2h0.2l0.2-0.3
			c0.6-0.2,0.9-0.8,0.9-1.7H270l0.2-0.2h-0.4v-0.1l-0.1,0.1h-3l-50.5-9.3l0.2-0.5l20.3-3.6c1.1,0,2.4,0.1,3.7,0.2l-0.5,0.1l0.2,0.4
			l2.9,0.3h0.8l1.5-0.3c3.6,0.5,7.8,1.3,12.6,2.4l-2.5,0.5v0.4l6.3,0.9h0.9L264.7,1162.4z M239.9,1164.6l7.1,0.7l12.8-1.8v-0.2
			l-6.4-1.3h-0.9L239.9,1164.6z M201.8,1164.6l1.7,0.4h0.2L201.8,1164.6z M222.3,1161.1v1.7l2.8,0.5l7.7-1.1l0.2-0.8l2.2,0.4
			l-0.2,0.2h0.2l0.2,0.2l-4.1,0.5l6.4,1.5l18.1-3.1l-9.6-1.3h-0.7v-0.2l-5.9-0.8l-1.3-0.3l-7.5,1.3v0.4h-1.9L222.3,1161.1z
			 M248,1165.8l6.3,1.5l7.5-1.3l0.2-0.2l-6.8-1.5l-6.6,1.3v0.1H248z M265,1169l2.5,0.7h1.3l2.4-0.4l0.4-1.6L265,1169z"/>
		<path class="st56" d="M245.3,1158.6l-1.5,0.3H243l-2.9-0.3l-0.2-0.4l0.5-0.1C241.9,1158.2,243.5,1158.3,245.3,1158.6z
			 M239.9,1164.6l12.6-2.6h0.9l6.4,1.3v0.2l-12.8,1.8L239.9,1164.6z M264.7,1162.4l-2.1,0.3h-0.9l-6.3-0.9v-0.4l2.5-0.5
			c1.4,0.3,2.8,0.6,4.3,1C263.1,1162.1,263.9,1162.3,264.7,1162.4z M272.1,1166.9l-0.1,0.4l-8.4,1.5l-7-1.1l10.5-2.4h0.5l2.4,0.4
			c0,0.1,0,0.2,0,0.3C270,1166.7,270.7,1167,272.1,1166.9z M270.1,1164.9c0,0.1-0.1,0.2-0.1,0.3l-0.3-0.1L270.1,1164.9z
			 M270.3,1164.5c0,0,0,0.1,0,0.1l-5.8,0.7l-7.4-0.7l6.3-1.3L270.3,1164.5z M270.9,1163.4l-0.2,0.3l-2.8-0.8
			C269,1163.2,270,1163.3,270.9,1163.4z M222.3,1161.1l6.8-0.9h1.9v-0.4l7.5-1.3l1.3,0.3l5.9,0.8v0.2h0.7l9.6,1.3l-18.1,3.1
			l-6.4-1.5l4.1-0.5l-0.2-0.2H235l0.2-0.2l-2.2-0.4l-0.2,0.8l-7.7,1.1l-2.8-0.5V1161.1z M248,1165.8h0.5v-0.1l6.6-1.3l6.8,1.5
			l-0.2,0.2l-7.5,1.3L248,1165.8z M265,1169l6.6-1.3l-0.4,1.6l-2.4,0.4h-1.3L265,1169z"/>
		<path class="st57" d="M277.7,1167.7l55-103.1c1.5-2.9,3.7-4.5,6.7-4.8l131.6-13.3l4.9-0.6c0.1,0,0.3,0,0.4,0
			c1.1,0,1.6,0.4,1.5,1.4c-0.1,0.5-0.4,1.3-0.9,2.2l-53.5,90.3l-2.8,4.7c-0.9,1.5-2,2.6-3.2,3.3c-0.7,0.4-1.5,0.7-2.3,0.8l-135.6,23
			c-0.5,0.1-1,0.1-1.4,0.1c-1.1,0-1.6-0.4-1.6-1.1c-0.1-0.6,0.1-1.2,0.6-2L277.7,1167.7z M401.3,1098c-1.8-3.7-5.1-6-9.7-6.8
			c-5-0.9-9.9,0.1-14.7,2.8c-4.9,2.6-8.4,6.3-10.3,11.2c-2,4.5-1.9,8.5,0.2,12.3c2.1,3.6,5.6,5.7,10.5,6.4c4.7,0.6,9.3-0.4,13.9-3
			c4.8-2.7,8.2-6.3,10.2-10.6C403.3,1105.7,403.2,1101.6,401.3,1098z"/>
	</g>
</g>
</svg>
