<?xml version="1.0" encoding="utf-8"?>
<!-- Generator: Adobe Illustrator 23.0.4, SVG Export Plug-In . SVG Version: 6.00 Build 0)  -->
<svg version="1.1" id="Layer_1" xmlns="http://www.w3.org/2000/svg" xmlns:xlink="http://www.w3.org/1999/xlink" x="0px" y="0px"
	 viewBox="0 0 375 278" style="enable-background:new 0 0 375 278;" xml:space="preserve">
<style type="text/css">
	.st0{opacity:0.5;}
	.st1{fill:none;stroke:#1A237E;stroke-width:1.13;stroke-linecap:round;stroke-linejoin:round;}
</style>
<title>insights-printbg1</title>
<g class="st0">
	<path class="st1" d="M-17.6,24.1c12.9-8.6,27-15.2,41.8-19.8c29.3-9,60.5-9.5,90.1-1.6c15,4,29.3,10.2,42.5,18.3"/>
	<path class="st1" d="M-61.8,66.9C15.4,9,121.1,7.2,200.3,62.4"/>
	<path class="st1" d="M-90.8,126c9.8-12.4,20.9-23.7,33.1-33.7c11.9-9.8,24.9-18.2,38.7-25.2c13.7-6.9,28-12.2,42.9-15.9
		c30-7.5,61.2-8,91.4-1.6c15,3.2,29.5,8,43.4,14.4c14,6.5,27.3,14.4,39.5,23.8c12.6,9.6,24,20.5,34.3,32.5"/>
	<path class="st1" d="M-111.6,195.4c8.2-17.9,18.9-34.5,31.8-49.4c13-15.1,27.8-28.4,44.2-39.8C-19.7,95.1-2.3,86.1,16,79.5
		c17.3-6.3,35.6-9.8,54.1-10.3c18.1-0.2,36.2,2.4,53.5,7.8c17.8,5.5,34.8,13.4,50.5,23.5c16,10.3,30.7,22.7,43.5,36.8
		c13,14.2,23.9,30.2,32.5,47.5"/>
	<path class="st1" d="M193.6,146.1c13.1,12.9,24.8,27.1,35,42.4c11.1,16.5,20.7,33.9,28.6,52.1"/>
	<path class="st1" d="M-1,112.5c12-6.4,24.6-11.4,37.7-15c12.2-3.4,24.8-5.1,37.5-5.3c12.5-0.1,25,1.3,37.2,4.4
		c15.1,3.9,29.6,10,42.9,18"/>
	<path class="st1" d="M18.3,130.9c15.4-6.4,33.2-10.4,54.3-10.7l0.1,0l0.1,0l0.1,0l0.1,0c20.2-0.3,37.6,3.2,52.8,9.4
		c14.5,6,27.9,14.5,39.5,25.1c11,10.1,20.8,21.3,29.3,33.5c8.4,11.8,15.7,23.8,22.4,34.7c3.5,5.7,6.8,11.1,9.9,16
		c3.2,4.9,6.2,9.4,9.3,13.2c2.6,3.4,5.6,6.5,9,9.3c2.6,2.2,5.8,3.7,9.2,4.3"/>
	<path class="st1" d="M107,172.6c9.7,3.3,18.6,8.6,26.2,15.4c7.4,6.8,13.9,14.5,19.3,22.9c5.7,8.5,10.8,17.7,16.1,27
		c4.4,7.8,8.7,15.6,13.5,23.1c4.7,7.6,10.1,14.8,16,21.5c6.1,6.9,13,12.9,20.6,18c8.5,5.5,17.8,9.7,27.5,12.4"/>
	<path class="st1" d="M-6.2,218.1c5.3-8.7,11.4-16.9,18.4-24.3c7-7.4,15.3-13.4,24.4-17.8c10.5-4.8,21.8-7.5,33.3-7.8"/>
	<path class="st1" d="M24.8,214.7c5.8-6.5,12.7-11.9,20.4-16c8.2-4.1,17.3-6.4,26.5-6.6c9.1-0.4,18.1,1.1,26.5,4.5
		c7.5,3.2,14.4,7.8,20.2,13.5c6,6,11.4,12.6,16,19.7c4.9,7.3,9.5,15.2,14.2,23.2c4.9,8.3,9.9,16.9,15.5,25.3
		c5.6,8.6,12,16.7,19,24.2"/>
	<path class="st1" d="M52.9,223.3c6.4-3.3,13.5-5.1,20.7-5.1c7.1-0.2,14.1,1.2,20.6,4c6,2.8,11.3,6.8,15.8,11.6
		c4.8,5.3,9.1,11,12.8,17.1c4,6.4,7.8,13.4,11.8,20.6c4.8,8.8,9.7,17.8,15.4,26.7c5.7,9.1,12.3,17.6,19.6,25.4"/>
	<path class="st1" d="M-28.5,200.8c6.2-10.1,13.6-19.5,22.1-27.8c9-8.8,19.6-15.8,31.2-20.7c12.4-5.2,26.9-8.5,44.4-9
		c18.5-0.6,33.8,1.6,46.7,5.9c11.9,3.9,23,10.2,32.5,18.4c9,7.7,16.3,16.8,22.9,26.5c6.6,9.7,12.3,20,18,30.3
		c3.9,7.1,7.8,14,11.8,20.6c3.9,6.5,8.3,12.7,13.1,18.6c4.6,5.7,10,10.8,15.9,15.1c6.2,4.5,13,7.9,20.3,10.2"/>
</g>
</svg>
