<?xml version="1.0" encoding="utf-8"?>
<!-- Generator: Adobe Illustrator 23.0.4, SVG Export Plug-In . SVG Version: 6.00 Build 0)  -->
<svg version="1.1" id="Layer_1" xmlns="http://www.w3.org/2000/svg" xmlns:xlink="http://www.w3.org/1999/xlink" x="0px" y="0px"
	 viewBox="0 0 375 278" style="enable-background:new 0 0 375 278;" xml:space="preserve">
<style type="text/css">
	.st0{opacity:0.5;}
	.st1{fill:none;stroke:#1A237E;stroke-width:1.13;stroke-linecap:round;stroke-linejoin:round;}
</style>
<title>Group 29</title>
<desc>Created with Sketch.</desc>
<g id="Design" class="st0">
	<g id="Home" transform="translate(-1123.000000, -3886.000000)">
		<g id="Blog" transform="translate(301.000000, 3733.000000)">
			<g transform="translate(822.500000, 153.000000)">
				<g id="Group-29">
					
						<g transform="translate(135.373846, 44.513173) rotate(136.000000) translate(-135.373846, -44.513173) translate(-50.626154, -119.986827)">
						<path id="Stroke-1" class="st1" d="M110.4,14.6c13.2-8.5,27.5-14.8,42.1-19c14.7-4.3,29.9-6.4,45.1-6.4s30.4,2.1,45.1,6.3
							s28.9,10.6,42.1,19"/>
						<path id="Stroke-3" class="st1" d="M66.4,56.6c19.6-14.1,40.9-24.7,63-31.8s45.1-10.6,68.1-10.6c23,0,45.9,3.5,68.1,10.6
							c22.1,7.1,43.4,17.7,63,31.8"/>
						<path id="Stroke-5" class="st1" d="M36.4,115.2c10.2-12.4,21.5-23.5,33.7-33.1c12.2-9.7,25.3-17.8,39.1-24.5
							c13.8-6.6,28.2-11.7,43.1-15.2c14.9-3.4,30.2-5.2,45.7-5.2c15.5,0,30.8,1.8,45.7,5.2c14.9,3.4,29.3,8.5,43.1,15.2
							c13.8,6.6,26.9,14.8,39.1,24.5c12.2,9.6,23.5,20.7,33.7,33.1"/>
						<path id="Stroke-7" class="st1" d="M13.4,184.2c8.3-17.5,19.5-34,32.7-48.8s28.4-28,44.9-39c16.4-11,34.1-19.8,52-25.9
							c18-6.1,36.3-9.4,54.2-9.4s35.9,3.1,53.4,8.7c17.5,5.7,34.4,14,50.1,24.4c15.7,10.5,30.2,23.1,42.8,37.5
							c12.6,14.4,23.4,30.6,31.7,48"/>
						<path id="Stroke-9" class="st1" d="M319.4,140.2c12.4,12.5,23.9,27,34.3,43c10.4,16,19.8,33.6,27.7,52.6"/>
						<path id="Stroke-11" class="st1" d="M125.4,103.2c12.7-6.4,25.3-11.2,37.9-14.4c12.6-3.2,25.1-4.7,37.6-4.7
							c12.5,0.1,24.8,1.7,37.1,5c14.6,3.9,28.9,10.3,42.6,18.8"/>
						<path id="Stroke-15" class="st1" d="M145.4,122c15.5-6.1,33.4-9.8,54.5-9.8h0.1h0.1h0.1h0.1c20.2,0,37.6,3.9,52.6,10.3
							c15.1,6.4,27.9,15.4,39,25.8c11.1,10.4,20.5,22.1,28.7,34c8.2,11.9,15.3,24,21.8,35.1c3.4,5.8,6.6,11.2,9.7,16.2
							s6.1,9.5,9,13.3c3,3.9,5.9,7.1,8.8,9.4c3,2.4,6,3.9,9.1,4.5"/>
						<path id="Stroke-19" class="st1" d="M232.4,165.2c10.2,3.7,18.7,9.2,26,15.9c7.3,6.7,13.4,14.6,18.9,23.2
							c5.5,8.6,10.5,17.8,15.6,27.2c4.2,7.8,8.5,15.7,13.1,23.4c4.7,7.6,9.7,15,15.6,21.8s12.5,13,20.3,18.3
							c7.8,5.3,16.8,9.7,27.3,12.9"/>
						<path id="Stroke-21" class="st1" d="M119.4,208.8c5.6-8.7,11.7-16.9,18.9-24c7.1-7.1,15.2-13.1,24.7-17.4
							c9.5-4.3,20.5-6.9,33.4-7.2"/>
						<path id="Stroke-23" class="st1" d="M150.4,205.9c6.1-6.5,12.9-11.8,20.6-15.6s16.5-6,26.6-6.1c10.2-0.2,18.8,1.6,26.4,4.9
							c7.6,3.3,14.1,8,19.9,13.8c5.8,5.8,10.9,12.6,15.7,20c4.8,7.4,9.3,15.3,13.8,23.4c4.7,8.4,9.6,17.1,15.1,25.5
							c5.5,8.5,11.5,16.8,18.6,24.5"/>
						<path id="Stroke-25" class="st1" d="M177.4,214.9c6-3,12.8-4.7,20.8-4.7c7.9,0,14.6,1.6,20.5,4.4c5.9,2.8,11,6.9,15.6,11.9
							c4.6,5,8.6,10.9,12.5,17.4s7.6,13.5,11.4,20.8c4.6,8.9,9.4,18,14.9,26.9s11.7,17.7,19.2,25.7"/>
						<path id="Stroke-27" class="st1" d="M97.4,191.1c6.5-9.8,13.7-19.3,22.5-27.4c8.8-8.2,19.1-15.2,31.5-20.2
							c12.5-5,27.1-8,44.5-8.2c18.5-0.3,33.7,2.2,46.6,6.7c12.9,4.5,23.3,11.1,32.2,18.9c8.8,7.9,16.1,17.1,22.4,26.9
							c6.4,9.8,11.9,20.3,17.4,30.6c3.8,7.1,7.5,14.1,11.5,20.8c4,6.7,8.1,13,12.8,18.8c4.6,5.8,9.8,11,15.6,15.4
							c5.9,4.4,12.5,8,20.1,10.6"/>
					</g>
				</g>
			</g>
		</g>
	</g>
</g>
</svg>
