<?xml version="1.0" encoding="utf-8"?>
<!-- Generator: Adobe Illustrator 24.0.2, SVG Export Plug-In . SVG Version: 6.00 Build 0)  -->
<svg version="1.1" id="Layer_1" xmlns="http://www.w3.org/2000/svg" xmlns:xlink="http://www.w3.org/1999/xlink" x="0px" y="0px"
	 viewBox="0 0 618.8 412" style="enable-background:new 0 0 618.8 412;" xml:space="preserve">
<style type="text/css">
	.st0{fill:url(#SVGID_1_);}
	.st1{fill:#72A3D4;}
	.st2{fill:#F1F2F2;}
	.st3{fill:#CBD9D9;}
	.st4{fill:url(#SVGID_2_);}
	.st5{fill:#151C92;}
	.st6{fill:url(#SVGID_3_);}
	.st7{fill:url(#SVGID_4_);}
	.st8{fill:url(#SVGID_5_);}
	.st9{fill:url(#SVGID_6_);}
	.st10{fill:url(#SVGID_7_);}
	.st11{fill:#DC4E6F;}
	.st12{fill:url(#SVGID_8_);}
	.st13{fill:url(#SVGID_9_);}
	.st14{fill:url(#SVGID_10_);}
	.st15{fill:url(#SVGID_11_);}
	.st16{fill:url(#SVGID_12_);}
	.st17{fill:#2E88FF;}
	.st18{fill:url(#SVGID_13_);}
	.st19{fill:url(#SVGID_14_);}
	.st20{fill:url(#SVGID_15_);}
	.st21{fill:url(#SVGID_16_);}
	.st22{fill:url(#SVGID_17_);}
	.st23{fill:url(#SVGID_18_);}
	.st24{fill:url(#SVGID_19_);}
	.st25{fill:url(#SVGID_20_);}
	.st26{fill:#FFFFFF;}
	.st27{fill:#BFD5F7;}
	.st28{fill:url(#SVGID_21_);}
	.st29{fill:url(#SVGID_22_);}
	.st30{fill:url(#SVGID_23_);}
	.st31{fill:url(#SVGID_24_);}
	.st32{fill:url(#SVGID_25_);}
	.st33{fill:url(#SVGID_26_);}
	.st34{fill:#F9B09F;}
	.st35{fill:#D5E5FD;}
	.st36{fill:url(#SVGID_27_);}
	.st37{fill:url(#SVGID_28_);}
	.st38{fill:#2627BA;}
	.st39{fill:#DB8370;}
	.st40{fill:#B3E0FD;}
	.st41{fill:#A1AEBD;}
	.st42{fill:#2B4FB1;}
	.st43{fill:#F59F71;}
	.st44{fill:url(#SVGID_29_);}
	.st45{fill:url(#SVGID_30_);}
	.st46{fill:url(#SVGID_31_);}
	.st47{fill:url(#SVGID_32_);}
	.st48{fill:#633225;}
	.st49{fill:url(#SVGID_33_);}
	.st50{fill:url(#SVGID_34_);}
	.st51{fill:url(#SVGID_35_);}
	.st52{fill:url(#SVGID_36_);}
	.st53{fill:url(#SVGID_37_);}
	.st54{fill:url(#SVGID_38_);}
	.st55{fill:#AD8F4A;}
	.st56{fill:#94752F;}
	.st57{fill:url(#SVGID_39_);}
	.st58{fill:#935137;}
	.st59{fill:url(#SVGID_40_);}
	.st60{fill:url(#SVGID_41_);}
	.st61{fill:url(#SVGID_42_);}
	.st62{fill:url(#SVGID_43_);}
	.st63{fill:#ADC1DE;}
	.st64{fill:url(#SVGID_44_);}
	.st65{fill:url(#SVGID_45_);}
	.st66{fill:url(#SVGID_46_);}
	.st67{fill:url(#SVGID_47_);}
	.st68{fill:url(#SVGID_48_);}
	.st69{fill:url(#SVGID_49_);}
	.st70{fill:url(#SVGID_50_);}
	.st71{fill:url(#SVGID_51_);}
	.st72{fill:#66220F;}
	.st73{fill:#486582;}
</style>
<g>
	<g>
		<g>
			
				<linearGradient id="SVGID_1_" gradientUnits="userSpaceOnUse" x1="4500.0024" y1="388.0487" x2="4500.0024" y2="359.2987" gradientTransform="matrix(-1 0 0 1 4832.2808 0)">
				<stop  offset="0" style="stop-color:#6C9ED1"/>
				<stop  offset="1" style="stop-color:#B9DAF9"/>
			</linearGradient>
			<path class="st0" d="M353.2,386.1c7.1,0,12.9-5.8,12.9-12.9c0-7.1-5.8-12.9-12.9-12.9h-54.9v25.9H353.2z"/>
			<path class="st1" d="M244.9,382v-17.7h-2.1c-1.1,0-2.1-0.9-2.1-2.1c0-1.1,0.9-2.1,2.1-2.1h65.4c7,0,13,5.3,13.3,12.3
				c0.4,7.4-5.6,13.6-12.9,13.6h-65.8c-1.1,0-2.1-0.9-2.1-2.1c0-1.1,0.9-2.1,2.1-2.1H244.9z"/>
			<path class="st2" d="M308.7,382h-63.8v-17.7h63.8c4.9,0,8.8,4,8.8,8.8C317.5,378.1,313.6,382,308.7,382z"/>
			<g>
				<g>
					<rect x="244.9" y="368.5" class="st3" width="62.6" height="1"/>
				</g>
				<g>
					<rect x="244.9" y="371.3" class="st3" width="62.6" height="1"/>
				</g>
				<g>
					<rect x="244.9" y="374.1" class="st3" width="62.6" height="1"/>
				</g>
				<g>
					<rect x="244.9" y="376.9" class="st3" width="62.6" height="1"/>
				</g>
			</g>
		</g>
		<g>
			
				<linearGradient id="SVGID_2_" gradientUnits="userSpaceOnUse" x1="4558.7241" y1="318.3063" x2="4558.7241" y2="294.6566" gradientTransform="matrix(-1 0 0 1 4832.2808 0)">
				<stop  offset="0" style="stop-color:#131A8C"/>
				<stop  offset="1" style="stop-color:#3A35EA"/>
			</linearGradient>
			<path class="st4" d="M246.1,318.3c-7.1,0-12.9-5.8-12.9-12.9c0-7.1,5.8-12.9,12.9-12.9H314v25.9H246.1z"/>
			<path class="st5" d="M357.4,314.2v-17.7h2.1c1.1,0,2.1-0.9,2.1-2.1c0-1.1-0.9-2.1-2.1-2.1H304c-7,0-13,5.3-13.3,12.3
				c-0.4,7.4,5.6,13.6,12.9,13.6h55.8c1.1,0,2.1-0.9,2.1-2.1c0-1.1-0.9-2.1-2.1-2.1H357.4z"/>
			<path class="st2" d="M303.6,314.2h54.8v-17.7h-54.8c-4.9,0-8.8,4-8.8,8.8C294.8,310.2,298.8,314.2,303.6,314.2z"/>
			<g>
				<g>
					<rect x="304.8" y="300.6" class="st3" width="52.6" height="1"/>
				</g>
				<g>
					<rect x="304.8" y="303.4" class="st3" width="52.6" height="1"/>
				</g>
				<g>
					<rect x="304.8" y="306.2" class="st3" width="52.6" height="1"/>
				</g>
				<g>
					<rect x="304.8" y="309" class="st3" width="52.6" height="1"/>
				</g>
			</g>
		</g>
		<g>
			
				<linearGradient id="SVGID_3_" gradientUnits="userSpaceOnUse" x1="4575.7148" y1="410.5297" x2="4575.7148" y2="387.2136" gradientTransform="matrix(-1 0 0 1 4832.2808 0)">
				<stop  offset="0" style="stop-color:#131A8C"/>
				<stop  offset="1" style="stop-color:#3A35EA"/>
			</linearGradient>
			<path class="st6" d="M229.1,412c-7.1,0-12.9-5.8-12.9-12.9c0-7.1,5.8-12.9,12.9-12.9H297V412H229.1z"/>
			<path class="st5" d="M350.4,407.9v-17.7h2.1c1.1,0,2.1-0.9,2.1-2.1c0-1.1-0.9-2.1-2.1-2.1H287c-7,0-13,5.3-13.3,12.3
				c-0.4,7.4,5.6,13.6,12.9,13.6h65.8c1.1,0,2.1-0.9,2.1-2.1c0-1.1-0.9-2.1-2.1-2.1H350.4z"/>
			<path class="st2" d="M286.6,407.9h64.8v-17.7h-64.8c-4.9,0-8.8,4-8.8,8.8C277.8,404,281.8,407.9,286.6,407.9z"/>
			<g>
				<g>
					<rect x="287.8" y="394.4" class="st3" width="62.6" height="1"/>
				</g>
				<g>
					<rect x="287.8" y="397.2" class="st3" width="62.6" height="1"/>
				</g>
				<g>
					<rect x="287.8" y="400" class="st3" width="62.6" height="1"/>
				</g>
				<g>
					<rect x="287.8" y="402.8" class="st3" width="62.6" height="1"/>
				</g>
			</g>
			
				<linearGradient id="SVGID_4_" gradientUnits="userSpaceOnUse" x1="4533.6377" y1="398.2862" x2="4533.6377" y2="376.4281" gradientTransform="matrix(-1 0 0 1 4832.2808 0)">
				<stop  offset="0" style="stop-color:#D64668"/>
				<stop  offset="1" style="stop-color:#FE7A91"/>
			</linearGradient>
			<polygon class="st7" points="293.6,397.7 298.6,394.8 303.6,397.7 303.6,376.4 293.6,376.4 			"/>
		</g>
		<g>
			
				<linearGradient id="SVGID_5_" gradientUnits="userSpaceOnUse" x1="4527.4092" y1="359.4363" x2="4527.4092" y2="335.1133" gradientTransform="matrix(-1 0 0 1 4832.2808 0)">
				<stop  offset="0" style="stop-color:#131A8C"/>
				<stop  offset="1" style="stop-color:#3A35EA"/>
			</linearGradient>
			<path class="st8" d="M253.3,360.2h90c7.3,0,13.2-5.9,13.2-13.2c0-7.3-5.9-13.2-13.2-13.2h-90V360.2z"/>
			<path class="st5" d="M224.9,357v-19.8h-3.7c-0.9,0-1.6-0.7-1.6-1.6c0-0.9,0.7-1.6,1.6-1.6h60c7.1,0,13.2,5.5,13.6,12.6
				c0.4,7.6-5.7,13.8-13.2,13.8h-60.4c-0.9,0-1.6-0.7-1.6-1.6s0.7-1.6,1.6-1.6H224.9z"/>
			<path class="st2" d="M224.9,337.1h56.7c5.5,0,9.9,4.4,9.9,9.9c0,5.5-4.4,9.9-9.9,9.9h-56.7V337.1z"/>
			<g>
				<g>
					<rect x="224.9" y="342.4" class="st3" width="60.2" height="1"/>
				</g>
				<g>
					<rect x="224.9" y="345.1" class="st3" width="60.2" height="1"/>
				</g>
				<g>
					<rect x="224.9" y="347.9" class="st3" width="60.2" height="1"/>
				</g>
				<g>
					<rect x="224.9" y="350.7" class="st3" width="60.2" height="1"/>
				</g>
			</g>
		</g>
		<g>
			
				<linearGradient id="SVGID_6_" gradientUnits="userSpaceOnUse" x1="4573.9199" y1="333.3788" x2="4573.9199" y2="318.9908" gradientTransform="matrix(-1 0 0 1 4832.2808 0)">
				<stop  offset="0" style="stop-color:#6C9ED1"/>
				<stop  offset="1" style="stop-color:#B9DAF9"/>
			</linearGradient>
			<path class="st9" d="M214.2,318.3h96.2v3.3h-3.3v9.1h3.3v3.3h-96.2c-4.3,0-7.8-3.5-7.8-7.8C206.3,321.8,209.8,318.3,214.2,318.3z
				"/>
			<path class="st1" d="M247.1,318.3h96.2v3.3H340v9.1h3.3v3.3h-96.2c-4.3,0-7.8-3.5-7.8-7.8C239.2,321.8,242.7,318.3,247.1,318.3z"
				/>
			<path class="st2" d="M340,330.6v-9.1h-92.9c-2.5,0-4.5,2-4.5,4.5c0,2.5,2,4.5,4.5,4.5H340z"/>
			<g>
				<g>
					<rect x="248.6" y="324.2" class="st3" width="91.3" height="1"/>
				</g>
				<g>
					<rect x="248.6" y="327" class="st3" width="91.3" height="1"/>
				</g>
			</g>
		</g>
		<g>
			
				<linearGradient id="SVGID_7_" gradientUnits="userSpaceOnUse" x1="299.2011" y1="292.1541" x2="299.2011" y2="277.6711" gradientTransform="matrix(-1 0 0 1 620.291 0)">
				<stop  offset="0" style="stop-color:#D64668"/>
				<stop  offset="1" style="stop-color:#FE7A91"/>
			</linearGradient>
			<path class="st10" d="M350.6,276.7h-66.8v3.3h3.3v9.1h-3.3v3.3h66.8c4.3,0,7.8-3.5,7.8-7.8C358.4,280.2,354.9,276.7,350.6,276.7z
				"/>
			<path class="st11" d="M306,276.7h-55.1v3.3h3.3v9.1h-3.3v3.3H306c4.3,0,7.8-3.5,7.8-7.8C313.8,280.2,310.3,276.7,306,276.7z"/>
			<path class="st2" d="M254.2,289.1V280H306c2.5,0,4.5,2,4.5,4.5c0,2.5-2,4.5-4.5,4.5H254.2z"/>
			<g>
				<g>
					<rect x="254.2" y="282.6" class="st3" width="49.4" height="1"/>
				</g>
				<g>
					<rect x="254.2" y="285.4" class="st3" width="49.4" height="1"/>
				</g>
			</g>
		</g>
	</g>
	<g>
		<g>
			
				<linearGradient id="SVGID_8_" gradientUnits="userSpaceOnUse" x1="4649.9741" y1="411.7089" x2="4649.9741" y2="326.9013" gradientTransform="matrix(-1 0 0 1 4832.2808 0)">
				<stop  offset="0" style="stop-color:#D64668"/>
				<stop  offset="1" style="stop-color:#FE7A91"/>
			</linearGradient>
			<path class="st12" d="M130.3,326.8h105.6l11.6,11.4V412H118.8c-0.9,0-1.6-0.7-1.6-1.6V340C117.1,332.7,123,326.8,130.3,326.8z"/>
			<path class="st11" d="M245.8,406.7H226v3.7c0,0.9-0.7,1.6-1.6,1.6s-1.6-0.7-1.6-1.6v-70c0-7.1,5.5-13.2,12.6-13.6
				c7.6-0.4,13.8,5.7,13.8,13.2v70.4c0,0.9-0.7,1.6-1.6,1.6s-1.6-0.7-1.6-1.6V406.7z"/>
			<path class="st2" d="M226,406.7V340c0-5.5,4.4-9.9,9.9-9.9c5.5,0,9.9,4.4,9.9,9.9v66.7H226z"/>
			<g>
				<g>
					<rect x="230.9" y="339.6" class="st3" width="1" height="67.2"/>
				</g>
				<g>
					<rect x="233.9" y="339.6" class="st3" width="1" height="67.2"/>
				</g>
				<g>
					<rect x="236.9" y="339.6" class="st3" width="1" height="67.2"/>
				</g>
				<g>
					<rect x="240" y="339.6" class="st3" width="1" height="67.2"/>
				</g>
			</g>
		</g>
		<g>
			
				<linearGradient id="SVGID_9_" gradientUnits="userSpaceOnUse" x1="121.7616" y1="375.6461" x2="121.7616" y2="361.1631" gradientTransform="matrix(1 0 0 1 -18.5713 0)">
				<stop  offset="0" style="stop-color:#6C9ED1"/>
				<stop  offset="1" style="stop-color:#B9DAF9"/>
			</linearGradient>
			<path class="st13" d="M67.2,360.2H147v3.3h-3.3v9.1h3.3v3.3H67.2c-4.3,0-7.8-3.5-7.8-7.8C59.4,363.7,62.9,360.2,67.2,360.2z"/>
			<path class="st1" d="M124.8,360.2h55.1v3.3h-3.3v9.1h3.3v3.3h-55.1c-4.3,0-7.8-3.5-7.8-7.8C116.9,363.7,120.4,360.2,124.8,360.2z
				"/>
			<path class="st2" d="M176.6,372.6v-9.1h-51.8c-2.5,0-4.5,2-4.5,4.5c0,2.5,2,4.5,4.5,4.5H176.6z"/>
			<g>
				<g>
					<rect x="127.2" y="366.1" class="st3" width="49.4" height="1"/>
				</g>
				<g>
					<rect x="127.2" y="368.9" class="st3" width="49.4" height="1"/>
				</g>
			</g>
		</g>
		<g>
			
				<linearGradient id="SVGID_10_" gradientUnits="userSpaceOnUse" x1="141.06" y1="411.4135" x2="141.06" y2="376.2964" gradientTransform="matrix(1 0 0 1 -18.5713 0)">
				<stop  offset="0" style="stop-color:#131A8C"/>
				<stop  offset="1" style="stop-color:#3A35EA"/>
			</linearGradient>
			<path class="st14" d="M159.3,375.9H79.2c-0.9,0-1.6,0.7-1.6,1.6c0,0.9,0.7,1.6,1.6,1.6h1.6v29.6h-1.6c-0.9,0-1.6,0.7-1.6,1.6
				c0,0.9,0.7,1.6,1.6,1.6h80.2c4.5,0,8.1-3.6,8.1-8.1v-20C167.4,379.5,163.8,375.9,159.3,375.9z"/>
			<path class="st5" d="M81.8,375.9H1.6c-0.9,0-1.6,0.7-1.6,1.6c0,0.9,0.7,1.6,1.6,1.6h1.6v29.6H1.6c-0.9,0-1.6,0.7-1.6,1.6
				c0,0.9,0.7,1.6,1.6,1.6h80.2c4.5,0,8.1-3.6,8.1-8.1v-20C89.9,379.5,86.3,375.9,81.8,375.9z"/>
			<path class="st2" d="M2.3,408.7v-29.6h79.5c2.6,0,4.8,2.1,4.8,4.8v20c0,2.6-2.1,4.8-4.8,4.8H2.3z"/>
			<g>
				<g>
					<rect x="3.3" y="383.6" class="st3" width="77.2" height="1"/>
				</g>
				<g>
					<rect x="3.3" y="387.6" class="st3" width="77.2" height="1"/>
				</g>
				<g>
					<rect x="3.3" y="391.5" class="st3" width="77.2" height="1"/>
				</g>
				<g>
					<rect x="3.3" y="395.4" class="st3" width="77.2" height="1"/>
				</g>
				<g>
					<rect x="3.3" y="399.3" class="st3" width="77.2" height="1"/>
				</g>
				<g>
					<rect x="3.3" y="403.3" class="st3" width="77.2" height="1"/>
				</g>
			</g>
		</g>
	</g>
	<g>
		
			<linearGradient id="SVGID_11_" gradientUnits="userSpaceOnUse" x1="4605.397" y1="309.8907" x2="4605.397" y2="281.1408" gradientTransform="matrix(-1 0 0 1 5100.6304 0)">
			<stop  offset="0" style="stop-color:#6C9ED1"/>
			<stop  offset="1" style="stop-color:#B9DAF9"/>
		</linearGradient>
		<path class="st15" d="M516.2,308c7.1,0,12.9-5.8,12.9-12.9s-5.8-12.9-12.9-12.9h-54.9V308H516.2z"/>
		<path class="st1" d="M407.9,303.9v-17.7h-2.1c-1.1,0-2.1-0.9-2.1-2.1c0-1.1,0.9-2.1,2.1-2.1h65.4c7,0,13,5.3,13.3,12.3
			c0.4,7.4-5.6,13.6-12.9,13.6h-65.8c-1.1,0-2.1-0.9-2.1-2.1c0-1.1,0.9-2.1,2.1-2.1H407.9z"/>
		<path class="st2" d="M471.7,303.9h-63.8v-17.7h63.8c4.9,0,8.8,4,8.8,8.8C480.5,299.9,476.5,303.9,471.7,303.9z"/>
		<g>
			<g>
				<rect x="407.9" y="290.4" class="st3" width="62.6" height="1"/>
			</g>
			<g>
				<rect x="407.9" y="293.1" class="st3" width="62.6" height="1"/>
			</g>
			<g>
				<rect x="407.9" y="295.9" class="st3" width="62.6" height="1"/>
			</g>
			<g>
				<rect x="407.9" y="298.7" class="st3" width="62.6" height="1"/>
			</g>
		</g>
	</g>
	<g>
		
			<linearGradient id="SVGID_12_" gradientUnits="userSpaceOnUse" x1="6278.4712" y1="281.2784" x2="6278.4712" y2="256.9554" gradientTransform="matrix(1 0 0 1 -5813.3799 0)">
			<stop  offset="0" style="stop-color:#287FFF"/>
			<stop  offset="1" style="stop-color:#68DEFD"/>
		</linearGradient>
		<path class="st16" d="M516.7,282.1h-90c-7.3,0-13.2-5.9-13.2-13.2c0-7.3,5.9-13.2,13.2-13.2h90V282.1z"/>
		<path class="st17" d="M545.1,278.8V259h3.7c0.9,0,1.6-0.7,1.6-1.6c0-0.9-0.7-1.6-1.6-1.6h-60c-7.1,0-13.2,5.5-13.6,12.6
			c-0.4,7.6,5.7,13.8,13.2,13.8h60.4c0.9,0,1.6-0.7,1.6-1.6c0-0.9-0.7-1.6-1.6-1.6H545.1z"/>
		<path class="st2" d="M545.1,259h-56.7c-5.5,0-9.9,4.4-9.9,9.9c0,5.5,4.4,9.9,9.9,9.9h56.7V259z"/>
		<g>
			<g>
				<rect x="484.9" y="264.2" class="st3" width="60.2" height="1"/>
			</g>
			<g>
				<rect x="484.9" y="267" class="st3" width="60.2" height="1"/>
			</g>
			<g>
				<rect x="484.9" y="269.8" class="st3" width="60.2" height="1"/>
			</g>
			<g>
				<rect x="484.9" y="272.5" class="st3" width="60.2" height="1"/>
			</g>
		</g>
	</g>
	<g>
		
			<linearGradient id="SVGID_13_" gradientUnits="userSpaceOnUse" x1="6324.9819" y1="255.2209" x2="6324.9819" y2="240.8328" gradientTransform="matrix(1 0 0 1 -5813.3799 0)">
			<stop  offset="0" style="stop-color:#6C9ED1"/>
			<stop  offset="1" style="stop-color:#B9DAF9"/>
		</linearGradient>
		<path class="st18" d="M555.8,240.1h-96.2v3.3h3.3v9.1h-3.3v3.3h96.2c4.3,0,7.8-3.5,7.8-7.8C563.6,243.6,560.1,240.1,555.8,240.1z"
			/>
		<path class="st1" d="M522.9,240.1h-96.2v3.3h3.3v9.1h-3.3v3.3h96.2c4.3,0,7.8-3.5,7.8-7.8C530.7,243.6,527.2,240.1,522.9,240.1z"
			/>
		<path class="st2" d="M430,252.5v-9.1h92.9c2.5,0,4.5,2,4.5,4.5c0,2.5-2,4.5-4.5,4.5H430z"/>
		<g>
			<g>
				<rect x="430" y="246" class="st3" width="91.3" height="1"/>
			</g>
			<g>
				<rect x="430" y="248.8" class="st3" width="91.3" height="1"/>
			</g>
		</g>
	</g>
	<g>
		
			<linearGradient id="SVGID_14_" gradientUnits="userSpaceOnUse" x1="569.3392" y1="318.3063" x2="569.3392" y2="294.6566" gradientTransform="matrix(-1 0 0 1 1007.8695 15.6122)">
			<stop  offset="0" style="stop-color:#131A8C"/>
			<stop  offset="1" style="stop-color:#3A35EA"/>
		</linearGradient>
		<path class="st19" d="M411.1,333.9c-7.1,0-12.9-5.8-12.9-12.9c0-7.1,5.8-12.9,12.9-12.9h67.9v25.9H411.1z"/>
		<path class="st5" d="M525.4,329.8v-17.7h2.1c1.1,0,2.1-0.9,2.1-2.1c0-1.1-0.9-2.1-2.1-2.1H469c-7,0-13,5.3-13.3,12.3
			c-0.4,7.4,5.6,13.6,12.9,13.6h58.8c1.1,0,2.1-0.9,2.1-2.1c0-1.1-0.9-2.1-2.1-2.1H525.4z"/>
		<path class="st2" d="M468.6,329.8h56.8v-17.7h-56.8c-4.9,0-8.8,4-8.8,8.8C459.8,325.8,463.7,329.8,468.6,329.8z"/>
		<g>
			<g>
				<rect x="469.8" y="316.3" class="st3" width="55.6" height="1"/>
			</g>
			<g>
				<rect x="469.8" y="319" class="st3" width="55.6" height="1"/>
			</g>
			<g>
				<rect x="469.8" y="321.8" class="st3" width="55.6" height="1"/>
			</g>
			<g>
				<rect x="469.8" y="324.6" class="st3" width="55.6" height="1"/>
			</g>
		</g>
	</g>
	<g>
		
			<linearGradient id="SVGID_15_" gradientUnits="userSpaceOnUse" x1="466.7529" y1="229.6573" x2="466.7529" y2="215.1743" gradientTransform="matrix(-1 0 0 1 1007.8695 182.1622)">
			<stop  offset="0" style="stop-color:#6C9ED1"/>
			<stop  offset="1" style="stop-color:#B9DAF9"/>
		</linearGradient>
		<path class="st20" d="M599.6,396.4H474.8v3.3h3.3v9.1h-3.3v3.3h124.8c4.3,0,7.8-3.5,7.8-7.8S603.9,396.4,599.6,396.4z"/>
		<path class="st1" d="M496.8,396.4H386.6c-0.9,0-1.6,0.7-1.6,1.6c0,0.9,0.7,1.6,1.6,1.6h1.6v9.1h-1.6c-0.9,0-1.6,0.7-1.6,1.6
			c0,0.9,0.7,1.6,1.6,1.6H497c4.5,0,8.1-3.8,7.8-8.4C504.6,399.5,500.9,396.4,496.8,396.4z"/>
		<path class="st2" d="M388.2,408.7v-9.1H497c2.5,0,4.5,2,4.5,4.5c0,2.5-2,4.5-4.5,4.5H388.2z"/>
		<g>
			<g>
				<rect x="388.2" y="402.3" class="st3" width="106.4" height="1"/>
			</g>
			<g>
				<rect x="388.2" y="405.1" class="st3" width="106.4" height="1"/>
			</g>
		</g>
	</g>
	<g>
		
			<linearGradient id="SVGID_16_" gradientUnits="userSpaceOnUse" x1="561.5513" y1="265.4247" x2="561.5513" y2="230.3077" gradientTransform="matrix(-1 0 0 1 1007.8695 130.3276)">
			<stop  offset="0" style="stop-color:#287FFF"/>
			<stop  offset="1" style="stop-color:#68DEFD"/>
		</linearGradient>
		<path class="st21" d="M409.5,360.2h80.2c0.9,0,1.6,0.7,1.6,1.6c0,0.9-0.7,1.6-1.6,1.6H488v29.6h1.6c0.9,0,1.6,0.7,1.6,1.6
			c0,0.9-0.7,1.6-1.6,1.6h-80.2c-4.5,0-8.1-3.6-8.1-8.1v-20C401.4,363.8,405,360.2,409.5,360.2z"/>
		<path class="st17" d="M487,360.2h90.2c0.9,0,1.6,0.7,1.6,1.6c0,0.9-0.7,1.6-1.6,1.6h-1.6v29.6h1.6c0.9,0,1.6,0.7,1.6,1.6
			c0,0.9-0.7,1.6-1.6,1.6H487c-4.5,0-8.1-3.6-8.1-8.1v-20C478.9,363.8,482.5,360.2,487,360.2z"/>
		<path class="st2" d="M575.5,393.1v-29.6H487c-2.6,0-4.8,2.1-4.8,4.8v20c0,2.6,2.1,4.8,4.8,4.8H575.5z"/>
		<g>
			<g>
				<rect x="488.4" y="368" class="st3" width="87.2" height="1"/>
			</g>
			<g>
				<rect x="488.4" y="371.9" class="st3" width="87.2" height="1"/>
			</g>
			<g>
				<rect x="488.4" y="375.8" class="st3" width="87.2" height="1"/>
			</g>
			<g>
				<rect x="488.4" y="379.7" class="st3" width="87.2" height="1"/>
			</g>
			<g>
				<rect x="488.4" y="383.7" class="st3" width="87.2" height="1"/>
			</g>
			<g>
				<rect x="488.4" y="387.6" class="st3" width="87.2" height="1"/>
			</g>
		</g>
	</g>
	<g>
		
			<linearGradient id="SVGID_17_" gradientUnits="userSpaceOnUse" x1="504.2097" y1="290.1779" x2="504.2097" y2="265.8616" gradientTransform="matrix(-1 0 0 1 1007.8695 67.747)">
			<stop  offset="0" style="stop-color:#D64668"/>
			<stop  offset="1" style="stop-color:#FE7A91"/>
		</linearGradient>
		<path class="st22" d="M448.5,360.2h97c7.3,0,13.2-5.9,13.2-13.2c0-7.3-5.9-13.2-13.2-13.2h-97V360.2z"/>
		<path class="st11" d="M420.2,356.9v-19.8h-3.7c-0.9,0-1.6-0.7-1.6-1.6s0.7-1.6,1.6-1.6h70c7.1,0,13.2,5.5,13.6,12.6
			c0.4,7.6-5.7,13.8-13.2,13.8h-70.4c-0.9,0-1.6-0.7-1.6-1.6s0.7-1.6,1.6-1.6H420.2z"/>
		<path class="st2" d="M420.2,337.1h66.7c5.5,0,9.9,4.4,9.9,9.9c0,5.5-4.4,9.9-9.9,9.9h-66.7V337.1z"/>
		<g>
			<g>
				<rect x="420.2" y="342" class="st3" width="67.2" height="1"/>
			</g>
			<g>
				<rect x="420.2" y="345" class="st3" width="67.2" height="1"/>
			</g>
			<g>
				<rect x="420.2" y="348" class="st3" width="67.2" height="1"/>
			</g>
			<g>
				<rect x="420.2" y="351" class="st3" width="67.2" height="1"/>
			</g>
		</g>
		
			<linearGradient id="SVGID_18_" gradientUnits="userSpaceOnUse" x1="560.5398" y1="319.2286" x2="560.5398" y2="300.8972" gradientTransform="matrix(-1 0 0 1 1007.8695 47.747)">
			<stop  offset="0" style="stop-color:#131A8C"/>
			<stop  offset="1" style="stop-color:#3A35EA"/>
		</linearGradient>
		<polygon class="st23" points="442.3,368.9 447.3,366 452.3,368.9 452.3,347.5 442.3,347.5 		"/>
	</g>
	<g>
		
			<linearGradient id="SVGID_19_" gradientUnits="userSpaceOnUse" x1="-1198.6212" y1="236.1895" x2="-1198.6212" y2="48.7376" gradientTransform="matrix(-1 0 0 1 -718.3066 0)">
			<stop  offset="0" style="stop-color:#131A8C"/>
			<stop  offset="1" style="stop-color:#3A35EA"/>
		</linearGradient>
		<path class="st24" d="M348.1,240.1h264.4c3.5,0,6.3-2.8,6.3-6.3V52.1c0-3.5-2.8-6.3-6.3-6.3H348.1c-3.5,0-6.3,2.8-6.3,6.3v181.7
			C341.8,237.3,344.6,240.1,348.1,240.1z"/>
		<linearGradient id="SVGID_20_" gradientUnits="userSpaceOnUse" x1="362.7126" y1="255.552" x2="578.1029" y2="40.1618">
			<stop  offset="0" style="stop-color:#3A35EA"/>
			<stop  offset="1" style="stop-color:#5760FF"/>
		</linearGradient>
		<path class="st25" d="M343.1,240.1h264.4c3.5,0,6.3-2.8,6.3-6.3V52.1c0-3.5-2.8-6.3-6.3-6.3H343.1c-3.5,0-6.3,2.8-6.3,6.3v181.7
			C336.8,237.3,339.6,240.1,343.1,240.1z"/>
		<path class="st26" d="M607.8,234.2V53.8c0-1.1-0.9-2-2-2H344.8c-1.1,0-2,0.9-2,2v180.4H607.8z"/>
		<rect x="342.8" y="193.3" class="st27" width="265" height="40.9"/>
		<g>
			<linearGradient id="SVGID_21_" gradientUnits="userSpaceOnUse" x1="368.4083" y1="227.8067" x2="368.4083" y2="199.4724">
				<stop  offset="0" style="stop-color:#D64668"/>
				<stop  offset="1" style="stop-color:#FE7A91"/>
			</linearGradient>
			<circle class="st28" cx="368.4" cy="213.7" r="14.7"/>
			<polygon class="st26" points="363.4,222.1 363.4,205.3 377.4,213.7 			"/>
		</g>
		<linearGradient id="SVGID_22_" gradientUnits="userSpaceOnUse" x1="391.8238" y1="213.713" x2="454.9801" y2="213.713">
			<stop  offset="0" style="stop-color:#D64668"/>
			<stop  offset="1" style="stop-color:#FE7A91"/>
		</linearGradient>
		<path class="st29" d="M393.9,211.6c-1.2,0-2.1,0.9-2.1,2.1c0,1.2,0.9,2.1,2.1,2.1H455v-4.2H393.9z"/>
		<path class="st26" d="M592.5,211.6H455v4.2h137.5c1.2,0,2.1-0.9,2.1-2.1C594.6,212.6,593.6,211.6,592.5,211.6z"/>
		<linearGradient id="SVGID_23_" gradientUnits="userSpaceOnUse" x1="455.0912" y1="218.9473" x2="455.0912" y2="206.7452">
			<stop  offset="0" style="stop-color:#D64668"/>
			<stop  offset="1" style="stop-color:#FE7A91"/>
		</linearGradient>
		<circle class="st30" cx="455.1" cy="213.7" r="6"/>
		<g>
			
				<linearGradient id="SVGID_24_" gradientUnits="userSpaceOnUse" x1="-2423.4026" y1="127.7146" x2="-2343.064" y2="127.7146" gradientTransform="matrix(-1 0 0 1 -1966.7518 0)">
				<stop  offset="0" style="stop-color:#131A8C"/>
				<stop  offset="1" style="stop-color:#3A35EA"/>
			</linearGradient>
			<path class="st31" d="M385.3,174.8c-10.3-21.6-10-41.3-7.5-58.3l17.1-4.2c2.1,10.2,4.9,20.1,7.6,29c7.9-46.8,16.6-51.9,25.4-61.2
				c5.7-6,19.9-16,28.7-0.2c-0.4,34.2-16.3,56.1-28.9,82.4c-3.3,6.9-9.5,12.7-17.3,17.4c-8.8,5.6-16.3,5-21.1,0.8
				c-1.2-1-2.3-2.2-3-3.7C385.9,176.2,385.6,175.5,385.3,174.8z"/>
			
				<linearGradient id="SVGID_25_" gradientUnits="userSpaceOnUse" x1="-2534.2136" y1="125.9496" x2="-2395.5842" y2="125.9496" gradientTransform="matrix(-1 0 0 1 -1966.7518 0)">
				<stop  offset="0" style="stop-color:#131A8C"/>
				<stop  offset="1" style="stop-color:#3A35EA"/>
			</linearGradient>
			<path class="st32" d="M433,77.5c3.3-6.1,29.5-18.9,44.5-18.9c11.3,0,49.1,13,53,18.6c22.8,24.8,26.4,51.5,35.4,79
				c3.5,10.7,0.8,23.7-4.9,37.1h-24.3c2.9-9.5,4.4-17.5,4.4-23.3c-10.1-14.1-17-25.1-21.7-33.8c-1.6,6.2-2.6,12.5-2.2,19
				c0.7,12.9,4,25.5,5.9,38.1h-90.6C433.6,159.2,423.4,95.4,433,77.5z"/>
			<g>
				<path class="st26" d="M498.5,63.1l-33.3,77.6l-14.4-74.9c6.5-3.2,16.6-7.6,24.5-7.7C484.4,58,490.9,60.7,498.5,63.1z"/>
				
					<linearGradient id="SVGID_26_" gradientUnits="userSpaceOnUse" x1="-2436.2583" y1="136.4461" x2="-2436.2583" y2="74.3958" gradientTransform="matrix(-1 0 0 1 -1966.7518 0)">
					<stop  offset="0" style="stop-color:#D64668"/>
					<stop  offset="1" style="stop-color:#FE7A91"/>
				</linearGradient>
				<polygon class="st33" points="468.5,78.2 463.3,69.5 478.5,69.5 472.2,78.2 475.7,116.4 465.2,140.7 460.5,116.4 				"/>
				<g>
					<path class="st34" d="M463.5,34.3h20.7c0.1,8.8,0.9,17.5,2.4,26c-5.9,8.6-13.1,10.5-23.6,8.5C462.3,59.7,462.3,45.2,463.5,34.3
						z"/>
					<path class="st26" d="M485.8,55.1l-15.3,14.4l10.3,13.7l11.6-19.8L485.8,55.1z M457.3,83.2l13.2-13.7l-8-12.3l-4.4,6.4
						L457.3,83.2z"/>
					<g>
						<path class="st35" d="M457.3,83.7c-0.1,0-0.1,0-0.2,0c-0.2-0.1-0.3-0.3-0.3-0.5l0.9-19.6c0-0.3,0.2-0.5,0.5-0.5
							c0.3,0,0.5,0.2,0.5,0.5l-0.8,18.3l12.3-12.8c0,0,0,0,0,0c0,0,0.1-0.1,0.1-0.1c0.1,0,0.1,0,0.2,0c0.1,0,0.1,0,0.2,0.1
							c0,0,0.1,0.1,0.1,0.1c0,0,0,0,0,0l9.8,13.1L492,63.2c0.1-0.2,0.4-0.3,0.7-0.2c0.2,0.1,0.3,0.4,0.2,0.7l-11.6,19.8
							c-0.1,0.1-0.2,0.2-0.4,0.2c-0.2,0-0.3-0.1-0.4-0.2l-9.9-13.3l-12.8,13.3C457.6,83.7,457.5,83.7,457.3,83.7z"/>
					</g>
					
						<linearGradient id="SVGID_27_" gradientUnits="userSpaceOnUse" x1="-2411.6196" y1="14.1637" x2="-2423.2192" y2="38.6056" gradientTransform="matrix(-1 0 0 1 -1966.7518 0)">
						<stop  offset="0" style="stop-color:#34495E"/>
						<stop  offset="1" style="stop-color:#1D2A36"/>
					</linearGradient>
					<path class="st36" d="M444.3,23.8c1.9,8.4,8.6,21.7,13,24.3c-1-5.7-4.8-33-6.1-34.1C447.2,10.6,443.2,19.2,444.3,23.8z"/>
					<path class="st34" d="M476.3,50c-2.7,3.5-6.9,6.6-11.2,5.6c-3.6-0.8-5.9-4.2-7.7-7.4c-3.3-6-6-12.3-8-18.9
						c-1-3.4-1.8-6.9-1.3-10.4c1.2-7.1,8.4-12.2,15.5-12.2c9.5-0.1,17.6,6.3,19.2,15.5C484.8,31.9,482.4,42.3,476.3,50z"/>
					
						<linearGradient id="SVGID_28_" gradientUnits="userSpaceOnUse" x1="-2409.4443" y1="9.205" x2="-2450.0427" y2="41.1038" gradientTransform="matrix(-1 0 0 1 -1966.7518 0)">
						<stop  offset="0" style="stop-color:#34495E"/>
						<stop  offset="1" style="stop-color:#1D2A36"/>
					</linearGradient>
					<path class="st37" d="M461.3,0c4.5-0.3,9.6,1.7,13,5.2c2.7-1.5,6.1-0.4,8.4,2.7c2.7,3.7,2.3,8.2,2.8,12.5
						c0.5,4.9,2.7,8.9,1.3,14c-0.8,2.8-0.9,6.7-2.1,9.2c-1.3-2-2.1-3.5-3-6.1c-0.5-1.4-0.7-3-0.4-4.4c1-4.3,0.5-9.3-1.6-8.8
						c-1,0.2-2.5,4.6-2.6,6.1c0,0,2.4,14.9,2.4,14.9c-1.1,2.6-1.4,2.5-3.2,4.7c-2.7,3.5-7.8,7.2-12.1,8.1
						c-3.1,0.7-9.1-7.4-10.1-16.4c2-5.3,9.7-7,19.7-4.5l-0.1-11c-1.7-4.5-2.9-11.1-3.1-12.1c-0.1-0.5-0.2-1.1-0.2-1.6
						c-9.1,1.3-13.3,4.1-16,4.7c-4.6,1-10.2-0.9-12.2-4.5C439.8,8.3,444.1,1.1,461.3,0z"/>
				</g>
				<g>
					<path class="st38" d="M465.2,141.2c-0.1,0-0.2,0-0.3-0.1c-0.2-0.2-0.2-0.5,0-0.7l33.2-35.2l-5.9-6.9c-0.1-0.1-0.1-0.3-0.1-0.4
						c0-0.1,0.1-0.3,0.2-0.3l15.2-10.4l-5.7-19.6c-0.1-0.3,0.1-0.5,0.3-0.6c0.3-0.1,0.5,0.1,0.6,0.3l5.8,20c0.1,0.2,0,0.4-0.2,0.6
						L493.2,98l5.8,6.8c0.2,0.2,0.2,0.5,0,0.7L465.5,141C465.4,141.2,465.3,141.2,465.2,141.2z"/>
				</g>
				<g>
					<path class="st38" d="M465.2,141.2c-0.2,0-0.3-0.1-0.4-0.2l-23.7-35.6c-0.1-0.2-0.1-0.5,0.1-0.7l7.8-6.9l-12.2-10.2
						c-0.2-0.2-0.2-0.4-0.1-0.6l11.3-20c0.1-0.2,0.4-0.3,0.7-0.2c0.2,0.1,0.3,0.4,0.2,0.7l-11.1,19.6L450,97.5
						c0.1,0.1,0.2,0.2,0.2,0.4c0,0.1-0.1,0.3-0.2,0.4l-7.9,7l23.5,35.2c0.2,0.2,0.1,0.5-0.1,0.7
						C465.4,141.2,465.3,141.2,465.2,141.2z"/>
				</g>
			</g>
			<g>
				<path class="st38" d="M520,137.8c-0.2,0-0.3-0.1-0.4-0.3c-4.6-8.2-7.6-15.3-9.3-22c-0.1-0.3,0.1-0.5,0.4-0.6
					c0.3-0.1,0.5,0.1,0.6,0.4c1.7,6.5,4.7,13.6,9.3,21.7c0.1,0.2,0,0.5-0.2,0.7C520.2,137.7,520.1,137.8,520,137.8z"/>
			</g>
			<g>
				<path class="st38" d="M466.3,193.4c-0.3,0-0.5-0.2-0.5-0.5l-1.1-46c0-0.3,0.2-0.5,0.5-0.5c0,0,0,0,0,0c0.3,0,0.5,0.2,0.5,0.5
					l1.1,46C466.8,193.2,466.6,193.4,466.3,193.4C466.3,193.4,466.3,193.4,466.3,193.4z"/>
			</g>
			<g>
				<path class="st38" d="M474.5,157.3c-2.1,0-3.7-1.7-3.7-3.7c0-2.1,1.7-3.7,3.7-3.7s3.7,1.7,3.7,3.7
					C478.3,155.6,476.6,157.3,474.5,157.3z M474.5,150.8c-1.5,0-2.7,1.2-2.7,2.7c0,1.5,1.2,2.7,2.7,2.7s2.7-1.2,2.7-2.7
					C477.3,152,476,150.8,474.5,150.8z"/>
			</g>
			<g>
				<path class="st38" d="M474.5,173.4c-2.1,0-3.7-1.7-3.7-3.7c0-2.1,1.7-3.7,3.7-3.7s3.7,1.7,3.7,3.7
					C478.3,171.7,476.6,173.4,474.5,173.4z M474.5,166.9c-1.5,0-2.7,1.2-2.7,2.7c0,1.5,1.2,2.7,2.7,2.7s2.7-1.2,2.7-2.7
					C477.3,168.1,476,166.9,474.5,166.9z"/>
			</g>
			<g>
				<path class="st38" d="M474.5,189.4c-2.1,0-3.7-1.7-3.7-3.7c0-2.1,1.7-3.7,3.7-3.7s3.7,1.7,3.7,3.7
					C478.3,187.8,476.6,189.4,474.5,189.4z M474.5,183c-1.5,0-2.7,1.2-2.7,2.7c0,1.5,1.2,2.7,2.7,2.7s2.7-1.2,2.7-2.7
					C477.3,184.2,476,183,474.5,183z"/>
			</g>
			<g>
				<path class="st34" d="M395.4,85.7c-2.2-9.1-5.9-22.8-7.4-27.3c-1.8,0-3.1,1.8-3.4,3.6c-0.2,1.8,1.1,11.5,1.2,16.6
					c-5.7,0.7-13.3,3.7-16.1,7.2c-2.5,3.6,1.8,6.2,3,6.7c0.3,1.5,3.5,12.2,6.8,13.3c3.6,1.2,8.2,0.7,11.7-0.5
					C395,101,399.8,88.9,395.4,85.7z"/>
				<g>
					<path class="st39" d="M389.6,104.6C389.6,104.6,389.5,104.6,389.6,104.6c-0.8-0.1-1.5-0.5-2-0.8c-2.3-1.7-3.7-4.2-3.6-6.6
						c0.1-2.8,2.1-5,4.1-6.9c-1.2-1-2.4-2-3.6-3c-0.6-0.6-1.2-1.1-1.5-1.9c-0.4-0.9-0.4-1.9,0.1-2.6c0.1-0.1,0.2-0.2,0.3-0.2
						c4.2-0.6,8.6,0.4,12.1,2.7c0.2,0.2,0.3,0.5,0.1,0.7c-0.2,0.2-0.5,0.3-0.7,0.1c-3.2-2.2-7.3-3.1-11.2-2.6
						c-0.2,0.4-0.2,0.9,0.1,1.5c0.3,0.6,0.8,1,1.3,1.6c1.3,1.2,2.6,2.3,4,3.3c0.1,0.1,0.2,0.2,0.2,0.4c0,0.1,0,0.3-0.2,0.4
						c-2.1,2-4.1,4.1-4.2,6.7c-0.1,2.5,1.6,4.6,3.2,5.8c0.4,0.3,0.9,0.6,1.4,0.6c0.3,0,0.5,0.3,0.5,0.5
						C390,104.4,389.8,104.6,389.6,104.6z"/>
				</g>
				<g>
					<path class="st39" d="M374.4,93.5c-0.2,0-0.3-0.1-0.4-0.2c-0.1-0.2-0.1-0.5,0.2-0.7c3.8-2.2,7.2-3.8,10.1-4.9
						c0.3-0.1,0.5,0,0.6,0.3c0.1,0.3,0,0.5-0.3,0.6c-2.9,1-6.2,2.6-9.9,4.8C374.6,93.5,374.5,93.5,374.4,93.5z"/>
				</g>
			</g>
			<path class="st26" d="M379.5,106.9l13.8-3.4c0.5,3,1,5.9,1.6,8.8l-17.1,4.2C378.3,113.2,378.9,110,379.5,106.9z"/>
		</g>
	</g>
	<g>
		<g>
			<g>
				<polygon class="st26" points="277,276.7 275.5,276.7 283.3,228.2 284.8,228.2 				"/>
				<polygon class="st40" points="284.3,231.2 283,230.2 283.3,228.2 284.8,228.2 				"/>
				<polygon class="st26" points="317.6,276.7 319.1,276.7 311.4,228.2 309.9,228.2 				"/>
				<polygon class="st40" points="310.3,231.2 311.7,230.2 311.4,228.2 309.9,228.2 				"/>
			</g>
			<path class="st26" d="M316.5,228.2h-38.4c-0.6,0-1.1-0.5-1.1-1.1s0.5-1.1,1.1-1.1h38.4c0.6,0,1.1,0.5,1.1,1.1
				S317.1,228.2,316.5,228.2z"/>
		</g>
		<g>
			<g>
				<path class="st41" d="M307.7,225.9h-18.6c-0.6,0-0.9-0.5-0.7-1l3.5-12.8c0.2-0.6,0.7-1,1.3-1h18.6c0.6,0,0.9,0.5,0.7,1
					l-3.5,12.8C308.8,225.4,308.2,225.9,307.7,225.9z"/>
				<path class="st27" d="M306.3,225.9h-18.6c-0.6,0-0.9-0.5-0.7-1l3.5-12.8c0.2-0.6,0.7-1,1.3-1h18.6c0.6,0,0.9,0.5,0.7,1
					l-3.5,12.8C307.4,225.4,306.9,225.9,306.3,225.9z"/>
				<path class="st42" d="M306.3,224.9c0.1,0,0.3-0.1,0.3-0.3l3.5-12.6h-18.3c-0.1,0-0.3,0.1-0.3,0.3l-3.5,12.6H306.3z"/>
				<path class="st27" d="M302.7,225.9h-22.5c-0.4,0-0.7-0.3-0.7-0.7c0-0.4,0.3-0.7,0.7-0.7h22.5c0.4,0,0.7,0.3,0.7,0.7
					C303.4,225.6,303.1,225.9,302.7,225.9z"/>
				<path class="st41" d="M308.4,225.2c0-0.4-0.3-0.7-0.7-0.7h-10c-0.4,0-0.7,0.3-0.7,0.7c0,0.4,0.3,0.7,0.7,0.7h10
					C308.1,225.9,308.4,225.6,308.4,225.2z"/>
				<path class="st26" d="M305.2,215.5c-0.1,0.5,0.2,0.9,0.7,0.9s1.1-0.4,1.2-0.9c0.1-0.5-0.2-0.9-0.7-0.9
					C305.9,214.6,305.4,215,305.2,215.5z M301.2,215.5c-0.1,0.5,0.2,0.9,0.7,0.9s1.1-0.4,1.2-0.9c0.1-0.5-0.2-0.9-0.7-0.9
					C301.9,214.6,301.4,215,301.2,215.5z M297.3,215.5c-0.1,0.5,0.2,0.9,0.7,0.9c0.5,0,1.1-0.4,1.2-0.9c0.1-0.5-0.2-0.9-0.7-0.9
					S297.4,215,297.3,215.5z"/>
				<g>
					<path class="st26" d="M294,216.7c-0.3,0-0.6-0.1-0.8-0.4c-0.2-0.2-0.2-0.6-0.1-0.9l0,0c0.2-0.6,0.8-1.1,1.5-1.1
						c0.3,0,0.6,0.1,0.8,0.4c0.2,0.2,0.2,0.6,0.1,0.9C295.2,216.2,294.6,216.7,294,216.7z M293.5,215.6c-0.1,0.2,0,0.3,0.1,0.5
						c0.1,0.1,0.2,0.2,0.4,0.2c0.4,0,0.9-0.3,1-0.8c0.1-0.2,0-0.3-0.1-0.5c-0.1-0.1-0.2-0.2-0.4-0.2
						C294.1,214.8,293.7,215.2,293.5,215.6L293.5,215.6z"/>
				</g>
				<g>
					<path class="st26" d="M305.5,220.1h-14.2c-0.1,0-0.3-0.1-0.3-0.3s0.1-0.3,0.3-0.3h14.2c0.1,0,0.3,0.1,0.3,0.3
						S305.7,220.1,305.5,220.1z"/>
				</g>
				<g>
					<path class="st26" d="M305,222h-6.5c-0.1,0-0.3-0.1-0.3-0.3s0.1-0.3,0.3-0.3h6.5c0.1,0,0.3,0.1,0.3,0.3S305.1,222,305,222z"/>
				</g>
			</g>
			<g>
				<g>
					<polygon class="st43" points="275.3,266.6 275.7,272.3 279,272.3 279.2,266.6 					"/>
					<polygon class="st43" points="301.3,266.6 302.2,271.4 298.2,271.4 297.3,267.1 					"/>
					<linearGradient id="SVGID_29_" gradientUnits="userSpaceOnUse" x1="278.1757" y1="262.1052" x2="278.1757" y2="242.4121">
						<stop  offset="0" style="stop-color:#68DEFD"/>
						<stop  offset="1" style="stop-color:#287FFF"/>
					</linearGradient>
					<path class="st44" d="M274.7,239.8c-1.4,6.8-2.3,19.7-1.4,29.2h6.7c0.4-10.1,4.5-25.9,3-30.5L274.7,239.8z"/>
					<linearGradient id="SVGID_30_" gradientUnits="userSpaceOnUse" x1="297.3198" y1="273.8552" x2="311.3048" y2="273.8552">
						<stop  offset="0" style="stop-color:#287FFF"/>
						<stop  offset="1" style="stop-color:#68DEFD"/>
					</linearGradient>
					<path class="st45" d="M308.4,274.9c-1.2-0.2-5-1.7-5.5-3.9h-5.2c-0.4,1.7-0.4,3.7-0.4,5.7h2.6l0.5-1.4l2.2,1.4h8.6
						C311.3,274.7,309.2,275,308.4,274.9z"/>
					<linearGradient id="SVGID_31_" gradientUnits="userSpaceOnUse" x1="298.9968" y1="232.6846" x2="275.8925" y2="255.7889">
						<stop  offset="0" style="stop-color:#68DEFD"/>
						<stop  offset="1" style="stop-color:#287FFF"/>
					</linearGradient>
					<path class="st46" d="M297,235.2c-5-3.1-13.5-6.4-18.9-5.3l-16.3,0c-1.1,4.2-0.4,12.5,2.5,12.5h23c2.1,0,3.8,1.7,3.9,3.8
						c0.3,6.4,2,14.3,4.5,22.9h6.7c-2.2-12.2-1.6-24.9-3.9-31.8C298.3,236.4,297.8,235.7,297,235.2z"/>
					<linearGradient id="SVGID_32_" gradientUnits="userSpaceOnUse" x1="274.4631" y1="273.9022" x2="285.2672" y2="273.9022">
						<stop  offset="0" style="stop-color:#287FFF"/>
						<stop  offset="1" style="stop-color:#68DEFD"/>
					</linearGradient>
					<path class="st47" d="M283.2,274.8c-1.1-0.2-3-1.5-3.5-3.7h-4.4c-0.4,1.7-0.9,3.6-0.9,5.6h2.6l0.5-1.4l1.2,1.4h6.5
						C285.3,274.7,283.9,274.9,283.2,274.8z"/>
				</g>
				<g>
					<path class="st43" d="M273.1,183.5c-2.9,3.7,0.3,9,3,10.6c2,1.2,3.3,0.5,4.1-1.2c1.2-2.4,1.7-5.5,1.3-8.4
						C281,181.3,275,181,273.1,183.5z"/>
					<path class="st43" d="M276.3,189.7h-4.6c0.1,1.9-1.4,5.3-2.4,8.3h5.9C276.3,195.3,277,192.8,276.3,189.7z"/>
					<path class="st48" d="M282.2,181.4c-0.7,0.1-1.3,0.1-2-0.1c-0.7-0.2-1.3-0.6-2-0.8c-0.6-0.2-1.3-0.2-2-0.2
						c-1,0.1-2.6,0.2-3.3,1.2c-0.2,0.2-0.3,1.1-0.1,1c-1.3-0.3-2.2,0.8-2.5,1.9c-0.5,1.6,0.1,3.2,0.6,4.7c0.2,0.6,0.4,1.1,0.4,1.8
						c0,0.6-0.3,1-0.5,1.5c-0.4,1.2,1,0.9,1.8,0.9c1,0,2.5,1.4,3.4,0.7c0.7-0.5,1.3-2.3,1.7-3c0.4-1-0.4-0.2,0.1-2.9
						c0.1-0.5,0.6-0.8,0.5,0c0,0.7,0,1.8,0.3,1.5c0.6-1,0.9-2.3,0.8-3.4c0-0.5-0.3-1.2,0.1-1.5c0.3-0.2,2.1,0.4,2.4,0.3
						c1.3-0.5,0.9-2.2,1.2-3.6C282.7,181.3,282.5,181.4,282.2,181.4z"/>
				</g>
				<g>
					<path class="st43" d="M301.2,221.3c-0.9,0.2-1.8,0.5-2.6,0.8c-0.2,0.1-0.5,0.2-0.6,0.4c-0.1,0.2-0.1,0.4,0,0.6
						c0.1,0.4,0.2,0.9,0.4,1.3h6.2l-2-3.4C302,221.2,301.6,221.2,301.2,221.3z"/>
					<linearGradient id="SVGID_33_" gradientUnits="userSpaceOnUse" x1="262.8443" y1="229.0414" x2="292.2144" y2="199.6712">
						<stop  offset="0" style="stop-color:#6C2CC2"/>
						<stop  offset="1" style="stop-color:#5760FF"/>
					</linearGradient>
					<path class="st49" d="M299.1,222l-11.1-3.6c-1.1-9.7-2.6-14.9-4.3-17.3c-0.5-0.7-1.3-1.6-2.2-2.2c-1.5-1.8-5.3-3.4-9.5-3.4
						c-6-0.1-11.6,2.7-11.8,5c-0.2,2-0.1,4.9,0.5,6.8c3.9,13.2-0.6,23.4,1.7,23.4h18.1c1.1,0,2-0.3,1.9-0.6
						c-0.6-6.2-1.2-10.4-1.5-13.9c0.8,1.9,1.6,3.7,2.3,5.1c0.1,0.2,1.2,1.6,2.4,3.1h13.5L299.1,222z"/>
				</g>
			</g>
		</g>
		<g>
			<g>
				<polygon class="st26" points="45.7,375.9 44.2,375.9 51.9,327.4 53.4,327.4 				"/>
				<polygon class="st40" points="53,330.4 51.6,329.4 51.9,327.4 53.4,327.4 				"/>
				<polygon class="st26" points="86.3,375.9 87.8,375.9 80,327.4 78.5,327.4 				"/>
				<polygon class="st40" points="79,330.4 80.4,329.4 80,327.4 78.5,327.4 				"/>
			</g>
			<path class="st26" d="M85.2,327.4H46.8c-0.6,0-1.1-0.5-1.1-1.1c0-0.6,0.5-1.1,1.1-1.1h38.4c0.6,0,1.1,0.5,1.1,1.1
				C86.3,326.9,85.8,327.4,85.2,327.4z"/>
		</g>
		<g>
			<g>
				<polygon class="st43" points="34.8,361.6 32.2,368.6 35.3,369.9 38.4,363.1 				"/>
				<linearGradient id="SVGID_34_" gradientUnits="userSpaceOnUse" x1="59.6714" y1="322.7885" x2="35.1714" y2="360.7885">
					<stop  offset="0" style="stop-color:#68DEFD"/>
					<stop  offset="1" style="stop-color:#287FFF"/>
				</linearGradient>
				<path class="st50" d="M45,336.8c-4,5.6-7.9,16.6-11.5,27.4l3.9,1.9c6.3-14.8,15.2-21.7,15.7-27.2L45,336.8z"/>
				<linearGradient id="SVGID_35_" gradientUnits="userSpaceOnUse" x1="29.1007" y1="372.0432" x2="39.5299" y2="372.0432">
					<stop  offset="0" style="stop-color:#138C77"/>
					<stop  offset="1" style="stop-color:#35EAE7"/>
				</linearGradient>
				<path class="st51" d="M37.4,373.9c-1.8-0.2-2-3-1.7-4.2l-3.8-1.5c-1.3,2-2.1,4-2.9,5.8l2.4,1l1-1.1c0.3,1,0.3,1.9,0.9,1.9h6.1
					C39.5,373.9,38.2,374,37.4,373.9z"/>
				<polygon class="st43" points="46.7,365.3 45.3,370.9 41.6,369.4 42.8,364.5 				"/>
				<linearGradient id="SVGID_36_" gradientUnits="userSpaceOnUse" x1="53.7971" y1="319.0011" x2="29.2972" y2="357.0009">
					<stop  offset="0" style="stop-color:#68DEFD"/>
					<stop  offset="1" style="stop-color:#287FFF"/>
				</linearGradient>
				<path class="st52" d="M57.2,335.1c-4.5-3.6-11.5-6-18.5-6H23.8c-3.6,3.9-2.6,12.5,0.3,12.5h26.3c-4.7,6.6-6.5,14.7-8,23l4.8,1
					C51.4,352.8,62.2,339.1,57.2,335.1z"/>
				<linearGradient id="SVGID_37_" gradientUnits="userSpaceOnUse" x1="38.7455" y1="372.1452" x2="50.9454" y2="372.1452">
					<stop  offset="0" style="stop-color:#138C77"/>
					<stop  offset="1" style="stop-color:#35EAE7"/>
				</linearGradient>
				<path class="st53" d="M41.8,368.4l4.2,1.6c-1.1,2.9,1.1,3.8,2.2,4c0.7,0.1,2.8-0.2,2.8,1.8h-7c-1.2-0.5-2.1-1.3-2.3-3.1
					l-1.2,0.9l-1.7-1.1C39.8,370.8,40.5,369.6,41.8,368.4z"/>
			</g>
			<g>
				<linearGradient id="SVGID_38_" gradientUnits="userSpaceOnUse" x1="18.3056" y1="314.8634" x2="56.873" y2="314.8634">
					<stop  offset="0" style="stop-color:#138C77"/>
					<stop  offset="1" style="stop-color:#35EAE7"/>
				</linearGradient>
				<path class="st54" d="M54.4,307c-2.1,4.5-4.8,8.2-6.6,10.9c-4.1-11.3-5-14.1-7.6-16.1c-0.3-0.3-0.7-0.5-1.1-0.6
					c-0.6-0.4-1.4-0.9-2.6-1.3c-3.3-0.7-5-0.2-6.1,0.9c0,0-0.1,0-0.1,0.1c-5.6,6-10,10.3-12,17.3c-0.7,2.6,2.3,4.9,7.2,5.1
					c-1.1,2.7-2.5,6.2-2.5,6.8h16.3c1.1,0,1.9-0.2,1.9-0.9c-0.1-2.2-2.1-8.6-0.3-12.4c1,1.9,2.2,3.7,3.7,5.4
					c3,3.3,10.7-2.8,12.1-14.3L54.4,307z M27.5,313.7c0,1.7-0.1,3.4-0.3,4.8c-1.3,0-2.4-0.1-3.5-0.1C25.2,316.6,26.4,315,27.5,313.7
					z"/>
				<path class="st43" d="M53.6,303.6c0.2-0.6,0.6-1.3,0.8-1.9c0.5-1.3,1-0.2,1,0.8c0,0.7-0.5,2,0.3,2.1c0.5,0,1.2-0.6,1.6-0.8
					c2-1.2,4.6-3.7,5.6-2.9c-1,1-2.6,2.1-2.6,3.5c0.2,3.1-3.1,4.2-4.4,3.6C54.1,307.2,52.9,305.6,53.6,303.6z"/>
				<g>
					<path class="st43" d="M40.9,286c-2.8-0.5-5.9,0.8-6.3,4.2c-0.5,4.5,5.2,7.2,5.8,7.2C43.6,297.4,44.5,286.7,40.9,286z"/>
					<path class="st43" d="M38.4,294.9l-3-2.4c-0.2,1.5-1.7,7.6-1.7,7.6l4.3,0.5C38.7,298.9,38.6,296.8,38.4,294.9z"/>
					<path class="st55" d="M40.6,291.1c0.2-0.5,0-1,0.4-1.3c0.6-0.5,1.4-0.6,2-1.1c1-1,2.4-4-0.4-5.6c0.1,0.9-4.2,0.2-6.8,1.6
						c-1.6,0.8-3.5,2.7-3.4,4.5c0.2,4.4,1.9,6.4,3.7,6.4C37.1,295.5,39.1,295.6,40.6,291.1z"/>
					<path class="st55" d="M31.8,285.9c-1.5-0.1-3,0.5-3.8,1.7c-0.8,1.2-0.9,2.8-0.5,4.2c0.4,1.4,1.1,2.7,1.7,4c0.6,1.4,1.1,3,1,4.6
						c0,1.6-0.6,3.2-1.8,4.2c2.6-0.1,5-1.8,6.1-4.1c1.2-2.3,1.2-5.1,0.3-7.5c-0.3-0.7-0.6-1.6-0.2-2.3c0.2-0.3,0.5-0.5,0.8-0.7
						c0.6-0.4,1.3-1.3,0.7-2c-0.6-0.7-1.6-1.3-2.5-1.6C32.9,286,32.4,285.9,31.8,285.9z"/>
					<g>
						<path class="st56" d="M35.3,295.5c-0.1,0-0.1,0-0.1-0.1c-0.1-0.9-0.3-1.7-0.6-2.5l0-0.1c-0.3-0.7-0.6-1.6-0.2-2.3
							c0.2-0.3,0.5-0.6,0.8-0.8c0.5-0.3,0.8-0.8,0.9-1.2c0-0.2,0-0.5-0.2-0.7c-0.6-0.7-1.5-1.2-2-1.4c-0.1,0-0.1-0.1-0.1-0.2
							c0-0.1,0.1-0.1,0.2-0.1c0.5,0.2,1.5,0.7,2.1,1.5c0.2,0.3,0.3,0.6,0.2,0.9c-0.1,0.7-0.8,1.2-1,1.3c-0.3,0.2-0.6,0.4-0.7,0.7
							c-0.3,0.6-0.1,1.4,0.2,2.1l0,0.1c0.3,0.8,0.5,1.7,0.6,2.6C35.4,295.4,35.4,295.5,35.3,295.5C35.3,295.5,35.3,295.5,35.3,295.5
							z"/>
					</g>
				</g>
			</g>
		</g>
		<g>
			<g>
				<path class="st26" d="M111.6,328.2l-5.6,32c0,0.1-0.1,0.1-0.2,0.1c-0.1,0-0.1-0.1-0.1-0.2l4.4-32.2c0.1-0.4,0.4-0.7,0.8-0.6
					C111.3,327.4,111.6,327.8,111.6,328.2C111.6,328.2,111.6,328.2,111.6,328.2z"/>
				<path class="st26" d="M102.9,328.2l-5.6,32c0,0.1-0.1,0.1-0.2,0.1c-0.1,0-0.1-0.1-0.1-0.2l4.4-32.2c0.1-0.4,0.4-0.7,0.8-0.6
					C102.6,327.4,102.9,327.8,102.9,328.2C102.9,328.2,102.9,328.2,102.9,328.2z"/>
				<path class="st26" d="M125.3,328l4.4,32.2c0,0.1,0,0.2-0.1,0.2c-0.1,0-0.2,0-0.2-0.1l-5.6-32c-0.1-0.4,0.2-0.8,0.6-0.9
					C124.8,327.3,125.2,327.5,125.3,328C125.3,328,125.3,328,125.3,328z"/>
				<path class="st26" d="M134,328l4.4,32.2c0,0.1,0,0.2-0.1,0.2c-0.1,0-0.2,0-0.2-0.1l-5.6-32c-0.1-0.4,0.2-0.8,0.6-0.9
					C133.5,327.3,133.9,327.5,134,328C134,328,134,328,134,328z"/>
			</g>
			<path class="st26" d="M109.6,289.5h-8.6c-4.9,0-6.9,3.8-6.5,9.3l5.8,28.1h22.7l-5.3-28.1C116.8,293.8,114.5,289.5,109.6,289.5z"
				/>
			<path class="st26" d="M135.6,328.1h-27c-0.6,0-1.1-0.5-1.1-1.1c0-0.6,0.5-1.1,1.1-1.1h27c0.6,0,1.1,0.5,1.1,1.1
				C136.7,327.6,136.2,328.1,135.6,328.1z"/>
			<path class="st40" d="M113.5,325.8h-11.4l-6.5-27c-0.6-5.5,1.3-9.3,6.2-9.3h-0.8c-4.9,0-6.9,3.8-6.5,9.3l5.8,28.1
				c0,0.6,0.5,1.1,1.1,1.1h12c0.6,0,1.1-0.5,1.1-1.1C114.6,326.3,114.1,325.8,113.5,325.8z"/>
		</g>
		<g>
			<linearGradient id="SVGID_39_" gradientUnits="userSpaceOnUse" x1="110.4995" y1="292.3634" x2="130.9131" y2="292.3634">
				<stop  offset="0" style="stop-color:#9946D6"/>
				<stop  offset="1" style="stop-color:#CD7AFE"/>
			</linearGradient>
			<path class="st57" d="M128.5,286.4c-1.6,4.6-3.9,8.5-5.4,11.3c-6.2-11.4-6-12.2-8.1-14.9c-1.3-1.6-4.9-2.2-4.4,1.7
				c0.5,4.2,5.2,13.5,10.9,18.2c0.3,0.3,0.7,0.4,1,0.4c0.8,0,1.7-0.6,2.4-0.9c4.1-2.3,6-9.3,6.1-14.6L128.5,286.4z"/>
			<g>
				<polygon class="st58" points="138.7,351.2 139.2,355.1 142.1,355.2 141.6,351.2 				"/>
				<path class="st48" d="M138.2,354.7h4c1.2,2.8,5.1,3.2,6.1,3.7c0.4,0.2,0.7,1.4,0.3,1.8h-6.8c-0.5-0.9-0.8-1.9-1.5-1.9
					c-0.2,0-0.3,1.7-0.4,1.9h-1.7C137.9,358,138.2,356.2,138.2,354.7z"/>
				<polygon class="st58" points="135.5,351.4 136,354.8 139.2,354.8 138.5,351.4 				"/>
				<linearGradient id="SVGID_40_" gradientUnits="userSpaceOnUse" x1="109.0549" y1="333.5501" x2="142.8631" y2="333.5501">
					<stop  offset="0" style="stop-color:#3A68C7"/>
					<stop  offset="1" style="stop-color:#5792FF"/>
				</linearGradient>
				<path class="st59" d="M110.3,314c4.4,0,8.1-1.7,15.2-0.4c6.6,1.1,13.3,3.3,15.6,5.9c3.4,3.9,0.8,14.9,1.1,34.6H138
					c-0.9-10.7-8-20.4-5.3-28.1H113C108.1,325.9,108.5,316.9,110.3,314z"/>
				<linearGradient id="SVGID_41_" gradientUnits="userSpaceOnUse" x1="137.1752" y1="318.4034" x2="112.1752" y2="343.4034">
					<stop  offset="0" style="stop-color:#3A68C7"/>
					<stop  offset="1" style="stop-color:#5792FF"/>
				</linearGradient>
				<path class="st60" d="M103.5,314c4.4,0,7.9-1.7,15.2-0.4c6.7,1.1,13.6,3.3,16.2,5.9c3.8,3.9,2.4,14.9,4.7,34.6h-4.2
					c-2-10.7-6.8-18.2-8.3-28.1h-19.6C102.6,325.9,102,316.9,103.5,314z"/>
				<path class="st48" d="M135.6,354.7h4c1.2,2.8,5.1,3.2,6.1,3.7c0.4,0.2,0.7,1.4,0.3,1.8h-6.8c-0.5-0.9-0.8-1.9-1.5-1.9
					c-0.2,0-0.3,1.7-0.4,1.9h-1.7C135.2,358,135.5,356.2,135.6,354.7z"/>
			</g>
			<linearGradient id="SVGID_42_" gradientUnits="userSpaceOnUse" x1="101.2014" y1="311.5964" x2="121.9302" y2="290.8676">
				<stop  offset="0" style="stop-color:#9946D6"/>
				<stop  offset="1" style="stop-color:#CD7AFE"/>
			</linearGradient>
			<path class="st61" d="M103.7,305.4c1.2-2.9,1.5-5.6,2.4-8.7c1.3-4.4,0.3-9.5,3.1-13.3c0.9-1.3,3-2.6,5.8-2c0.5,0,1.2,1.4,2.9,4.8
				c1.7,3.4,4.4,6.4,1.5,11.5c-1.6,2.9-3.2,6-1.1,9c1.5,2.1,0.5,3.7,1.5,6.5c-7.3,0-7.3,4.3-16.4,4.3c-0.8,0.1-1-0.8-1-1.3
				C102.5,311.6,102.6,307.9,103.7,305.4z"/>
			<linearGradient id="SVGID_43_" gradientUnits="userSpaceOnUse" x1="106.2088" y1="312.4371" x2="122.9025" y2="295.7433">
				<stop  offset="0" style="stop-color:#9946D6"/>
				<stop  offset="1" style="stop-color:#CD7AFE"/>
			</linearGradient>
			<path class="st62" d="M111.2,305.9c-0.1-0.4-3.1-13.2-3.3-14.1c-0.4-2.6,0.4-5.6,1.5-7.3c0.9-1.2,4,2.3,4.7,3.2
				c2.6,3.2,1.7,10.3,1.9,13.5c0.1,0.9,0.2,1.9,0.4,3c0.2-0.1,16.5,2.9,18.7,1.8c0.8,1.8,0.3,2.4-1,2.8c-4.7,1.5-16,1-19.8,0.8
				C112.5,309.4,111.8,307.5,111.2,305.9z"/>
			<g>
				<path class="st58" d="M113.1,276l4.2,1.6c0.2,1.2-0.8,5.9-1.2,6.4l-3.8-2.6C112.7,280.1,113.5,278.6,113.1,276z"/>
				<path class="st58" d="M122.1,272.1c1.2,1.6-1.1,7.1-1.7,8.3c-1.3,2.6-3,2.2-4.9,0.4c-2.5-2.3-4.2-9.7,0.6-10.3
					C118.3,270.2,121.1,270.7,122.1,272.1z"/>
				<path class="st48" d="M113.5,276.1c2.1-0.1,1.6-2.3,2.4-2.7c0.7-0.3,6.8,1,7.4,0.6c3-2.3-2.4-6.5-3.1-6.8
					c-3.5-1.8-2.4,0.5-4.7,0.7c-0.7,0.1-1.5-0.2-2.2,0c-4.2,1.4-2.4,5.5-2.7,6.2c-0.3,0.6-2.9,1.7-3,3.9c-0.1,1.1,0,2-0.9,2.8
					c-0.7,0.6-1.7,1.3-1.3,2.4c0.5,1.3,3.1,2.1,4.4,2.2C114.8,286,113.9,276.8,113.5,276.1z"/>
			</g>
			<path class="st58" d="M136.7,304c0.7-0.1,1.4-0.2,2-0.3c1.3-0.3,0.7,0.7-0.1,1.2c-0.6,0.4-2.1,0.6-1.1,0.9h4.6v0.8l-1.4,0.2
				c0.4,1-0.5,2.8-2.5,2.8c-1.6,0-3.8-0.1-4.1-1.2C133.7,306.3,134.6,304.4,136.7,304z"/>
			<g>
				<path class="st63" d="M123.5,288.7h4.6c0.4,0,0.9-0.3,1-0.8l2.8-8.7c0.1-0.4-0.1-0.8-0.5-0.8h-4.6c-0.4,0-0.9,0.3-1,0.8L123,288
					C122.8,288.4,123.1,288.7,123.5,288.7z"/>
				<path class="st58" d="M132.3,283.2c-0.3-0.9-1.3-1.7-2.3-2c-0.6-0.2-0.5,0.5-0.3,0.8c0.2,0.3,0.4,0.6,0.3,1
					c-0.3,0.8-1.1,1.3-1.7,1.9c-0.4,0.4-0.7,0.6-0.6,1.2c0,0.1,0.4,0.8,0.5,2.3c0,0.3,0,0.9,0.4,1
					C129.2,289.7,133.8,287.6,132.3,283.2z"/>
			</g>
		</g>
		<g>
			<g>
				<g>
					<path class="st26" d="M175.7,294.8l-5.6,32c0,0.1-0.1,0.1-0.2,0.1c-0.1,0-0.1-0.1-0.1-0.2l4.4-32.2c0.1-0.4,0.4-0.7,0.8-0.6
						C175.4,294,175.7,294.4,175.7,294.8C175.7,294.8,175.7,294.8,175.7,294.8z"/>
					<path class="st26" d="M167,294.8l-5.6,32c0,0.1-0.1,0.1-0.2,0.1c-0.1,0-0.1-0.1-0.1-0.2l4.4-32.2c0.1-0.4,0.4-0.7,0.8-0.6
						C166.7,294,167,294.4,167,294.8C167,294.8,167,294.8,167,294.8z"/>
					<path class="st26" d="M189.4,294.6l4.4,32.2c0,0.1,0,0.2-0.1,0.2c-0.1,0-0.2,0-0.2-0.1l-5.6-32c-0.1-0.4,0.2-0.8,0.6-0.9
						C188.9,293.9,189.3,294.1,189.4,294.6C189.4,294.6,189.4,294.6,189.4,294.6z"/>
					<path class="st26" d="M198.1,294.6l4.4,32.2c0,0.1,0,0.2-0.1,0.2c-0.1,0-0.2,0-0.2-0.1l-5.6-32c-0.1-0.4,0.2-0.8,0.6-0.9
						C197.6,293.9,198,294.1,198.1,294.6C198.1,294.6,198.1,294.6,198.1,294.6z"/>
				</g>
				<path class="st26" d="M173.7,256.1h-8.6c-4.9,0-6.9,3.8-6.5,9.3l5.8,28.1h22.7l-5.3-28.1C180.9,260.4,178.6,256.1,173.7,256.1z"
					/>
				<path class="st26" d="M199.7,294.7h-27c-0.6,0-1.1-0.5-1.1-1.1c0-0.6,0.5-1.1,1.1-1.1h27c0.6,0,1.1,0.5,1.1,1.1
					C200.8,294.2,200.3,294.7,199.7,294.7z"/>
				<path class="st40" d="M177.6,292.5h-11.4l-6.5-27c-0.6-5.5,1.3-9.3,6.2-9.3h-0.8c-4.9,0-6.9,3.8-6.5,9.3l5.8,28.1
					c0,0.6,0.5,1.1,1.1,1.1h12c0.6,0,1.1-0.5,1.1-1.1C178.8,293,178.3,292.5,177.6,292.5z"/>
			</g>
			<g>
				<g>
					<polygon class="st26" points="191.2,326.8 189.7,326.8 197.4,278.3 198.9,278.3 					"/>
					<polygon class="st40" points="198.5,281.3 197.1,280.3 197.4,278.3 198.9,278.3 					"/>
					<polygon class="st26" points="231.8,326.8 233.3,326.8 225.5,278.3 224,278.3 					"/>
					<polygon class="st40" points="224.5,281.3 225.8,280.3 225.5,278.3 224,278.3 					"/>
				</g>
				<path class="st26" d="M230.7,278.3h-38.4c-0.6,0-1.1-0.5-1.1-1.1s0.5-1.1,1.1-1.1h38.4c0.6,0,1.1,0.5,1.1,1.1
					S231.3,278.3,230.7,278.3z"/>
			</g>
			<g>
				<g>
					<polygon class="st58" points="189,315.9 186.7,319.5 189.2,321.4 191.9,317.7 					"/>
					
						<linearGradient id="SVGID_44_" gradientUnits="userSpaceOnUse" x1="-1409.3036" y1="300.0617" x2="-1367.4016" y2="300.0617" gradientTransform="matrix(-1 0 0 1 -1199.7025 0)">
						<stop  offset="0" style="stop-color:#34495E"/>
						<stop  offset="1" style="stop-color:#1D2A36"/>
					</linearGradient>
					<path class="st64" d="M169.3,281c1,0,25.7,0.7,35.5,2.4c3,0.5,7.1,1.7,3,9.6c-2.8,5.5-12.1,20.7-16.3,26.2l-3.2-2.6
						c2.8-7.7,6.2-18.5,10.6-24h-26.6C167.2,289.8,166.5,284.2,169.3,281z"/>
					
						<linearGradient id="SVGID_45_" gradientUnits="userSpaceOnUse" x1="-1388.2332" y1="284.2635" x2="-1368.1182" y2="284.2635" gradientTransform="matrix(-1 0 0 1 -1199.7025 0)">
						<stop  offset="0" style="stop-color:#131A8C"/>
						<stop  offset="1" style="stop-color:#3A35EA"/>
					</linearGradient>
					<polygon class="st65" points="187.7,280.8 188.5,287.7 170.9,285 168.4,280.8 					"/>
					<polygon class="st58" points="179.6,316.1 178.5,320.3 181.6,321.2 182.9,316.9 					"/>
					
						<linearGradient id="SVGID_46_" gradientUnits="userSpaceOnUse" x1="-1395.3232" y1="299.6124" x2="-1367.3811" y2="299.6124" gradientTransform="matrix(-1 0 0 1 -1199.7025 0)">
						<stop  offset="0" style="stop-color:#34495E"/>
						<stop  offset="1" style="stop-color:#1D2A36"/>
					</linearGradient>
					<path class="st66" d="M168.4,280.8c0.7,0,20.7,0.7,26.8,2.6c2.8,4.1-10.1,30.4-12.3,35l-3.8-1.4c1-7.5,2.6-17.9,5.1-24.6h-13.6
						C167.4,289.8,167.1,284.6,168.4,280.8z"/>
					
						<linearGradient id="SVGID_47_" gradientUnits="userSpaceOnUse" x1="-1395.3293" y1="322.8626" x2="-1383.2067" y2="322.8626" gradientTransform="matrix(-1 0 0 1 -1199.7025 0)">
						<stop  offset="0" style="stop-color:#34495E"/>
						<stop  offset="1" style="stop-color:#1D2A36"/>
					</linearGradient>
					<path class="st67" d="M186.8,318.9l3.3,2.2c-1.1,2.9,1.6,3.8,2.7,3.9c0.7,0.1,2.8-0.2,2.8,1.8h-7c-1.2-0.5-2.1-1.3-2.3-3.1
						l-1.2,0.9l-1.6-1.1C184.6,321.8,185.6,320.1,186.8,318.9z"/>
					
						<linearGradient id="SVGID_48_" gradientUnits="userSpaceOnUse" x1="-1387.178" y1="323.0143" x2="-1375.0554" y2="323.0143" gradientTransform="matrix(-1 0 0 1 -1199.7025 0)">
						<stop  offset="0" style="stop-color:#34495E"/>
						<stop  offset="1" style="stop-color:#1D2A36"/>
					</linearGradient>
					<path class="st68" d="M178.5,319.2l3.5,1.2c-1.1,2.9,1.5,4.5,2.6,4.6c0.7,0.1,2.8-0.2,2.8,1.8h-7c-1.2-0.5-2.1-1.3-2.3-3.1
						l-1.2,0.9l-1.6-1.1C176.4,321.8,177.3,320.4,178.5,319.2z"/>
				</g>
				<g>
					
						<linearGradient id="SVGID_49_" gradientUnits="userSpaceOnUse" x1="-1377.1698" y1="263.6843" x2="-1436.0172" y2="263.6843" gradientTransform="matrix(-1 0 0 1 -1199.7025 0)">
						<stop  offset="0" style="stop-color:#287FFF"/>
						<stop  offset="1" style="stop-color:#68DEFD"/>
					</linearGradient>
					<path class="st69" d="M167.9,280.8c0.2-1.4,5.9-27.4,6.9-28.6c2.8-3.8,10.1-5.6,12.2-5.6c2,0,3.7,1.4,4.9,3.3
						c0,0.1,0.1,0.1,0.1,0.2c2.1,2.6,3.5,4.7,5.6,17.6c3.7,0.8,8.6,2,13.7,2.3c0.7,0,2.8-0.2,3,0.7c0.4,1.4-2.7,2.5-3.5,2.7
						c-11.3,1.9-16.9-0.6-18.9-4.7c-0.6-1.1-1.3-2.3-1.8-3.5c-1.6,3.7-3.1,6.6-3.2,7.3c0,0,1,5.5,1.1,8.4H167.9z"/>
					<g>
						<path class="st58" d="M190.9,241.6h-5.1c-0.2,1.6-1.4,5.8-1.4,5.8c0.3,0.8,2.4,1.7,4.8,2.5
							C189.3,247.3,191.1,243.7,190.9,241.6z"/>
						<path class="st58" d="M183.2,238.1c1.1,4.4,2.7,4.7,5,6c1.1,0.6,3.2,1.4,4.3,0.6c1.3-0.9,0.5-3.8,0.4-5.1
							c-0.2-2.5,0.1-6.1-2.9-6.8C187,232.2,182.1,233.8,183.2,238.1z"/>
						
							<linearGradient id="SVGID_50_" gradientUnits="userSpaceOnUse" x1="-1389.2473" y1="229.1721" x2="-1382.5094" y2="240.2459" gradientTransform="matrix(-1 0 0 1 -1199.7025 0)">
							<stop  offset="0" style="stop-color:#34495E"/>
							<stop  offset="1" style="stop-color:#1D2A36"/>
						</linearGradient>
						<path class="st70" d="M179.3,237.6c-0.1-0.6,0.2-1.9,1.9-1.9c-1.1-0.4-2.3-1.4-1.9-2.3c0.5-1,2.9-1,4-0.6
							c-0.5-0.2-2-1.6-1.1-2.3c1-0.8,3.2,0.1,4.5,1.1c-0.3-0.5-0.7-1.3-0.2-1.7c0.8-0.7,3.5,0.7,4.3,1.5c-0.1-0.2-0.1-1.2,0.1-1.2
							c0.2-0.1,0.5,0.1,0.7,0.3c0.7,0.6,1.4,1.5,1.7,2.4c0.6,1.7,0.5,3.7-0.8,3.5c-4.9-0.8-5.2,3.4-5.4,3.9c-0.6-0.5-0.8-1.1-1.1-1
							c-1.1,0.5,0.5,3.5-0.4,5.6C184.8,241.8,179.8,239.5,179.3,237.6z"/>
					</g>
					<path class="st58" d="M212,267.1c0.5,0.3,1.3,1,1.3,1.1c0.3,0.4-0.6,0.5-1.1,0.4c-0.4-0.1-0.8,0.1-0.7,0.5
						c0.1,0.3,4.2-0.8,4,0.4c-0.2,1.5-0.9,3.8-2,4.1c-0.9,0.3-2.4,0.4-3.2,0c-1-0.6-1.5-2.2-1.4-3.1
						C209.1,269.8,210.5,266.4,212,267.1z"/>
					<path class="st58" d="M214.8,268.9c-0.3,0.4-0.8,0.6-1.2,1c-0.2,0.1-0.7,0.6-0.5,0.9c0.1,0.1,0.4,0.1,0.6,0.1
						c0.6,0,1.2,0,1.7-0.4c0.5-0.3,0.7-1,0.4-1.5C215.6,268.8,214.8,268.8,214.8,268.9z"/>
					<g>
						<path class="st58" d="M195.9,273.8c0.6,0.6,1.1,1.1,1.6,1.8c0.4,0.5,0.9,1,1.2,1.5c0.1,0.3,0.1,0.4-0.2,0.5
							c-0.5,0.1-1-0.2-1.4-0.5c-0.5-0.3-1-0.6-1.5-0.8c0.1,0.2,0.3,0.3,0.3,0.4c0.4,0.8-0.1,0.7-0.6,0.3c-0.6-0.4-0.9-0.7-1.5-0.9
							c-1.4-0.6-3.1,0.3-4.4-0.5C186.3,274,193.2,271.1,195.9,273.8z"/>
						
							<linearGradient id="SVGID_51_" gradientUnits="userSpaceOnUse" x1="-1372.0986" y1="255.0077" x2="-1403.6555" y2="284.192" gradientTransform="matrix(-1 0 0 1 -1199.7025 0)">
							<stop  offset="0" style="stop-color:#287FFF"/>
							<stop  offset="1" style="stop-color:#68DEFD"/>
						</linearGradient>
						<path class="st71" d="M177.6,250.1c2.9-2.7,5.1,1,5.8,3c1.1,3.1,1.7,5.4-0.4,17.3c1.9,0.3,4.8,1.5,7.2,2.3l-0.5,3.4
							c-2.7-0.3-11.3,1.4-12.3-4.2C176.1,264.7,175.2,258,177.6,250.1z"/>
					</g>
					<g>
						<path class="st72" d="M213.3,271.3c-0.3,0-0.6-0.1-0.8-0.2c-0.1-0.1-0.2-0.3,0-0.6c0.2-0.4,0.8-0.9,1.2-1c0.1,0,0.3,0,0.3,0.2
							c0,0.1,0,0.3-0.2,0.3c-0.2,0.1-0.8,0.5-0.9,0.7c0,0.1,0,0.1,0,0.1c0.2,0.1,1.3,0,1.7-0.2c0.1,0,0.3,0,0.3,0.1
							c0,0.1,0,0.3-0.1,0.3C214.8,271,214,271.3,213.3,271.3z"/>
					</g>
					<g>
						<path class="st72" d="M212.1,274c-0.1,0-0.1,0-0.2-0.1c-0.1-0.1-0.2-0.4-0.1-0.6c0.1-0.2,0.3-0.4,0.4-0.6
							c0.1-0.1,0.2-0.2,0.3-0.3c0.1-0.1,0.1-0.2,0.1-0.4c0-0.1,0-0.2,0.1-0.4c0.1-0.3,0.4-0.5,0.6-0.6c0.1,0,0.3,0,0.3,0.1
							c0.1,0.1,0,0.3-0.1,0.3c-0.2,0.1-0.3,0.2-0.3,0.3c0,0.1,0,0.2,0,0.3c0,0.2,0,0.4-0.2,0.6c-0.1,0.2-0.2,0.3-0.3,0.4
							c-0.1,0.2-0.3,0.3-0.3,0.5c0,0,0,0.1,0,0.1c0.1,0.1,0.1,0.3,0,0.4C212.2,274,212.1,274,212.1,274z"/>
					</g>
				</g>
			</g>
			<g>
				<path class="st35" d="M226,276.1h-19.5c-0.4,0-0.7-0.3-0.7-0.7c0-0.4,0.3-0.7,0.7-0.7H226c0.4,0,0.7,0.3,0.7,0.7
					C226.7,275.7,226.4,276.1,226,276.1z"/>
				<path class="st73" d="M207.7,275.4c0-0.4-0.3-0.7-0.7-0.7h-7.5c-0.4,0-0.7,0.3-0.7,0.7c0,0.4,0.3,0.7,0.7,0.7h7.5
					C207.4,276.1,207.7,275.7,207.7,275.4z"/>
				<path class="st73" d="M225.3,276.1h-18.3c-0.5,0-0.8-0.4-0.7-0.9l3.2-11.6c0.1-0.5,0.7-0.9,1.2-0.9H229c0.5,0,0.8,0.4,0.7,0.9
					l-3.2,11.6C226.4,275.7,225.9,276.1,225.3,276.1z"/>
				<path class="st35" d="M226.5,276.1h-18.3c-0.5,0-0.8-0.4-0.7-0.9l3.2-11.6c0.1-0.5,0.7-0.9,1.2-0.9h18.3c0.5,0,0.8,0.4,0.7,0.9
					l-3.2,11.6C227.6,275.7,227.1,276.1,226.5,276.1z"/>
			</g>
		</g>
		<g>
			<g>
				<path class="st26" d="M40.5,343.6l4.4,32.2c0,0.1,0,0.2-0.1,0.2c-0.1,0-0.2,0-0.2-0.1l-5.6-32c-0.1-0.4,0.2-0.8,0.6-0.9
					C40,342.9,40.4,343.2,40.5,343.6C40.4,343.6,40.4,343.6,40.5,343.6z"/>
				<path class="st26" d="M49.2,343.6l4.4,32.2c0,0.1,0,0.2-0.1,0.2c-0.1,0-0.2,0-0.2-0.1l-5.6-32c-0.1-0.4,0.2-0.8,0.6-0.9
					S49.1,343.2,49.2,343.6C49.1,343.6,49.2,343.6,49.2,343.6z"/>
				<path class="st26" d="M26.7,343.9l-5.6,32c0,0.1-0.1,0.1-0.2,0.1c-0.1,0-0.1-0.1-0.1-0.2l4.4-32.2c0.1-0.4,0.4-0.7,0.8-0.6
					C26.5,343.1,26.8,343.4,26.7,343.9C26.7,343.8,26.7,343.9,26.7,343.9z"/>
				<path class="st26" d="M18,343.9l-5.6,32c0,0.1-0.1,0.1-0.2,0.1c-0.1,0-0.1-0.1-0.1-0.2l4.4-32.2c0.1-0.4,0.4-0.7,0.8-0.6
					C17.8,343.1,18.1,343.4,18,343.9C18,343.8,18,343.9,18,343.9z"/>
			</g>
			<path class="st26" d="M42.8,341.5h-5.6l-5.1-27c-1-5.1-3.3-9.3-8.2-9.3h-8.6c-4.9,0-6.9,3.8-6.5,9.3l5.8,28.1
				c0,0.6,0.5,1.1,1.1,1.1h27c0.6,0,1.1-0.5,1.1-1.1S43.5,341.5,42.8,341.5z"/>
			<path class="st40" d="M49.9,341.5H37.2l-5.1-27c-1-5.1-3.3-9.3-8.2-9.3h-1.3c4.9,0,7.1,4.3,8,9.3l4.8,28.1c0,0.7,0.5,1.2,1.1,1.2
				h13.4c0.6,0,1.1-0.5,1.1-1.1S50.5,341.5,49.9,341.5z"/>
		</g>
		<g>
			<g>
				<path class="st26" d="M283.3,244.5l4.4,32.2c0,0.1,0,0.2-0.1,0.2c-0.1,0-0.2,0-0.2-0.1l-5.6-32c-0.1-0.4,0.2-0.8,0.6-0.9
					C282.9,243.8,283.3,244,283.3,244.5C283.3,244.5,283.3,244.5,283.3,244.5z"/>
				<path class="st26" d="M292,244.5l4.4,32.2c0,0.1,0,0.2-0.1,0.2c-0.1,0-0.2,0-0.2-0.1l-5.6-32c-0.1-0.4,0.2-0.8,0.6-0.9
					C291.6,243.8,292,244,292,244.5C292,244.5,292,244.5,292,244.5z"/>
				<path class="st26" d="M269.6,244.7l-5.6,32c0,0.1-0.1,0.1-0.2,0.1c-0.1,0-0.1-0.1-0.1-0.2l4.4-32.2c0.1-0.4,0.4-0.7,0.8-0.6
					C269.4,243.9,269.7,244.3,269.6,244.7C269.6,244.7,269.6,244.7,269.6,244.7z"/>
				<path class="st26" d="M260.9,244.7l-5.6,32c0,0.1-0.1,0.1-0.2,0.1c-0.1,0-0.1-0.1-0.1-0.2l4.4-32.2c0.1-0.4,0.4-0.7,0.8-0.6
					C260.7,243.9,261,244.3,260.9,244.7C260.9,244.7,260.9,244.7,260.9,244.7z"/>
			</g>
			<path class="st26" d="M285.7,242.4h-5.6l-5.1-27c-1-5.1-3.3-9.3-8.2-9.3h-8.6c-4.9,0-6.9,3.8-6.5,9.3l5.8,28.1
				c0,0.6,0.5,1.1,1.1,1.1h27c0.6,0,1.1-0.5,1.1-1.1C286.9,242.9,286.4,242.4,285.7,242.4z"/>
			<path class="st40" d="M292.8,242.4h-12.7l-5.1-27c-1-5.1-3.3-9.3-8.2-9.3h-1.3c4.9,0,7.1,4.3,8,9.3l4.8,28.1
				c0,0.7,0.5,1.2,1.1,1.2h13.4c0.6,0,1.1-0.5,1.1-1.1C293.9,242.9,293.4,242.4,292.8,242.4z"/>
		</g>
	</g>
</g>
</svg>
