<?xml version="1.0" encoding="utf-8"?>
<!-- Generator: Adobe Illustrator 24.0.2, SVG Export Plug-In . SVG Version: 6.00 Build 0)  -->
<svg version="1.1" id="Layer_1" xmlns="http://www.w3.org/2000/svg" xmlns:xlink="http://www.w3.org/1999/xlink" x="0px" y="0px"
	 viewBox="0 0 256 256" style="enable-background:new 0 0 256 256;" xml:space="preserve">
<style type="text/css">
	.st0{fill:none;stroke:#2B215F;stroke-width:10;stroke-linecap:round;stroke-linejoin:round;stroke-miterlimit:10;}
</style>
<g>
	<g>
		<g>
			<path class="st0" d="M63.8,162.8l-4.6-1.3c-9-2.1-18.2-1.5-24.8,1.1C16.5,169.4,5,186.4,5,204.1C5,229.7,25.9,251,52.3,251H53
				h5.5h139c32,0,53.5-25.6,53.5-58.6c0-26.7-23.4-50.7-48.3-50.7c-11.2,0-19.5,3.3-25.7,7.7"/>
		</g>
		<path class="st0" d="M200.4,141.7c-8.1-29.5-35-51.1-67.1-51.1c-38.4,0-69.5,31.1-69.5,69.5c0,0.9,0,1.8,0.1,2.7
			c0.3,5.7,1.2,9.3,1.2,9.3"/>
	</g>
	<line class="st0" x1="106.6" y1="5" x2="160.1" y2="5"/>
	<polyline class="st0" points="160.1,74.5 160.1,5 213.6,5 213.6,112 	"/>
	<polyline class="st0" points="53.1,122.7 53.1,5 106.6,5 106.6,74.5 	"/>
	<line class="st0" x1="74.5" y1="31.7" x2="85.2" y2="31.7"/>
	<line class="st0" x1="128" y1="31.7" x2="138.7" y2="31.7"/>
	<line class="st0" x1="181.5" y1="31.7" x2="192.2" y2="31.7"/>
</g>
</svg>
