<?xml version="1.0" encoding="utf-8"?>
<!-- Generator: Adobe Illustrator 24.0.2, SVG Export Plug-In . SVG Version: 6.00 Build 0)  -->
<svg version="1.1" id="Layer_1" xmlns="http://www.w3.org/2000/svg" xmlns:xlink="http://www.w3.org/1999/xlink" x="0px" y="0px"
	 viewBox="0 0 135 97" style="enable-background:new 0 0 135 97;" xml:space="preserve">
<style type="text/css">
	.st0{fill:#2B215F;}
</style>
<g>
	<path class="st0" d="M133,45.4H125c-1.1,0-2-0.9-2-2s0.9-2,2-2h7.9c1.1,0,2,0.9,2,2S134.1,45.4,133,45.4z"/>
	<path class="st0" d="M123.8,67.6c-0.5,0-1-0.2-1.4-0.6l-5.6-5.6c-0.8-0.8-0.8-2,0-2.8c0.8-0.8,2-0.8,2.8,0l5.6,5.6
		c0.8,0.8,0.8,2,0,2.8C124.8,67.4,124.3,67.6,123.8,67.6z"/>
	<path class="st0" d="M118.2,28.8c-0.5,0-1-0.2-1.4-0.6c-0.8-0.8-0.8-2,0-2.8l5.6-5.6c0.8-0.8,2-0.8,2.8,0c0.8,0.8,0.8,2,0,2.8
		l-5.6,5.6C119.2,28.6,118.7,28.8,118.2,28.8z"/>
	<polygon class="st0" points="90.8,84.4 90.8,4 89.3,4 87.4,5.1 86.8,5.5 86.8,82.9 87.4,83.3 89.3,84.4 	"/>
	<path class="st0" d="M100.8,88.4h-12c-0.3,0-0.7-0.1-1-0.3l-2.4-1.4L48.8,63.7c-0.6-0.4-0.9-1-0.9-1.7V26.4c0-0.7,0.4-1.3,0.9-1.7
		l36.5-23l2.5-1.4c0.3-0.2,0.6-0.3,1-0.3h12c1.1,0,2,0.9,2,2v84.4C102.8,87.5,101.9,88.4,100.8,88.4z M89.3,84.4h9.5V4h-9.5l-2,1.1
		L51.8,27.5v33.4l35.6,22.4L89.3,84.4z"/>
	<path class="st0" d="M102.8,28.7v4c5.4,0.6,9.7,5.2,9.7,10.8c0,5.6-4.3,10.2-9.7,10.8v4c7.6-0.6,13.7-7,13.7-14.8
		S110.5,29.2,102.8,28.7z"/>
	<path class="st0" d="M11.6,56.9v-2H7.8c-2.1,0-3.8-2.2-3.8-4.8V38.2c0-2.7,1.7-4.8,3.8-4.8h3.8v-2c0-0.7,0.1-1.4,0.3-2H7.8
		c-4.3,0-7.8,4-7.8,8.8v11.9c0,4.9,3.5,8.8,7.8,8.8h4.1C11.7,58.3,11.6,57.6,11.6,56.9z"/>
	<path class="st0" d="M48.8,63.7c-0.6-0.4-0.9-1-0.9-1.7v-2H18.6c-1.7,0-3-1.4-3-3V31.4c0-1.7,1.4-3,3-3h29.2v-2
		c0-0.7,0.4-1.3,0.9-1.7l0.5-0.3H18.6c-3.9,0-7,3.2-7,7v25.5c0,3.9,3.2,7,7,7h30.6L48.8,63.7z"/>
	<path class="st0" d="M36.9,64l-6.6,28.4c-0.1,0.4-0.4,0.7-0.8,0.7h-7.6c0-0.1,0-0.2,0.1-0.4l0.1-0.3c0.1-0.3,0.1-0.6,0.2-0.9
		c0-0.2,0.1-0.4,0.1-0.6c0-0.2,0.1-0.3,0.1-0.5l0.1-0.4c0.6-3.5,1.6-10.6,1.8-18c0-0.5,0-1,0-1.5c0-1.8,0-3.6-0.2-5.1
		c0-0.4,0-0.9-0.1-1.3h-4c0,0.5,0.1,1,0.1,1.5c0.1,1.5,0.2,3.1,0.2,4.9c0,0.5,0,0.9,0,1.4C20,79,19,85.8,18.5,89.2l-0.1,0.4
		c0,0.2-0.1,0.3-0.1,0.5c0,0,0,0.1,0,0.1c0,0.1,0,0.2-0.1,0.4c-0.1,0.3-0.1,0.6-0.2,0.9L18,91.8c0,0.2-0.1,0.4-0.1,0.5
		c-0.2,1.2,0.1,2.3,0.8,3.2c0.7,0.9,1.8,1.4,2.9,1.4h7.8c2.3,0,4.2-1.5,4.7-3.7L41,64H36.9z"/>
</g>
</svg>
