<?xml version="1.0" encoding="utf-8"?>
<!-- Generator: Adobe Illustrator 24.0.2, SVG Export Plug-In . SVG Version: 6.00 Build 0)  -->
<svg version="1.1" id="Layer_1" xmlns="http://www.w3.org/2000/svg" xmlns:xlink="http://www.w3.org/1999/xlink" x="0px" y="0px"
	 viewBox="0 0 256 256" style="enable-background:new 0 0 256 256;" xml:space="preserve">
<style type="text/css">
	.st0{fill:none;stroke:#2B215F;stroke-width:10;stroke-linecap:round;stroke-linejoin:round;stroke-miterlimit:10;}
</style>
<g>
	<g>
		<path class="st0" d="M167.1,70h-2.5c-3,0-5.5-2-6.6-4.8c-1.1-2.7-0.8-5.9,1.3-8l1.8-1.8c1.4-1.4,1.4-3.7,0-5.2l-8.8-8.8
			c-1.4-1.4-3.7-1.4-5.2,0l-1.8,1.8c-2.1,2.1-5.3,2.5-8,1.3c-2.7-1.1-4.8-3.7-4.8-6.6v-2.5c0-2-1.6-3.7-3.7-3.7h-12.5
			c-2,0-3.7,1.6-3.7,3.7v2.5c0,3-2,5.5-4.8,6.6c-2.7,1.1-5.9,0.8-8-1.3l-1.8-1.8c-1.4-1.4-3.7-1.4-5.2,0l-8.8,8.8
			c-1.4,1.4-1.4,3.7,0,5.2l1.8,1.8c2.1,2.1,2.5,5.3,1.3,8c-1.1,2.7-3.7,4.8-6.6,4.8h-2.5c-2,0-3.7,1.6-3.7,3.7l0,12.5
			c0,2,1.6,3.7,3.7,3.7h2.5c3,0,5.5,2,6.6,4.8c1.1,2.7,0.8,5.9-1.3,8l-1.8,1.8c-1.4,1.4-1.4,3.7,0,5.2l8.8,8.8
			c1.4,1.4,3.7,1.4,5.2,0l1.8-1.8c2.1-2.1,5.3-2.5,8-1.3c2.7,1.1,4.8,3.7,4.8,6.6v2.5c0,2,1.6,3.7,3.7,3.7h12.5c2,0,3.7-1.6,3.7-3.7
			v-2.5c0-3,2-5.5,4.8-6.6c2.7-1.1,5.9-0.8,8,1.3l1.8,1.8c1.4,1.4,3.7,1.4,5.2,0l8.8-8.8c1.4-1.4,1.4-3.7,0-5.2l-1.8-1.8
			c-2.1-2.1-2.5-5.3-1.3-8c1.1-2.7,3.7-4.8,6.6-4.8h2.5c2,0,3.7-1.6,3.7-3.7l0-12.5C170.8,71.6,169.1,70,167.1,70z"/>
		<ellipse transform="matrix(0.1602 -0.9871 0.9871 0.1602 24.1672 188.1443)" class="st0" cx="122.7" cy="79.9" rx="16" ry="16"/>
	</g>
	<line class="st0" x1="181.5" y1="251" x2="31.7" y2="251"/>
	<g>
		<path class="st0" d="M224.3,5H58.5c-11.8,0-21.4,9.6-21.4,21.4v171.1"/>
		<path class="st0" d="M160.1,229.6v-5.3c0-3-2.4-5.3-5.3-5.3H10.3c-3,0-5.3,2.4-5.3,5.3v5.3c0,11.8,9.6,21.4,21.4,21.4h5.3"/>
		<path class="st0" d="M202.9,85.2V47.8V26.4c0-11.8,9.6-21.4,21.4-21.4l0,0c11.8,0,21.4,9.6,21.4,21.4v5.3c0,3-2.4,5.3-5.3,5.3h-16
			"/>
		<path class="st0" d="M160.1,229.6c0,11.8,9.6,21.4,21.4,21.4l0,0c11.8,0,21.4-9.6,21.4-21.4v-10.7v-37.4"/>
	</g>
	<g>
		<path class="st0" d="M182.6,173l-27.8,8.5l8.8-27.6L229,88.3c4.1-4.1,10.7-4.1,14.7,0l4.2,4.2c4.1,4.1,4.1,10.7,0,14.8L182.6,173z
			"/>
		<line class="st0" x1="242.2" y1="113" x2="223.3" y2="94"/>
	</g>
</g>
</svg>
