<?xml version="1.0" encoding="utf-8"?>
<!-- Generator: Adobe Illustrator 23.1.0, SVG Export Plug-In . SVG Version: 6.00 Build 0)  -->
<svg version="1.1" id="Layer_1" xmlns="http://www.w3.org/2000/svg" xmlns:xlink="http://www.w3.org/1999/xlink" x="0px" y="0px"
	 viewBox="0 0 99.5 83.2" style="enable-background:new 0 0 99.5 83.2;" xml:space="preserve">
<style type="text/css">
	.st0{fill:#2B215F;}
</style>
<g>
	<g>
		<path class="st0" d="M33.8,83.2c-0.9,0-1.6-0.7-1.6-1.6V70.1c0-0.9,0.7-1.6,1.6-1.6c0.9,0,1.6,0.7,1.6,1.6v11.5
			C35.4,82.5,34.7,83.2,33.8,83.2z"/>
		<path class="st0" d="M11.4,83.2c-0.9,0-1.6-0.7-1.6-1.6V70.1c0-0.9,0.7-1.6,1.6-1.6c0.9,0,1.6,0.7,1.6,1.6v11.5
			C13,82.5,12.3,83.2,11.4,83.2z"/>
		<path class="st0" d="M22.6,60.2c-6.8,0-12.3-5.5-12.3-12.3s5.5-12.3,12.3-12.3s12.3,5.5,12.3,12.3S29.4,60.2,22.6,60.2z
			 M22.6,38.7c-5.1,0-9.2,4.1-9.2,9.2s4.1,9.2,9.2,9.2s9.2-4.1,9.2-9.2S27.7,38.7,22.6,38.7z"/>
		<path class="st0" d="M32.3,55.5c-0.7,0.9-1.6,1.8-2.6,2.5c10.9,3,12.5,10.5,12.5,18.2v5.4c0,0.9,0.7,1.6,1.6,1.6
			c0.9,0,1.6-0.7,1.6-1.6v-5.4C45.3,68.6,43.7,59.5,32.3,55.5z"/>
		<path class="st0" d="M13,55.5C1.6,59.5,0,68.6,0,76.2v5.4c0,0.9,0.7,1.6,1.6,1.6s1.6-0.7,1.6-1.6v-5.4C3.1,68.5,4.7,61,15.6,58
			C14.6,57.3,13.7,56.5,13,55.5z"/>
	</g>
	<g>
		<path class="st0" d="M65.4,42.9c0.2,0.7,0.2,1.5,0.2,2.3c0,6.3-5.1,11.4-11.4,11.4s-11.4-5.1-11.4-11.4s5.1-11.4,11.4-11.4
			c0.8,0,1.5,0.1,2.3,0.2l2.5-2.5c-1.5-0.5-3.1-0.8-4.8-0.8c-8,0-14.5,6.5-14.5,14.5s6.5,14.5,14.5,14.5s14.5-6.5,14.5-14.5
			c0-1.7-0.3-3.3-0.8-4.8L65.4,42.9z"/>
		<path class="st0" d="M99.4,8.4c-0.2-0.6-0.8-1-1.4-1h-5.9V1.6c0-0.6-0.4-1.2-1-1.4s-1.3-0.1-1.7,0.3l-6.6,6.6
			c-0.3,0.3-0.5,0.7-0.5,1.1V15L53.2,44.1c-0.6,0.6-0.6,1.6,0,2.2c0.3,0.3,0.7,0.5,1.1,0.5c0.4,0,0.8-0.2,1.1-0.5l29.2-29.2h6.8
			c0.4,0,0.8-0.2,1.1-0.5l6.6-6.6C99.5,9.7,99.7,9,99.4,8.4z M90.7,14.1h-5.2V8.8L89,5.3V9c0,0.9,0.7,1.6,1.6,1.6h3.7L90.7,14.1z"/>
		<path class="st0" d="M33.1,36.1c3.5-8.2,11.7-14,21.2-14c4.1,0,7.9,1.1,11.3,3l2.3-2.3c-4-2.4-8.6-3.8-13.6-3.8
			c-10.5,0-19.6,6.2-23.8,15.2C31.4,34.8,32.3,35.4,33.1,36.1z"/>
		<path class="st0" d="M22.1,32.1c5.2-12.7,17.7-21.7,32.2-21.7c7.3,0,14.2,2.3,19.8,6.2l2.2-2.2c-6.2-4.4-13.8-7.1-22-7.1
			c-16.5,0-30.6,10.6-35.8,25.4C19.7,32.4,20.8,32.2,22.1,32.1z"/>
		<path class="st0" d="M85.2,23.2L83,25.4c3.9,5.6,6.2,12.4,6.2,19.8C89.1,64.4,73.5,80,54.3,80c-1.9,0-3.8-0.2-5.6-0.5v3.2
			c1.8,0.3,3.7,0.4,5.6,0.4c20.9,0,37.9-17,37.9-37.9C92.2,37,89.6,29.4,85.2,23.2z"/>
		<path class="st0" d="M76.7,31.7L74.4,34c1.9,3.3,3,7.2,3,11.3c0,12.7-10.4,23-23.1,23c-2.3,0-4.5-0.3-6.6-1
			c0.3,1.2,0.5,2.3,0.7,3.4c1.9,0.4,3.9,0.7,5.9,0.7c14.5,0,26.2-11.8,26.2-26.2C80.5,40.3,79.1,35.6,76.7,31.7z"/>
	</g>
</g>
</svg>
