<?xml version="1.0" encoding="utf-8"?>
<!-- Generator: Adobe Illustrator 24.0.2, SVG Export Plug-In . SVG Version: 6.00 Build 0)  -->
<svg version="1.1" id="Layer_1" xmlns="http://www.w3.org/2000/svg" xmlns:xlink="http://www.w3.org/1999/xlink" x="0px" y="0px"
	 viewBox="0 0 169.9 92.3" style="enable-background:new 0 0 169.9 92.3;" xml:space="preserve">
<style type="text/css">
	.st0{fill:#2B215F;}
</style>
<g>
	<path class="st0" d="M53.2,82.3c-1.1,0-2-0.9-2-2V62c0-1.1,0.9-2,2-2s2,0.9,2,2v18.3C55.2,81.4,54.3,82.3,53.2,82.3z"/>
	<path class="st0" d="M17.7,82.3c-1.1,0-2-0.9-2-2V62c0-1.1,0.9-2,2-2c1.1,0,2,0.9,2,2v18.3C19.7,81.4,18.8,82.3,17.7,82.3z"/>
	<path class="st0" d="M35.5,45.8c-10.5,0-19.1-8.6-19.1-19.1c0-10.5,8.6-19.1,19.1-19.1c10.5,0,19.1,8.6,19.1,19.1
		C54.5,37.2,46,45.8,35.5,45.8z M35.5,11.6c-8.3,0-15.1,6.8-15.1,15.1c0,8.3,6.8,15.1,15.1,15.1c8.3,0,15.1-6.8,15.1-15.1
		C50.5,18.4,43.8,11.6,35.5,11.6z"/>
	<path class="st0" d="M21,39.1C2.5,45.2,0,59.6,0,71.8v8.5c0,1.1,0.9,2,2,2s2-0.9,2-2v-8.5c0-11.9,2.5-24.7,20.5-29.5
		c0.1,0,0.1,0.1,0.2,0.1C23.3,41.5,22.1,40.4,21,39.1z"/>
	<path class="st0" d="M49.9,39.1c-1.1,1.2-2.3,2.3-3.6,3.3c0.1,0,0.1-0.1,0.2-0.1c18,4.8,20.5,17.6,20.5,29.5v8.5c0,1.1,0.9,2,2,2
		c1.1,0,2-0.9,2-2v-8.5C70.9,59.6,68.4,45.2,49.9,39.1z"/>
	<g>
		<path class="st0" d="M152.2,86.5c-1.1,0-2-0.9-2-2V66.2c0-1.1,0.9-2,2-2c1.1,0,2,0.9,2,2v18.3C154.2,85.6,153.3,86.5,152.2,86.5z"
			/>
		<path class="st0" d="M116.7,86.5c-1.1,0-2-0.9-2-2V66.2c0-1.1,0.9-2,2-2c1.1,0,2,0.9,2,2v18.3C118.7,85.6,117.8,86.5,116.7,86.5z"
			/>
		<path class="st0" d="M134.4,49.9c-10.5,0-19.1-8.6-19.1-19.1c0-10.5,8.6-19.1,19.1-19.1c10.5,0,19.1,8.6,19.1,19.1
			C153.5,41.4,144.9,49.9,134.4,49.9z M134.4,15.8c-8.3,0-15.1,6.8-15.1,15.1c0,8.3,6.8,15.1,15.1,15.1c8.3,0,15.1-6.8,15.1-15.1
			C149.5,22.6,142.7,15.8,134.4,15.8z"/>
		<path class="st0" d="M120,43.3c-18.5,6-21,20.5-21,32.6v8.5c0,1.1,0.9,2,2,2s2-0.9,2-2v-8.5c0-11.9,2.5-24.7,20.5-29.5
			c0.1,0,0.1,0.1,0.2,0.1C122.3,45.6,121.1,44.5,120,43.3z"/>
		<path class="st0" d="M148.8,43.3c-1.1,1.2-2.3,2.3-3.6,3.3c0.1,0,0.1-0.1,0.2-0.1c18,4.8,20.5,17.6,20.5,29.5v8.5c0,1.1,0.9,2,2,2
			c1.1,0,2-0.9,2-2v-8.5C169.9,63.8,167.4,49.3,148.8,43.3z"/>
	</g>
	<path class="st0" d="M85.3,92.3c-1.1,0-2-0.9-2-2V2c0-1.1,0.9-2,2-2s2,0.9,2,2v88.3C87.3,91.4,86.4,92.3,85.3,92.3z"/>
</g>
</svg>
