<?xml version="1.0" encoding="utf-8"?>
<!-- Generator: Adobe Illustrator 24.0.2, SVG Export Plug-In . SVG Version: 6.00 Build 0)  -->
<svg version="1.1" id="Layer_1" xmlns="http://www.w3.org/2000/svg" xmlns:xlink="http://www.w3.org/1999/xlink" x="0px" y="0px"
	 viewBox="0 0 256 256" style="enable-background:new 0 0 256 256;" xml:space="preserve">
<style type="text/css">
	.st0{fill:none;stroke:#2B215F;stroke-width:10;stroke-linecap:round;stroke-linejoin:round;stroke-miterlimit:10;}
</style>
<g>
	<path class="st0" d="M117.3,143.3v35.6c0,4.4,3.5,7.9,7.9,7.9h117.9c4.4,0,7.9-3.5,7.9-7.9v-11.9V40.6V12.9c0-4.4-3.5-7.9-7.9-7.9
		h-78.8c-2.7,0-5.2,1.1-7.2,2.9l-36.9,36.4c-2.9,3-2.9,5.5-2.9,8.1v19.8"/>
	<polyline class="st0" points="160.1,21 160.1,47.8 133.3,47.8 	"/>
	<g>
		<ellipse class="st0" cx="56.6" cy="31.7" rx="21.4" ry="26.7"/>
		<line class="st0" x1="26.4" y1="112" x2="26.4" y2="251"/>
		<line class="st0" x1="90.6" y1="110.7" x2="90.6" y2="251"/>
		<line class="st0" x1="58.5" y1="251" x2="58.5" y2="176.1"/>
		<path class="st0" d="M5,154.7v-48.1c0-17.7,14.4-32.1,32.1-32.1h5.3"/>
		<path class="st0" d="M74.5,74.5H78c9.4,0,14,3.8,17.1,6.1"/>
		<path class="st0" d="M90.6,110.7l24.4,12.3c1.4,0.7,3,0.8,4.4,0.2l18-7.4c9.7-4.3,12.9-16.4,11.8-26c-0.4-3.4-4-5.5-7.2-4.3
			l-24.5,9.5L95.1,80.6"/>
	</g>
	<line class="st0" x1="229.6" y1="90.6" x2="224.3" y2="90.6"/>
	<line class="st0" x1="208.2" y1="90.6" x2="170.8" y2="90.6"/>
	<line class="st0" x1="229.6" y1="117.3" x2="224.3" y2="117.3"/>
	<line class="st0" x1="208.2" y1="117.3" x2="170.8" y2="117.3"/>
	<line class="st0" x1="229.6" y1="47.8" x2="192.2" y2="47.8"/>
	<line class="st0" x1="229.6" y1="144" x2="224.3" y2="144"/>
	<line class="st0" x1="208.2" y1="144" x2="138.7" y2="144"/>
</g>
</svg>
