<?xml version="1.0" encoding="utf-8"?>
<!-- Generator: Adobe Illustrator 23.1.0, SVG Export Plug-In . SVG Version: 6.00 Build 0)  -->
<svg version="1.1" id="Layer_1" xmlns="http://www.w3.org/2000/svg" xmlns:xlink="http://www.w3.org/1999/xlink" x="0px" y="0px"
	 viewBox="0 0 101.4 105.8" style="enable-background:new 0 0 101.4 105.8;" xml:space="preserve">
<style type="text/css">
	.st0{fill:#2A255F;}
</style>
<g>
	<path class="st0" d="M32,23.4c-0.9,0-1.6,0.7-1.6,1.6s0.7,1.6,1.6,1.6h37.3c0.9,0,1.6-0.7,1.6-1.6s-0.7-1.6-1.6-1.6H32z"/>
	<path class="st0" d="M38.1,32.7c-0.9,0-1.6,0.7-1.6,1.6s0.7,1.6,1.6,1.6h25c0.9,0,1.6-0.7,1.6-1.6s-0.7-1.6-1.6-1.6H38.1z"/>
	<path class="st0" d="M70,58.1c-0.2-0.6-0.2-1.5-0.2-2.5c0-1.5,0.1-3.3-0.9-4.7c-1-1.4-2.7-2-4.2-2.4c-0.9-0.3-1.7-0.5-2.2-0.9
		c-0.5-0.4-1-1.1-1.5-1.9c-0.9-1.3-1.8-2.9-3.5-3.4c-1.6-0.5-3.2,0-4.6,0.6c-0.9,0.3-1.7,0.6-2.4,0.6s-1.5-0.3-2.4-0.6
		c-1.4-0.5-3-1.1-4.7-0.5c-1.6,0.6-2.6,2.1-3.4,3.4c-0.5,0.8-1,1.5-1.5,1.9c-0.5,0.4-1.3,0.6-2.2,0.9c-1.5,0.5-3.1,1-4.2,2.4
		c-1,1.4-1,3.3-1,4.9c0,0.9,0,1.8-0.2,2.4c-0.2,0.5-0.7,1.2-1.2,1.9c-1,1.3-2.1,2.8-2.1,4.6c0,1.8,1.1,3.2,2,4.5
		c0.5,0.7,1.1,1.4,1.2,2c0,0,0,0.1,0,0.1c0.2,0.6,0.2,1.5,0.2,2.5c0,1.5-0.1,3.3,0.9,4.7c1,1.4,2.7,2,4.2,2.4
		c0.9,0.3,1.7,0.5,2.2,0.9c0.4,0.3,0.8,0.9,1.2,1.5v20.9c0,0.6,0.4,1.2,1,1.5c0.6,0.3,1.3,0.1,1.7-0.3l8.2-7.7l8.2,7.7
		c0.3,0.3,0.7,0.4,1.1,0.4c0.2,0,0.4,0,0.6-0.1c0.6-0.3,1-0.8,1-1.5V82.8c0.3-0.4,0.6-0.8,0.9-1c0.5-0.4,1.3-0.6,2.2-0.9
		c1.5-0.5,3.1-1,4.2-2.4c1-1.4,1-3.3,1-4.9c0-0.9,0-1.8,0.2-2.4c0.2-0.5,0.7-1.2,1.2-1.9c1-1.3,2.1-2.8,2.1-4.6c0-2-1.2-3.5-2.1-4.7
		C70.6,59.3,70.2,58.7,70,58.1z M51.7,94.3c-0.6-0.6-1.6-0.6-2.2,0l-6.6,6.2V86.8c0.2,0.1,0.4,0.2,0.6,0.2c0.4,0.1,0.9,0.2,1.3,0.2
		c1.1,0,2.2-0.4,3.2-0.8c0.9-0.3,1.7-0.6,2.4-0.6s1.5,0.3,2.4,0.6c1.4,0.5,3,1.1,4.7,0.5c0.3-0.1,0.6-0.3,0.8-0.4v13.9L51.7,94.3z
		 M68.6,67.4c-0.6,0.9-1.3,1.8-1.7,2.8c-0.3,1.1-0.3,2.3-0.3,3.4c0,1.2,0,2.4-0.4,2.9c-0.4,0.6-1.5,0.9-2.6,1.3
		c-1.1,0.3-2.2,0.7-3.1,1.4c-1,0.7-1.7,1.7-2.3,2.7c-0.6,1-1.2,1.9-1.8,2.1c-0.5,0.2-1.5-0.2-2.5-0.5c-1.1-0.4-2.2-0.8-3.5-0.8
		s-2.4,0.4-3.5,0.8c-1,0.3-1.9,0.7-2.5,0.5c-0.5-0.2-1.1-0.9-1.6-1.7c-0.1-0.5-0.3-0.9-0.7-1.1c-0.5-0.7-1.1-1.5-1.8-2
		c-0.9-0.7-2-1-3.1-1.4c-1.1-0.4-2.1-0.7-2.6-1.3c-0.4-0.5-0.4-1.6-0.3-2.7c0-1.2,0.1-2.5-0.4-3.7c-0.4-1.1-1.1-2-1.7-2.9
		c-0.7-0.9-1.3-1.8-1.3-2.5c0-0.8,0.7-1.8,1.4-2.7c0.6-0.9,1.3-1.8,1.7-2.8c0.3-1.1,0.3-2.3,0.3-3.4c0-1.2,0-2.4,0.4-2.9
		c0.4-0.6,1.5-0.9,2.6-1.3c1.1-0.3,2.2-0.7,3.1-1.4c1-0.7,1.7-1.7,2.3-2.7c0.6-1,1.2-1.9,1.8-2.1c0.5-0.2,1.5,0.2,2.5,0.5
		c1.1,0.4,2.2,0.8,3.5,0.8s2.4-0.4,3.5-0.8c1-0.3,1.9-0.7,2.5-0.5c0.6,0.2,1.2,1.1,1.8,2.1c0.6,1,1.3,2,2.3,2.8c0.9,0.7,2,1,3.1,1.4
		c1.1,0.4,2.1,0.7,2.6,1.3c0.4,0.5,0.4,1.6,0.3,2.7c0,1.2-0.1,2.5,0.4,3.6c0.3,1,1,1.9,1.6,2.7c0.7,1,1.4,1.9,1.4,2.8
		C70,65.5,69.3,66.4,68.6,67.4z"/>
	<path class="st0" d="M50.6,53.7c-6,0-10.9,4.9-10.9,10.9s4.9,10.9,10.9,10.9s10.9-4.9,10.9-10.9S56.6,53.7,50.6,53.7z M50.6,72.4
		c-4.3,0-7.7-3.5-7.7-7.7s3.5-7.7,7.7-7.7s7.7,3.5,7.7,7.7S54.9,72.4,50.6,72.4z"/>
	<path class="st0" d="M95,0H6.3C2.8,0,0,2.8,0,6.3v60.5c0,3.5,2.8,6.3,6.3,6.3h13.9c0.9,0,1.6-0.7,1.6-1.6S21.1,70,20.3,70H6.3
		c-1.7,0-3.1-1.4-3.1-3.1V6.3c0-1.7,1.4-3.1,3.1-3.1H95c1.7,0,3.1,1.4,3.1,3.1V67c0,1.7-1.4,3.1-3.1,3.1H81c-0.9,0-1.6,0.7-1.6,1.6
		s0.7,1.6,1.6,1.6H95c3.5,0,6.3-2.8,6.3-6.3V6.3C101.4,2.8,98.5,0,95,0z"/>
	<path class="st0" d="M59.9,11.7H13.3c-0.9,0-1.6,0.7-1.6,1.6v46.6c0,0.9,0.7,1.6,1.6,1.6h7c0.9,0,1.6-0.7,1.6-1.6s-0.7-1.6-1.6-1.6
		h-5.4V14.9h45c0.9,0,1.6-0.7,1.6-1.6S60.8,11.7,59.9,11.7z"/>
	<path class="st0" d="M81,58.3c-0.9,0-1.6,0.7-1.6,1.6s0.7,1.6,1.6,1.6h7c0.9,0,1.6-0.7,1.6-1.6V13.3c0-0.9-0.7-1.6-1.6-1.6H71.6
		c-0.9,0-1.6,0.7-1.6,1.6s0.7,1.6,1.6,1.6h14.7v43.4H81z"/>
</g>
</svg>
