<?xml version="1.0" encoding="utf-8"?>
<!-- Generator: Adobe Illustrator 24.0.2, SVG Export Plug-In . SVG Version: 6.00 Build 0)  -->
<svg version="1.1" id="Layer_1" xmlns="http://www.w3.org/2000/svg" xmlns:xlink="http://www.w3.org/1999/xlink" x="0px" y="0px"
	 viewBox="0 0 116.8 97.1" style="enable-background:new 0 0 116.8 97.1;" xml:space="preserve">
<style type="text/css">
	.st0{fill:#2B215F;}
</style>
<g>
	<path class="st0" d="M85.4,29.4H32.7c-1.1,0-2-0.9-2-2c0-1.1,0.9-2,2-2h52.8c1.1,0,2,0.9,2,2C87.4,28.6,86.5,29.4,85.4,29.4z"/>
	<path class="st0" d="M85.4,44.1H32.7c-1.1,0-2-0.9-2-2s0.9-2,2-2h52.8c1.1,0,2,0.9,2,2S86.5,44.1,85.4,44.1z"/>
	<path class="st0" d="M60.9,58.8H32.7c-1.1,0-2-0.9-2-2s0.9-2,2-2h28.2c1.1,0,2,0.9,2,2S62,58.8,60.9,58.8z"/>
	<g>
		<path class="st0" d="M23.1,97.1c-1.4,0-2.8-0.6-3.7-1.6c-1-1-1.4-2.4-1.3-3.8l1.5-18.9C6.9,65.5,0,54.3,0,41.2
			C0,18.1,25.7,0,58.4,0c32.7,0,58.4,18.1,58.4,41.2c0,23.1-25.7,41.2-58.4,41.2c-2.2,0-4.4-0.1-6.5-0.2c-1.5-0.1-2.9,0.2-4.2,1
			l-22,13.2C24.9,96.8,24,97.1,23.1,97.1z M23.6,72l-1.5,20c0,0.3,0.1,0.6,0.3,0.8c0.3,0.4,0.9,0.5,1.3,0.2l22-13.2
			c1.9-1.2,4.2-1.7,6.5-1.5c2.1,0.2,4.2,0.2,6.2,0.2c30.5,0,54.4-16.3,54.4-37.2C112.8,20.3,88.9,4,58.4,4C27.9,4,4,20.3,4,41.2
			c0,12,6.6,22.1,18.5,28.7C23.3,70.3,23.8,71.1,23.6,72z"/>
	</g>
</g>
</svg>
