<?xml version="1.0" encoding="utf-8"?>
<!-- Generator: Adobe Illustrator 24.0.2, SVG Export Plug-In . SVG Version: 6.00 Build 0)  -->
<svg version="1.1" id="Layer_1" xmlns="http://www.w3.org/2000/svg" xmlns:xlink="http://www.w3.org/1999/xlink" x="0px" y="0px"
	 viewBox="0 0 118.3 111" style="enable-background:new 0 0 118.3 111;" xml:space="preserve">
<style type="text/css">
	.st0{fill:#2B215F;}
</style>
<g>
	<path class="st0" d="M18.3,62.3c0.5,0,1.1,0,1.6,0.1c0.7-10.9,5.9-20.5,13.7-27.2c0-1.9,0.1-3.7,0.4-5.3
		C23.7,37.2,16.7,49,15.9,62.5C16.7,62.3,17.5,62.3,18.3,62.3z"/>
	<path class="st0" d="M9.7,111c-1.1,0-2-0.9-2-2v-9.9c0-1.1,0.9-2,2-2c1.1,0,2,0.9,2,2v9.9C11.6,110.1,10.8,111,9.7,111z"/>
	<path class="st0" d="M27,111c-1.1,0-2-0.9-2-2v-9.9c0-1.1,0.9-2,2-2c1.1,0,2,0.9,2,2v9.9C29,110.1,28.1,111,27,111z"/>
	<path class="st0" d="M27.8,88.1c1.4-2,2.3-4.4,2.3-7c0-6.1-4.7-11.2-10.6-11.8c-0.4,0-0.8-0.1-1.2-0.1c-0.4,0-0.8,0-1.2,0.1
		c-6,0.6-10.6,5.6-10.6,11.8c0,2.6,0.9,5,2.3,7C0,90.8,0,101.1,0,104.8v4.2c0,1.1,0.9,2,2,2c1.1,0,2-0.9,2-2v-4.2
		c0-9.1,2.5-13.1,8.6-13.5c1.7,1,3.7,1.5,5.8,1.5c2.1,0,4-0.5,5.8-1.5c6.1,0.4,8.6,4.4,8.6,13.5v4.2c0,1.1,0.9,2,2,2
		c1.1,0,2-0.9,2-2v-4.2C36.7,101.1,36.7,90.8,27.8,88.1z M10.5,81.1c0-4.3,3.5-7.8,7.8-7.8c4.3,0,7.8,3.5,7.8,7.8
		c0,4.3-3.5,7.8-7.8,7.8C14,88.9,10.5,85.4,10.5,81.1z"/>
	<path class="st0" d="M98,62.4c0.7-0.1,1.3-0.1,2-0.1c0.7,0,1.3,0,2,0.1c-0.8-13.4-7.8-25.2-18.1-32.6c0.2,1.6,0.3,3.4,0.4,5.3
		C92.1,41.8,97.3,51.5,98,62.4z"/>
	<path class="st0" d="M74.7,104.8c0-1.5,0.1-2.9,0.2-4.2c-4.9,2.2-10.3,3.4-15.9,3.4c-5.5,0-10.7-1.1-15.5-3.2
		c0.1,1.3,0.2,2.6,0.2,4v0.4c4.8,1.8,9.9,2.8,15.3,2.8c5.6,0,10.9-1.1,15.7-3V104.8z"/>
	<path class="st0" d="M91.3,111c-1.1,0-2-0.9-2-2v-9.9c0-1.1,0.9-2,2-2c1.1,0,2,0.9,2,2v9.9C93.3,110.1,92.4,111,91.3,111z"/>
	<path class="st0" d="M108.7,111c-1.1,0-2-0.9-2-2v-9.9c0-1.1,0.9-2,2-2c1.1,0,2,0.9,2,2v9.9C110.6,110.1,109.8,111,108.7,111z"/>
	<path class="st0" d="M109.5,88.1c1.4-2,2.3-4.4,2.3-7c0-6.1-4.7-11.2-10.6-11.8c-0.4,0-0.8-0.1-1.2-0.1c-0.4,0-0.8,0-1.2,0.1
		c-6,0.6-10.6,5.6-10.6,11.8c0,2.6,0.9,5,2.3,7c-8.8,2.7-8.8,13-8.8,16.8v4.2c0,1.1,0.9,2,2,2c1.1,0,2-0.9,2-2v-4.2
		c0-9.1,2.5-13.1,8.6-13.5c1.7,1,3.7,1.5,5.8,1.5c2.1,0,4-0.5,5.8-1.5c6.1,0.4,8.6,4.4,8.6,13.5v4.2c0,1.1,0.9,2,2,2
		c1.1,0,2-0.9,2-2v-4.2C118.3,101.1,118.3,90.8,109.5,88.1z M92.1,81.1c0-4.3,3.5-7.8,7.8-7.8c4.3,0,7.8,3.5,7.8,7.8
		c0,4.3-3.5,7.8-7.8,7.8C95.6,88.9,92.1,85.4,92.1,81.1z"/>
	<path class="st0" d="M50.3,41.8c-1.1,0-2-0.9-2-2v-9.9c0-1.1,0.9-2,2-2c1.1,0,2,0.9,2,2v9.9C52.2,40.9,51.3,41.8,50.3,41.8z"/>
	<path class="st0" d="M67.6,41.8c-1.1,0-2-0.9-2-2v-9.9c0-1.1,0.9-2,2-2c1.1,0,2,0.9,2,2v9.9C69.6,40.9,68.7,41.8,67.6,41.8z"/>
	<path class="st0" d="M68.4,18.8c1.4-2,2.3-4.4,2.3-7c0-6.1-4.7-11.2-10.6-11.8C59.7,0,59.3,0,58.9,0c-0.4,0-0.8,0-1.2,0.1
		c-6,0.6-10.6,5.6-10.6,11.8c0,2.6,0.9,5,2.3,7c-8.8,2.7-8.8,13-8.8,16.8v4.2c0,1.1,0.9,2,2,2c1.1,0,2-0.9,2-2v-4.2
		c0-9.1,2.5-13.1,8.6-13.5c1.7,1,3.7,1.5,5.8,1.5c2.1,0,4-0.5,5.8-1.5c6.1,0.4,8.6,4.4,8.6,13.5v4.2c0,1.1,0.9,2,2,2
		c1.1,0,2-0.9,2-2v-4.2C77.3,31.9,77.3,21.6,68.4,18.8z M51.1,11.8c0-4.3,3.5-7.8,7.8-7.8c4.3,0,7.8,3.5,7.8,7.8
		c0,4.3-3.5,7.8-7.8,7.8C54.6,19.7,51.1,16.2,51.1,11.8z"/>
	<path class="st0" d="M62.5,64.9c0,2-1.6,3.6-3.6,3.6c-2,0-3.6-1.6-3.6-3.6c0-2,1.6-3.6,3.6-3.6C60.9,61.4,62.5,63,62.5,64.9z"/>
	<path class="st0" d="M45.6,64.9c0,2-1.6,3.6-3.6,3.6c-2,0-3.6-1.6-3.6-3.6c0-2,1.6-3.6,3.6-3.6C44,61.4,45.6,63,45.6,64.9z"/>
	<path class="st0" d="M72.2,64.9c0,2,1.6,3.6,3.6,3.6c2,0,3.6-1.6,3.6-3.6c0-2-1.6-3.6-3.6-3.6C73.8,61.4,72.2,63,72.2,64.9z"/>
</g>
</svg>
