<?xml version="1.0" encoding="utf-8"?>
<!-- Generator: Adobe Illustrator 24.0.2, SVG Export Plug-In . SVG Version: 6.00 Build 0)  -->
<svg version="1.1" id="Layer_1" xmlns="http://www.w3.org/2000/svg" xmlns:xlink="http://www.w3.org/1999/xlink" x="0px" y="0px"
	 viewBox="0 0 256 245.3" style="enable-background:new 0 0 256 245.3;" xml:space="preserve">
<style type="text/css">
	.st0{fill:none;stroke:#2B215F;stroke-width:10;stroke-linecap:round;stroke-linejoin:round;stroke-miterlimit:10;}
</style>
<g>
	<path class="st0" d="M156.8,181.5h-5c-4.6,0-8.7,2.9-10.1,7.3l-0.5,1.4c-1.5,4.4-5.5,7.3-10.1,7.3h-16.7c-4.6,0-8.7-2.9-10.1-7.3
		l-0.5-1.4c-1.5-4.4-5.5-7.3-10.1-7.3H10.3c-3,0-5.3-2.4-5.3-5.3V21h5.3"/>
	<polyline class="st0" points="235,21 240.3,21 240.3,138.7 	"/>
	<path class="st0" d="M154.7,160.1h-7.2c-5.7,0-11.1,2.3-15.1,6.3l-9.8,9.8l-9.8-9.8c-4-4-9.5-6.3-15.1-6.3h-66
		c-3,0-5.3-2.4-5.3-5.3V10.3c0-3,2.4-5.3,5.3-5.3h66c5.7,0,24.9,16,24.9,16s19.2-16,24.9-16h66c3,0,5.3,2.4,5.3,5.3v112.3"/>
	<line class="st0" x1="122.7" y1="21" x2="122.7" y2="149.4"/>
	<line class="st0" x1="53.1" y1="53.1" x2="95.9" y2="53.1"/>
	<line class="st0" x1="53.1" y1="79.9" x2="95.9" y2="79.9"/>
	<line class="st0" x1="53.1" y1="106.6" x2="95.9" y2="106.6"/>
	<line class="st0" x1="149.4" y1="53.1" x2="192.2" y2="53.1"/>
	<line class="st0" x1="149.4" y1="79.9" x2="192.2" y2="79.9"/>
	<polygon class="st0" points="251,172.5 173.4,121.8 180.4,213.3 201.5,191.1 229.9,240.3 239.8,234.6 249.7,228.9 221.3,179.7 	"/>
</g>
</svg>
