<?xml version="1.0" encoding="utf-8"?>
<!-- Generator: Adobe Illustrator 23.1.0, SVG Export Plug-In . SVG Version: 6.00 Build 0)  -->
<svg version="1.1" id="Layer_1" xmlns="http://www.w3.org/2000/svg" xmlns:xlink="http://www.w3.org/1999/xlink" x="0px" y="0px"
	 viewBox="0 0 98 96.7" style="enable-background:new 0 0 98 96.7;" xml:space="preserve">
<style type="text/css">
	.st0{fill:#2B215F;}
</style>
<g>
	<path class="st0" d="M49,27c1.1,0,2-0.9,2-2V2c0-1.1-0.9-2-2-2s-2,0.9-2,2v23.1C47,26.1,47.9,27,49,27z"/>
	<path class="st0" d="M49,68.9c-1.1,0-2,0.9-2,2v23.9c0,1.1,0.9,2,2,2s2-0.9,2-2v-24C51,69.8,50.1,68.9,49,68.9z"/>
	<path class="st0" d="M43.3,69.1c-7.2-2-13-7.7-15-15c0-0.1-0.2-0.2-0.3-0.2h-3.4c-0.1,0-0.2,0-0.2,0.1c-0.1,0.1-0.1,0.2-0.1,0.3
		c2.2,9.2,9.6,16.6,18.8,18.8c0,0,0,0,0.1,0s0.1,0,0.2-0.1c0.1-0.1,0.1-0.1,0.1-0.2v-3.4C43.5,69.2,43.4,69.1,43.3,69.1z"/>
	<path class="st0" d="M43.5,27.4V24c0-0.1,0-0.2-0.1-0.2s-0.1-0.1-0.2-0.1c0,0,0,0-0.1,0c-9.2,2.2-16.6,9.6-18.8,18.8
		c0,0.1,0,0.2,0.1,0.3s0.1,0.1,0.2,0.1H28c0.1,0,0.3-0.1,0.3-0.2c2-7.2,7.7-13,15-15C43.4,27.6,43.5,27.5,43.5,27.4z"/>
	<path class="st0" d="M43.2,84.6c-15.7-2.5-28-14.8-30.5-30.5c0-0.1-0.1-0.3-0.3-0.3H9.1c-0.1,0-0.2,0-0.2,0.1
		c-0.1,0.1-0.1,0.2-0.1,0.2C11.4,71.9,25.5,86,43.1,88.6l0,0c0.1,0,0.1,0,0.2-0.1c0.1-0.1,0.1-0.1,0.1-0.2v-3.4
		C43.5,84.8,43.4,84.7,43.2,84.6z"/>
	<path class="st0" d="M9.1,42.9h3.4c0.1,0,0.3-0.1,0.3-0.3c2.5-15.7,14.8-28,30.5-30.5c0.1,0,0.3-0.1,0.3-0.3V8.4
		c0-0.1,0-0.2-0.1-0.2s-0.1-0.1-0.2-0.1l0,0c-17.8,2.6-32,16.7-34.5,34.4c0,0.1,0,0.2,0.1,0.2C8.9,42.8,9,42.9,9.1,42.9z"/>
	<path class="st0" d="M54.8,12.1c15.7,2.5,28,14.7,30.5,30.5c0,0.1,0.1,0.3,0.3,0.3H89c0.1,0,0.2,0,0.2-0.1c0.1-0.1,0.1-0.2,0.1-0.2
		C86.7,24.8,72.5,10.7,54.9,8.2l0,0c-0.1,0-0.1,0-0.2,0.1c-0.1,0.1-0.1,0.1-0.1,0.2v3.4C54.5,12,54.6,12.1,54.8,12.1z"/>
	<path class="st0" d="M88.9,53.9h-3.4c-0.1,0-0.3,0.1-0.3,0.3c-2.5,15.7-14.8,28-30.5,30.5c-0.1,0-0.3,0.1-0.3,0.3v3.4
		c0,0.1,0,0.2,0.1,0.2s0.1,0.1,0.2,0.1l0,0c17.8-2.7,32-16.8,34.5-34.5c0-0.1,0-0.2-0.1-0.2C89.1,53.9,89,53.9,88.9,53.9z"/>
	<path class="st0" d="M54.7,27.7c7.2,2,13,7.7,15,15c0,0.1,0.2,0.2,0.3,0.2h3.4c0.1,0,0.2,0,0.2-0.1c0.1-0.1,0.1-0.2,0.1-0.3
		c-2.2-9.2-9.6-16.6-18.8-18.8c0,0,0,0-0.1,0s-0.1,0-0.2,0.1c-0.1,0.1-0.1,0.1-0.1,0.2v3.4C54.5,27.5,54.6,27.6,54.7,27.7z"/>
	<path class="st0" d="M54.8,73.1C54.9,73.1,54.9,73.1,54.8,73.1c9.3-2.2,16.7-9.6,18.9-18.9c0-0.1,0-0.2-0.1-0.3s-0.1-0.1-0.2-0.1
		H70c-0.1,0-0.3,0.1-0.3,0.2c-2,7.2-7.7,13-15,15c-0.1,0-0.2,0.2-0.2,0.3v3.4c0,0.1,0,0.2,0.1,0.2C54.7,73.1,54.8,73.1,54.8,73.1z"
		/>
	<path class="st0" d="M28.1,48.4c0-1.1-0.9-2-2-2H2c-1.1,0-2,0.9-2,2s0.9,2,2,2h24.2C27.2,50.3,28.1,49.5,28.1,48.4z"/>
	<path class="st0" d="M96.1,46.4H71.8c-1.1,0-2,0.9-2,2s0.9,2,2,2H96c1.1,0,2-0.9,2-2S97.1,46.4,96.1,46.4z"/>
	<path class="st0" d="M49,61.7c7.4,0,13.4-6,13.4-13.4S56.4,35,49,35s-13.4,6-13.4,13.4S41.6,61.7,49,61.7z M49,38.4
		c5.5,0,10,4.5,10,10s-4.5,10-10,10s-10-4.5-10-10S43.5,38.4,49,38.4z"/>
</g>
</svg>
