<?xml version="1.0" encoding="utf-8"?>
<!-- Generator: Adobe Illustrator 23.1.0, SVG Export Plug-In . SVG Version: 6.00 Build 0)  -->
<svg version="1.1" id="Layer_1" xmlns="http://www.w3.org/2000/svg" xmlns:xlink="http://www.w3.org/1999/xlink" x="0px" y="0px"
	 viewBox="0 0 99.3 82.7" style="enable-background:new 0 0 99.3 82.7;" xml:space="preserve">
<style type="text/css">
	.st0{fill:#2B215F;}
</style>
<g>
	<path class="st0" d="M12.2,47.4h12.5c1,0,1.9-0.8,1.9-1.9v-8.3c0-1-0.8-1.9-1.9-1.9h-4.4v-4.6h8.5h8.5v4.6H33c-1,0-1.9,0.8-1.9,1.9
		v8.3c0,1,0.8,1.9,1.9,1.9h12.5c1,0,1.9-0.8,1.9-1.9v-8.3c0-1-0.8-1.9-1.9-1.9h-4.4v-6.5c0-1-0.8-1.9-1.9-1.9h-8.5v-4.6h4.4
		c1,0,1.9-0.8,1.9-1.9v-8.3c0-1-0.8-1.9-1.9-1.9H22.6c-1,0-1.9,0.8-1.9,1.9v8.3c0,1,0.8,1.9,1.9,1.9H27V27h-8.5
		c-1,0-1.9,0.8-1.9,1.9v6.5h-4.4c-1,0-1.9,0.8-1.9,1.9v8.3C10.4,46.5,11.2,47.4,12.2,47.4z M43.7,43.7h-8.8V39h8.8V43.7z M24.5,14.1
		h8.8v4.6h-8.8V14.1z M14.1,39h8.8v4.6h-8.8C14.1,43.6,14.1,39,14.1,39z"/>
	<path class="st0" d="M93.3,0H6C2.7,0,0,2.7,0,6v56.1c0,3.3,2.7,6,6,6h87.3c3.3,0,6-2.7,6-6V6C99.3,2.7,96.7,0,93.3,0z M6,3.7h87.3
		c1.3,0,2.3,1,2.3,2.3v48.1H3.7V6C3.7,4.7,4.7,3.7,6,3.7z M93.3,64.5H6c-1.3,0-2.3-1-2.3-2.3v-4.4h91.9v4.4
		C95.6,63.4,94.6,64.5,93.3,64.5z"/>
	<path class="st0" d="M74.6,79h-6.5v-6.5c0-1-0.8-1.8-1.8-1.8s-1.8,0.8-1.8,1.8V79H34.9v-6.5c0-1-0.8-1.8-1.9-1.8
		c-1,0-1.9,0.8-1.9,1.8V79h-6.5c-1,0-1.9,0.8-1.9,1.8s0.8,1.8,1.9,1.8h49.9c1,0,1.8-0.8,1.8-1.8S75.6,79,74.6,79z"/>
	<path class="st0" d="M58,20.3h27c1,0,1.8-0.8,1.8-1.9S86,16.6,85,16.6H58c-1,0-1.8,0.8-1.8,1.9S57,20.3,58,20.3z"/>
	<path class="st0" d="M58,30.7h27c1,0,1.8-0.8,1.8-1.9S86,27,85,27H58c-1,0-1.8,0.8-1.8,1.9S57,30.7,58,30.7z"/>
	<path class="st0" d="M58,41.1h27c1,0,1.8-0.8,1.8-1.9S86,37.4,85,37.4H58c-1,0-1.8,0.8-1.8,1.9S57,41.1,58,41.1z"/>
</g>
</svg>
