<?xml version="1.0" encoding="utf-8"?>
<!-- Generator: Adobe Illustrator 24.0.2, SVG Export Plug-In . SVG Version: 6.00 Build 0)  -->
<svg version="1.1" id="Layer_1" xmlns="http://www.w3.org/2000/svg" xmlns:xlink="http://www.w3.org/1999/xlink" x="0px" y="0px"
	 viewBox="0 0 213.2 256" style="enable-background:new 0 0 213.2 256;" xml:space="preserve">
<style type="text/css">
	.st0{fill:none;stroke:#2B215F;stroke-width:10;stroke-linecap:round;stroke-linejoin:round;stroke-miterlimit:10;}
</style>
<g>
	<g>
		<path class="st0" d="M5,26.4v203.2c0,11.8,9.6,21.4,21.4,21.4h115.1h61.3c3,0,5.3-2.4,5.3-5.3V53.1c0-3-2.4-5.3-5.3-5.3H26.4
			C14.4,47.8,5,38.2,5,26.4L5,26.4C5,14.6,14.4,5,26.4,5h181.8"/>
		<line class="st0" x1="31.7" y1="47.8" x2="31.7" y2="251"/>
		<path class="st0" d="M198.9,5c-1.9,2.7-6.6,10.3-6.7,20.9c-0.1,11.2,4.8,19.1,6.7,21.8"/>
	</g>
	<g>
		
			<ellipse transform="matrix(0.3827 -0.9239 0.9239 0.3827 -65.6056 200.5968)" class="st0" cx="117.3" cy="149.4" rx="53.5" ry="53.5"/>
		<polygon class="st0" points="149.4,149.4 101.3,121.6 101.3,177.2 149.4,149.4 101.3,121.6 101.3,177.2 		"/>
	</g>
</g>
</svg>
