<?xml version="1.0" encoding="utf-8"?>
<!-- Generator: Adobe Illustrator 23.1.0, SVG Export Plug-In . SVG Version: 6.00 Build 0)  -->
<svg version="1.1" id="Layer_1" xmlns="http://www.w3.org/2000/svg" xmlns:xlink="http://www.w3.org/1999/xlink" x="0px" y="0px"
	 viewBox="0 0 87.7 99.4" style="enable-background:new 0 0 87.7 99.4;" xml:space="preserve">
<style type="text/css">
	.st0{fill:#2B215F;}
</style>
<g>
	<path class="st0" d="M33.7,75.1h-3.4c0,0.2,0,0.4,0,0.6v0.1c0,0.2,0,0.3,0,0.5v0.5v9.8c0,2.8,2.3,5.1,5.1,5.1c-0.1,0-0.2,0-0.3,0
		c0.8,4.4,4.6,7.7,9.2,7.7s8.4-3.3,9.2-7.7c-0.1,0-0.2,0-0.3,0c2.8,0,5.1-2.3,5.1-5.1v-9.8c0,0,0-1.2,0.1-1.7H55H33.7z M44.4,96
		c-2.7,0-5-1.8-5.7-4.3h11.5C49.4,94.2,47.1,96,44.4,96z M55.1,86.6c0,0.9-0.8,1.7-1.7,1.7h-18c-0.9,0-1.7-0.8-1.7-1.7V85h21.4V86.6
		z M55.1,81.5H33.7v-3.1h21.4V81.5z"/>
	<path class="st0" d="M37.2,39.4c0.9-1.3,1.3-2.8,1-4.2c-0.2-1.1-0.8-2-1.7-2.6c-0.8-0.5-1.8-0.3-2.4,0.5c-0.5,0.8-0.3,1.8,0.5,2.4
		c0.1,0.1,0.2,0.2,0.2,0.4c0.1,0.4,0,1-0.5,1.6c-0.7,1-1.7,1.2-2,1c-0.8-0.5-1.8-0.3-2.4,0.5c-0.5,0.8-0.3,1.8,0.5,2.4
		c0.7,0.4,1.4,0.6,2.2,0.6C34.4,41.9,36.1,41,37.2,39.4z"/>
	<path class="st0" d="M35.2,47.5c-0.9-0.3-1.9,0.2-2.1,1.1c-0.3,0.9,0.2,1.9,1.1,2.1c0.7,0.2,1.4,0.9,1.7,1.5c0.2,0.5,0.1,1-0.3,1.5
		c-0.5,0.8-0.3,1.8,0.5,2.4c0.3,0.2,0.6,0.3,1,0.3c0.5,0,1.1-0.3,1.4-0.8c1-1.4,1.2-3,0.6-4.5C38.5,49.5,36.9,48.1,35.2,47.5z"/>
	<path class="st0" d="M44,16.6c-0.1,0-0.3-0.1-0.4-0.1H39c-3.5,0-5.9,1.6-6.6,4.3c-1.9-0.6-3.8-0.4-5.5,0.7c-2,1.3-3.4,3.8-3.4,6.2
		c0,0.5,0,0.9,0.1,1.4c-3.1,0.9-5.4,3.8-5.4,7.1c0,1,0.2,1.9,0.6,2.8c-1.2,1.3-1.9,3.1-1.9,4.9c0,2.1,0.9,4,2.4,5.4
		c-0.7,1.1-1,2.4-1,3.7c0,3.5,2.5,6.4,5.8,7.2c-0.1,0.5-0.2,1.1-0.2,1.6c0,4.4,2.8,7.4,6.8,7.4c1,0,2.1-0.2,3.1-0.6
		c0.3,0.7,0.8,1.3,1.3,1.9c1.3,1.3,3,2.1,4.5,2.1c2.7,0,4.6-1.1,5.2-3.1c0.2-0.3,0.2-0.6,0.2-0.9v-0.3c0-0.2,0-0.3,0-0.5
		c0-0.1,0-0.2,0-0.2V20c5.9,0.4,11.5,3.1,15.6,7.5s6.3,10.1,6.3,16.1c0,4.3-1.2,8.5-3.4,12.1c-0.1,0.1-0.1,0.2-0.2,0.3
		c-0.8,1.5-1.9,2.9-3.1,4.3c-2.3,2.7-4.8,5.7-5.8,10.8h3.5c1-3.8,3-6.3,4.9-8.6c1.2-1.5,2.5-3,3.5-4.8c0-0.1,0.1-0.1,0.1-0.2
		c2.5-4.2,3.8-9,3.8-13.9c0-6.9-2.6-13.4-7.3-18.4C58.3,19.8,51.3,16.7,44,16.6z M41.8,68.1c-0.1,0.5-0.4,1-2.1,1
		c-0.6,0-1.5-0.4-2.1-1c-0.4-0.4-1.1-1.3-1.1-2.5c0-0.8-0.5-1.5-1.3-1.7s-1.6,0.2-1.9,1c-0.2,0.5-1.4,0.9-2.6,0.9
		c-2.5,0-3.4-2.1-3.4-4c0-0.6,0.2-1.3,0.5-1.8c0.6-0.7,2.3-1.9,4.5-2c0.9,0,1.7-0.8,1.6-1.8c0-0.9-0.8-1.7-1.8-1.6
		c-2.3,0.1-4.7,1.1-6.2,2.5c-2.3,0-4.2-1.8-4.2-4c0-1,0.4-1.9,1.1-2.7c0.7-0.6,1.4-1.1,3.9-1.1c0.9,0,1.7-0.8,1.7-1.7
		s-0.8-1.7-1.7-1.7c-2.5,0-4,0.5-5,1.1c-0.9-0.7-1.4-1.8-1.4-2.9c0-0.8,0.3-1.6,0.8-2.3c1,0.7,2.3,1.1,3.4,1.1h0.1
		c0.9,0,1.7-0.8,1.7-1.8c0-0.9-0.8-1.7-1.7-1.7l0,0c-0.9,0-2-0.7-2.4-1.4c-0.3-0.6-0.5-1.2-0.5-1.8c0-2,1.6-3.7,3.7-3.9
		c1.1,1.2,2.8,2.2,5.1,2.8c0.1,0,0.3,0.1,0.4,0.1c0.8,0,1.5-0.5,1.7-1.3c0.2-0.9-0.3-1.8-1.2-2.1c-2.9-0.7-4-2.4-4.2-2.8
		c-0.1-0.4-0.2-0.8-0.2-1.2c0-1.3,0.7-2.7,1.8-3.4c0.9-0.6,2-0.6,3.2-0.1c0.7,0.3,1.8,0.3,2.6-0.2c0.7-0.4,1.1-1.1,1.1-1.9
		c0-0.6,0.1-2.2,3.3-2.2h2.8C41.8,20,41.8,68.1,41.8,68.1z"/>
	<path class="st0" d="M43.8,12.3c0.9,0,1.7-0.8,1.7-1.7V1.7c0-0.9-0.8-1.7-1.7-1.7s-1.7,0.8-1.7,1.7v8.9
		C42.1,11.5,42.9,12.3,43.8,12.3z"/>
	<path class="st0" d="M59.6,16.5c0.3,0.2,0.6,0.2,0.9,0.2c0.6,0,1.2-0.3,1.5-0.9l4.4-7.7c0.5-0.8,0.2-1.9-0.6-2.3
		c-0.8-0.5-1.9-0.2-2.3,0.6L59,14.2C58.5,15,58.8,16.1,59.6,16.5z"/>
	<path class="st0" d="M72.6,29.1c0.3,0,0.6-0.1,0.9-0.2l7.7-4.4c0.8-0.5,1.1-1.5,0.6-2.3s-1.5-1.1-2.3-0.6L71.8,26
		c-0.8,0.5-1.1,1.5-0.6,2.3C71.5,28.8,72.1,29.1,72.6,29.1z"/>
	<path class="st0" d="M86,42.3h-8.9c-0.9,0-1.7,0.8-1.7,1.7s0.8,1.7,1.7,1.7H86c0.9,0,1.7-0.8,1.7-1.7S86.9,42.3,86,42.3z"/>
	<path class="st0" d="M81.2,63.6l-7.7-4.4c-0.8-0.5-1.9-0.2-2.3,0.6c-0.5,0.8-0.2,1.9,0.6,2.3l7.7,4.4c0.3,0.2,0.6,0.2,0.9,0.2
		c0.6,0,1.2-0.3,1.5-0.9C82.3,65.1,82,64.1,81.2,63.6z"/>
	<path class="st0" d="M25.7,15.9c0.3,0.5,0.9,0.9,1.5,0.9c0.3,0,0.6-0.1,0.9-0.2c0.8-0.5,1.1-1.5,0.6-2.3l-4.4-7.7
		C23.8,5.8,22.8,5.5,22,6s-1.1,1.5-0.6,2.3L25.7,15.9z"/>
	<path class="st0" d="M6.5,24.4l7.7,4.4c0.3,0.2,0.6,0.2,0.9,0.2c0.6,0,1.2-0.3,1.5-0.9c0.5-0.8,0.2-1.9-0.6-2.3l-7.7-4.4
		C7.5,20.9,6.4,21.2,6,22C5.4,22.9,5.7,23.9,6.5,24.4z"/>
	<path class="st0" d="M12.3,44c0-0.9-0.8-1.7-1.7-1.7H1.7C0.8,42.3,0,43.1,0,44s0.8,1.7,1.7,1.7h8.9C11.5,45.7,12.3,44.9,12.3,44z"
		/>
	<path class="st0" d="M14.2,59.1l-7.7,4.4C5.7,64,5.4,65,5.9,65.8c0.3,0.5,0.9,0.9,1.5,0.9c0.3,0,0.6-0.1,0.9-0.2l7.7-4.4
		c0.8-0.5,1.1-1.5,0.6-2.3C16.1,59,15,58.7,14.2,59.1z"/>
</g>
</svg>
