<?xml version="1.0" encoding="utf-8"?>
<!-- Generator: Adobe Illustrator 23.1.0, SVG Export Plug-In . SVG Version: 6.00 Build 0)  -->
<svg version="1.1" id="Layer_1" xmlns="http://www.w3.org/2000/svg" xmlns:xlink="http://www.w3.org/1999/xlink" x="0px" y="0px"
	 viewBox="0 0 99.2 103.4" style="enable-background:new 0 0 99.2 103.4;" xml:space="preserve">
<style type="text/css">
	.st0{fill:#2A245F;}
</style>
<g>
	<path class="st0" d="M99,36.7l-22.8-33c-0.2-0.3-0.6-0.6-1-0.6L35.1,0c-0.5,0-1.1,0.2-1.3,0.7c-0.3,0.5-0.2,1,0.1,1.5l8.4,12.1
		c0,0-0.1,0.1-0.1,0.1l-8.6,15c-0.1,0.2-0.2,0.3-0.2,0.5c-0.1,0.5-1.2,11.2,15,20.5c6.8,3.9,12.3,5,16.4,5c5.7,0,8.7-2.2,8.9-2.4
		c0.1-0.1,0.3-0.3,0.4-0.4l8.7-15l2.7,0.2v25c0,0.8,0.6,1.4,1.4,1.4s1.4-0.6,1.4-1.4V38.2l9.4,0.7c0,0,0.1,0,0.1,0
		c0.5,0,1-0.3,1.2-0.7C99.3,37.7,99.3,37.1,99,36.7z M71.8,51c-1.3,0.8-8.7,4.6-22-3C36.5,40.4,36,32.1,36.1,30.5L44,16.8l12.6,18.2
		c0.2,0.3,0.6,0.6,1,0.6l22.1,1.8L71.8,51z M87.4,35.3L75.7,19.1c-0.5-0.6-1.3-0.8-2-0.3c-0.6,0.5-0.8,1.3-0.3,2L83.8,35l-0.9-0.1
		c0,0,0,0,0,0c-0.4-0.2-0.8-0.2-1.2-0.1l-23.1-1.9L37.9,3l36.4,2.8l20.8,30L87.4,35.3z"/>
	<path class="st0" d="M70.9,60.5c-0.8,0.1-1.3,0.9-1.1,1.6c0.3,1.6,0.3,3,0.3,4.8c0,3.3-0.5,6.4-1.3,9.4H56.8c0.6-3,0.9-6.2,0.9-9.6
		c0-3.1-0.2-5.6-0.6-8c-0.1-0.8-0.9-1.3-1.6-1.1c-0.8,0.1-1.3,0.9-1.1,1.6c0.4,2.2,0.6,4.5,0.6,7.5c0,3.4-0.4,6.6-1,9.6H38v-19h2.9
		c0.8,0,1.4-0.6,1.4-1.4s-0.6-1.4-1.4-1.4H38v-3.1c0-0.8-0.6-1.4-1.4-1.4s-1.4,0.6-1.4,1.4v3.1H19.9c1.5-5.3,3.9-10.1,7.2-14.1
		c0.5-0.6,0.4-1.5-0.2-2c-0.6-0.5-1.5-0.4-2,0.2c-3.7,4.5-6.4,9.9-7.9,15.8H5.2C8.8,45.3,16.5,38,26.5,34.8c0.7-0.2,1.1-1,0.9-1.8
		c-0.2-0.7-1-1.2-1.8-0.9C10.3,36.9,0,50.9,0,67c0,20.1,16.3,36.4,36.4,36.4S72.8,87.1,72.8,67c0-1.9,0-3.5-0.3-5.3
		C72.4,60.9,71.7,60.4,70.9,60.5z M53.3,79.2c-3,10.8-9.7,18-15.3,20.6V79.2H53.3z M35.2,99.8c-5.6-2.7-12.3-9.8-15.3-20.6h15.3
		V99.8z M35.2,57.4v19h-16c-0.6-3-1-6.1-1-9.6c0-3.2,0.3-6.4,0.9-9.4H35.2z M16.3,57.4c-0.6,3-0.9,6.2-0.9,9.4
		c0,3.4,0.3,6.6,0.9,9.6H4.1c-0.9-3-1.3-6.1-1.3-9.4c0-3.3,0.5-6.5,1.4-9.6H16.3z M5.1,79.2H17c2.4,9.4,7.5,16.7,13.1,20.8
		C18.6,97.8,9.2,89.8,5.1,79.2z M43.2,99.9c5.6-4.1,10.6-11.4,13-20.7h11.6C63.6,89.6,54.4,97.6,43.2,99.9z"/>
</g>
</svg>
