<?xml version="1.0" encoding="utf-8"?>
<!-- Generator: Adobe Illustrator 24.0.2, SVG Export Plug-In . SVG Version: 6.00 Build 0)  -->
<svg version="1.1" id="Layer_1" xmlns="http://www.w3.org/2000/svg" xmlns:xlink="http://www.w3.org/1999/xlink" x="0px" y="0px"
	 viewBox="0 0 139 112.7" style="enable-background:new 0 0 139 112.7;" xml:space="preserve">
<style type="text/css">
	.st0{fill:#2B215F;}
</style>
<g>
	<path class="st0" d="M123,86c-1.1,0-2-0.9-2-2V27.7h-12.1c-1.1,0-2-0.9-2-2c0-1.1,0.9-2,2-2H123c1.1,0,2,0.9,2,2V84
		C125,85.1,124.1,86,123,86z"/>
	<path class="st0" d="M16.1,86c-1.1,0-2-0.9-2-2V25.7c0-1.1,0.9-2,2-2h21.1c1.1,0,2,0.9,2,2c0,1.1-0.9,2-2,2H18.1V84
		C18.1,85.1,17.2,86,16.1,86z"/>
	<path class="st0" d="M127.1,112.7H11.9C4.6,112.7,0,100.7,0,94.5c0-1.1,0.9-2,2-2h47.5c0.6,0,1.2,0.3,1.6,0.8l2.2,3.1h32.4l2.2-3.1
		c0.4-0.5,1-0.8,1.6-0.8H137c1.1,0,2,0.9,2,2C139,100.7,134.4,112.7,127.1,112.7z M4.1,96.5c0.8,5.5,4.4,12.2,7.8,12.2h115.2
		c3.3,0,7-6.7,7.8-12.2H90.6l-2.2,3.1c-0.4,0.5-1,0.8-1.6,0.8H52.3c-0.6,0-1.2-0.3-1.6-0.8l-2.2-3.1H4.1z"/>
	<path class="st0" d="M103.1,9.4c0-1.1-0.9-2-2-2c-1.1,0-2,0.9-2,2v55.7c0,0.2,0,0.3,0.1,0.5c0,0.2-0.1,0.3-0.1,0.5
		c0,3.2-1.2,4.4-4.4,4.4H56.4c-8.6,0-9-3.7-9-5.6c0.2-0.8,1.8-4.5,9-4.5h31c3.9,0,7-3.1,7-7V37.7v-6.3V7c0-3.9-3.1-7-7-7H50.4
		c-3.9,0-7,3.1-7,7v57.6c0,4.5,2.3,9.9,13,9.9h38.3c5.3,0,8.4-3.1,8.4-8.4c0-0.2,0-0.3-0.1-0.5c0-0.2,0.1-0.3,0.1-0.5V9.4z M47.4,7
		c0-1.7,1.3-3,3-3h37.1c1.7,0,3,1.3,3,3v24.4v6.3v15.7c0,1.7-1.3,3-3,3h-31c-4.2,0-7.1,1-9,2.4V7z"/>
	<path class="st0" d="M58.7,17.8h18.5c1.1,0,2-0.9,2-2c0-1.1-0.9-2-2-2H58.7c-1.1,0-2,0.9-2,2C56.7,16.9,57.6,17.8,58.7,17.8z"/>
	<path class="st0" d="M58.7,27.9h18.5c1.1,0,2-0.9,2-2c0-1.1-0.9-2-2-2H58.7c-1.1,0-2,0.9-2,2C56.7,27,57.6,27.9,58.7,27.9z"/>
</g>
</svg>
