<?xml version="1.0" encoding="utf-8"?>
<!-- Generator: Adobe Illustrator 23.1.0, SVG Export Plug-In . SVG Version: 6.00 Build 0)  -->
<svg version="1.1" id="Layer_1" xmlns="http://www.w3.org/2000/svg" xmlns:xlink="http://www.w3.org/1999/xlink" x="0px" y="0px"
	 viewBox="0 0 98.2 98.2" style="enable-background:new 0 0 98.2 98.2;" xml:space="preserve">
<style type="text/css">
	.st0{fill:#2B215F;}
</style>
<g>
	<path class="st0" d="M92.3,51.5c-0.8,0-1.6,0.2-2.4,0.5c-0.2-3.3-3.1-5.6-5.9-5.6c-0.8,0-1.7,0.2-2.5,0.6c-0.5-2.8-2.9-4.9-5.8-4.9
		c-0.8,0-1.6,0.2-2.4,0.5v-5.9c0-3.5-3-5.9-5.9-5.9c-1.5,0-3.1,0.6-4.2,1.8c-1.1,1.1-1.7,2.6-1.7,4.1v16.7c-0.4-0.3-0.9-0.6-1.4-0.9
		c-1.5-0.7-3.2-0.7-4.6,0.2c-1.4,0.9-2.2,2.4-2.2,4v17c0,4.7,6,10.8,6.7,11.5c0.4,0.4,0.9,0.9,1.4,1.3c1.4,1.2,2.7,2.3,3.2,3.9h-3.5
		c-1,0-1.8,0.8-1.8,1.8v4.1c0,1,0.8,1.8,1.8,1.8s1.8-0.8,1.8-1.8v-2.4h29.4v2.4c0,1,0.8,1.8,1.8,1.8s1.8-0.8,1.8-1.8v-4.1
		c0-1-0.8-1.8-1.8-1.8H92v-0.3c0-1.6,0.6-2.4,1.8-3.9c0.7-0.8,1.5-1.9,2.3-3.3c1.4-2.2,2.1-4.9,2.1-7.7v-3.6V57.2
		C98.2,53.8,95.2,51.5,92.3,51.5z M94.7,75.4c0,2.1-0.5,4.2-1.6,5.9c-0.7,1.2-1.5,2.1-2.1,2.9c-1.4,1.7-2.5,3.2-2.5,6.1v0.3h-20
		c-0.6-3.1-2.9-5.1-4.6-6.6c-0.5-0.4-0.9-0.8-1.3-1.2l0,0c-2.2-2.2-5.7-6.6-5.7-9.1v-17c0-0.6,0.4-0.9,0.6-1
		c0.2-0.1,0.7-0.3,1.2-0.1c2,1,2.9,2.9,2.9,5.6l0,0v4.3c0,1,0.8,1.8,1.8,1.8s1.8-0.8,1.8-1.8V36.7c0-0.8,0.4-1.3,0.7-1.6
		c0.5-0.5,1.1-0.7,1.7-0.7c1.1,0,2.4,1,2.4,2.4V48v9.3c0,1,0.8,1.8,1.8,1.8s1.8-0.8,1.8-1.8V48c0-0.8,0.4-1.3,0.7-1.6
		c0.5-0.5,1.1-0.7,1.7-0.7c1.1,0,2.4,1,2.4,2.4v4.3l0,0l0,0v7.1c0,1,0.8,1.8,1.8,1.8s1.8-0.8,1.8-1.8v-7.1c0-0.8,0.4-1.3,0.7-1.6
		c0.5-0.5,1.1-0.7,1.7-0.7c1.1,0,2.4,1,2.4,2.4v10.3c0,1,0.8,1.8,1.7,1.8l0,0c1,0,1.7-0.8,1.8-1.7v-5.2v-0.1c0-0.8,0.4-1.3,0.7-1.6
		c0.5-0.5,1.1-0.7,1.7-0.7c1.1,0,2.4,1,2.4,2.4v14.4L94.7,75.4z"/>
	<path class="st0" d="M90.3,0H7.9C3.6,0,0,3.6,0,7.9v63.8c0,3.2,2.6,5.9,5.9,5.9H45c1,0,1.8-0.8,1.8-1.8S46,74.1,45,74.1H5.9
		c-1.3,0-2.4-1.1-2.4-2.4V7.9c0-2.4,2-4.4,4.4-4.4h82.4c2.4,0,4.4,2,4.4,4.4V45c0,1,0.8,1.8,1.8,1.8s1.8-0.8,1.8-1.8V7.9
		C98.2,3.6,94.7,0,90.3,0z"/>
	<path class="st0" d="M86.2,42.6c1,0,1.8-0.8,1.8-1.8V12c0-2.1-1.7-3.8-3.8-3.8h-68c-2.1,0-3.8,1.7-3.8,3.8v51.5
		c0,3.2,2.6,5.9,5.9,5.9H45c1,0,1.8-0.8,1.8-1.8S46,65.9,45,65.9H18.2c-1.3,0-2.4-1.1-2.4-2.4V12c0-0.2,0.1-0.3,0.3-0.3H84
		c0.2,0,0.3,0.1,0.3,0.3v28.8C84.4,41.8,85.2,42.6,86.2,42.6z"/>
	<path class="st0" d="M6.2,36.8v4.1c0,1,0.8,1.8,1.8,1.8s1.8-0.8,1.8-1.8v-4.1C9.8,35.8,9,35,8,35S6.2,35.8,6.2,36.8z"/>
</g>
</svg>
