<?xml version="1.0" encoding="utf-8"?>
<!-- Generator: Adobe Illustrator 23.1.0, SVG Export Plug-In . SVG Version: 6.00 Build 0)  -->
<svg version="1.1" id="Layer_1" xmlns="http://www.w3.org/2000/svg" xmlns:xlink="http://www.w3.org/1999/xlink" x="0px" y="0px"
	 viewBox="0 0 82.6 98.5" style="enable-background:new 0 0 82.6 98.5;" xml:space="preserve">
<style type="text/css">
	.st0{fill:#2A245F;}
</style>
<g>
	<path class="st0" d="M50.4,90.7h-3.3C46.4,93.2,44,95,41.3,95s-5.1-1.8-5.8-4.3h-3.3c-0.1,0-0.2,0-0.3,0c0.8,4.4,4.7,7.8,9.3,7.8
		c4.7,0,8.5-3.4,9.3-7.8C50.6,90.7,50.5,90.7,50.4,90.7z"/>
	<path class="st0" d="M82.6,40.7c0,0.5-0.2,0.9-0.6,1.2c-2.8,1.9-5.9,3.5-9,4.7l-1,0.3l0.8,0.7c2.5,2.2,4.8,4.7,6.8,7.6
		c0.3,0.4,0.3,0.9,0.2,1.4c-0.2,0.5-0.6,0.8-1,0.9c-2.9,0.6-5.8,0.9-8.6,0.9c-0.5,0-1,0-1.4,0l-1.2-0.1l0.6-1.1
		c0.3-0.5,0.5-0.9,0.8-1.4l0.2-0.4h0.5c2.1,0,4.2-0.1,6.4-0.4c-1.3-1.7-2.8-3.3-4.4-4.7L71.1,50l0.1-0.4c0.1-0.5,0.3-1,0.4-1.5
		l0.3-1.2l0.1-1c0.1-0.6,0.1-1.1,0.2-1.5v-0.5l0.4-0.2c2-0.8,3.9-1.7,5.8-2.9c-1.9-1.1-3.9-2-5.9-2.7l-0.4-0.2L72,37.4
		c-0.1-0.6-0.2-1.1-0.2-1.6l-0.2-1.2l0,0l-0.2-0.9c-0.1-0.5-0.3-1-0.4-1.5l-0.1-0.4l0.3-0.3c1.6-1.5,3-3.2,4.3-4.9
		c-2.2-0.3-4.5-0.3-6.6-0.2h-0.5L68.1,26c-0.3-0.5-0.5-0.9-0.8-1.3l-0.6-0.9L66.1,23c-0.3-0.4-0.6-0.8-1-1.2l-0.3-0.3L65,21
		c0.9-2,1.6-4.1,2.2-6.3c-2.2,0.6-4.3,1.4-6.3,2.4l-0.4,0.2L60.1,17c-0.4-0.3-0.9-0.6-1.3-0.9l-0.6-0.4l-1-0.7
		c-0.4-0.3-0.9-0.5-1.4-0.8L55.4,14v-0.5c0.1-2.2-0.1-4.5-0.4-6.7c-1.8,1.4-3.4,3-4.9,4.6l-0.3,0.3l-0.4-0.1c-0.5-0.1-1-0.3-1.5-0.4
		L46.7,11l-0.8-0.1c-0.5-0.1-1-0.1-1.6-0.2h-0.5l-0.2-0.4c-0.7-1.7-1.5-3.5-2.4-5.1c-0.2-0.3-0.4-0.6-0.6-1c-1.1,2-2.1,4-2.8,6.1
		l-0.2,0.4l-0.4,0.1c-0.5,0.1-1.1,0.1-1.6,0.2l-1.1,0.2l-0.8,0.2c-0.5,0.1-1,0.3-1.5,0.4L32,12l-0.3-0.3c-1.5-1.6-3.2-3.1-5-4.4
		c-0.3,2.2-0.3,4.5-0.2,6.7v0.5L26,14.6c-0.5,0.3-0.9,0.5-1.3,0.8L24,15.9l-1,0.7c-0.4,0.3-0.8,0.6-1.2,1l-0.4,0.3L21,17.6
		c-2-0.9-4.1-1.6-6.3-2.2c0.6,2.2,1.4,4.3,2.3,6.2l0.2,0.4l-0.3,0.4c-0.3,0.4-0.6,0.8-0.9,1.3l-0.6,0.9l-0.5,0.8
		c-0.3,0.4-0.5,0.9-0.8,1.4l-0.2,0.4h-0.4c-2.2-0.1-4.4,0.1-6.6,0.4c1.4,1.7,2.9,3.4,4.5,4.8l0.3,0.3l-0.1,0.4
		c-0.1,0.5-0.3,1-0.4,1.5L11,35.7l-0.2,1.1c-0.1,0.5-0.1,1-0.2,1.6v0.4L10,39c-2,0.8-4,1.7-5.8,2.9c1.9,1.1,3.9,2,5.9,2.7l0.4,0.2
		l0.1,0.5c0.1,0.5,0.1,1,0.2,1.5l0.2,1.1l0.3,1.1c0.1,0.5,0.3,1,0.4,1.5l0.1,0.4l-0.3,0.3c-1.5,1.5-2.9,3.1-4.2,4.9
		c2.1,0.3,4.3,0.3,6.4,0.2h0.5l0.2,0.4c0.1,0.2,0.3,0.4,0.4,0.7l0.1,0.2c0.1,0.2,0.2,0.3,0.3,0.5l0.6,1l-1.2,0.1
		c-0.9,0.1-1.7,0.1-2.6,0.1c-2.5,0-5-0.2-7.4-0.7c-0.2,0-0.4-0.1-0.5-0.2c-0.2-0.2-0.4-0.4-0.5-0.6c-0.2-0.5-0.1-1,0.1-1.4
		c1.4-2.1,2.9-4,4.5-5.8c0.6-0.7,1.3-1.4,2-2l0.7-0.7L10,47.6c-3.2-1.1-6.3-2.5-9.2-4.4c-0.1,0-0.1-0.1-0.1-0.1L0.6,43
		c-0.2-0.3-0.4-0.6-0.4-1c0-0.5,0.2-0.9,0.6-1.2c2.9-2,5.9-3.5,9.1-4.7l0.9-0.3l-0.7-0.6c-2.5-2.2-4.8-4.8-6.8-7.6
		C3,27.2,3,26.7,3.1,26.2c0.2-0.4,0.6-0.8,1-0.9c3.5-0.7,6.9-1,10.3-0.9h0.8l-0.4-0.7c-1.5-3-2.7-6.3-3.4-9.8c-0.1-0.5,0-1,0.4-1.3
		c0.3-0.3,0.8-0.5,1.3-0.4c3.5,0.7,6.8,1.7,9.9,3.2l0.7,0.3l-0.1-0.8c-0.3-3.4-0.1-6.9,0.5-10.4c0.1-0.5,0.4-0.9,0.8-1.1
		c0.5-0.2,1-0.1,1.4,0.1c3,1.9,5.7,4.2,8,6.7l0.5,0.5L35,10c1.1-3.3,2.6-6.4,4.5-9.4C39.8,0.3,40.2,0,40.7,0c0.2,0,0.4,0.1,0.6,0.1
		c0.2,0.1,0.3,0.2,0.5,0.3l0,0l0.1,0.1c2,3,3.6,6.1,4.8,9.3l0.2,0.7l0.5-0.6C48,9.4,48.7,8.7,49.3,8c1.8-1.8,3.7-3.4,5.9-4.9
		c0.4-0.3,0.9-0.3,1.4-0.2C56.8,3,57,3.1,57.1,3.3l0.1,0.1c0.2,0.2,0.3,0.4,0.3,0.6c0.7,3.5,1,7,0.9,10.4v0.7l0.7-0.3
		c2.2-1.1,4.5-2,6.9-2.7c1-0.3,1.9-0.5,2.9-0.7c0.5-0.1,1,0,1.3,0.4c0.3,0.3,0.5,0.8,0.4,1.3c-0.7,3.5-1.7,6.8-3.2,9.9L67,23.6
		l0.8-0.1c3.4-0.3,6.9-0.1,10.3,0.6c0.5,0.1,0.9,0.4,1.1,0.8c0.2,0.5,0.1,1-0.1,1.4c-1.9,2.9-4.1,5.6-6.6,7.9l-0.7,0.6l0.9,0.3
		c3.2,1.1,6.3,2.6,9.2,4.5C82.4,39.8,82.6,40.2,82.6,40.7z"/>
	<path class="st0" d="M61.3,23.5c-5.2-5.5-12.4-8.7-20-8.7c-6.7,0-13.2,2.5-18.2,6.9c-0.7,0.6-1.3,1.2-1.9,1.9
		C16.5,28.7,14,35.3,14,42.1c0,2.3,0.3,4.6,0.9,6.9c0.7,2.6,1.7,5,3,7.3c0,0,0,0,0,0.1c1,1.8,2.2,3.4,3.5,4.9c2,2.4,4,4.8,5,8.7H30
		c-1.1-5.1-3.6-8.1-5.9-10.9c-1.2-1.5-2.3-2.8-3.1-4.4c0-0.1-0.1-0.2-0.2-0.3c-1.2-1.9-2-4-2.6-6.2c-0.5-1.9-0.8-4-0.8-6
		c0-6,2.2-11.7,6.3-16.2c0.5-0.6,1.1-1.1,1.7-1.6c4.4-3.9,10-6.1,15.9-6.1c6.6,0,13,2.8,17.5,7.6c4.1,4.4,6.4,10.2,6.4,16.3
		c0,4.3-1.2,8.6-3.4,12.2c-0.1,0.1-0.1,0.2-0.2,0.3c-0.8,1.5-1.9,2.9-3.1,4.3c-2.3,2.7-4.8,5.8-5.9,10.9h3.6c1-3.9,3-6.3,5-8.7
		c1.2-1.5,2.5-3,3.5-4.9c0-0.1,0.1-0.1,0.1-0.2c2.5-4.2,3.9-9.1,3.9-14C68.6,35.2,66,28.6,61.3,23.5z"/>
	<path class="st0" d="M52.1,73.9H30.5H27c0,0.2,0,0.4,0,0.6v0.1c0,0.2,0,0.3,0,0.5v0.6v9.9c0,2.9,2.3,5.2,5.2,5.2h18.1
		c2.9,0,5.2-2.3,5.2-5.2v-9.9c0,0,0-1.2,0.1-1.8C55.6,73.9,52.1,73.9,52.1,73.9z M30.5,77.3h21.6v3.1H30.5V77.3z M50.4,87.2H32.3
		c-1,0-1.7-0.8-1.7-1.7v-1.6h21.6v1.6C52.1,86.5,51.3,87.2,50.4,87.2z"/>
	<path class="st0" d="M24.4,36.3c-0.2,0-0.5-0.1-0.7-0.2c-0.9-0.4-1.2-1.4-0.8-2.3c2.3-4.9,6.3-8.8,11.3-10.9c0.9-0.4,1.9,0,2.3,0.9
		c0.4,0.9,0,1.9-0.9,2.3c-4.2,1.8-7.6,5.1-9.6,9.3C25.6,35.9,25,36.3,24.4,36.3z"/>
	<path class="st0" d="M39.6,56.9v13H43v-13l6.5-6.5c0.7-0.7,0.7-1.8,0-2.4c-0.7-0.7-1.8-0.7-2.4,0l-5.8,5.8L35.6,48
		c-0.7-0.7-1.8-0.7-2.4,0c-0.7,0.7-0.7,1.8,0,2.4L39.6,56.9z"/>
</g>
</svg>
