<?xml version="1.0" encoding="utf-8"?>
<!-- Generator: Adobe Illustrator 24.0.2, SVG Export Plug-In . SVG Version: 6.00 Build 0)  -->
<svg version="1.1" id="Layer_1" xmlns="http://www.w3.org/2000/svg" xmlns:xlink="http://www.w3.org/1999/xlink" x="0px" y="0px"
	 viewBox="0 0 256 256" style="enable-background:new 0 0 256 256;" xml:space="preserve">
<style type="text/css">
	.st0{fill:none;stroke:#2B215F;stroke-width:10;stroke-linecap:round;stroke-linejoin:round;stroke-miterlimit:10;}
	
		.st1{fill-rule:evenodd;clip-rule:evenodd;fill:none;stroke:#2B215F;stroke-width:10;stroke-linecap:round;stroke-linejoin:round;stroke-miterlimit:10;}
</style>
<g>
	<g>
		<ellipse class="st0" cx="56.6" cy="31.7" rx="21.4" ry="26.7"/>
		<line class="st0" x1="26.4" y1="144" x2="26.4" y2="251"/>
		<line class="st0" x1="58.5" y1="251" x2="58.5" y2="170.8"/>
		<path class="st0" d="M42.4,74.5h-5.3C19.4,74.5,5,88.9,5,106.6v10.7c0,11.8,9.6,21.4,21.4,21.4h18.7c7.4,0,13.4-6,13.4-13.4l0,0
			c0-7.4-6-13.4-13.4-13.4H31.7"/>
		<path class="st0" d="M74.5,74.5H78c9.4,0,14,3.8,17.1,6.1l17.8,11.5c2.9,1.9,6.5,2.2,9.7,1l10-3.9c7.9-3,14.1,1,16.7,7.1
			c2.8,6.7-1.1,14.1-7.3,16.9l-18,8.2c-4.3,1.8-9.2,1.6-13.3-0.5l-20-10.1V251"/>
	</g>
	<path class="st1" d="M154.7,218.9c0-17.4-9.7-26.7-14.5-36.4c0,0,0,0,0,0c0,0,0,0,0,0c-4-7-6.2-13.7-6.2-24.2
		c0-14,4.9-22.5,12.5-30.6c8.4-8.9,19.7-14.9,32.8-14.8c13.1-0.2,24.4,5.9,32.8,14.8c7.6,8.1,12.5,16.6,12.5,30.6
		c0,10.5-2.2,17.2-6.2,24.2c0,0,0,0,0,0c0,0,0,0,0,0c-4.7,9.7-15.6,19-15.6,36.4"/>
	<path class="st0" d="M202.9,218.9v10.7c0,11.8-9.6,21.4-21.4,21.4h-5.3c-11.8,0-21.4-9.6-21.4-21.4v-10.7H202.9"/>
	<line class="st0" x1="179.4" y1="97.1" x2="179.4" y2="86.4"/>
	<line class="st0" x1="209.8" y1="105" x2="214.2" y2="97.1"/>
	<line class="st0" x1="232.3" y1="127.2" x2="240" y2="122.6"/>
	<line class="st0" x1="240.5" y1="158.2" x2="251" y2="158.2"/>
	<line class="st0" x1="106.8" y1="158.2" x2="117.3" y2="158.2"/>
	<line class="st0" x1="233" y1="188.9" x2="240.8" y2="193.4"/>
	<line class="st0" x1="125.8" y1="188.9" x2="117.9" y2="193.4"/>
</g>
</svg>
