<?xml version="1.0" encoding="utf-8"?>
<!-- Generator: Adobe Illustrator 23.1.0, SVG Export Plug-In . SVG Version: 6.00 Build 0)  -->
<svg version="1.1" id="Layer_1" xmlns="http://www.w3.org/2000/svg" xmlns:xlink="http://www.w3.org/1999/xlink" x="0px" y="0px"
	 viewBox="0 0 98.3 98.3" style="enable-background:new 0 0 98.3 98.3;" xml:space="preserve">
<style type="text/css">
	.st0{fill:#2A245F;}
</style>
<g>
	<path class="st0" d="M93.8,0H63.3c-1.6,0-2.8,0.5-3.7,1.7L45.2,15.8c-1.6,1.6-1.6,3.1-1.6,4v7.7c0,0.8,0.6,1.4,1.4,1.4
		c0.8,0,1.4-0.6,1.4-1.4v-7.7c0-0.9,0-1.3,0.7-2.1L61.7,3.4c0.4-0.5,0.9-0.7,1.6-0.7h30.5c0.9,0,1.7,0.8,1.7,1.7V69
		c0,0.9-0.8,1.7-1.7,1.7H48.1c-0.9,0-1.7-0.8-1.7-1.7V55.1c0-0.8-0.6-1.4-1.4-1.4c-0.8,0-1.4,0.6-1.4,1.4V69c0,2.4,2.1,4.5,4.5,4.5
		h45.7c2.4,0,4.5-2.1,4.5-4.5V4.5C98.3,2.1,96.2,0,93.8,0z"/>
	<path class="st0" d="M61.6,6.2c-0.8,0-1.4,0.6-1.4,1.4v9.1h-8.9c-0.8,0-1.4,0.6-1.4,1.4c0,0.8,0.6,1.4,1.4,1.4h10.3
		c0.8,0,1.4-0.6,1.4-1.4V7.6C63,6.8,62.4,6.2,61.6,6.2z"/>
	<path class="st0" d="M21.5,23.5c5.3,0,9.7-5.2,9.7-11.7C31.2,5.4,26.8,0,21.5,0c-5.3,0-9.7,5.2-9.7,11.7
		C11.8,18.2,16.2,23.5,21.5,23.5z M21.5,2.8c3.8,0,6.9,4,6.9,8.9c0,4.9-3.1,8.9-6.9,8.9s-6.9-4-6.9-8.9C14.6,6.8,17.7,2.8,21.5,2.8z
		"/>
	<path class="st0" d="M9.7,41.6c-0.8,0-1.4,0.6-1.4,1.4v53.9c0,0.8,0.6,1.4,1.4,1.4c0.8,0,1.4-0.6,1.4-1.4V43
		C11.1,42.2,10.5,41.6,9.7,41.6z"/>
	<path class="st0" d="M22.2,66.5c-0.8,0-1.4,0.6-1.4,1.4v29c0,0.8,0.6,1.4,1.4,1.4c0.8,0,1.4-0.6,1.4-1.4v-29
		C23.6,67.2,22.9,66.5,22.2,66.5z"/>
	<path class="st0" d="M15.9,27h-2C6.2,27,0,33.2,0,40.9v18.8c0,0.8,0.6,1.4,1.4,1.4c0.8,0,1.4-0.6,1.4-1.4V40.8
		c0-6.1,5-11.1,11.1-11.1h2c0.8,0,1.4-0.6,1.4-1.4C17.3,27.5,16.7,27,15.9,27z"/>
	<path class="st0" d="M46.2,48.7c0.2,0,0.2,0,0.3-0.1l7-2.9c4.4-2,5.9-7.2,5.4-11.5c-0.1-1.1-0.6-1.9-1.6-2.5
		c-0.6-0.4-1.2-0.6-1.9-0.6c-0.4,0-0.9,0.1-1.3,0.3l-8.8,3.5l-8.1-5.2c0,0-0.1-0.1-0.2-0.1c-1-0.9-3.2-2.6-7.5-2.6h-1.3
		c-0.8,0-1.4,0.6-1.4,1.4c0,0.8,0.6,1.4,1.4,1.4h1.3c3.3,0,4.7,1.2,5.8,2c0.1,0.1,0.1,0.1,0.2,0.1c0,0,0.1,0,0.1,0.1l8.7,5.6
		c0.2,0.1,0.4,0.2,0.7,0.2c0.2,0,0.3,0,0.6-0.1l9.5-3.7c0.1,0,0.2-0.1,0.3-0.1c0.1,0,0.3,0,0.4,0.1c0.1,0.1,0.3,0.3,0.3,0.5
		c0.3,3.2-0.8,7.3-3.8,8.7l-6.9,2.8c-0.1,0-0.2,0-0.3,0c-0.2,0-0.4-0.1-0.6-0.1l-9.5-4.7c0,0-0.1,0-0.1,0c0-0.1-0.1-0.1-0.2-0.1
		h-0.4c-0.1,0-0.2,0-0.4,0.1c-0.1,0-0.1,0.1-0.1,0.1c-0.1,0-0.2,0.1-0.2,0.1c-0.1,0-0.1,0-0.1,0.1l-0.3,0.3c0,0,0,0.1-0.1,0.2
		c-0.1,0-0.1,0.1-0.1,0.2v54.6c0,0.8,0.6,1.4,1.4,1.4c0.8,0,1.4-0.6,1.4-1.4V44.7l7.6,3.8l0,0c0.5,0.2,1.1,0.3,1.6,0.3
		C45.5,48.8,45.8,48.8,46.2,48.7z"/>
	<path class="st0" d="M88.6,33.3h-2c-0.8,0-1.4,0.6-1.4,1.4c0,0.8,0.6,1.4,1.4,1.4h2c0.8,0,1.4-0.6,1.4-1.4
		C90,33.9,89.3,33.3,88.6,33.3z"/>
	<path class="st0" d="M64.4,34.7c0,0.8,0.6,1.4,1.4,1.4h14.6c0.8,0,1.4-0.6,1.4-1.4c0-0.8-0.6-1.4-1.4-1.4H65.8
		C65,33.3,64.4,33.9,64.4,34.7z"/>
	<path class="st0" d="M88.6,43.6h-2c-0.8,0-1.4,0.6-1.4,1.4s0.6,1.4,1.4,1.4h2c0.8,0,1.4-0.6,1.4-1.4C90,44.2,89.3,43.6,88.6,43.6z"
		/>
	<path class="st0" d="M65.8,46.4h14.6c0.8,0,1.4-0.6,1.4-1.4s-0.6-1.4-1.4-1.4H65.8c-0.8,0-1.4,0.6-1.4,1.4S65,46.4,65.8,46.4z"/>
	<path class="st0" d="M88.6,16.6H74.1c-0.8,0-1.4,0.6-1.4,1.4s0.6,1.4,1.4,1.4h14.5c0.8,0,1.4-0.6,1.4-1.4
		C90,17.2,89.3,16.6,88.6,16.6z"/>
	<path class="st0" d="M88.6,54h-2c-0.8,0-1.4,0.6-1.4,1.4c0,0.8,0.6,1.4,1.4,1.4h2c0.8,0,1.4-0.6,1.4-1.4C90,54.6,89.3,54,88.6,54z"
		/>
	<path class="st0" d="M51.9,55.4c0,0.8,0.6,1.4,1.4,1.4h27.1c0.8,0,1.4-0.6,1.4-1.4c0-0.8-0.6-1.4-1.4-1.4H53.3
		C52.5,54,51.9,54.7,51.9,55.4z"/>
</g>
</svg>
