<?xml version="1.0" encoding="utf-8"?>
<!-- Generator: Adobe Illustrator 24.0.2, SVG Export Plug-In . SVG Version: 6.00 Build 0)  -->
<svg version="1.1" id="Layer_1" xmlns="http://www.w3.org/2000/svg" xmlns:xlink="http://www.w3.org/1999/xlink" x="0px" y="0px"
	 viewBox="0 0 95.2 97" style="enable-background:new 0 0 95.2 97;" xml:space="preserve">
<style type="text/css">
	.st0{fill:#2B215F;}
</style>
<g>
	<path class="st0" d="M70.3,50.1H26c-1.1,0-2-0.9-2-2s0.9-2,2-2h44.3c1.1,0,2,0.9,2,2S71.4,50.1,70.3,50.1z"/>
	<path class="st0" d="M70.3,36.5H26c-1.1,0-2-0.9-2-2s0.9-2,2-2h44.3c1.1,0,2,0.9,2,2S71.4,36.5,70.3,36.5z"/>
	<path class="st0" d="M68.9,17H45.1v4h23.9c1.1,0,2-0.9,2-2C70.9,17.9,70,17,68.9,17z"/>
	<path class="st0" d="M14.6,54V27.2h20.3c1.1,0,2-0.9,2-2V4h44.7v50h4V2c0-1.1-0.9-2-2-2H35.8c-0.2,0-0.3,0-0.5,0.1
		c-0.7-0.1-1.4,0-1.9,0.5L11.2,23.8l0,0c0,0,0,0,0,0c-0.1,0.1-0.2,0.2-0.3,0.4c0,0,0,0.1-0.1,0.1c-0.1,0.2-0.1,0.3-0.2,0.5
		c0,0,0,0,0,0.1c0,0.1,0,0.2,0,0.3V54H14.6z M32.9,7v16.3H17.3L32.9,7z"/>
	<path class="st0" d="M81.6,77.6V93h-67V77.6h-4V95c0,1.1,0.9,2,2,2h71c1.1,0,2-0.9,2-2V77.6H81.6z"/>
	<path class="st0" d="M93.2,59H9.4c-0.4,0-0.7,0.1-1.1,0.3L0.9,64C0.4,64.4,0,65,0,65.7c0,0.7,0.3,1.3,0.9,1.7l7.4,4.9
		c0.3,0.2,0.7,0.3,1.1,0.3h83.8c1.1,0,2-0.9,2-2V61C95.2,59.9,94.3,59,93.2,59z M18,68.6h-8l-4.3-2.9L10,63h8V68.6z M76.9,68.6H22
		V63h54.9V68.6z M91.2,68.6H80.9V63h10.3V68.6z"/>
	<path class="st0" d="M70.9,86.6c-2,0-3.1-0.8-3.9-1.4c-0.6-0.4-0.8-0.6-1.5-0.6c-0.7,0-0.9,0.2-1.5,0.6c-0.7,0.6-1.9,1.4-3.9,1.4
		c-2,0-3.1-0.8-3.9-1.4c-0.6-0.4-0.8-0.6-1.5-0.6c-0.7,0-0.9,0.2-1.5,0.6c-0.7,0.6-1.9,1.4-3.9,1.4c-2,0-3.1-0.8-3.9-1.4
		c-0.6-0.4-0.8-0.6-1.5-0.6c-1.1,0-2-0.9-2-2c0-1.1,0.9-2,2-2c2,0,3.1,0.8,3.9,1.4c0.6,0.4,0.8,0.6,1.5,0.6c0.7,0,0.9-0.2,1.5-0.6
		c0.7-0.6,1.9-1.4,3.9-1.4c2,0,3.1,0.8,3.9,1.4c0.6,0.4,0.8,0.6,1.5,0.6c0.7,0,0.9-0.2,1.5-0.6c0.7-0.6,1.9-1.4,3.9-1.4
		c2,0,3.1,0.8,3.9,1.4c0.6,0.4,0.8,0.6,1.5,0.6c1.1,0,2,0.9,2,2C72.9,85.7,72,86.6,70.9,86.6z"/>
</g>
</svg>
