<?xml version="1.0" encoding="utf-8"?>
<!-- Generator: Adobe Illustrator 23.1.0, SVG Export Plug-In . SVG Version: 6.00 Build 0)  -->
<svg version="1.1" id="Layer_1" xmlns="http://www.w3.org/2000/svg" xmlns:xlink="http://www.w3.org/1999/xlink" x="0px" y="0px"
	 viewBox="0 0 100.2 96.2" style="enable-background:new 0 0 100.2 96.2;" xml:space="preserve">
<style type="text/css">
	.st0{fill:#2B215F;}
</style>
<g>
	<path class="st0" d="M16.2,74.6c5.4,0,9.6-4.9,9.6-11.1s-4.2-11.1-9.6-11.1s-9.6,4.9-9.6,11.1S10.8,74.6,16.2,74.6z M16.2,55.9
		c3.4,0,6,3.3,6,7.6s-2.6,7.6-6,7.6s-6-3.3-6-7.6S12.8,55.9,16.2,55.9z"/>
	<path class="st0" d="M21.6,78.6H11.4C5.1,78.6,0,83.5,0,89.5v4.9c0,1,0.8,1.8,1.8,1.8h29.4c1,0,1.8-0.8,1.8-1.8v-4.9
		C33,83.5,27.9,78.6,21.6,78.6z M29.4,92.7H3.6v-3.1c0-4.1,3.5-7.5,7.8-7.5h10.2c4.3,0,7.8,3.3,7.8,7.5
		C29.4,89.6,29.4,92.7,29.4,92.7z"/>
	<path class="st0" d="M73.8,63.5c0,6.2,4.2,11.1,9.6,11.1S93,69.7,93,63.5s-4.2-11.1-9.6-11.1S73.8,57.3,73.8,63.5z M83.4,55.9
		c3.4,0,6,3.3,6,7.6s-2.6,7.6-6,7.6s-6-3.3-6-7.6S80,55.9,83.4,55.9z"/>
	<path class="st0" d="M88.8,78.6H78.6c-6.3,0-11.4,4.9-11.4,11v4.9c0,1,0.8,1.8,1.8,1.8h29.4c1,0,1.8-0.8,1.8-1.8v-4.9
		C100.2,83.5,95.1,78.6,88.8,78.6z M96.6,92.7H70.8v-3.1c0-4.1,3.5-7.5,7.8-7.5h10.2c4.3,0,7.8,3.3,7.8,7.5
		C96.6,89.6,96.6,92.7,96.6,92.7z"/>
	<path class="st0" d="M60.6,39.8c3.3,0,6-2.6,6-5.8V5.8c0-3.2-2.7-5.8-6-5.8h-42c-3.3,0-6,2.6-6,5.8V34c0,3.2,2.7,5.8,6,5.8h4.2
		c0.2,0,0.3,0.1,0.3,0.3v8c0,1.5,0.9,2.8,2.3,3.4c0.5,0.2,1,0.3,1.6,0.3c1,0,1.9-0.4,2.7-1l11.1-10.3c0.5-0.4,1.1-0.7,1.7-0.7H60.6z
		 M38.4,37.9L27.2,48.2c-0.1,0.1-0.3,0.1-0.4,0.1c-0.2-0.1-0.2-0.2-0.2-0.2v-8c0-2.1-1.7-3.8-3.9-3.8h-4.2c-1.3,0-2.4-1-2.4-2.3V5.8
		c0-1.3,1.1-2.3,2.4-2.3h42c1.3,0,2.4,1,2.4,2.3V34c0,1.3-1.1,2.3-2.4,2.3h-18C41,36.3,39.5,36.8,38.4,37.9z"/>
	<path class="st0" d="M70.8,55.1v-7.2l0.1-0.1h4.7c3.1,0,5.6-2.4,5.6-5.4V17.5c0-1.4-0.6-2.8-1.6-3.8c-1.1-1-2.5-1.6-4-1.6l0,0h-2.5
		c-1,0-1.8,0.8-1.8,1.8s0.8,1.7,1.8,1.7l0,0h2.5l0,0c0.6,0,1.1,0.2,1.5,0.6s0.6,0.8,0.6,1.3v24.9c0,1.1-0.9,1.9-2.1,1.9h-4.7
		c-2,0-3.7,1.6-3.7,3.6v7.2c0,0,0,0-0.1,0.1c-0.1,0-0.2,0-0.2,0l-11.7-9.6c-1-0.8-2.3-1.3-3.6-1.3h-7.9c-1,0-1.8,0.8-1.8,1.8
		s0.8,1.8,1.8,1.8h7.9c0.5,0,1,0.2,1.4,0.5L64.7,58c0.7,0.6,1.5,0.9,2.4,0.9c0.5,0,1.1-0.1,1.6-0.4C70,57.8,70.8,56.5,70.8,55.1z"/>
	<ellipse class="st0" cx="39.6" cy="19.9" rx="3.9" ry="3.8"/>
	<ellipse class="st0" cx="50.1" cy="19.9" rx="3.9" ry="3.8"/>
	<ellipse class="st0" cx="29.1" cy="19.9" rx="3.9" ry="3.8"/>
</g>
</svg>
