<?xml version="1.0" encoding="utf-8"?>
<!-- Generator: Adobe Illustrator 24.0.2, SVG Export Plug-In . SVG Version: 6.00 Build 0)  -->
<svg version="1.1" id="Layer_1" xmlns="http://www.w3.org/2000/svg" xmlns:xlink="http://www.w3.org/1999/xlink" x="0px" y="0px"
	 viewBox="0 0 256 202.5" style="enable-background:new 0 0 256 202.5;" xml:space="preserve">
<style type="text/css">
	.st0{fill:none;stroke:#2B215F;stroke-width:10;stroke-linecap:round;stroke-linejoin:round;stroke-miterlimit:10;}
</style>
<g>
	<g>
		
			<ellipse transform="matrix(0.7071 -0.7071 0.7071 0.7071 -29.5473 120.4927)" class="st0" cx="130.7" cy="95.9" rx="53.5" ry="53.5"/>
		<polygon class="st0" points="160.1,95.9 112,68.1 112,123.7 160.1,95.9 112,68.1 112,123.7 		"/>
	</g>
	<path class="st0" d="M251,138.7v42.8c0,3-2.4,5.3-5.3,5.3h-92.7c-5.7,0-11.1,2.6-15.1,6.6l0,0c-2.7,2.7-6.2,4.1-9.8,4.1
		c-3.5,0-7.1-1.4-9.8-4.1l0,0c-4-4-9.5-6.6-15.1-6.6H10.3c-3,0-5.3-2.4-5.3-5.3V10.3C5,7.4,7.4,5,10.3,5h92.7
		c5.7,0,11.1,2.3,15.1,6.3L128,21l9.8-9.8c4-4,9.5-6.3,15.1-6.3h92.7c3,0,5.3,2.4,5.3,5.3V138.7z"/>
	<line class="st0" x1="128" y1="21" x2="128" y2="26.4"/>
	<line class="st0" x1="31.7" y1="63.8" x2="63.8" y2="63.8"/>
	<line class="st0" x1="31.7" y1="31.7" x2="85.2" y2="31.7"/>
	<line class="st0" x1="31.7" y1="160.1" x2="85.2" y2="160.1"/>
	<line class="st0" x1="31.7" y1="95.9" x2="58.5" y2="95.9"/>
	<line class="st0" x1="31.7" y1="128" x2="63.8" y2="128"/>
	<line class="st0" x1="224.3" y1="63.8" x2="192.2" y2="63.8"/>
	<line class="st0" x1="224.3" y1="31.7" x2="170.8" y2="31.7"/>
	<line class="st0" x1="224.3" y1="160.1" x2="170.8" y2="160.1"/>
	<line class="st0" x1="224.3" y1="95.9" x2="197.5" y2="95.9"/>
	<line class="st0" x1="224.3" y1="128" x2="192.2" y2="128"/>
	<line class="st0" x1="128" y1="197.5" x2="128" y2="170.8"/>
</g>
</svg>
