<?xml version="1.0" encoding="utf-8"?>
<!-- Generator: Adobe Illustrator 24.0.2, SVG Export Plug-In . SVG Version: 6.00 Build 0)  -->
<svg version="1.1" id="Layer_1" xmlns="http://www.w3.org/2000/svg" xmlns:xlink="http://www.w3.org/1999/xlink" x="0px" y="0px"
	 viewBox="0 0 256 213.2" style="enable-background:new 0 0 256 213.2;" xml:space="preserve">
<style type="text/css">
	.st0{fill:none;stroke:#2B215F;stroke-width:10;stroke-linecap:round;stroke-linejoin:round;stroke-miterlimit:10;}
</style>
<g>
	<polygon class="st0" points="162.2,79.9 106.6,47.8 106.6,112 162.2,79.9 106.6,47.8 106.6,112 	"/>
	<path class="st0" d="M240.3,5c5.9,0,10.7,4.8,10.7,10.7v149.7c0,5.9-4.8,10.7-10.7,10.7H15.7c-5.9,0-10.7-4.8-10.7-10.7V15.7
		C5,9.8,9.8,5,15.7,5H240.3z"/>
	<line class="st0" x1="63.8" y1="208.2" x2="192.2" y2="208.2"/>
	<line class="st0" x1="90.6" y1="208.2" x2="90.6" y2="176.1"/>
	<line class="st0" x1="165.4" y1="176.1" x2="165.4" y2="208.2"/>
	<line class="st0" x1="79.9" y1="149.4" x2="224.3" y2="149.4"/>
	<line class="st0" x1="31.7" y1="149.4" x2="63.8" y2="149.4"/>
	<line class="st0" x1="63.8" y1="138.7" x2="63.8" y2="160.1"/>
</g>
</svg>
