<?xml version="1.0" encoding="utf-8"?>
<!-- Generator: Adobe Illustrator 24.0.2, SVG Export Plug-In . SVG Version: 6.00 Build 0)  -->
<svg version="1.1" id="Layer_1" xmlns="http://www.w3.org/2000/svg" xmlns:xlink="http://www.w3.org/1999/xlink" x="0px" y="0px"
	 viewBox="0 0 98.2 97" style="enable-background:new 0 0 98.2 97;" xml:space="preserve">
<style type="text/css">
	.st0{fill:#2B215F;}
</style>
<g>
	<path class="st0" d="M60.1,84.7c-1.1,0-2-0.9-2-2V71.4c0-1.1,0.9-2,2-2s2,0.9,2,2v11.3C62.1,83.8,61.2,84.7,60.1,84.7z"/>
	<path class="st0" d="M38.1,84.7c-1.1,0-2-0.9-2-2V71.4c0-1.1,0.9-2,2-2c1.1,0,2,0.9,2,2v11.3C40.1,83.8,39.2,84.7,38.1,84.7z"/>
	<rect x="33.1" y="8.6" class="st0" width="32" height="4"/>
	<path class="st0" d="M26.4,20.6c-1.1,0-2-0.9-2-2V2c0-1.1,0.9-2,2-2c1.1,0,2,0.9,2,2v16.6C28.4,19.7,27.5,20.6,26.4,20.6z"/>
	<path class="st0" d="M71.7,20.6c-1.1,0-2-0.9-2-2V2c0-1.1,0.9-2,2-2c1.1,0,2,0.9,2,2v16.6C73.8,19.7,72.9,20.6,71.7,20.6z"/>
	<path class="st0" d="M91.1,8.6H78.4v4h12.7c1.7,0,3,1.4,3,3v74.3c0,1.7-1.4,3-3,3h-84c-1.7,0-3-1.4-3-3V15.6c0-1.7,1.4-3,3-3h12.7
		v-4H7.1C3.2,8.6,0,11.7,0,15.6v74.3C0,93.8,3.2,97,7.1,97h84c3.9,0,7.1-3.2,7.1-7.1V15.6C98.2,11.7,95,8.6,91.1,8.6z"/>
	<rect x="4" y="29.4" class="st0" width="90.1" height="4"/>
	<path class="st0" d="M49.1,62.2c-6.9,0-12.5-5.6-12.5-12.5c0-6.9,5.6-12.5,12.5-12.5c6.9,0,12.5,5.6,12.5,12.5
		C61.6,56.6,56,62.2,49.1,62.2z M49.1,41.1c-4.7,0-8.5,3.8-8.5,8.5c0,4.7,3.8,8.5,8.5,8.5c4.7,0,8.5-3.8,8.5-8.5
		C57.6,45,53.8,41.1,49.1,41.1z"/>
	<path class="st0" d="M38.8,56.9c-10.9,4.1-12.4,13-12.4,20.5v5.3c0,1.1,0.9,2,2,2s2-0.9,2-2v-5.3c0-7.3,1.4-14.4,11.6-17.4
		C40.8,59.2,39.7,58.1,38.8,56.9z"/>
	<path class="st0" d="M59.3,56.9c-0.9,1.2-1.9,2.3-3.2,3.2c10.2,2.9,11.6,10.1,11.6,17.4v5.3c0,1.1,0.9,2,2,2s2-0.9,2-2v-5.3
		C71.8,69.9,70.3,60.9,59.3,56.9z"/>
</g>
</svg>
