<?xml version="1.0" encoding="utf-8"?>
<!-- Generator: Adobe Illustrator 23.1.0, SVG Export Plug-In . SVG Version: 6.00 Build 0)  -->
<svg version="1.1" id="Layer_1" xmlns="http://www.w3.org/2000/svg" xmlns:xlink="http://www.w3.org/1999/xlink" x="0px" y="0px"
	 viewBox="0 0 89.9 73.5" style="enable-background:new 0 0 89.9 73.5;" xml:space="preserve">
<style type="text/css">
	.st0{fill:#2A245F;}
</style>
<g>
	<path class="st0" d="M44.3,11.5c-9,0-16.4,7.3-16.4,16.4c0,9,7.3,16.4,16.4,16.4c9,0,16.4-7.3,16.4-16.4
		C60.7,18.9,53.4,11.5,44.3,11.5z M44.3,41.2c-7.4,0-13.3-6-13.3-13.3c0-7.4,6-13.3,13.3-13.3c7.4,0,13.3,6,13.3,13.3
		C57.7,35.2,51.7,41.2,44.3,41.2z"/>
	<path class="st0" d="M39.6,19.3c-0.5,0.3-0.8,0.8-0.8,1.3v14.6c0,0.5,0.3,1,0.8,1.3c0.2,0.1,0.5,0.2,0.8,0.2s0.5-0.1,0.8-0.2
		l12.7-7.3c0.5-0.3,0.8-0.8,0.8-1.3c0-0.5-0.3-1-0.8-1.3l-12.7-7.3C40.7,19,40.1,19,39.6,19.3z M41.9,23.2l8.1,4.7l-8.1,4.7V23.2z"
		/>
	<path class="st0" d="M84.6,0H5.3C2.4,0,0,2.4,0,5.3v54.8c0,2.9,2.4,5.3,5.3,5.3h39v5h-22c-0.8,0-1.5,0.7-1.5,1.5s0.7,1.5,1.5,1.5
		h47c0.8,0,1.5-0.7,1.5-1.5s-0.7-1.5-1.5-1.5h-22v-5h37.3c2.9,0,5.3-2.4,5.3-5.3V5.3C89.9,2.4,87.6,0,84.6,0z M86.9,60.1
		c0,1.3-1,2.3-2.3,2.3H5.3c-1.3,0-2.3-1-2.3-2.3v-4.4h83.9V60.1z M86.9,52.7H3V5.3C3,4,4,3,5.3,3h79.3c1.3,0,2.3,1,2.3,2.3V52.7z"/>
</g>
</svg>
