<?xml version="1.0" encoding="utf-8"?>
<!-- Generator: Adobe Illustrator 24.0.2, SVG Export Plug-In . SVG Version: 6.00 Build 0)  -->
<svg version="1.1" id="Layer_1" xmlns="http://www.w3.org/2000/svg" xmlns:xlink="http://www.w3.org/1999/xlink" x="0px" y="0px"
	 viewBox="0 0 256 202.5" style="enable-background:new 0 0 256 202.5;" xml:space="preserve">
<style type="text/css">
	.st0{fill:none;stroke:#2B215F;stroke-width:10;stroke-linecap:round;stroke-linejoin:round;stroke-miterlimit:10;}
</style>
<g>
	<path class="st0" d="M240.3,90.6v85.6c0,3-2.4,5.3-5.3,5.3h-83.2c-4.6,0-8.7,2.9-10.1,7.3l-0.5,1.4c-1.5,4.4-5.5,7.3-10.1,7.3
		h-16.7c-4.6,0-8.7-2.9-10.1-7.3l-0.5-1.4c-1.5-4.4-5.5-7.3-10.1-7.3H10.3c-3,0-5.3-2.4-5.3-5.3V21h5.3"/>
	<g>
		<path class="st0" d="M182.6,114.1l-27.8,8.5l8.8-27.6L229,29.5c4.1-4.1,10.7-4.1,14.7,0l4.2,4.2c4.1,4.1,4.1,10.7,0,14.8
			L182.6,114.1z"/>
		<line class="st0" x1="242.2" y1="54.2" x2="223.3" y2="35.2"/>
	</g>
	<path class="st0" d="M218.9,112v42.8c0,3-2.4,5.3-5.3,5.3h-66c-5.7,0-11.1,2.3-15.1,6.3l-9.8,9.8l-9.8-9.8c-4-4-9.5-6.3-15.1-6.3
		h-66c-3,0-5.3-2.4-5.3-5.3V10.3c0-3,2.4-5.3,5.3-5.3h66c5.7,0,11.1,2.3,15.1,6.3l9.8,9.8l9.8-9.8c4-4,9.5-6.3,15.1-6.3h7.2"/>
	<line class="st0" x1="122.7" y1="21" x2="122.7" y2="149.4"/>
</g>
</svg>
