<?xml version="1.0" encoding="utf-8"?>
<!-- Generator: Adobe Illustrator 24.0.2, SVG Export Plug-In . SVG Version: 6.00 Build 0)  -->
<svg version="1.1" id="Layer_1" xmlns="http://www.w3.org/2000/svg" xmlns:xlink="http://www.w3.org/1999/xlink" x="0px" y="0px"
	 viewBox="0 0 113.5 97" style="enable-background:new 0 0 113.5 97;" xml:space="preserve">
<style type="text/css">
	.st0{fill:#2B215F;}
</style>
<g>
	<path class="st0" d="M14.4,74.2c-1.1,0-1.9-0.9-1.9-1.9V9.1c0-1.1,0.9-1.9,1.9-1.9c1.1,0,1.9,0.9,1.9,1.9v63.2
		C16.3,73.3,15.5,74.2,14.4,74.2z"/>
	<path class="st0" d="M86.5,72.9c-0.4-0.2-0.8-0.3-1.2-0.6l-1.9-1.1l-0.7-0.5v17.2c0,0.2,0,0.3,0.1,0.5c0,0.2-0.1,0.3-0.1,0.5
		c0,3.1-1.2,4.3-4.3,4.3H12.6c-8.3,0-8.7-3.6-8.7-5.4c0.2-0.7,1.7-4.4,8.7-4.4h58.9c3.7,0,6.8-3,6.8-6.8v-8.8l-3.9-2.5v11.3
		c0,1.6-1.3,2.9-2.9,2.9H12.6c-4.1,0-6.8,1-8.7,2.3v-75c0-1.6,1.3-2.9,2.9-2.9h64.7c1.6,0,2.9,1.3,2.9,2.9v3.6l3.9-2.5V6.8
		c0-3.7-3-6.8-6.8-6.8H6.8C3,0,0,3,0,6.8v80.7C0,91.8,2.2,97,12.6,97h65.9c5.2,0,8.1-3,8.1-8.1c0-0.2,0-0.3-0.1-0.5
		c0-0.2,0.1-0.3,0.1-0.5V72.9z"/>
	<path class="st0" d="M98.3,50.2c-0.4,0-0.8-0.1-1.2-0.4c-0.8-0.7-1-1.9-0.3-2.7c2.1-2.7,4-5.7,4-9.5c0-3.8-1.7-6.2-3.4-8.6
		l-0.3-0.5c-0.6-0.9-0.4-2.1,0.5-2.7c0.9-0.6,2.1-0.4,2.7,0.5l0.3,0.5c1.7,2.5,4.1,5.8,4.1,10.8c0,5.7-3.3,9.9-4.9,11.9
		C99.5,50,98.9,50.2,98.3,50.2z"/>
	<path class="st0" d="M105.4,55.7c-0.4,0-0.8-0.1-1.2-0.4c-0.8-0.7-1-1.9-0.3-2.7c2.8-3.6,5.7-8,5.7-15.1c0-6.9-2.4-10.4-5-14.1
		l-0.2-0.3c-0.6-0.9-0.4-2.1,0.5-2.7c0.9-0.6,2.1-0.4,2.7,0.5l0.2,0.3c2.7,3.8,5.7,8.2,5.7,16.3c0,8-3.1,13.2-6.5,17.5
		C106.5,55.4,105.9,55.7,105.4,55.7z"/>
	<path class="st0" d="M91.5,8.4c-1-0.6-2.2-0.5-3.2,0l-1.6,0.9c0,0-0.1,0-0.1,0.1L63.7,24.2H56c-2.9,0-5.3,2.4-5.3,5.3v16.8
		c0,2.9,2.4,5.3,5.3,5.3h7.7l22.9,14.8c0,0,0.1,0,0.1,0.1l1.6,0.9c0.5,0.3,1.1,0.5,1.7,0.5c0.5,0,1.1-0.1,1.6-0.4
		c1-0.6,1.6-1.6,1.6-2.8V11.1C93.1,10,92.4,8.9,91.5,8.4z M89.2,63.3L88.6,63L66,48.4V32.8c0-1.1-0.9-1.9-1.9-1.9
		c-1.1,0-1.9,0.9-1.9,1.9v14.8H56c-0.8,0-1.4-0.6-1.4-1.4V29.4c0-0.8,0.6-1.4,1.4-1.4h8.1c0.5,0,0.9-0.1,1.3-0.4l23.3-15.1l0.6-0.3
		V63.3z"/>
</g>
</svg>
