<?xml version="1.0" encoding="utf-8"?>
<!-- Generator: Adobe Illustrator 23.1.0, SVG Export Plug-In . SVG Version: 6.00 Build 0)  -->
<svg version="1.1" id="Layer_1" xmlns="http://www.w3.org/2000/svg" xmlns:xlink="http://www.w3.org/1999/xlink" x="0px" y="0px"
	 viewBox="0 0 98.6 96.1" style="enable-background:new 0 0 98.6 96.1;" xml:space="preserve">
<style type="text/css">
	.st0{fill:#2B215F;}
</style>
<g>
	<path class="st0" d="M63.8,14.3H27.3c-0.9,0-1.7,0.8-1.7,1.7s0.8,1.7,1.7,1.7h36.4c0.9,0,1.7-0.8,1.7-1.7S64.7,14.3,63.8,14.3z"/>
	<path class="st0" d="M63.8,24.4H27.3c-0.9,0-1.7,0.8-1.7,1.7s0.8,1.7,1.7,1.7h36.4c0.9,0,1.7-0.8,1.7-1.7S64.7,24.4,63.8,24.4z"/>
	<path class="st0" d="M65.5,36.2c0-0.9-0.8-1.7-1.7-1.7H27.3c-0.9,0-1.7,0.8-1.7,1.7s0.8,1.7,1.7,1.7h36.4
		C64.7,37.9,65.5,37.1,65.5,36.2z"/>
	<path class="st0" d="M27.3,44.6c-0.9,0-1.7,0.8-1.7,1.7s0.8,1.7,1.7,1.7h21.9c0.9,0,1.7-0.8,1.7-1.7s-0.8-1.7-1.7-1.7H27.3z"/>
	<path class="st0" d="M14.1,76c0.9,0,1.7-0.8,1.7-1.7V9.8c0-3.5,3-6.4,6.6-6.4H79c-1.5,1.7-2.4,3.9-2.4,6.4V32
		c0,0.9,0.8,1.7,1.7,1.7S80,32.9,80,32V9.8c0-3.5,3-6.4,6.6-6.4s6.6,2.9,6.6,6.4v2c0,0.2-0.2,0.3-0.4,0.3h-6.2
		c-0.9,0-1.7,0.8-1.7,1.7s0.8,1.7,1.7,1.7h6.2c2.1,0,3.8-1.7,3.8-3.7v-2c0-5.4-4.5-9.8-10-9.8H22.4c-5.5,0-10,4.4-10,9.8v64.5
		C12.4,75.2,13.2,76,14.1,76z"/>
	<path class="st0" d="M78.3,66.5c-0.9,0-1.7,0.8-1.7,1.7v18.1c0,3.5-3,6.4-6.6,6.4s-6.6-2.9-6.6-6.4v-2c0-2-1.7-3.7-3.8-3.7H3.8
		c-2.1,0-3.8,1.7-3.8,3.7v2c0,5.4,4.5,9.8,10,9.8h2.1h58c5.5,0,10-4.4,10-9.8V68.2C80,67.3,79.2,66.5,78.3,66.5z M3.4,86.4v-2
		c0-0.2,0.2-0.3,0.4-0.3h55.9c0.2,0,0.4,0.1,0.4,0.3v2c0,2.4,0.9,4.7,2.4,6.4H12.1H10C6.4,92.7,3.4,89.9,3.4,86.4z"/>
	<path class="st0" d="M96.9,33.5l-1.6-1.6c-2.2-2.2-5.9-2.2-8.1,0L61.9,56.6c-0.2,0.2-0.3,0.4-0.4,0.7L58,67.7
		c-0.2,0.6,0,1.3,0.4,1.7c0.3,0.3,0.8,0.5,1.2,0.5c0.2,0,0.3,0,0.5-0.1l10.8-3.2c0.3-0.1,0.5-0.2,0.7-0.4l25.3-24.7
		c1.1-1.1,1.7-2.5,1.7-4C98.6,36,98,34.5,96.9,33.5z M92.9,34.3l1.6,1.6c0.4,0.4,0.7,1,0.7,1.6S95,38.6,94.5,39l-1,1l-4.9-4.8l1-0.9
		C90.5,33.4,92,33.4,92.9,34.3z M69.5,63.5l-7.2,2.2l2.3-6.9l21.6-21.1l4.9,4.8L69.5,63.5z"/>
</g>
</svg>
