<?xml version="1.0" encoding="utf-8"?>
<!-- Generator: Adobe Illustrator 23.1.0, SVG Export Plug-In . SVG Version: 6.00 Build 0)  -->
<svg version="1.1" id="Layer_1" xmlns="http://www.w3.org/2000/svg" xmlns:xlink="http://www.w3.org/1999/xlink" x="0px" y="0px"
	 viewBox="0 0 75.6 99.2" style="enable-background:new 0 0 75.6 99.2;" xml:space="preserve">
<style type="text/css">
	.st0{fill:#2B215F;}
</style>
<g>
	<path class="st0" d="M73.2,54.4c-1.6-1.6-3.8-2.5-6.1-2.5s-4.5,0.9-6.1,2.5l-6.9,6.8c-0.3,0.2-0.5,0.3-0.7,0.3
		c-0.1,0-0.2,0-0.3-0.1c-0.3-0.1-0.5-0.4-0.5-0.8c0-8-6.7-14.5-14.8-14.5c-8.1,0-14.7,6.5-14.8,14.5c0,0.3-0.2,0.6-0.5,0.8
		c-0.1,0-0.2,0.1-0.3,0.1c-0.2,0-0.4-0.1-0.6-0.2l-6.9-6.8c-1.6-1.6-3.8-2.5-6.1-2.5s-4.5,0.9-6.1,2.5C0.9,56.1,0,58.3,0,60.6
		c0,2.3,0.9,4.4,2.5,6.1l19.9,19.7c0.2,0.2,0.2,0.4,0.2,0.6v10c0,1.2,1,2.2,2.2,2.2h26c1.2,0,2.2-1,2.2-2.2V87
		c0-0.2,0.1-0.4,0.2-0.6l19.9-19.7c1.6-1.6,2.5-3.8,2.5-6.1C75.7,58.2,74.8,56.1,73.2,54.4z M37.8,50.5c5.7,0,10.4,4.6,10.4,10.2
		c0,5.7-4.7,10.2-10.4,10.2s-10.4-4.6-10.4-10.2C27.4,55.1,32.1,50.5,37.8,50.5z M70.1,63.5L49.2,84.1c-0.4,0.4-0.6,1-0.6,1.5v8.3
		c0,0.5-0.4,0.8-0.8,0.8h-20c-0.5,0-0.8-0.4-0.8-0.8v-8.3c0-0.6-0.2-1.1-0.6-1.5L5.5,63.5c-1.7-1.7-1.7-4.4,0-6
		c0.8-0.8,1.9-1.2,3-1.2c1.1,0,2.2,0.4,3,1.2l17.4,17.2c0.4,0.4,1,0.6,1.5,0.6h14.5c0.6,0,1.1-0.2,1.6-0.6L64,57.5
		c0.8-0.8,1.9-1.2,3-1.2c1.2,0,2.2,0.4,3,1.2C71.7,59.2,71.7,61.9,70.1,63.5z"/>
	<path class="st0" d="M25,26.9c0.2,0.2,0.3,0.5,0.2,0.7l-2.1,12.2c-0.1,0.8,0.2,1.6,0.9,2.1c0.4,0.3,0.8,0.4,1.3,0.4
		c0.4,0,0.7-0.1,1-0.2l11.1-5.8c0.1-0.1,0.3-0.1,0.4-0.1c0.1,0,0.3,0,0.4,0.1l11.1,5.8c0.3,0.2,0.7,0.2,1,0.2c1.2,0,2.2-1,2.2-2.2
		c0-0.2,0-0.3-0.1-0.5l-2.1-12.1c0-0.3,0-0.5,0.2-0.7l9-8.7c0.6-0.6,0.8-1.4,0.6-2.2c-0.3-0.8-1-1.4-1.8-1.5l-12.4-1.8
		c-0.3,0-0.5-0.2-0.6-0.5L39.8,1.2c-0.4-0.7-1.1-1.2-2-1.2c-0.8,0-1.6,0.5-2,1.2l-5.6,11.1c-0.1,0.2-0.4,0.4-0.6,0.5l-12.4,1.7
		c-0.8,0.1-1.5,0.7-1.8,1.5s0,1.6,0.6,2.2L25,26.9z M23.2,18.5c0.1-0.3,0.4-0.5,0.7-0.6l7.9-1.1c0.7-0.1,1.3-0.5,1.7-1.2L37,8.5
		C37.1,8.2,37.4,8,37.8,8c0.3,0,0.6,0.2,0.8,0.5l3.6,7.1c0.3,0.6,0.9,1.1,1.7,1.2l7.9,1.1c0.3,0,0.6,0.3,0.7,0.6
		c0.1,0.3,0,0.6-0.2,0.8l-5.7,5.5c-0.5,0.5-0.8,1.2-0.6,1.9l1.4,7.8c0.1,0.3-0.1,0.6-0.3,0.8c-0.1,0.1-0.3,0.2-0.5,0.2
		c-0.1,0-0.3,0-0.4-0.1l-7.4-3.6c-0.3-0.2-0.7-0.2-1-0.2c-0.4,0-0.7,0.1-1,0.2l-7.1,3.7c-0.1,0.1-0.3,0.1-0.4,0.1
		c-0.2,0-0.3-0.1-0.5-0.2c-0.3-0.2-0.4-0.5-0.3-0.8l1.4-7.8c0.1-0.7-0.1-1.4-0.6-1.9l-5.8-5.5C23.2,19.1,23.1,18.8,23.2,18.5z"/>
</g>
</svg>
