<?xml version="1.0" encoding="utf-8"?>
<!-- Generator: Adobe Illustrator 24.0.2, SVG Export Plug-In . SVG Version: 6.00 Build 0)  -->
<svg version="1.1" id="Layer_1" xmlns="http://www.w3.org/2000/svg" xmlns:xlink="http://www.w3.org/1999/xlink" x="0px" y="0px"
	 viewBox="0 0 256 202.5" style="enable-background:new 0 0 256 202.5;" xml:space="preserve">
<style type="text/css">
	.st0{fill:none;stroke:#2B215F;stroke-width:10;stroke-linecap:round;stroke-linejoin:round;stroke-miterlimit:10;}
</style>
<g>
	<g>
		<ellipse class="st0" cx="79.3" cy="50" rx="14.6" ry="18.2"/>
		<path class="st0" d="M69.6,84.5H66c-12.1,0-21.9,9.8-21.9,21.9v7.3c0,8.1,6.5,14.6,14.6,14.6h12.8c5,0,9.1-4.1,9.1-9.1l0,0
			c0-5-4.1-9.1-9.1-9.1h-9.1"/>
		<path class="st0" d="M91.5,84.5h2.4c6.4,0,9.5,2.6,11.7,4.2l12.1,7.9c2,1.3,4.4,1.5,6.6,0.7l6.9-2.7c5.4-2.1,9.6,0.7,11.4,4.8
			c1.9,4.5-0.7,9.6-5,11.5l-12.3,5.6c-2.9,1.2-6.3,1.1-9.1-0.4l-13.7-6.9v29.5"/>
	</g>
	<path class="st0" d="M21,138.7v-123C21,9.8,25.8,5,31.7,5h85.6h107c5.9,0,10.7,4.8,10.7,10.7v123"/>
	<line class="st0" x1="165.4" y1="176.1" x2="90.6" y2="176.1"/>
	<path class="st0" d="M74.5,160.1H5c0,15,11.8,37.4,26.7,37.4h192.5c15,0,26.7-22.5,26.7-37.4h-69.5"/>
	<polyline class="st0" points="149.4,128 208.2,128 208.2,37.1 122.7,37.1 122.7,69.2 	"/>
</g>
</svg>
