<svg height="512pt" viewBox="-88 0 512 512.00305" width="512pt" xmlns="http://www.w3.org/2000/svg" style="fill:#2A245F;"><path d="m15.230469 290.957031v-144.566406c0-12.492187 10.164062-22.65625 22.65625-22.65625 12.492187 0 22.65625 10.164063 22.65625 22.65625v90.558594c0 4.203125 3.410156 7.613281 7.617187 7.613281 4.203125 0 7.613282-3.410156 7.613282-7.613281v-151.859375c0-12.492188 10.164062-22.65625 22.65625-22.65625 12.492187 0 22.65625 10.160156 22.65625 22.65625v139.1875c0 4.203125 3.410156 7.613281 7.613281 7.613281 4.207031 0 7.613281-3.410156 7.613281-7.613281v-186.390625c0-12.492188 10.164062-22.65625 22.660156-22.65625 12.492188 0 22.652344 10.164062 22.652344 22.65625v196.246093c0 4.203126 3.410156 7.613282 7.617188 7.613282 4.203124 0 7.613281-3.410156 7.613281-7.613282v-158.132812c0-12.492188 10.164062-22.652344 22.652343-22.652344 6.046876 0 11.738282 2.355469 16.015626 6.636719 4.28125 4.28125 6.640624 9.96875 6.640624 16.015625v108.8125c0 4.207031 3.40625 7.617188 7.613282 7.617188 4.207031 0 7.613281-3.410157 7.613281-7.617188v-108.8125c0-10.113281-3.941406-19.628906-11.097656-26.785156s-16.671875-11.097656-26.785157-11.097656c-8.488281 0-16.332031 2.804687-22.652343 7.535156v-7.765625c0-20.890625-16.992188-37.886719-37.882813-37.886719-20.894531 0-37.886718 16.996094-37.886718 37.886719v16.855469c-6.324219-4.734376-14.167969-7.539063-22.65625-7.539063-20.890626 0-37.886719 16.996094-37.886719 37.882813v30.957031c-6.324219-4.730469-14.167969-7.539063-22.65625-7.539063-20.890625 0-37.886719 16.996094-37.886719 37.886719v144.566406c0 22.703125 4.757812 46.015625 13.75 67.410157 1.226562 2.914062 4.050781 4.667968 7.023438 4.667968.984374 0 1.984374-.191406 2.949218-.597656 3.875-1.628906 5.695313-6.09375 4.066406-9.972656-8.214843-19.542969-12.558593-40.8125-12.558593-61.507813zm0 0"/><path d="m333.503906 212.441406c-3.101562-10.832031-10.234375-19.804687-20.089844-25.273437-9.851562-5.464844-21.242187-6.769531-32.070312-3.667969-10.832031 3.101562-19.804688 10.238281-25.265625 20.089844-12.015625 21.664062-18.746094 45.8125-19.632813 70.269531-44.648437 3.828125-79.8125 41.390625-79.8125 87.015625 0 4.203125 3.410157 7.613281 7.617188 7.613281s7.613281-3.410156 7.613281-7.613281c0-39.761719 32.347657-72.105469 72.105469-72.105469 2.035156 0 3.988281-.816406 5.417969-2.265625 1.429687-1.445312 2.222656-3.40625 2.195312-5.441406-.289062-24.316406 5.867188-48.550781 17.816407-70.085938 3.488281-6.292968 9.21875-10.851562 16.136718-12.832031 6.921875-1.984375 14.199219-1.148437 20.492188 2.34375 6.296875 3.492188 10.855468 9.226563 12.835937 16.144531 1.980469 6.917969 1.148438 14.191407-2.34375 20.488282-9.597656 17.3125-9.855469 52.011718-9.851562 55.867187-.003907.339844-.34375 34.0625-12.511719 67.097657-15.644531 42.476562-42.792969 64.015624-80.695312 64.015624h-90.164063c-40.078125 0-65.453125-23.503906-79.683594-43.222656-2.460937-3.40625-7.21875-4.175781-10.632812-1.714844-3.40625 2.460938-4.175781 7.21875-1.714844 10.628907 5.183594 7.183593 10.863281 13.636719 16.953125 19.332031v95.261719c0 4.207031 3.410156 7.617187 7.617188 7.617187h121.148437c4.207031 0 7.617187-3.410156 7.617187-7.617187 0-4.203125-3.410156-7.613281-7.617187-7.613281h-113.539063v-75.5625c17.8125 11.84375 38.1875 18.117187 59.847657 18.117187h90.164062c13.746094 0 26.382813-2.464844 37.8125-7.300781v64.746094h-43.824219c-4.207031 0-7.613281 3.410156-7.613281 7.613281 0 4.207031 3.40625 7.617187 7.613281 7.617187h51.4375c4.207032 0 7.617188-3.410156 7.617188-7.617187v-80.710938c18.136719-12.433593 32.363281-32.132812 42.078125-58.6875 12.996094-35.511719 13.308594-70.453125 13.316406-71.960937 0-9.511719 1.425781-36.765625 7.941407-48.519532 5.464843-9.851562 6.765624-21.238281 3.667968-32.066406zm0 0"/></svg>