<?xml version="1.0" encoding="utf-8"?>
<!-- Generator: Adobe Illustrator 23.1.0, SVG Export Plug-In . SVG Version: 6.00 Build 0)  -->
<svg version="1.1" id="Layer_1" xmlns="http://www.w3.org/2000/svg" xmlns:xlink="http://www.w3.org/1999/xlink" x="0px" y="0px"
	 viewBox="0 0 95.8 100" style="enable-background:new 0 0 95.8 100;" xml:space="preserve">
<style type="text/css">
	.st0{fill:#2B215F;}
</style>
<g>
	<path class="st0" d="M31.1,47.5c0.9,0,1.7-0.8,1.7-1.7V3.4h13.4v42.4c0,0.9,0.8,1.7,1.7,1.7s1.7-0.8,1.7-1.7V3.4H63v42.4
		c0,0.9,0.8,1.7,1.7,1.7c0.9,0,1.7-0.8,1.7-1.7V3.4h13.4v40.3c0,0.9,0.8,1.7,1.7,1.7s1.7-0.8,1.7-1.7v-42c0-0.9-0.8-1.7-1.7-1.7
		H64.7H47.9H31.1c-0.9,0-1.7,0.8-1.7,1.7v44.1C29.4,46.7,30.2,47.5,31.1,47.5z"/>
	<path class="st0" d="M37.4,10.5c-0.9,0-1.7,0.8-1.7,1.7s0.8,1.7,1.7,1.7h4.2c0.9,0,1.7-0.8,1.7-1.7s-0.8-1.7-1.7-1.7H37.4z"/>
	<path class="st0" d="M54.2,10.5c-0.9,0-1.7,0.8-1.7,1.7s0.8,1.7,1.7,1.7h4.2c0.9,0,1.7-0.8,1.7-1.7s-0.8-1.7-1.7-1.7H54.2z"/>
	<path class="st0" d="M71,10.5c-0.9,0-1.7,0.8-1.7,1.7s0.8,1.7,1.7,1.7h4.2c0.9,0,1.7-0.8,1.7-1.7s-0.8-1.7-1.7-1.7H71z"/>
	<path class="st0" d="M91,49.3c-2.8-1.3-5.9-0.7-8.5,1.5L67.1,63.2c0.7-1.9,0.6-4.1-0.2-6c-1.3-2.9-4.1-4.7-7.3-4.7H31.1
		c-4.3,0-7.9,2.9-9.6,4.7l-9.3,9.3l-3-3c-0.7-0.7-1.7-0.7-2.4,0l-6.3,6.3c-0.7,0.7-0.7,1.7,0,2.4s1.7,0.7,2.4,0L8,67.1l3,3l0,0l0,0
		L28.8,88l0,0l0,0l4,4l-5.1,5.1c-0.7,0.7-0.7,1.7,0,2.4c0.3,0.3,0.8,0.5,1.2,0.5s0.9-0.2,1.2-0.5l6.3-6.3c0.3-0.3,0.5-0.8,0.5-1.2
		s-0.2-0.9-0.5-1.2l-4-4l4.1-4.1c1-1,2.1-1.6,3-1.6h25.2c4,0,5.5-1.1,6.6-2c0.2-0.1,0.4-0.3,0.5-0.4c0.1,0,0.1-0.1,0.2-0.1l19-14.7
		c0,0,0.1,0,0.1-0.1l0.3-0.2c2-1.8,4.5-4,4.5-7.3C95.8,53.5,93.8,50.5,91,49.3z M89,61.1L70,75.9c-0.2,0.2-0.5,0.3-0.7,0.5
		c-0.9,0.6-1.8,1.3-4.6,1.3H39.5c-2.5,0-4.6,1.8-5.4,2.6l-4,4L14.6,68.9l9.3-9.3c2.3-2.4,5-3.7,7.2-3.7h28.5c1.8,0,3.4,1.1,4.2,2.7
		c0.5,1.2,0.5,2.6,0,3.8c-0.7,1.6-2.4,2.7-4.2,2.7H39.5h-2.1c-0.9,0-1.7,0.8-1.7,1.7s0.8,1.7,1.7,1.7h2.1h20.1h3.2
		c2,0,3.9-0.6,5.5-1.9l16.5-13.2c1.6-1.4,3.3-1.8,4.9-1c1.7,0.8,2.8,2.7,2.8,4C92.4,58.1,90.7,59.6,89,61.1z"/>
</g>
</svg>
