<?xml version="1.0" encoding="utf-8"?>
<!-- Generator: Adobe Illustrator 24.0.2, SVG Export Plug-In . SVG Version: 6.00 Build 0)  -->
<svg version="1.1" id="Layer_1" xmlns="http://www.w3.org/2000/svg" xmlns:xlink="http://www.w3.org/1999/xlink" x="0px" y="0px"
	 viewBox="0 0 77.9 97" style="enable-background:new 0 0 77.9 97;" xml:space="preserve">
<style type="text/css">
	.st0{fill:#2B215F;}
</style>
<g>
	<path class="st0" d="M51.5,65c-1.1,0-2-0.9-2-2V50.1c0-1.1,0.9-2,2-2s2,0.9,2,2V63C53.5,64.1,52.6,65,51.5,65z"/>
	<path class="st0" d="M26.4,65c-1.1,0-2-0.9-2-2V50.1c0-1.1,0.9-2,2-2s2,0.9,2,2V63C28.4,64.1,27.5,65,26.4,65z"/>
	<path class="st0" d="M74.9,97H3c-1.7,0-3-1.3-3-3V3c0-1.7,1.3-3,3-3h71.9c1.7,0,3,1.3,3,3v91C77.9,95.7,76.6,97,74.9,97z M4,93
		h69.9V4H4V93z"/>
	<path class="st0" d="M62.6,76.8H15.3c-1.1,0-2-0.9-2-2s0.9-2,2-2h47.2c1.1,0,2,0.9,2,2S63.7,76.8,62.6,76.8z"/>
	<path class="st0" d="M62.6,86.8H15.3c-1.1,0-2-0.9-2-2s0.9-2,2-2h47.2c1.1,0,2,0.9,2,2S63.7,86.8,62.6,86.8z"/>
	<path class="st0" d="M39,39.3c-7.7,0-14-6.3-14-14c0-7.7,6.3-14,14-14c7.7,0,14,6.3,14,14C53,33,46.7,39.3,39,39.3z M39,15.2
		c-5.5,0-10,4.5-10,10c0,5.5,4.5,10,10,10c5.5,0,10-4.5,10-10C49,19.7,44.5,15.2,39,15.2z"/>
	<path class="st0" d="M27.7,33.6c-12.7,4.5-14.4,14.7-14.4,23.3v6c0,1.1,0.9,2,2,2s2-0.9,2-2v-6c0-8.5,1.7-16.8,13.6-20.2
		C29.7,35.9,28.6,34.9,27.7,33.6z"/>
	<path class="st0" d="M50.2,33.6c-0.9,1.2-2,2.3-3.3,3.2c12,3.4,13.6,11.7,13.6,20.2v6c0,1.1,0.9,2,2,2s2-0.9,2-2v-6
		C64.6,48.4,62.8,38.2,50.2,33.6z"/>
</g>
</svg>
