<?xml version="1.0" encoding="utf-8"?>
<!-- Generator: Adobe Illustrator 24.0.2, SVG Export Plug-In . SVG Version: 6.00 Build 0)  -->
<svg version="1.1" id="Layer_1" xmlns="http://www.w3.org/2000/svg" xmlns:xlink="http://www.w3.org/1999/xlink" x="0px" y="0px"
	 viewBox="0 0 127.5 109" style="enable-background:new 0 0 127.5 109;" xml:space="preserve">
<style type="text/css">
	.st0{fill:#2B215F;}
</style>
<g>
	<path class="st0" d="M86.4,24.8c-1.8,0-3.4-1.5-3.4-3.4c0-1.8,1.5-3.4,3.4-3.4c1.8,0,3.4,1.5,3.4,3.4
		C89.8,23.3,88.3,24.8,86.4,24.8z M86.4,20.8c-0.4,0-0.6,0.3-0.6,0.6c0,0.4,0.3,0.6,0.6,0.6c0.4,0,0.6-0.3,0.6-0.6
		C87,21.1,86.8,20.8,86.4,20.8z"/>
	<path class="st0" d="M97.1,24.8c-1.8,0-3.4-1.5-3.4-3.4c0-1.8,1.5-3.4,3.4-3.4c1.8,0,3.4,1.5,3.4,3.4
		C100.4,23.3,98.9,24.8,97.1,24.8z M97.1,20.8c-0.4,0-0.6,0.3-0.6,0.6c0,0.4,0.3,0.6,0.6,0.6c0.4,0,0.6-0.3,0.6-0.6
		C97.7,21.1,97.4,20.8,97.1,20.8z"/>
	<path class="st0" d="M107.7,24.8c-1.8,0-3.4-1.5-3.4-3.4c0-1.8,1.5-3.4,3.4-3.4c1.8,0,3.4,1.5,3.4,3.4
		C111.1,23.3,109.6,24.8,107.7,24.8z M107.7,20.8c-0.4,0-0.6,0.3-0.6,0.6c0,0.4,0.3,0.6,0.6,0.6c0.4,0,0.6-0.3,0.6-0.6
		C108.4,21.1,108.1,20.8,107.7,20.8z"/>
	<g>
		<path class="st0" d="M79.3,50.9c-1,0-1.9-0.4-2.6-1.1c-0.7-0.7-1-1.7-0.9-2.7l0.7-8.9c-6.3-3.8-9.8-9.6-9.8-16.4
			C66.7,9.6,80,0,97.1,0c17,0,30.4,9.6,30.4,21.7c0,12.2-13.4,21.7-30.4,21.7c-1.1,0-2.2,0-3.4-0.1c-0.6,0-1.1,0.1-1.5,0.4
			l-11.1,6.6C80.6,50.7,79.9,50.9,79.3,50.9z M80.6,37.3l-0.7,9.1l10.3-6.2c1.2-0.7,2.5-1,3.9-0.9c1,0.1,2.1,0.1,3.1,0.1
			c14.8,0,26.4-7.8,26.4-17.7c0-9.9-11.6-17.7-26.4-17.7c-14.8,0-26.4,7.8-26.4,17.7c0,5.7,3,10.4,8.8,13.6
			C80.2,35.7,80.7,36.5,80.6,37.3z"/>
	</g>
	<g>
		<path class="st0" d="M63.4,68.8c4.7-4.7,7.3-11,7.3-17.7c0-13.9-11.3-25.2-25.2-25.2c-13.9,0-25.2,11.3-25.2,25.2
			c0,6.7,2.7,13.1,7.3,17.7C3,71.3,0,91.5,0,107c0,1.1,0.9,2,2,2c1.1,0,2-0.9,2-2c0-16.9,3.4-34.2,28.6-34.4c3.8,2.3,8.2,3.6,13,3.6
			s9.2-1.3,13-3.6c25.2,0.2,28.6,17.5,28.6,34.4c0,1.1,0.9,2,2,2s2-0.9,2-2C91.1,91.5,88.1,71.3,63.4,68.8z M24.4,51.1
			c0-11.7,9.5-21.1,21.1-21.1c11.7,0,21.1,9.5,21.1,21.1c0,11.7-9.5,21.1-21.1,21.1C33.9,72.2,24.4,62.7,24.4,51.1z"/>
		<path class="st0" d="M22.4,109c-1.1,0-2-0.9-2-2v-9.2c0-1.1,0.9-2,2-2c1.1,0,2,0.9,2,2v9.2C24.4,108.1,23.5,109,22.4,109z"/>
		<path class="st0" d="M68.7,109c-1.1,0-2-0.9-2-2v-9.2c0-1.1,0.9-2,2-2s2,0.9,2,2v9.2C70.7,108.1,69.8,109,68.7,109z"/>
	</g>
</g>
</svg>
