<?xml version="1.0" encoding="utf-8"?>
<!-- Generator: Adobe Illustrator 24.0.2, SVG Export Plug-In . SVG Version: 6.00 Build 0)  -->
<svg version="1.1" id="Layer_1" xmlns="http://www.w3.org/2000/svg" xmlns:xlink="http://www.w3.org/1999/xlink" x="0px" y="0px"
	 viewBox="0 0 256 233.6" style="enable-background:new 0 0 256 233.6;" xml:space="preserve">
<style type="text/css">
	.st0{fill:none;stroke:#2B215F;stroke-width:10;stroke-linecap:round;stroke-linejoin:round;stroke-miterlimit:10;}
</style>
<g>
	<g>
		<path class="st0" d="M239.8,5C246,5,251,10,251,16.2v167.7c0,6.2-5,11.2-11.2,11.2H16.2c-6.2,0-11.2-5-11.2-11.2V16.2
			C5,10,10,5,16.2,5H239.8z"/>
		<line class="st0" x1="60.9" y1="228.6" x2="195.1" y2="228.6"/>
		<line class="st0" x1="88.9" y1="228.6" x2="88.9" y2="195.1"/>
		<line class="st0" x1="167.1" y1="195.1" x2="167.1" y2="228.6"/>
		<line class="st0" x1="5" y1="161.5" x2="251" y2="161.5"/>
	</g>
	<line class="st0" x1="100" y1="44.1" x2="206.3" y2="44.1"/>
	<line class="st0" x1="100" y1="83.3" x2="206.3" y2="83.3"/>
	<line class="st0" x1="100" y1="122.4" x2="206.3" y2="122.4"/>
	<circle class="st0" cx="55.3" cy="122.4" r="11.2"/>
	<polyline class="st0" points="44.1,38.5 55.3,49.7 72.1,33 	"/>
	<polyline class="st0" points="44.1,77.7 55.3,88.9 72.1,72.1 	"/>
</g>
</svg>
