<?xml version="1.0" encoding="utf-8"?>
<!-- Generator: Adobe Illustrator 23.1.0, SVG Export Plug-In . SVG Version: 6.00 Build 0)  -->
<svg version="1.1" id="Layer_1" xmlns="http://www.w3.org/2000/svg" xmlns:xlink="http://www.w3.org/1999/xlink" x="0px" y="0px"
	 viewBox="0 0 98.9 68.8" style="enable-background:new 0 0 98.9 68.8;" xml:space="preserve">
<style type="text/css">
	.st0{fill:#2A245F;}
</style>
<g>
	<path class="st0" d="M17.2,17.7c1.8-0.8,5-1.8,9.8-1.8c5.4,0,9.5,1.3,12,2.3c0.2,0.1,0.4,0.1,0.6,0.1c0.6,0,1.1-0.4,1.3-0.9
		c0.3-0.7-0.1-1.6-0.8-1.8c-2.8-1.1-7.3-2.6-13.2-2.6c-5.2,0-8.8,1.1-10.9,2.1c-0.7,0.3-1,1.1-0.7,1.8C15.7,17.7,16.5,18,17.2,17.7z
		"/>
	<path class="st0" d="M17.2,31.5c1.8-0.8,5-1.8,9.8-1.8c5.4,0,9.5,1.3,12,2.3c0.2,0.1,0.4,0.1,0.6,0.1c0.6,0,1.1-0.4,1.3-0.9
		c0.3-0.7-0.1-1.6-0.8-1.8c-2.8-1.1-7.3-2.6-13.2-2.6c-5.2,0-8.8,1.1-10.9,2.1c-0.7,0.3-1,1.1-0.7,1.8
		C15.7,31.5,16.5,31.7,17.2,31.5z"/>
	<path class="st0" d="M39.6,45.9c0.6,0,1.1-0.4,1.3-0.9c0.3-0.7-0.1-1.6-0.8-1.8c-2.8-1.1-7.3-2.6-13.2-2.6c-5.2,0-8.8,1.1-10.9,2.1
		c-0.7,0.3-1,1.1-0.7,1.8c0.3,0.7,1.1,1,1.8,0.7c1.8-0.8,5-1.8,9.8-1.8c5.4,0,9.5,1.3,12,2.3C39.3,45.9,39.4,45.9,39.6,45.9z"/>
	<path class="st0" d="M59.2,18.4c0.2,0,0.4-0.1,0.6-0.1c2.5-1.1,6.7-2.3,12-2.3c4.7,0,7.9,0.9,9.8,1.8c0.7,0.4,1.6,0,1.8-0.7
		c0.4-0.7,0-1.6-0.7-1.8c-2.1-0.9-5.7-2.1-10.9-2.1c-5.9,0-10.4,1.4-13.2,2.6C58,16,57.7,16.9,58,17.6
		C58.2,18.1,58.7,18.4,59.2,18.4z"/>
	<path class="st0" d="M59.2,32.2c0.2,0,0.4-0.1,0.6-0.1c2.5-1.1,6.7-2.3,12-2.3c4.7,0,7.9,0.9,9.8,1.8c0.7,0.4,1.6,0,1.8-0.7
		c0.4-0.7,0-1.6-0.7-1.8c-2.1-0.9-5.7-2.1-10.9-2.1c-5.9,0-10.4,1.4-13.2,2.6c-0.7,0.3-1.1,1.1-0.8,1.8
		C58.2,31.8,58.7,32.2,59.2,32.2z"/>
	<path class="st0" d="M59.2,45.9c0.2,0,0.4-0.1,0.6-0.1c2.5-1.1,6.7-2.3,12-2.3c4.7,0,7.9,0.9,9.8,1.8c0.7,0.4,1.6,0,1.8-0.7
		c0.4-0.7,0-1.6-0.7-1.8c-2.1-0.9-5.7-2.1-10.9-2.1c-5.9,0-10.4,1.4-13.2,2.6c-0.7,0.3-1.1,1.1-0.8,1.8
		C58.2,45.6,58.7,45.9,59.2,45.9z"/>
	<path class="st0" d="M97.5,13.1h-4V7.8c-0.1-0.2-0.2-0.6-0.5-0.9C92.8,6.7,86.5,0,71.9,0C59.9,0,52,4.5,49.5,6.2
		C46.9,4.5,39,0,27,0C12.5,0,6.1,6.7,5.8,6.9c-0.2,0.3-0.4,0.6-0.4,1v5.2h-4c-0.8,0-1.4,0.6-1.4,1.4v52.9c0,0.8,0.6,1.4,1.4,1.4h48
		h48c0.8,0,1.4-0.6,1.4-1.4V14.5C98.9,13.7,98.3,13.1,97.5,13.1z M90.6,8.5v52.1c-3.2-2.1-9.4-5-18.7-5c-9.9,0-17.5,3.4-21,5.4V8.9
		c0,0,0-0.1,0-0.1c1.7-1.2,9.3-5.9,21-5.9C83.2,2.8,89.1,7.2,90.6,8.5z M8.4,8.5c1.5-1.3,7.4-5.7,18.8-5.7c11.3,0,18.8,4.4,20.9,5.8
		c0,0.1,0,0.2,0,0.3v52c-3.6-2-11.1-5.3-20.9-5.3c-9.4,0-15.6,3-18.8,5V8.5z M2.8,66v-50h2.6v47.5c0,0.6,0.4,1.1,0.9,1.3
		c0.5,0.2,1.1,0.1,1.6-0.3c0.1-0.1,6.7-6.1,19.2-6.1c10.7,0,18.7,4.4,21,5.8V66H2.8z M96.1,66H50.9v-1.9c2.1-1.3,10.2-5.8,21-5.8
		c12.5,0,19.1,6,19.2,6c0.3,0.3,0.6,0.4,1,0.4c0.2,0,0.4-0.1,0.6-0.1c0.5-0.2,0.9-0.7,0.9-1.3V15.9h2.6V66z"/>
</g>
</svg>
