<?xml version="1.0" encoding="utf-8"?>
<!-- Generator: Adobe Illustrator 24.0.2, SVG Export Plug-In . SVG Version: 6.00 Build 0)  -->
<svg version="1.1" id="Layer_1" xmlns="http://www.w3.org/2000/svg" xmlns:xlink="http://www.w3.org/1999/xlink" x="0px" y="0px"
	 viewBox="0 0 256 191.8" style="enable-background:new 0 0 256 191.8;" xml:space="preserve">
<style type="text/css">
	.st0{fill:none;stroke:#2B215F;stroke-width:10;stroke-linecap:round;stroke-linejoin:round;stroke-miterlimit:10;}
</style>
<g>
	<polygon class="st0" points="158.3,90.6 112,63.8 112,117.3 158.3,90.6 112,63.8 112,117.3 	"/>
	<path class="st0" d="M21,128V15.7C21,9.8,25.8,5,31.7,5h192.5c5.9,0,10.7,4.8,10.7,10.7V128"/>
	<line class="st0" x1="165.4" y1="165.4" x2="90.6" y2="165.4"/>
	<path class="st0" d="M74.5,149.4H5c0,15,11.8,37.4,26.7,37.4h192.5c15,0,26.7-22.5,26.7-37.4h-69.5"/>
	<polyline class="st0" points="47.8,122.7 47.8,31.7 208.2,31.7 208.2,122.7 	"/>
</g>
</svg>
