<?xml version="1.0" encoding="utf-8"?>
<!-- Generator: Adobe Illustrator 24.0.2, SVG Export Plug-In . SVG Version: 6.00 Build 0)  -->
<svg version="1.1" id="Layer_1" xmlns="http://www.w3.org/2000/svg" xmlns:xlink="http://www.w3.org/1999/xlink" x="0px" y="0px"
	 viewBox="0 0 213.2 256" style="enable-background:new 0 0 213.2 256;" xml:space="preserve">
<style type="text/css">
	
		.st0{fill-rule:evenodd;clip-rule:evenodd;fill:none;stroke:#2B215F;stroke-width:10;stroke-linecap:round;stroke-linejoin:round;stroke-miterlimit:10;}
	.st1{fill:none;stroke:#2B215F;stroke-width:10;stroke-linecap:round;stroke-linejoin:round;stroke-miterlimit:10;}
</style>
<g>
	<path class="st0" d="M69.2,197.5c0-26.7-15.2-38.8-22.5-53.7c0,0,0,0,0-0.1c0,0,0-0.1,0-0.1c-6.2-10.7-9.5-21-9.5-37.1
		c0-21.4,7.5-34.5,19.2-46.9c12.9-13.6,30.2-22.9,50.3-22.6c20.1-0.3,37.4,9,50.3,22.6c11.7,12.4,19.2,25.5,19.2,46.9
		c0,16-3.3,26.4-9.5,37.1c0,0,0,0,0,0.1c0,0,0,0.1,0,0.1c-7.3,14.9-22.5,27-22.5,53.7"/>
	<path class="st1" d="M112,224.3H79.9c-5.9,0-10.7-4.8-10.7-10.7v-16l74.9,0"/>
	<path class="st1" d="M144,197.5v16c0,5.9-4.8,10.7-10.7,10.7"/>
	<path class="st0" d="M79.9,224.3c0,16,10.7,26.7,26.7,26.7s26.7-10.7,26.7-26.7"/>
	<line class="st1" x1="106.6" y1="21" x2="106.6" y2="5"/>
	<line class="st1" x1="61.8" y1="31.4" x2="54.7" y2="19.4"/>
	<line class="st1" x1="30" y1="64.3" x2="18" y2="57.4"/>
	<line class="st1" x1="21" y1="106.6" x2="5" y2="106.6"/>
	<line class="st1" x1="31.2" y1="152.9" x2="19.3" y2="160.1"/>
	<line class="st1" x1="149.5" y1="30.3" x2="156.3" y2="18.1"/>
	<line class="st1" x1="182" y1="62.3" x2="193.9" y2="55.2"/>
	<line class="st1" x1="192.2" y1="106.6" x2="208.2" y2="106.6"/>
	<line class="st1" x1="183.2" y1="150.9" x2="195.3" y2="157.8"/>
	<polyline class="st1" points="85.2,181.5 85.2,106.6 106.6,63.8 128,106.6 128,181.5 	"/>
	<line class="st1" x1="85.2" y1="106.6" x2="128" y2="106.6"/>
	<line class="st1" x1="106.6" y1="106.6" x2="106.6" y2="181.5"/>
</g>
</svg>
