<?xml version="1.0" encoding="utf-8"?>
<!-- Generator: Adobe Illustrator 24.0.2, SVG Export Plug-In . SVG Version: 6.00 Build 0)  -->
<svg version="1.1" id="Capa_1" xmlns="http://www.w3.org/2000/svg" xmlns:xlink="http://www.w3.org/1999/xlink" x="0px" y="0px"
	 viewBox="0 0 512 512" style="enable-background:new 0 0 512 512;" xml:space="preserve">
<style type="text/css">
	.st0{fill:#2B215F;}
</style>
<g>
	<path class="st0" d="M432.8,151.7c-2-45.6-40-82.2-86.5-82.2c-11.8,0-23.5,2.4-34.2,7c-21.2-39-61.3-64.3-106.2-66.5
		c-32.6-1.6-64.4,9.2-89.4,30.5c-3.2,2.7-3.5,7.4-0.9,10.6s7.4,3.5,10.6,0.9c22.1-18.8,50.1-28.3,78.9-27c42,2,79.1,26.8,96.8,64.6
		c0.9,1.9,2.5,3.3,4.4,3.9s4.1,0.5,5.9-0.5c10.4-5.6,22.2-8.5,34-8.5c39.5,0,71.6,31.8,71.6,70.9c0,0.9,0,1.9-0.1,3.2
		c-0.1,2,0.7,4,2.1,5.5c1.4,1.5,3.4,2.3,5.4,2.3c0,0,0.1,0,0.2,0c39.4,0,71.5,31.8,71.5,70.9c0,0.8,0,1.7,0,2.5
		c-0.5,15.7-7.3,30.4-19,41.3c-11.7,10.9-27,17-43.1,17h-41.1v-56c0-4.1-3.3-7.4-7.4-7.5c-22.3-0.3-40.5-18.7-40.7-40.9
		c0-4.1-3.4-7.4-7.5-7.4H203.4c-4.1,0-7.5,3.3-7.5,7.4c-0.2,22.5-18.6,40.9-41.2,40.9c-0.1,0-0.1,0-0.1,0c-4.1,0-7.5,3.4-7.5,7.5v56
		H77.2c-16.1,0-31.4-6-43.1-17c-11.7-10.9-18.5-25.6-19-41.3c0-0.8,0-1.6,0-2.5c0-37.2,29.3-68.2,66.8-70.7c2.1-0.1,4.1-1.2,5.4-2.9
		c1.3-1.7,1.8-3.9,1.4-6c-1.4-7.1-2-14.4-2-21.6c0.1-22.9,7.3-45,20.8-63.7c2.4-3.4,1.6-8.1-1.7-10.5c-3.4-2.4-8.1-1.6-10.5,1.7
		C80,84.9,71.8,109.9,71.6,135.9c0,5.5,0.3,11.1,1,16.5C31.3,159.1,0,194.9,0,237.2c0,1,0,2,0.1,3c0.7,19.7,9.1,38.1,23.7,51.8
		c14.5,13.5,33.4,21,53.4,21h69.9v7.9c0,4.1,3.4,7.5,7.5,7.5s7.5-3.4,7.5-7.5v-72c24.9-3.3,44.7-23,48.3-47.9h120.8
		c1.7,12,7.1,23.1,15.8,31.8c8.7,8.7,19.7,14.3,31.7,16v101.3c0,35.7-10.8,67-63.4,103.9l-44.9,31.5L225.5,454
		c-38.1-26.7-63.4-54.5-63.4-103.9c0-4.1-3.4-7.5-7.5-7.5s-7.5,3.4-7.5,7.5v0.8c0,0.1,0,0.1,0,0.2c0.2,25.4,6.3,47.1,18.9,66.3
		c11,16.9,26.7,31.9,50.9,48.9l49.2,34.5c1.3,0.9,2.8,1.4,4.3,1.4s3-0.5,4.3-1.4l49.2-34.5c24.2-16.9,39.9-32,50.9-48.9
		c12.7-19.4,18.9-41.4,18.9-67.2V313h41.1c19.9,0,38.9-7.5,53.4-21c14.6-13.7,23.1-32.1,23.7-51.8c0-1,0.1-2,0.1-3
		C512,192.4,477.1,155.4,432.8,151.7z"/>
	<path class="st0" d="M270.7,242.1c-22.5,0-40.8,18.3-40.8,40.8v31c-9.1,3.9-15.4,12.9-15.4,23.3v47.6c0,14,11.4,25.4,25.4,25.4
		h60.9c14,0,25.4-11.4,25.4-25.4v-47.6c0-10.2-6-19-14.7-23v-31.3C311.5,260.4,293.2,242.1,270.7,242.1L270.7,242.1z M270.7,257.1
		c14.2,0,25.8,11.6,25.8,25.8v29H245v-29C245,268.7,256.5,257.1,270.7,257.1L270.7,257.1z M311.2,384.8c0,5.7-4.7,10.4-10.4,10.4
		h-60.9c-5.7,0-10.4-4.7-10.4-10.4v-47.6c0-5.7,4.7-10.4,10.4-10.4h60.9c5.7,0,10.4,4.7,10.4,10.4V384.8z"/>
	<path class="st0" d="M270.7,344.6c-4.1,0-7.5,3.4-7.5,7.5v16c0,4.1,3.4,7.5,7.5,7.5s7.5-3.4,7.5-7.5v-16
		C278.2,347.9,274.9,344.6,270.7,344.6z"/>
</g>
</svg>
