<?xml version="1.0" encoding="utf-8"?>
<!-- Generator: Adobe Illustrator 24.0.2, SVG Export Plug-In . SVG Version: 6.00 Build 0)  -->
<svg version="1.1" id="Layer_1" xmlns="http://www.w3.org/2000/svg" xmlns:xlink="http://www.w3.org/1999/xlink" x="0px" y="0px"
	 viewBox="0 0 118.7 97" style="enable-background:new 0 0 118.7 97;" xml:space="preserve">
<style type="text/css">
	.st0{fill:#2B215F;}
</style>
<g>
	<path class="st0" d="M89.7,97H28.9c-1.1,0-2-0.9-2-2c0-1.1,0.9-2,2-2h60.8c1.1,0,2,0.9,2,2C91.7,96.1,90.8,97,89.7,97z"/>
	<rect x="64.9" y="84.6" class="st0" width="3.9" height="8.5"/>
	<rect x="50.6" y="84.6" class="st0" width="3.9" height="8.5"/>
	<path class="st0" d="M104.4,14.9H79c-1.1,0-2-0.9-2-2s0.9-2,2-2h25.4c1.1,0,2,0.9,2,2S105.5,14.9,104.4,14.9z"/>
	<path class="st0" d="M104.4,26H79c-1.1,0-2-0.9-2-2s0.9-2,2-2h25.4c1.1,0,2,0.9,2,2S105.5,26,104.4,26z"/>
	<path class="st0" d="M104.9,33.4c0-0.1,0-0.1-0.1-0.2c0-0.1,0-0.1-0.1-0.2c0-0.1-0.1-0.1-0.1-0.2c0-0.1-0.1-0.1-0.1-0.2
		c0-0.1-0.1-0.1-0.1-0.2c0,0-0.1-0.1-0.1-0.1c-0.2-0.2-0.4-0.3-0.7-0.4c-0.1,0-0.1,0-0.2-0.1c-0.1,0-0.1,0-0.2-0.1
		c-0.1,0-0.3,0-0.4,0c0,0,0,0,0,0h0h0H79c-1.1,0-2,0.9-2,2v21.5c0,0,0,0,0,0.1c0,0.1,0,0.1,0,0.2c0,0.1,0,0.1,0,0.2
		c0,0.1,0,0.1,0.1,0.2c0,0.1,0,0.1,0.1,0.2c0,0.1,0.1,0.1,0.1,0.2c0,0.1,0.1,0.1,0.1,0.2c0,0.1,0.1,0.1,0.1,0.1
		c0,0.1,0.1,0.1,0.1,0.1c0,0,0.1,0.1,0.1,0.1c0.1,0,0.1,0.1,0.2,0.1c0,0,0,0,0,0c0,0,0,0,0.1,0c0.1,0.1,0.2,0.1,0.4,0.2
		c0,0,0.1,0,0.1,0c0.1,0,0.3,0.1,0.5,0.1c0,0,0,0,0,0c0,0,0,0,0,0h23.9c1.1,0,2-0.9,2-2V33.8C104.9,33.7,104.9,33.5,104.9,33.4z
		 M99.1,35.8l-5.9,8.8L89,39.8c-0.4-0.5-1-0.7-1.7-0.7c-0.6,0.1-1.2,0.4-1.5,1L81,48V35.8H99.1z M82.5,53.3l5.3-8.8l4.1,4.7
		c0.4,0.5,1,0.7,1.6,0.7c0.6,0,1.2-0.4,1.5-0.9l5.8-8.7v12.9H82.5z"/>
	<path class="st0" d="M23.5,57.6h-7.3c-1.1,0-2-0.9-2-2V34.3c0-1.1,0.9-2,2-2h7.3c1.1,0,2,0.9,2,2v21.4
		C25.5,56.7,24.6,57.6,23.5,57.6z M18.2,53.6h3.3V36.3h-3.3V53.6z"/>
	<path class="st0" d="M43.2,57.6h-7.3c-1.1,0-2-0.9-2-2V24c0-1.1,0.9-2,2-2h7.3c1.1,0,2,0.9,2,2v31.7C45.2,56.7,44.3,57.6,43.2,57.6
		z M37.8,53.6h3.3V26h-3.3V53.6z"/>
	<path class="st0" d="M63,57.6h-7.3c-1.1,0-2-0.9-2-2V12.9c0-1.1,0.9-2,2-2H63c1.1,0,2,0.9,2,2v42.7C65,56.7,64.1,57.6,63,57.6z
		 M57.7,53.6H61V14.9h-3.3V53.6z"/>
	<path class="st0" d="M111.8,84.6H6.9c-3.8,0-6.9-3.1-6.9-6.9V6.9C0,3.1,3.1,0,6.9,0h105c3.8,0,6.9,3.1,6.9,6.9v70.9
		C118.7,81.6,115.6,84.6,111.8,84.6z M6.9,3.9c-1.6,0-2.9,1.3-2.9,2.9v70.9c0,1.6,1.3,2.9,2.9,2.9h105c1.6,0,2.9-1.3,2.9-2.9V6.9
		c0-1.6-1.3-2.9-2.9-2.9H6.9z"/>
	<path class="st0" d="M114.6,65.3H4.1c-0.1,0-0.1,0-0.2,0v4c0.1,0,0.1,0,0.2,0h110.5c0.1,0,0.1,0,0.2,0v-4
		C114.7,65.3,114.6,65.3,114.6,65.3z"/>
</g>
</svg>
