<?xml version="1.0" encoding="utf-8"?>
<!-- Generator: Adobe Illustrator 24.0.2, SVG Export Plug-In . SVG Version: 6.00 Build 0)  -->
<svg version="1.1" id="Layer_1" xmlns="http://www.w3.org/2000/svg" xmlns:xlink="http://www.w3.org/1999/xlink" x="0px" y="0px"
	 viewBox="0 0 256 256" style="enable-background:new 0 0 256 256;" xml:space="preserve">
<style type="text/css">
	.st0{fill:none;stroke:#2B215F;stroke-width:10;stroke-linecap:round;stroke-linejoin:round;stroke-miterlimit:10;}
</style>
<g>
	<path class="st0" d="M122.7,197.5h-8.3c-4.6,0-8.7-2.9-10.1-7.3l-0.5-1.4c-1.5-4.4-5.5-7.3-10.1-7.3H10.3c-3,0-5.3-2.4-5.3-5.3V21
		h5.3"/>
	<polyline class="st0" points="235,21 240.3,21 240.3,109.3 	"/>
	<path class="st0" d="M122.7,176.1l-9.8-9.8c-4-4-9.5-6.3-15.1-6.3h-66c-3,0-5.3-2.4-5.3-5.3V10.3c0-3,2.4-5.3,5.3-5.3h66
		c5.7,0,24.9,16,24.9,16s19.2-16,24.9-16h66c3,0,5.3,2.4,5.3,5.3v86.7"/>
	<line class="st0" x1="122.7" y1="21" x2="122.7" y2="149.4"/>
	<line class="st0" x1="53.1" y1="53.1" x2="95.9" y2="53.1"/>
	<line class="st0" x1="53.1" y1="79.9" x2="95.9" y2="79.9"/>
	<line class="st0" x1="53.1" y1="106.6" x2="95.9" y2="106.6"/>
	<line class="st0" x1="149.4" y1="53.1" x2="192.2" y2="53.1"/>
	<g>
		<path class="st0" d="M165.4,170.8l0-74.9c0-6.3,5.3-10.7,10.7-10.7s10.7,4.4,10.7,10.7l0,53.5"/>
		<path class="st0" d="M186.8,149.4l0-24.3c0-6.3,5.3-10.7,10.7-10.7c5.3,0,10.7,4.4,10.7,10.7l0,29.6"/>
		<path class="st0" d="M208.2,136.3c0-6.3,5.3-10.7,10.7-10.7c5.3,0,10.7,4.4,10.7,10.7l-0.1,26.8"/>
		<path class="st0" d="M160.1,218.9c5.3,5.3,14.3,10.4,14.3,21.4"/>
		<path class="st0" d="M229.6,149.4c0-6.3,5.3-10.7,10.7-10.7c5.3,0,10.7,4.4,10.7,10.7l-0.1,37.5l0.1,9.5c0,6.7-1.8,12.7-4.7,17.6
			C240.2,224,235,226.2,235,235v5.3"/>
		<polyline class="st0" points="160.1,251 160.1,240.3 245.6,240.3 245.6,251 		"/>
		<path class="st0" d="M165.4,159.7c0-9.9-4.3-15.7-10.2-18.6c-5.2-2.6-11.2,1.1-11.2,6.9v44.2c0,10.7,16,26.7,16,26.7"/>
	</g>
</g>
</svg>
