<?xml version="1.0" encoding="utf-8"?>
<!-- Generator: Adobe Illustrator 24.0.2, SVG Export Plug-In . SVG Version: 6.00 Build 0)  -->
<svg version="1.1" id="Layer_1" xmlns="http://www.w3.org/2000/svg" xmlns:xlink="http://www.w3.org/1999/xlink" x="0px" y="0px"
	 viewBox="0 0 256 256" style="enable-background:new 0 0 256 256;" xml:space="preserve">
<style type="text/css">
	.st0{fill:none;stroke:#2B215F;stroke-width:10;stroke-linecap:round;stroke-linejoin:round;stroke-miterlimit:10;}
</style>
<g>
	<g>
		<path class="st0" d="M165.4,170.8l0-74.9c0-6.3,5.3-10.7,10.7-10.7c5.3,0,10.7,4.4,10.7,10.7l0,53.5"/>
		<path class="st0" d="M186.8,149.4l0-24.3c0-6.3,5.3-10.7,10.7-10.7c5.3,0,10.7,4.4,10.7,10.7l0,29.6"/>
		<path class="st0" d="M208.2,136.3c0-6.3,5.3-10.7,10.7-10.7c5.3,0,10.7,4.4,10.7,10.7l-0.1,26.8"/>
		<path class="st0" d="M160.1,218.9c5.3,5.3,14.3,10.4,14.3,21.4"/>
		<path class="st0" d="M229.6,149.4c0-6.3,5.3-10.7,10.7-10.7c5.3,0,10.7,4.4,10.7,10.7l-0.1,37.5l0.1,9.5c0,6.7-1.8,12.7-4.7,17.6
			C240.2,224,235,226.2,235,235v5.3"/>
		<polyline class="st0" points="160.1,251 160.1,240.3 245.6,240.3 245.6,251 		"/>
		<path class="st0" d="M165.4,159.7c0-9.9-4.3-15.7-10.2-18.6c-5.2-2.6-11.2,1.1-11.2,6.9v44.2c0,10.7,16,26.7,16,26.7"/>
	</g>
	<path class="st0" d="M117.3,197.5H15.7c-5.9,0-10.7-4.8-10.7-10.7v-64.2V21c0-8.9,7.2-16,16-16H235c8.9,0,16,7.2,16,16v96.3"/>
	<path class="st0" d="M224.3,106.6V31.7c0-3-2.4-5.3-5.3-5.3H42.4c-3,0-5.3,2.4-5.3,5.3v133.7c0,5.9,4.8,10.7,10.7,10.7h69.5"/>
	<line class="st0" x1="21" y1="95.9" x2="21" y2="106.6"/>
</g>
</svg>
