<?xml version="1.0" encoding="utf-8"?>
<!-- Generator: Adobe Illustrator 24.0.2, SVG Export Plug-In . SVG Version: 6.00 Build 0)  -->
<svg version="1.1" id="Layer_1" xmlns="http://www.w3.org/2000/svg" xmlns:xlink="http://www.w3.org/1999/xlink" x="0px" y="0px"
	 viewBox="0 0 256 256" style="enable-background:new 0 0 256 256;" xml:space="preserve">
<style type="text/css">
	.st0{fill:none;stroke:#2B215F;stroke-width:10;stroke-linecap:round;stroke-linejoin:round;stroke-miterlimit:10;}
</style>
<g>
	<g>
		<ellipse class="st0" cx="56.6" cy="31.7" rx="21.4" ry="26.7"/>
		<line class="st0" x1="26.4" y1="144" x2="26.4" y2="251"/>
		<line class="st0" x1="58.5" y1="251" x2="58.5" y2="170.8"/>
		<path class="st0" d="M42.4,74.5h-5.3C19.4,74.5,5,88.9,5,106.6v10.7c0,11.8,9.6,21.4,21.4,21.4h18.7c7.4,0,13.4-6,13.4-13.4l0,0
			c0-7.4-6-13.4-13.4-13.4H31.7"/>
		<path class="st0" d="M74.5,74.5H78c9.4,0,14,3.8,17.1,6.1l17.8,11.5c2.9,1.9,6.5,2.2,9.7,1l10-3.9c7.9-3,14.1,1,16.7,7.1
			c2.8,6.7-1.1,14.1-7.3,16.9l-18,8.2c-4.3,1.8-9.2,1.6-13.3-0.5l-20-10.1V251"/>
	</g>
	<polyline class="st0" points="96.9,5 251,5 251,154.7 112.2,154.7 	"/>
</g>
</svg>
