<?xml version="1.0" encoding="utf-8"?>
<!-- Generator: Adobe Illustrator 24.0.2, SVG Export Plug-In . SVG Version: 6.00 Build 0)  -->
<svg version="1.1" id="Layer_1" xmlns="http://www.w3.org/2000/svg" xmlns:xlink="http://www.w3.org/1999/xlink" x="0px" y="0px"
	 viewBox="0 0 127.2 87.3" style="enable-background:new 0 0 127.2 87.3;" xml:space="preserve">
<style type="text/css">
	.st0{fill:#2B215F;}
</style>
<g>
	<path class="st0" d="M98.8,45.5c-0.3,0-0.6-0.1-0.9-0.2c-0.7-0.3-1.1-1-1.1-1.8v-9.2H42.4c-1.1,0-2-0.9-2-2s0.9-2,2-2h56.5
		c1.1,0,2,0.9,2,2v7L122,22.7L100.8,6.1v7c0,1.1-0.9,2-2,2H48.7c-1.1,0-2-0.9-2-2s0.9-2,2-2h48.1V2c0-0.8,0.4-1.5,1.1-1.8
		c0.7-0.3,1.5-0.2,2.1,0.2l26.4,20.7c0.5,0.4,0.8,1,0.8,1.6c0,0.6-0.3,1.2-0.8,1.6L100.1,45C99.7,45.3,99.3,45.5,98.8,45.5z"/>
	<path class="st0" d="M28.4,87.3c-0.4,0-0.9-0.1-1.2-0.4L0.8,66.2c-0.5-0.4-0.8-1-0.8-1.6C0,64,0.3,63.4,0.8,63l26.4-20.7
		c0.6-0.5,1.4-0.6,2.1-0.2c0.7,0.3,1.1,1,1.1,1.8V53h47.1c1.1,0,2,0.9,2,2s-0.9,2-2,2H28.4c-1.1,0-2-0.9-2-2v-7L5.2,64.6l21.1,16.6
		v-7c0-1.1,0.9-2,2-2h57.1c1.1,0,2,0.9,2,2s-0.9,2-2,2H30.4v9.2c0,0.8-0.4,1.5-1.1,1.8C29,87.3,28.7,87.3,28.4,87.3z"/>
	<path class="st0" d="M31.2,15.4H13.9c-1.1,0-2-0.9-2-2s0.9-2,2-2h17.3c1.1,0,2,0.9,2,2S32.3,15.4,31.2,15.4z"/>
	<path class="st0" d="M119.2,76H98.9c-1.1,0-2-0.9-2-2s0.9-2,2-2h20.3c1.1,0,2,0.9,2,2S120.3,76,119.2,76z"/>
	<path class="st0" d="M32.9,34.8h-8.5c-1.1,0-2-0.9-2-2s0.9-2,2-2h8.5c1.1,0,2,0.9,2,2S34,34.8,32.9,34.8z"/>
	<path class="st0" d="M100.4,56.8H88.5c-1.1,0-2-0.9-2-2s0.9-2,2-2h11.9c1.1,0,2,0.9,2,2S101.5,56.8,100.4,56.8z"/>
</g>
</svg>
