<?xml version="1.0" encoding="utf-8"?>
<!-- Generator: Adobe Illustrator 24.0.2, SVG Export Plug-In . SVG Version: 6.00 Build 0)  -->
<svg version="1.1" id="Layer_1" xmlns="http://www.w3.org/2000/svg" xmlns:xlink="http://www.w3.org/1999/xlink" x="0px" y="0px"
	 viewBox="0 0 118.2 97" style="enable-background:new 0 0 118.2 97;" xml:space="preserve">
<style type="text/css">
	.st0{fill:#2B215F;}
</style>
<g>
	<path class="st0" d="M116.2,54.5h-2.7c-1.1,0-2-0.9-2-2s0.9-2,2-2h0.7v-8.9c0-9.9-3.2-14-11-14c-1.1,0-2-0.9-2-2c0-1.1,0.9-2,2-2
		c15,0,15,13.5,15,18v10.9C118.2,53.6,117.3,54.5,116.2,54.5z"/>
	<path class="st0" d="M98,22.3c-5.4,0-10-5.2-10-11.4c0-6,4.5-10.8,10-10.8c5.5,0,10,4.9,10,10.8C108,17,103.4,22.3,98,22.3z M98,4
		c-3.3,0-6,3.1-6,6.8c0,3.9,2.9,7.4,6,7.4c3.2,0,6-3.6,6-7.4C104,7.1,101.3,4,98,4z"/>
	<path class="st0" d="M98,86.2c-1.1,0-2-0.9-2-2V61.5c0-1.1,0.9-2,2-2c1.1,0,2,0.9,2,2v22.7C100,85.3,99.1,86.2,98,86.2z"/>
	<path class="st0" d="M87.8,86.2c-1.1,0-2-0.9-2-2V41.9c0-1.1,0.9-2,2-2s2,0.9,2,2v42.3C89.8,85.3,88.9,86.2,87.8,86.2z"/>
	<path class="st0" d="M108.1,86.2c-1.1,0-2-0.9-2-2V41.9c0-1.1,0.9-2,2-2s2,0.9,2,2v42.3C110.1,85.3,109.2,86.2,108.1,86.2z"/>
	<path class="st0" d="M4.7,54.5H2c-1.1,0-2-0.9-2-2V41.6c0-4.4,0-18,15-18c1.1,0,2,0.9,2,2c0,1.1-0.9,2-2,2c-7.8,0-11,4-11,14v8.9
		h0.7c1.1,0,2,0.9,2,2S5.8,54.5,4.7,54.5z"/>
	<path class="st0" d="M20.2,22.3c-5.4,0-10-5.2-10-11.4c0-6,4.5-10.8,10-10.8c5.5,0,10,4.9,10,10.8C30.3,17,25.7,22.3,20.2,22.3z
		 M20.2,4c-3.3,0-6,3.1-6,6.8c0,3.9,2.9,7.4,6,7.4c3.2,0,6-3.6,6-7.4C26.3,7.1,23.6,4,20.2,4z"/>
	<path class="st0" d="M20.2,86.2c-1.1,0-2-0.9-2-2V61.5c0-1.1,0.9-2,2-2c1.1,0,2,0.9,2,2v22.7C22.2,85.3,21.3,86.2,20.2,86.2z"/>
	<path class="st0" d="M30.4,86.2c-1.1,0-2-0.9-2-2V41.9c0-1.1,0.9-2,2-2c1.1,0,2,0.9,2,2v42.3C32.4,85.3,31.5,86.2,30.4,86.2z"/>
	<path class="st0" d="M10.1,86.2c-1.1,0-2-0.9-2-2V41.9c0-1.1,0.9-2,2-2s2,0.9,2,2v42.3C12.1,85.3,11.2,86.2,10.1,86.2z"/>
	<path class="st0" d="M35.5,33.8c0.8-1.5,1.7-2.7,2.7-3.8c-2.4-4.2-6.6-6.4-12.6-6.4c-1.1,0-2,0.9-2,2c0,1.1,0.9,2,2,2
		C30.8,27.7,34,29.6,35.5,33.8z"/>
	<path class="st0" d="M42.2,62.4h-3c-1.1,0-2-0.9-2-2V48.5c0-4.8,0-19.4,16.2-19.4c1.1,0,2,0.9,2,2c0,1.1-0.9,2-2,2
		c-10.7,0-12.2,7.4-12.2,15.4v9.9h1c1.1,0,2,0.9,2,2S43.3,62.4,42.2,62.4z"/>
	<path class="st0" d="M92.7,23.7c-6,0-10.2,2.1-12.6,6.4c1,1.1,1.9,2.3,2.7,3.8c1.5-4.2,4.6-6.1,10-6.1c1.1,0,2-0.9,2-2
		C94.7,24.6,93.8,23.7,92.7,23.7z"/>
	<path class="st0" d="M79,62.4h-2.9c-1.1,0-2-0.9-2-2s0.9-2,2-2H77v-9.9c0-8-1.5-15.4-12.2-15.4c-1.1,0-2-0.9-2-2c0-1.1,0.9-2,2-2
		C81,29,81,43.7,81,48.5v11.9C81,61.5,80.1,62.4,79,62.4z"/>
	<path class="st0" d="M59.1,27.2c-5.9,0-10.8-5.6-10.8-12.3c0-6.4,4.8-11.7,10.8-11.7c6,0,10.8,5.2,10.8,11.7
		C69.9,21.5,64.9,27.2,59.1,27.2z M59.1,7.2c-3.7,0-6.8,3.4-6.8,7.7c0,4.4,3.2,8.3,6.8,8.3c3.6,0,6.8-4,6.8-8.3
		C65.9,10.6,62.8,7.2,59.1,7.2z"/>
	<path class="st0" d="M59.1,97c-1.1,0-2-0.9-2-2V70.3c0-1.1,0.9-2,2-2s2,0.9,2,2V95C61.1,96.1,60.2,97,59.1,97z"/>
	<path class="st0" d="M48,97c-1.1,0-2-0.9-2-2V48.8c0-1.1,0.9-2,2-2s2,0.9,2,2V95C50,96.1,49.1,97,48,97z"/>
	<path class="st0" d="M70.2,97c-1.1,0-2-0.9-2-2V48.8c0-1.1,0.9-2,2-2c1.1,0,2,0.9,2,2V95C72.2,96.1,71.3,97,70.2,97z"/>
</g>
</svg>
