<?xml version="1.0" encoding="utf-8"?>
<!-- Generator: Adobe Illustrator 24.0.2, SVG Export Plug-In . SVG Version: 6.00 Build 0)  -->
<svg version="1.1" id="Layer_1" xmlns="http://www.w3.org/2000/svg" xmlns:xlink="http://www.w3.org/1999/xlink" x="0px" y="0px"
	 viewBox="0 0 256 234.6" style="enable-background:new 0 0 256 234.6;" xml:space="preserve">
<style type="text/css">
	.st0{fill:none;stroke:#2B215F;stroke-width:10;stroke-linecap:round;stroke-linejoin:round;stroke-miterlimit:10;}
</style>
<g>
	<line class="st0" x1="235" y1="85.2" x2="235" y2="170.8"/>
	<path class="st0" d="M21,170.8v-123c0-5.9,4.8-10.7,10.7-10.7H112"/>
	<line class="st0" x1="165.4" y1="208.2" x2="90.6" y2="208.2"/>
	<path class="st0" d="M74.5,192.2H5c0,15,11.8,37.4,26.7,37.4h192.5c15,0,26.7-22.5,26.7-37.4h-69.5"/>
	<g>
		<ellipse class="st0" cx="100.7" cy="82.1" rx="14.6" ry="18.2"/>
		<path class="st0" d="M91,116.6h-3.6c-12.1,0-21.9,9.8-21.9,21.9v7.3c0,8.1,6.5,14.6,14.6,14.6h12.8c5,0,9.1-4.1,9.1-9.1l0,0
			c0-5-4.1-9.1-9.1-9.1h-9.1"/>
		<path class="st0" d="M112.9,116.6h2.4c6.4,0,9.5,2.6,11.7,4.2l12.1,7.9c2,1.3,4.4,1.5,6.6,0.7l6.9-2.7c5.4-2.1,9.6,0.7,11.4,4.8
			c1.9,4.5-0.7,9.6-5,11.5l-12.3,5.6c-2.9,1.2-6.3,1.1-9.1-0.4l-13.7-6.9v29.5"/>
	</g>
	<path class="st0" d="M221.6,5c4.4,0,8.1,3.6,8.1,8.1v48.1c0,4.5-3.6,8.1-8.1,8.1h-28.3c-2.1,0-4.1,0.8-5.7,2.3l-20.7,20.4
		c-2.5,2.5-6.9,0.7-6.9-2.9V73.2c0-2.2-1.8-4-4-4h-9.3c-4.4,0-8.1-3.6-8.1-8.1V13.1c0-4.5,3.6-8.1,8.1-8.1H221.6z"/>
</g>
</svg>
