<?xml version="1.0" encoding="utf-8"?>
<!-- Generator: Adobe Illustrator 24.0.2, SVG Export Plug-In . SVG Version: 6.00 Build 0)  -->
<svg version="1.1" id="Layer_1" xmlns="http://www.w3.org/2000/svg" xmlns:xlink="http://www.w3.org/1999/xlink" x="0px" y="0px"
	 viewBox="0 0 139 89" style="enable-background:new 0 0 139 89;" xml:space="preserve">
<style type="text/css">
	.st0{fill:#2B215F;}
</style>
<g>
	<path class="st0" d="M123,62.4c-1.1,0-2-0.9-2-2V4H18.1v56.4c0,1.1-0.9,2-2,2c-1.1,0-2-0.9-2-2V2c0-1.1,0.9-2,2-2H123
		c1.1,0,2,0.9,2,2v58.4C125,61.5,124.1,62.4,123,62.4z"/>
	<path class="st0" d="M127.1,89H11.9C4.6,89,0,77.1,0,70.8c0-1.1,0.9-2,2-2h47.5c0.6,0,1.2,0.3,1.6,0.8l2.2,3.1h32.4l2.2-3.1
		c0.4-0.5,1-0.8,1.6-0.8H137c1.1,0,2,0.9,2,2C139,77.1,134.4,89,127.1,89z M4.1,72.8C4.9,78.3,8.6,85,11.9,85h115.2
		c3.3,0,7-6.7,7.8-12.2H90.6l-2.2,3.1c-0.4,0.5-1,0.8-1.6,0.8H52.3c-0.6,0-1.2-0.3-1.6-0.8l-2.2-3.1H4.1z"/>
	<path class="st0" d="M102.4,19.8H71.3c-1.1,0-2-0.9-2-2s0.9-2,2-2h31.1c1.1,0,2,0.9,2,2S103.5,19.8,102.4,19.8z"/>
	<path class="st0" d="M102.4,37H71.3c-1.1,0-2-0.9-2-2s0.9-2,2-2h31.1c1.1,0,2,0.9,2,2S103.5,37,102.4,37z"/>
	<path class="st0" d="M102.4,54.2H71.3c-1.1,0-2-0.9-2-2s0.9-2,2-2h31.1c1.1,0,2,0.9,2,2S103.5,54.2,102.4,54.2z"/>
	<path class="st0" d="M47.1,23.5c-0.5,0-1-0.2-1.4-0.6L42,19.3c-0.8-0.8-0.8-2,0-2.8c0.8-0.8,2-0.8,2.8,0l2.2,2.2l6.5-6.5
		c0.8-0.8,2-0.8,2.8,0c0.8,0.8,0.8,2,0,2.8l-7.9,7.9C48.1,23.3,47.6,23.5,47.1,23.5z"/>
	<path class="st0" d="M47.1,41c-0.5,0-1-0.2-1.4-0.6L42,36.8c-0.8-0.8-0.8-2,0-2.8c0.8-0.8,2-0.8,2.8,0l2.2,2.2l6.5-6.5
		c0.8-0.8,2-0.8,2.8,0c0.8,0.8,0.8,2,0,2.8l-7.9,7.9C48.1,40.8,47.6,41,47.1,41z"/>
	<path class="st0" d="M47.1,58.5L47.1,58.5c-0.5,0-1-0.2-1.4-0.6L42,54.3c-0.8-0.8-0.8-2,0-2.8c0.8-0.8,2-0.8,2.8,0l2.2,2.2l6.5-6.5
		c0.8-0.8,2-0.8,2.8,0c0.8,0.8,0.8,2,0,2.8l-7.9,7.9C48.1,58.3,47.6,58.5,47.1,58.5z"/>
</g>
</svg>
