<?xml version="1.0" encoding="utf-8"?>
<!-- Generator: Adobe Illustrator 24.0.2, SVG Export Plug-In . SVG Version: 6.00 Build 0)  -->
<svg version="1.1" id="Layer_1" xmlns="http://www.w3.org/2000/svg" xmlns:xlink="http://www.w3.org/1999/xlink" x="0px" y="0px"
	 viewBox="0 0 122.6 97" style="enable-background:new 0 0 122.6 97;" xml:space="preserve">
<style type="text/css">
	.st0{fill:#2B215F;}
</style>
<g>
	<path class="st0" d="M94.4,85.7c-1.1,0-2-0.9-2-2V21.3H81.5v62.4c0,1.1-0.9,2-2,2c-1.1,0-2-0.9-2-2V20.3c0-1.7,1.3-3,3-3h12.9
		c1.7,0,3,1.3,3,3v63.4C96.4,84.8,95.5,85.7,94.4,85.7z"/>
	<path class="st0" d="M120.6,85.7c-1.1,0-2-0.9-2-2V4h-10.9v79.7c0,1.1-0.9,2-2,2s-2-0.9-2-2V3c0-1.7,1.3-3,3-3h12.9
		c1.7,0,3,1.3,3,3v80.7C122.6,84.8,121.7,85.7,120.6,85.7z"/>
	<path class="st0" d="M120.6,93H62.3v4h58.3c1.1,0,2-0.9,2-2C122.6,93.9,121.7,93,120.6,93z"/>
	<path class="st0" d="M67.2,43.3H54.3c-1.7,0-3,1.3-3,3v16c1.5,1.2,2.9,2.4,4,3.7V47.3h10.9v36.4c0,1.1,0.9,2,2,2s2-0.9,2-2V46.3
		C70.2,44.7,68.8,43.3,67.2,43.3z"/>
	<path class="st0" d="M43.3,97c-1.1,0-2-0.9-2-2V80.3c0-1.1,0.9-2,2-2s2,0.9,2,2V95C45.3,96.1,44.4,97,43.3,97z"/>
	<path class="st0" d="M14.6,97c-1.1,0-2-0.9-2-2V80.3c0-1.1,0.9-2,2-2c1.1,0,2,0.9,2,2V95C16.6,96.1,15.7,97,14.6,97z"/>
	<path class="st0" d="M28.9,67.6c-8.7,0-15.7-7.1-15.7-15.7s7.1-15.7,15.7-15.7c8.7,0,15.7,7.1,15.7,15.7S37.6,67.6,28.9,67.6z
		 M28.9,40.2c-6.5,0-11.7,5.3-11.7,11.7s5.3,11.7,11.7,11.7c6.5,0,11.7-5.3,11.7-11.7S35.4,40.2,28.9,40.2z"/>
	<path class="st0" d="M16.6,61.7C2,66.7,0,78.3,0,88.1V95c0,1.1,0.9,2,2,2s2-0.9,2-2v-6.9c0-9.9,2-19.5,16-23.3
		C18.7,63.9,17.6,62.9,16.6,61.7z"/>
	<path class="st0" d="M41.3,61.7c-1,1.2-2.1,2.3-3.3,3.1c14,3.8,16,13.5,16,23.3V95c0,1.1,0.9,2,2,2c1.1,0,2-0.9,2-2v-6.9
		C57.9,78.3,55.9,66.7,41.3,61.7z"/>
</g>
</svg>
