<?xml version="1.0" encoding="utf-8"?>
<!-- Generator: Adobe Illustrator 24.0.2, SVG Export Plug-In . SVG Version: 6.00 Build 0)  -->
<svg version="1.1" id="Layer_1" xmlns="http://www.w3.org/2000/svg" xmlns:xlink="http://www.w3.org/1999/xlink" x="0px" y="0px"
	 viewBox="0 0 256 256" style="enable-background:new 0 0 256 256;" xml:space="preserve">
<style type="text/css">
	.st0{fill:none;stroke:#2B215F;stroke-width:10;stroke-linecap:round;stroke-linejoin:round;stroke-miterlimit:10;}
</style>
<g>
	<g>
		<path class="st0" d="M224.3,112v42.8c0,3-2.4,5.3-5.3,5.3h-66c-5.7,0-11.1,2.3-15.1,6.3l-9.8,9.8l-9.8-9.8c-4-4-9.5-6.3-15.1-6.3
			h-66c-3,0-5.3-2.4-5.3-5.3V10.3c0-3,2.4-5.3,5.3-5.3h66c5.7,0,24.9,16,24.9,16s19.2-16,24.9-16h66c3,0,5.3,2.4,5.3,5.3V112z"/>
		<line class="st0" x1="128" y1="21" x2="128" y2="149.4"/>
		<line class="st0" x1="58.5" y1="53.1" x2="101.3" y2="53.1"/>
		<line class="st0" x1="58.5" y1="79.9" x2="101.3" y2="79.9"/>
		<line class="st0" x1="58.5" y1="106.6" x2="101.3" y2="106.6"/>
		<line class="st0" x1="154.7" y1="53.1" x2="197.5" y2="53.1"/>
		<line class="st0" x1="154.7" y1="79.9" x2="197.5" y2="79.9"/>
		<line class="st0" x1="154.7" y1="106.6" x2="197.5" y2="106.6"/>
	</g>
	<g>
		<path class="st0" d="M240.3,47.8c5.9,0,10.7,4.8,10.7,10.7v149.7c0,5.9-4.8,10.7-10.7,10.7H15.7c-5.9,0-10.7-4.8-10.7-10.7V58.5
			c0-5.9,4.8-10.7,10.7-10.7"/>
		<line class="st0" x1="63.8" y1="251" x2="192.2" y2="251"/>
		<line class="st0" x1="90.6" y1="251" x2="90.6" y2="218.9"/>
		<line class="st0" x1="165.4" y1="218.9" x2="165.4" y2="251"/>
		<line class="st0" x1="5" y1="192.2" x2="251" y2="192.2"/>
	</g>
</g>
</svg>
