<?xml version="1.0" encoding="utf-8"?>
<!-- Generator: Adobe Illustrator 24.0.2, SVG Export Plug-In . SVG Version: 6.00 Build 0)  -->
<svg version="1.1" id="Layer_1" xmlns="http://www.w3.org/2000/svg" xmlns:xlink="http://www.w3.org/1999/xlink" x="0px" y="0px"
	 viewBox="0 0 95.6 97" style="enable-background:new 0 0 95.6 97;" xml:space="preserve">
<style type="text/css">
	.st0{fill:#2B215F;}
</style>
<g>
	<path class="st0" d="M11.4,56c-1.1,0-2-0.9-2-2V38.4C9.4,17.2,26.6,0,47.8,0C69,0,86.2,17.2,86.2,38.4v14.4c0,1.1-0.9,2-2,2
		s-2-0.9-2-2V38.4C82.2,19.4,66.8,4,47.8,4c-19,0-34.4,15.4-34.4,34.4V54C13.4,55.1,12.5,56,11.4,56z"/>
	<path class="st0" d="M7.7,59.1h-2c-3.2,0-5.7-2.6-5.7-5.7V39.7C0,36.6,2.6,34,5.7,34h2c3.2,0,5.7,2.6,5.7,5.7v13.7
		C13.4,56.5,10.8,59.1,7.7,59.1z M5.7,38c-1,0-1.7,0.8-1.7,1.7v13.7c0,1,0.8,1.7,1.7,1.7h2c1,0,1.7-0.8,1.7-1.7V39.7
		c0-1-0.8-1.7-1.7-1.7H5.7z"/>
	<path class="st0" d="M89.9,59.1h-2c-3.2,0-5.7-2.6-5.7-5.7V39.7c0-3.2,2.6-5.7,5.7-5.7h2c3.2,0,5.7,2.6,5.7,5.7v13.7
		C95.6,56.5,93.1,59.1,89.9,59.1z M88,38c-1,0-1.7,0.8-1.7,1.7v13.7c0,1,0.8,1.7,1.7,1.7h2c1,0,1.7-0.8,1.7-1.7V39.7
		c0-1-0.8-1.7-1.7-1.7H88z"/>
	<path class="st0" d="M51.9,97c-0.8,0-1.5-0.5-1.9-1.2c-0.4-1,0.1-2.2,1.1-2.6c6.2-2.5,31-18.1,31-43.1c0-1.1,0.9-2,2-2s2,0.9,2,2
		c0,27.5-26.4,43.9-33.5,46.8C52.5,97,52.2,97,51.9,97z"/>
	<path class="st0" d="M76.3,40.8c0-0.1,0-0.1,0-0.2c0-0.1,0-0.1,0-0.2c0-0.1,0-0.1-0.1-0.2c0-0.1,0-0.1-0.1-0.2
		c0-0.1-0.1-0.1-0.1-0.2c0-0.1-0.1-0.1-0.1-0.2c0-0.1-0.1-0.1-0.1-0.2c0,0-0.1-0.1-0.1-0.1c0,0-0.1-0.1-0.2-0.1
		c-0.1,0-0.1-0.1-0.2-0.1c-0.1,0-0.1-0.1-0.2-0.1c-0.1,0-0.1-0.1-0.2-0.1c0,0-0.1,0-0.1,0c-26.7-8.3-33.5-26.2-33.6-26.4
		c-0.4-1-1.5-1.6-2.6-1.2c-1,0.4-1.6,1.5-1.2,2.6c0.1,0.3,1.3,3.6,4.6,8c-10.6,14.2-20.9,15.6-21,15.6c-1,0.1-1.8,1-1.8,2l0,3.3
		c0,14.6,2.3,19,7.4,27.5c5.2,8.6,14.8,15.8,21.1,15.8c6.3,0,15.9-7.2,21.1-15.8C73.9,62.1,76.3,56.5,76.3,40.8
		C76.3,40.9,76.3,40.9,76.3,40.8z M65.5,68.4c-4.8,7.9-13.3,13.9-17.6,13.9c-4.4,0-12.9-5.9-17.6-13.9c-4.9-8.1-6.8-11.9-6.8-25.5
		l0-1.7c3.7-1,12.5-4.4,21.4-16.1C50,31,58.6,37.8,72.3,42.4C72.1,55.9,70.1,60.8,65.5,68.4z"/>
	<path class="st0" d="M34.9,94c0,1.7-1.4,3-3,3c-1.7,0-3-1.3-3-3c0-1.7,1.4-3,3-3C33.6,91,34.9,92.3,34.9,94z"/>
	<path class="st0" d="M24,94c0,1.7-1.3,3-3,3c-1.7,0-3-1.3-3-3c0-1.7,1.3-3,3-3C22.6,91,24,92.3,24,94z"/>
	<path class="st0" d="M13,94c0,1.7-1.4,3-3,3c-1.7,0-3-1.3-3-3c0-1.7,1.4-3,3-3C11.7,91,13,92.3,13,94z"/>
</g>
</svg>
